<svg width="75" height="55" viewBox="0 0 75 55" fill="none" xmlns="http://www.w3.org/2000/svg">
<path d="M11.5054 54.717C5.5226 56.1137 1.3423 52.0012 0 49.7704C0.671149 48.7035 3.33657 45.3475 8.62906 40.459C15.2447 34.3485 31.3522 6.41447 33.078 3.50468C34.8039 0.594887 39.406 0.303968 43.1453 0.0129894C46.8845 -0.27799 55.8012 4.37767 59.2529 8.1604C62.7045 11.9431 60.9787 15.4349 61.2663 17.4717C61.5539 19.5086 68.7448 23.2913 72.7717 26.7831C76.7986 30.2748 74.7852 34.0575 71.3335 36.3854C67.8819 38.7132 44.2958 52.0982 37.3926 51.5163C30.4893 50.9343 18.9839 52.9712 11.5054 54.717Z" fill="#D7D7D7"/>
</svg>
