<svg width="99" height="48" viewBox="0 0 99 48" fill="none" xmlns="http://www.w3.org/2000/svg">
<path d="M27.8727 43.6886C24.9992 45.7006 5.74695 48 0 48C0 43.1138 14.9421 24.1437 17.5282 20.982C20.1143 17.8203 20.689 14.6587 19.5396 12.3593C18.6201 10.5198 8.81198 3.35329 4.02286 0C33.3323 0.862275 66.6646 10.9221 71.5495 12.3593C76.4344 13.7964 95.6866 15.8084 97.6981 16.3832C99.7095 16.9581 99.1348 25.2934 97.6981 27.3054C96.2613 29.3173 87.3536 32.1916 84.4801 33.0539C81.6066 33.9161 79.5952 37.6527 78.7332 39.9521C77.8711 42.2515 68.3887 43.6886 64.3658 43.6886C60.3429 43.6886 59.4809 41.6767 56.6074 39.9521C53.7339 38.2276 36.7805 39.9521 33.907 39.9521C31.0335 39.9521 30.7462 41.6767 27.8727 43.6886Z" fill="#D7D7D7"/>
</svg>
