<svg width="79" height="48" viewBox="0 0 79 48" fill="none" xmlns="http://www.w3.org/2000/svg">
<path d="M1.63741 12.105L0.447266 1.23145C29.8478 -1.98652 54.5252 3.42058 60.129 8.01958C65.7329 12.6186 77.5043 26.9672 78.8749 29.1338C80.2455 31.3004 69.2701 42.3472 67.3101 42.5618C65.35 42.7763 62.8889 38.4125 60.5862 38.0854C58.2835 37.7582 51.009 46.373 48.8316 47.1905C46.6542 48.0079 45.3131 43.5215 42.8851 42.0498C40.4572 40.5781 45.2154 37.4511 44.3109 34.3648C43.4063 31.2785 37.6515 33.0667 34.3798 26.475C31.1081 19.8833 30.3896 15.9078 25.2555 15.6011C21.1483 15.3556 11.6821 19.3068 7.46236 21.313L6.3975 11.584L1.63741 12.105Z" fill="#D7D7D7"/>
</svg>
