<svg width="67" height="59" viewBox="0 0 67 59" fill="none" xmlns="http://www.w3.org/2000/svg">
<path d="M23.0561 59C18.4391 59 6.31944 53.2349 0.836728 50.3523C-1.18331 47.4698 0.836728 42.5694 2.85677 36.8043C4.87681 31.0392 2.85667 28.1566 0.836728 21.5267C-1.18322 14.8968 2.27955 7.11396 6.31944 2.50186C9.55135 -1.18781 17.2848 0.00364658 20.7476 1.06058L39.5042 2.50186C46.526 9.42 61.3774 23.8328 64.6093 26.1388C67.8412 28.4449 67.1102 30.1744 66.3407 30.7509C63.3588 33.3452 54.9135 40.5516 44.9869 48.6228C32.5787 58.7117 28.8274 59 23.0561 59Z" fill="#D7D7D7"/>
</svg>
