<svg width="79" height="86" viewBox="0 0 79 86" fill="none" xmlns="http://www.w3.org/2000/svg">
<path d="M13.0447 79.8276C10.9575 76.8428 13.3274 49.3977 11.5953 45.3876C2.89884 37.9255 1.64262 26.4455 0 18.6965L20.2919 0.902482C22.611 1.47645 27.8289 1.76351 29.5682 0.328512C31.3075 -1.10649 73.3407 2.62452 74.5002 2.62452C77.6889 5.78152 80.008 11.8085 78.5586 13.8175C77.1092 15.8265 66.6733 29.3156 66.6733 34.1946C66.6733 39.0736 74.5002 54.2846 74.5002 56.5806C74.5002 58.8766 71.0216 59.7376 67.543 61.4596C64.0644 63.1816 46.0916 73.5136 39.1343 76.6706C32.1771 79.8276 29.8581 83.8456 23.1907 85.5676C16.5234 87.2896 15.6537 83.5586 13.0447 79.8276Z" fill="#D7D7D7"/>
</svg>
