<svg width="130" height="91" viewBox="0 0 130 91" fill="none" xmlns="http://www.w3.org/2000/svg">
<path d="M97.3049 3.70857C106.057 3.93918 111.361 7.12229 114.707 10.0049C119.486 14.1221 123.896 19.6733 126.921 27.3818C131.585 39.2633 130.107 48.4447 127.983 58.4496C126.284 66.4535 112.583 76.3531 99.8376 81.6188C77.4553 90.8661 54.6962 92.2044 45.4835 90.1865C36.2709 88.1687 27.9221 86.1509 18.9973 84.1331C10.0726 82.1152 -2.88271 68.2788 0.572036 64.8197C4.02678 61.3605 12.6636 37.435 12.9515 34.2641C13.2394 31.0932 25.331 15.239 32.2405 7.74421C39.15 0.249455 53.5448 -0.903585 65.0606 0.537715C76.5764 1.97901 86.3649 3.42031 97.3049 3.70857Z" fill="#D7D7D7"/>
</svg>
