<svg width="66" height="61" viewBox="0 0 66 61" fill="none" xmlns="http://www.w3.org/2000/svg">
<path d="M47.4002 0.0194396C45.3566 -0.209595 16.2731 1.64177 1.98683 2.59608C1.32456 7.36767 0 17.4262 0 19.4875C0 22.0641 4.54133 22.3504 5.67667 26.0722C6.812 29.7941 9.3665 38.9554 13.0563 40.9595C16.7462 42.9635 18.4492 48.1168 18.4492 50.4072C18.4492 52.6975 26.3965 61 29.8025 61C33.2085 61 38.0337 55.8467 41.1558 55.8467C44.278 55.8467 49.6708 57.2782 53.6445 55.8467C57.6182 54.4153 60.1727 38.6691 62.1595 37.524C64.1463 36.3788 66.1332 32.3707 64.714 30.9392C63.2948 29.5078 63.2948 24.6408 64.714 19.4875C66.1332 14.3342 66.7008 12.6165 64.714 8.60836C62.7272 4.60026 49.9547 0.305733 47.4002 0.0194396Z" fill="#D7D7D7"/>
</svg>
