<svg width="69" height="42" viewBox="0 0 69 42" fill="none" xmlns="http://www.w3.org/2000/svg">
<path d="M1.06564 10.3378C-3.07952 4.90309 5.86328 1.18147 10.8528 0C16.0345 0 32.442 3.83977 38.1992 4.72587C43.9563 5.61197 50.0013 8.56563 53.7435 10.3378C56.7372 11.7556 65.1619 12.3069 69 12.4054C68.0405 17.8205 65.5457 30.1865 63.2428 36.3301C60.3643 44.0096 56.9099 42.2374 53.7435 40.4652C50.5771 38.693 50.0013 29.2413 47.9863 28.6506C45.9713 28.0598 45.6835 30.4228 41.3656 36.3301C37.0477 42.2374 26.9727 41.3513 21.7912 40.4652C16.6098 39.5791 10.8528 27.4691 10.8528 22.4479C10.8528 17.4266 6.24709 17.1313 1.06564 10.3378Z" fill="#D7D7D7"/>
</svg>
