<svg width="115" height="75" viewBox="0 0 115 75" fill="none" xmlns="http://www.w3.org/2000/svg">
<path d="M1.00854 62.0218C0.550333 61.5645 1.77222 60.4974 2.44043 60.0211C14.3729 47.6358 39.2116 22.1221 43.1063 19.1496C47.0011 16.1771 62.8665 5.14467 70.3123 0H114.415V14.2907H106.396C102.1 14.2907 90.0725 12.29 82.913 11.1467C75.7535 10.0035 71.4578 10.5751 67.1622 11.1467C62.8665 11.7184 57.1389 14.0049 52.8432 16.2914C48.5475 18.5779 42.2472 27.1524 35.3741 36.0126C28.501 44.8729 19.6232 67.7381 19.0505 70.5962C18.5923 72.8827 16.7594 73.8354 15.9003 74.026C11.1273 70.2151 1.46675 62.4791 1.00854 62.0218Z" fill="#D7D7D7"/>
</svg>
