<svg width="111" height="65" viewBox="0 0 111 65" fill="none" xmlns="http://www.w3.org/2000/svg">
<path d="M16.3075 29.361L17.1856 28.8825L16.3075 29.361ZM23.2376 44.7667L24.1299 44.3152L23.2376 44.7667ZM44.0279 63.5958L43.8341 64.5769L44.0279 63.5958ZM70.882 45.9079L70.1362 45.2417L70.882 45.9079ZM0.393548 13.0555C0.781537 13.4486 1.41469 13.4527 1.80773 13.0647C2.20078 12.6767 2.20487 12.0436 1.81689 11.6505L0.393548 13.0555ZM6.4814 16.4642C6.10052 16.0642 5.46755 16.0488 5.06761 16.4297C4.66768 16.8105 4.65223 17.4435 5.03311 17.8435L6.4814 16.4642ZM5.79876 18.6499C6.17842 19.051 6.81135 19.0683 7.21245 18.6887C7.61354 18.309 7.63092 17.6761 7.25126 17.275L5.79876 18.6499ZM11.8102 22.2018C11.4409 21.7912 10.8086 21.7577 10.398 22.127C9.98734 22.4963 9.95385 23.1286 10.3232 23.5392L11.8102 22.2018ZM11.0602 24.3641C11.4267 24.7772 12.0588 24.8149 12.4719 24.4483C12.885 24.0817 12.9227 23.4497 12.5561 23.0366L11.0602 24.3641ZM16.8622 28.3452C16.5615 27.882 15.9422 27.7503 15.479 28.0511C15.0157 28.3518 14.884 28.9711 15.1848 29.4343L16.8622 28.3452ZM15.6998 30.3498C15.9534 30.8404 16.5567 31.0325 17.0474 30.7789C17.538 30.5253 17.7301 29.922 17.4764 29.4314L15.6998 30.3498ZM20.539 36.069C20.3182 35.5628 19.7289 35.3314 19.2226 35.5522C18.7164 35.773 18.485 36.3624 18.7058 36.8686L20.539 36.069ZM19.1858 37.9736C19.4051 38.4804 19.9938 38.7135 20.5007 38.4942C21.0075 38.2748 21.2406 37.6861 21.0213 37.1793L19.1858 37.9736ZM23.8911 43.8111C23.6617 43.3088 23.0685 43.0875 22.5661 43.3169C22.0637 43.5463 21.8424 44.1395 22.0718 44.6419L23.8911 43.8111ZM22.5224 45.6253C22.732 46.1363 23.3162 46.3806 23.8271 46.171C24.3381 45.9614 24.5824 45.3772 24.3728 44.8663L22.5224 45.6253ZM27.0278 50.4082C26.7449 49.9339 26.1311 49.7787 25.6568 50.0616C25.1824 50.3445 25.0272 50.9584 25.3101 51.4327L27.0278 50.4082ZM25.8815 52.3547C26.1804 52.8191 26.7992 52.9533 27.2636 52.6544C27.728 52.3555 27.8622 51.7367 27.5632 51.2723L25.8815 52.3547ZM31.3873 55.9848C30.9921 55.5989 30.359 55.6064 29.9731 56.0016C29.5873 56.3967 29.5948 57.0298 29.9899 57.4157L31.3873 55.9848ZM30.7852 58.1617C31.1956 58.5313 31.8279 58.4982 32.1975 58.0878C32.5671 57.6774 32.534 57.0451 32.1236 56.6755L30.7852 58.1617ZM37.0745 60.1272C36.5856 59.8703 35.9811 60.0583 35.7241 60.5472C35.4672 61.0361 35.6553 61.6407 36.1442 61.8976L37.0745 60.1272ZM37.1224 62.3862C37.6215 62.6227 38.2178 62.4099 38.4543 61.9108C38.6909 61.4118 38.4781 60.8155 37.979 60.5789L37.1224 62.3862ZM43.7186 62.5108C43.1788 62.3942 42.6466 62.7373 42.53 63.2771C42.4134 63.8169 42.7565 64.3491 43.2964 64.4657L43.7186 62.5108ZM44.3482 64.6726C44.8922 64.7678 45.4103 64.4039 45.5055 63.8598C45.6006 63.3158 45.2367 62.7977 44.6927 62.7025L44.3482 64.6726ZM50.2755 62.8519C49.7281 62.9255 49.3441 63.4289 49.4178 63.9763C49.4914 64.5237 49.9949 64.9077 50.5422 64.834L50.2755 62.8519ZM51.5717 64.6653C52.1139 64.5604 52.4684 64.0358 52.3635 63.4936C52.2586 62.9514 51.734 62.5968 51.1917 62.7018L51.5717 64.6653ZM56.3859 60.7341C55.908 61.011 55.7451 61.6228 56.022 62.1007C56.2989 62.5785 56.9107 62.7414 57.3886 62.4646L56.3859 60.7341ZM58.2709 61.9237C58.7346 61.6236 58.8673 61.0045 58.5672 60.5408C58.2672 60.0771 57.6481 59.9445 57.1844 60.2445L58.2709 61.9237ZM61.5186 56.5892C61.1373 56.9887 61.152 57.6217 61.5515 58.0031C61.951 58.3844 62.5839 58.3697 62.9653 57.9702L61.5186 56.5892ZM63.6555 57.2255C64.0251 56.8151 63.992 56.1828 63.5816 55.8132C63.1712 55.4436 62.5389 55.4767 62.1693 55.8871L63.6555 57.2255ZM65.7508 51.3307C65.4317 51.7815 65.5386 52.4056 65.9894 52.7246C66.4402 53.0437 67.0643 52.9368 67.3833 52.486L65.7508 51.3307ZM67.9544 51.6705C68.2692 51.2167 68.1565 50.5936 67.7027 50.2789C67.2489 49.9641 66.6258 50.0767 66.3111 50.5305L67.9544 51.6705ZM69.794 45.6404C69.4417 46.0657 69.5009 46.6961 69.9263 47.0484C70.3517 47.4007 70.982 47.3414 71.3343 46.916L69.794 45.6404ZM71.9686 46.1889C72.3331 45.774 72.2922 45.1422 71.8773 44.7777C71.4624 44.4132 70.8306 44.454 70.4661 44.8689L71.9686 46.1889ZM74.593 40.0625C74.235 40.4831 74.2859 41.1142 74.7065 41.4722C75.1271 41.8301 75.7582 41.7792 76.1161 41.3586L74.593 40.0625ZM76.8031 40.5508C77.1608 40.1299 77.1096 39.4988 76.6887 39.1412C76.2679 38.7835 75.6368 38.8347 75.2791 39.2556L76.8031 40.5508ZM79.3827 34.4156C79.0259 34.8371 79.0784 35.4681 79.4999 35.8249C79.9215 36.1817 80.5525 36.1292 80.9093 35.7077L79.3827 34.4156ZM81.5979 34.894C81.9546 34.4724 81.902 33.8414 81.4804 33.4847C81.0588 33.128 80.4278 33.1805 80.0711 33.6022L81.5979 34.894ZM84.1659 28.7592C83.8094 29.181 83.8624 29.812 84.2842 30.1685C84.706 30.525 85.337 30.472 85.6935 30.0502L84.1659 28.7592ZM86.379 29.2391C86.7354 28.8172 86.6825 28.1863 86.2606 27.8298C85.8388 27.4733 85.2078 27.5263 84.8514 27.9481L86.379 29.2391ZM88.9472 23.1013C88.5907 23.5231 88.6436 24.154 89.0655 24.5105C89.4873 24.867 90.1182 24.8141 90.4747 24.3923L88.9472 23.1013ZM91.1577 23.5842C91.5143 23.1624 91.4613 22.5314 91.0395 22.1749C90.6177 21.8184 89.9868 21.8713 89.6303 22.2931L91.1577 23.5842ZM93.7307 17.4444C93.3739 17.8659 93.4265 18.4969 93.8481 18.8537C94.2696 19.2105 94.9006 19.1579 95.2574 18.7363L93.7307 17.4444ZM95.9383 17.9318C96.2951 17.5103 96.2427 16.8793 95.8211 16.5225C95.3996 16.1656 94.7686 16.2181 94.4118 16.6396L95.9383 17.9318ZM98.5189 11.7939C98.1614 12.2149 98.213 12.846 98.6341 13.2034C99.0551 13.5608 99.6862 13.5092 100.044 13.0882L98.5189 11.7939ZM100.729 12.2805C101.087 11.8596 101.036 11.2285 100.615 10.871C100.194 10.5134 99.5627 10.5648 99.2051 10.9857L100.729 12.2805ZM103.328 6.14716C102.969 6.56682 103.018 7.19808 103.438 7.5571C103.857 7.91613 104.488 7.86697 104.847 7.44731L103.328 6.14716ZM105.525 6.65616C105.884 6.23686 105.836 5.60555 105.417 5.2461C104.997 4.88666 104.366 4.93518 104.007 5.35448L105.525 6.65616ZM108.198 0.537718C107.827 0.946975 107.859 1.57937 108.268 1.95022C108.677 2.32107 109.309 2.28993 109.68 1.88067L108.198 0.537718ZM0.00456744 12.6623C0.130461 12.7893 0.260213 12.9205 0.393548 13.0555L1.81689 11.6505C1.68265 11.5145 1.55197 11.3824 1.42512 11.2544L0.00456744 12.6623ZM5.03311 17.8435C5.28684 18.1099 5.54233 18.3789 5.79876 18.6499L7.25126 17.275C6.99338 17.0026 6.73648 16.732 6.4814 16.4642L5.03311 17.8435ZM10.3232 23.5392C10.5737 23.8178 10.8197 24.093 11.0602 24.3641L12.5561 23.0366C12.3125 22.762 12.0635 22.4834 11.8102 22.2018L10.3232 23.5392ZM15.1848 29.4343C15.2865 29.5911 15.3676 29.726 15.4295 29.8396L17.1856 28.8825C17.093 28.7125 16.9837 28.5324 16.8622 28.3452L15.1848 29.4343ZM15.4295 29.8396C15.5151 29.9967 15.6054 30.1671 15.6998 30.3498L17.4764 29.4314C17.3765 29.238 17.2794 29.0545 17.1856 28.8825L15.4295 29.8396ZM18.7058 36.8686C18.8668 37.2377 19.0271 37.6069 19.1858 37.9736L21.0213 37.1793C20.862 36.8111 20.7009 36.4401 20.539 36.069L18.7058 36.8686ZM22.0718 44.6419C22.1765 44.8711 22.2692 45.0677 22.3454 45.2182L24.1299 44.3152C24.0718 44.2004 23.9922 44.0324 23.8911 43.8111L22.0718 44.6419ZM22.3454 45.2182C22.381 45.2887 22.4365 45.4157 22.5224 45.6253L24.3728 44.8663C24.2892 44.6624 24.2062 44.4659 24.1299 44.3152L22.3454 45.2182ZM25.3101 51.4327C25.4907 51.7354 25.681 52.0432 25.8815 52.3547L27.5632 51.2723C27.3755 50.9806 27.1972 50.6922 27.0278 50.4082L25.3101 51.4327ZM29.9899 57.4157C30.2467 57.6665 30.5118 57.9154 30.7852 58.1617L32.1236 56.6755C31.8706 56.4477 31.6252 56.2172 31.3873 55.9848L29.9899 57.4157ZM36.1442 61.8976C36.4632 62.0652 36.7892 62.2282 37.1224 62.3862L37.979 60.5789C37.6708 60.4328 37.3694 60.2821 37.0745 60.1272L36.1442 61.8976ZM43.2964 64.4657C43.4742 64.5041 43.6534 64.5412 43.8341 64.5769L44.2218 62.6148C44.0526 62.5814 43.8849 62.5467 43.7186 62.5108L43.2964 64.4657ZM43.8341 64.5769C44.0064 64.6109 44.1777 64.6428 44.3482 64.6726L44.6927 62.7025C44.5368 62.6753 44.3798 62.646 44.2218 62.6148L43.8341 64.5769ZM50.5422 64.834C50.8905 64.7871 51.2336 64.7308 51.5717 64.6653L51.1917 62.7018C50.8911 62.7599 50.5857 62.8101 50.2755 62.8519L50.5422 64.834ZM57.3886 62.4646C57.6884 62.2909 57.9824 62.1103 58.2709 61.9237L57.1844 60.2445C56.9226 60.4139 56.6564 60.5773 56.3859 60.7341L57.3886 62.4646ZM62.9653 57.9702C63.2001 57.7242 63.4301 57.4757 63.6555 57.2255L62.1693 55.8871C61.9563 56.1237 61.7394 56.3579 61.5186 56.5892L62.9653 57.9702ZM67.3833 52.486C67.5781 52.2107 67.7684 51.9385 67.9544 51.6705L66.3111 50.5305C66.1279 50.7945 65.9412 51.0615 65.7508 51.3307L67.3833 52.486ZM71.3343 46.916C71.4348 46.7947 71.5326 46.6806 71.6279 46.574L70.1362 45.2417C70.0223 45.3693 69.9082 45.5024 69.794 45.6404L71.3343 46.916ZM71.6279 46.574C71.7287 46.4611 71.8425 46.3324 71.9686 46.1889L70.4661 44.8689C70.3425 45.0095 70.2324 45.134 70.1362 45.2417L71.6279 46.574ZM76.1161 41.3586C76.3394 41.0962 76.5685 40.8268 76.8031 40.5508L75.2791 39.2556C75.0448 39.5313 74.8159 39.8005 74.593 40.0625L76.1161 41.3586ZM80.9093 35.7077C81.1365 35.4392 81.3661 35.168 81.5979 34.894L80.0711 33.6022C79.8394 33.876 79.6098 34.1472 79.3827 34.4156L80.9093 35.7077ZM85.6935 30.0502C85.921 29.7809 86.1496 29.5105 86.379 29.2391L84.8514 27.9481C84.622 28.2196 84.3935 28.49 84.1659 28.7592L85.6935 30.0502ZM90.4747 24.3923C90.7024 24.1229 90.9301 23.8535 91.1577 23.5842L89.6303 22.2931C89.4026 22.5624 89.1749 22.8319 88.9472 23.1013L90.4747 24.3923ZM95.2574 18.7363C95.4853 18.4671 95.7123 18.1988 95.9383 17.9318L94.4118 16.6396C94.1857 16.9067 93.9586 17.175 93.7307 17.4444L95.2574 18.7363ZM100.044 13.0882C100.274 12.8162 100.503 12.5469 100.729 12.2805L99.2051 10.9857C98.9787 11.2522 98.7499 11.5217 98.5189 11.7939L100.044 13.0882ZM104.847 7.44731C105.079 7.17676 105.305 6.91291 105.525 6.65616L104.007 5.35448C103.786 5.61178 103.56 5.87615 103.328 6.14716L104.847 7.44731ZM109.68 1.88067C109.811 1.73656 109.923 1.61522 110.015 1.51688L108.558 0.147181C108.454 0.257179 108.334 0.388032 108.198 0.537718L109.68 1.88067Z" fill="#AAAAAA"/>
</svg>
