<svg width="120" height="133" viewBox="0 0 120 133" fill="none" xmlns="http://www.w3.org/2000/svg">
<path d="M25.3206 14.5653L25.9665 13.8019L25.3206 14.5653ZM48.4876 41.6003L49.2595 40.9645L48.4876 41.6003ZM72.2339 64.0336L71.8422 64.9538L72.2339 64.0336ZM95.9801 85.8917L95.0343 86.2164L95.9801 85.8917ZM102.351 107.75L103.249 107.31L102.351 107.75ZM0.531754 2.73386C1.04853 2.92869 1.6254 2.6677 1.82023 2.15092C2.01506 1.63414 1.75407 1.05727 1.23729 0.862438L0.531754 2.73386ZM6.87426 3.14996C6.36705 2.93144 5.77872 3.16548 5.5602 3.67269C5.34168 4.17991 5.57572 4.76823 6.08293 4.98675L6.87426 3.14996ZM7.0007 5.38574C7.50646 5.60761 8.09632 5.37746 8.31818 4.8717C8.54005 4.36594 8.3099 3.77608 7.80414 3.55422L7.0007 5.38574ZM13.3196 6.1109C12.8238 5.86764 12.2246 6.07237 11.9813 6.5682C11.7381 7.06402 11.9428 7.66317 12.4386 7.90643L13.3196 6.1109ZM13.3329 8.34972C13.8267 8.59706 14.4275 8.39726 14.6749 7.90346C14.9222 7.40966 14.7224 6.80884 14.2286 6.5615L13.3329 8.34972ZM19.6011 9.45265C19.1241 9.17441 18.5118 9.3356 18.2335 9.81268C17.9553 10.2898 18.1165 10.9021 18.5936 11.1803L19.6011 9.45265ZM19.4471 11.6861C19.9201 11.9712 20.5346 11.8188 20.8197 11.3457C21.1047 10.8727 20.9523 10.2581 20.4793 9.97311L19.4471 11.6861ZM25.5669 13.4706C25.1384 13.1221 24.5086 13.187 24.1601 13.6155C23.8117 14.044 23.8766 14.6739 24.3051 15.0223L25.5669 13.4706ZM25.048 15.6488C25.465 16.011 26.0966 15.9665 26.4587 15.5495C26.8209 15.1325 26.7764 14.5009 26.3594 14.1388L25.048 15.6488ZM30.8132 18.4683C30.4341 18.0667 29.8012 18.0486 29.3996 18.4277C28.998 18.8069 28.9799 19.4398 29.359 19.8414L30.8132 18.4683ZM30.0481 20.5789C30.4231 20.9844 31.0558 21.0091 31.4612 20.6342C31.8667 20.2592 31.8914 19.6265 31.5165 19.221L30.0481 20.5789ZM35.5852 23.8414C35.2287 23.4196 34.5977 23.3668 34.176 23.7234C33.7542 24.08 33.7014 24.7109 34.058 25.1327L35.5852 23.8414ZM34.7103 25.9084C35.0647 26.3321 35.6953 26.3882 36.119 26.0339C36.5426 25.6795 36.5987 25.0489 36.2444 24.6252L34.7103 25.9084ZM40.1209 29.3812C39.7765 28.9495 39.1473 28.8787 38.7155 29.2232C38.2838 29.5676 38.213 30.1968 38.5574 30.6285L40.1209 29.3812ZM39.1905 31.4242C39.5338 31.8569 40.1628 31.9293 40.5954 31.586C41.0281 31.2427 41.1005 30.6137 40.7572 30.1811L39.1905 31.4242ZM44.5355 34.9947C44.1958 34.5593 43.5674 34.4816 43.132 34.8213C42.6965 35.161 42.6189 35.7894 42.9586 36.2249L44.5355 34.9947ZM43.5858 37.0289C43.9256 37.4643 44.554 37.5418 44.9894 37.202C45.4248 36.8623 45.5023 36.2339 45.1626 35.7985L43.5858 37.0289ZM48.9437 40.5791C48.5947 40.1511 47.9648 40.0869 47.5367 40.4359C47.1087 40.7849 47.0446 41.4148 47.3935 41.8429L48.9437 40.5791ZM48.0133 42.5956C48.3663 43.0203 48.9968 43.0784 49.4215 42.7254C49.8462 42.3723 49.9043 41.7419 49.5513 41.3171L48.0133 42.5956ZM53.2115 45.5499C52.8435 45.1381 52.2114 45.1025 51.7995 45.4704C51.3876 45.8384 51.352 46.4705 51.72 46.8824L53.2115 45.5499ZM52.3503 47.5845C52.7202 47.9946 53.3525 48.0272 53.7626 47.6573C54.1727 47.2874 54.2053 46.6551 53.8354 46.245L52.3503 47.5845ZM57.6463 50.3521C57.2648 49.9527 56.6318 49.9381 56.2324 50.3196C55.833 50.701 55.8185 51.334 56.2 51.7334L57.6463 50.3521ZM56.8537 52.4144C57.2372 52.8118 57.8703 52.8231 58.2677 52.4396C58.6651 52.0561 58.6764 51.4231 58.2929 51.0257L56.8537 52.4144ZM62.2456 54.983C61.8478 54.5999 61.2147 54.6117 60.8316 55.0095C60.4485 55.4073 60.4603 56.0403 60.8581 56.4235L62.2456 54.983ZM61.5424 57.0776C61.9431 57.4577 62.576 57.4411 62.9561 57.0404C63.3362 56.6397 63.3195 56.0068 62.9188 55.6267L61.5424 57.0776ZM67.0653 59.3381C66.6407 58.9849 66.0102 59.0427 65.657 59.4673C65.3038 59.8918 65.3616 60.5223 65.7862 60.8756L67.0653 59.3381ZM66.5255 61.4807C66.9558 61.8269 67.5853 61.7587 67.9315 61.3283C68.2777 60.898 68.2095 60.2685 67.7791 59.9224L66.5255 61.4807ZM72.2472 62.9413C71.7499 62.7011 71.152 62.9095 70.9118 63.4069C70.6716 63.9042 70.8801 64.502 71.3774 64.7422L72.2472 62.9413ZM72.2684 65.1368C72.7752 65.3563 73.364 65.1234 73.5835 64.6166C73.803 64.1099 73.5702 63.5211 73.0634 63.3015L72.2684 65.1368ZM78.269 65.8244C77.7833 65.5614 77.1764 65.7419 76.9134 66.2276C76.6504 66.7132 76.8309 67.3201 77.3166 67.5831L78.269 65.8244ZM78.1339 68.0342C78.6152 68.305 79.225 68.1343 79.4957 67.6529C79.7665 67.1716 79.5958 66.5619 79.1144 66.2911L78.1339 68.0342ZM84.0151 69.3936C83.5656 69.0728 82.9411 69.1773 82.6203 69.6268C82.2995 70.0764 82.4039 70.7009 82.8535 71.0217L84.0151 69.3936ZM83.6048 71.5692C84.0479 71.8989 84.6743 71.807 85.0041 71.364C85.3338 70.9209 85.242 70.2945 84.7989 69.9647L83.6048 71.5692ZM89.2356 73.7457C88.8416 73.3586 88.2085 73.3642 87.8214 73.7581C87.4343 74.1521 87.4399 74.7852 87.8339 75.1723L89.2356 73.7457ZM88.4844 75.8282C88.8682 76.2253 89.5013 76.2361 89.8984 75.8523C90.2956 75.4685 90.3064 74.8354 89.9226 74.4383L88.4844 75.8282ZM93.626 78.9857C93.3174 78.5277 92.6959 78.4066 92.2379 78.7152C91.7799 79.0238 91.6588 79.6453 91.9674 80.1033L93.626 78.9857ZM92.4674 80.8721C92.761 81.3399 93.3782 81.4812 93.846 81.1876C94.3138 80.8941 94.4551 80.2769 94.1616 79.8091L92.4674 80.8721ZM96.7609 85.1004C96.5719 84.5814 95.9981 84.3139 95.4791 84.5028C94.9602 84.6918 94.6926 85.2656 94.8816 85.7846L96.7609 85.1004ZM95.2114 86.7371C95.3879 87.2604 95.9552 87.5416 96.4785 87.3652C97.0019 87.1887 97.2831 86.6214 97.1066 86.0981L95.2114 86.7371ZM98.9464 92.4621C98.8234 91.9237 98.2872 91.5869 97.7488 91.71C97.2104 91.833 96.8736 92.3692 96.9967 92.9076L98.9464 92.4621ZM97.2203 93.9442C97.3301 94.4855 97.8579 94.8353 98.3991 94.7255C98.9404 94.6157 99.2902 94.0879 99.1804 93.5467L97.2203 93.9442ZM100.319 99.9249C100.184 99.3893 99.6401 99.0645 99.1045 99.1994C98.569 99.3343 98.2442 99.8778 98.3791 100.413L100.319 99.9249ZM98.6829 101.507C98.8432 102.036 99.4016 102.334 99.9301 102.174C100.459 102.014 100.757 101.455 100.597 100.927L98.6829 101.507ZM103.009 106.817C102.769 106.319 102.172 106.11 101.674 106.35C101.177 106.59 100.968 107.188 101.208 107.685L103.009 106.817ZM101.688 108.665C101.934 109.159 102.535 109.36 103.029 109.113C103.523 108.867 103.724 108.267 103.478 107.772L101.688 108.665ZM106.454 113.242C106.175 112.766 105.562 112.606 105.085 112.885C104.609 113.164 104.449 113.776 104.728 114.253L106.454 113.242ZM105.267 115.164C105.55 115.638 106.164 115.792 106.638 115.509C107.112 115.225 107.267 114.611 106.983 114.137L105.267 115.164ZM110.322 119.416C110.016 118.957 109.395 118.832 108.935 119.139C108.476 119.445 108.351 120.066 108.658 120.525L110.322 119.416ZM109.247 121.402C109.557 121.86 110.179 121.979 110.636 121.669C111.093 121.36 111.212 120.738 110.903 120.281L109.247 121.402ZM114.529 125.366C114.197 124.924 113.57 124.836 113.129 125.168C112.687 125.5 112.599 126.127 112.931 126.569L114.529 125.366ZM113.572 127.411C113.909 127.849 114.537 127.931 114.975 127.594C115.413 127.258 115.495 126.63 115.158 126.192L113.572 127.411ZM119.137 130.838C118.729 130.466 118.097 130.494 117.724 130.902C117.351 131.309 117.38 131.942 117.787 132.314L119.137 130.838ZM0.0687348 2.56081C0.217977 2.61608 0.372403 2.67378 0.531754 2.73386L1.23729 0.862438C1.07443 0.801037 0.916341 0.741963 0.763296 0.685286L0.0687348 2.56081ZM6.08293 4.98675C6.38485 5.11683 6.69098 5.24988 7.0007 5.38574L7.80414 3.55422C7.49033 3.41656 7.18017 3.28175 6.87426 3.14996L6.08293 4.98675ZM12.4386 7.90643C12.7368 8.05271 13.035 8.20051 13.3329 8.34972L14.2286 6.5615C13.9257 6.40976 13.6225 6.25952 13.3196 6.1109L12.4386 7.90643ZM18.5936 11.1803C18.8816 11.3483 19.1663 11.5169 19.4471 11.6861L20.4793 9.97311C20.19 9.79876 19.8971 9.62523 19.6011 9.45265L18.5936 11.1803ZM24.3051 15.0223C24.4311 15.1248 24.5543 15.2269 24.6747 15.3288L25.9665 13.8019C25.8358 13.6913 25.7025 13.5809 25.5669 13.4706L24.3051 15.0223ZM24.6747 15.3288C24.7984 15.4334 24.9229 15.5401 25.048 15.6488L26.3594 14.1388C26.228 14.0246 26.097 13.9123 25.9665 13.8019L24.6747 15.3288ZM29.359 19.8414C29.588 20.0838 29.8177 20.3298 30.0481 20.5789L31.5165 19.221C31.2816 18.967 31.0471 18.716 30.8132 18.4683L29.359 19.8414ZM34.058 25.1327C34.2757 25.3902 34.4932 25.6488 34.7103 25.9084L36.2444 24.6252C36.0251 24.3631 35.8053 24.1017 35.5852 23.8414L34.058 25.1327ZM38.5574 30.6285C38.7696 30.8945 38.9807 31.1598 39.1905 31.4242L40.7572 30.1811C40.5464 29.9154 40.3342 29.6487 40.1209 29.3812L38.5574 30.6285ZM42.9586 36.2249C43.1703 36.4963 43.3795 36.7645 43.5858 37.0289L45.1626 35.7985C44.9564 35.5342 44.7473 35.2663 44.5355 34.9947L42.9586 36.2249ZM47.3935 41.8429C47.5028 41.9769 47.6103 42.108 47.7158 42.2362L49.2595 40.9645C49.1563 40.8392 49.051 40.7107 48.9437 40.5791L47.3935 41.8429ZM47.7158 42.2362C47.8126 42.3536 47.9118 42.4735 48.0133 42.5956L49.5513 41.3171C49.4516 41.1972 49.3543 41.0796 49.2595 40.9645L47.7158 42.2362ZM51.72 46.8824C51.9269 47.114 52.1371 47.3482 52.3503 47.5845L53.8354 46.245C53.6243 46.011 53.4163 45.7792 53.2115 45.5499L51.72 46.8824ZM56.2 51.7334C56.4167 51.9604 56.6347 52.1874 56.8537 52.4144L58.2929 51.0257C58.0763 50.8012 57.8607 50.5766 57.6463 50.3521L56.2 51.7334ZM60.8581 56.4235C61.0864 56.6434 61.3146 56.8615 61.5424 57.0776L62.9188 55.6267C62.6948 55.4142 62.4703 55.1995 62.2456 54.983L60.8581 56.4235ZM65.7862 60.8756C66.0348 61.0824 66.2814 61.2843 66.5255 61.4807L67.7791 59.9224C67.544 59.7332 67.306 59.5383 67.0653 59.3381L65.7862 60.8756ZM71.3774 64.7422C71.5341 64.8179 71.6891 64.8886 71.8422 64.9538L72.6255 63.1135C72.504 63.0618 72.3778 63.0044 72.2472 62.9413L71.3774 64.7422ZM71.8422 64.9538C71.9806 65.0127 72.1227 65.0736 72.2684 65.1368L73.0634 63.3015C72.9136 63.2367 72.7676 63.174 72.6255 63.1135L71.8422 64.9538ZM77.3166 67.5831C77.586 67.729 77.8587 67.8794 78.1339 68.0342L79.1144 66.2911C78.8296 66.1309 78.5476 65.9753 78.269 65.8244L77.3166 67.5831ZM82.8535 71.0217C83.1042 71.2006 83.3548 71.3831 83.6048 71.5692L84.7989 69.9647C84.5379 69.7705 84.2765 69.5801 84.0151 69.3936L82.8535 71.0217ZM87.8339 75.1723C88.0529 75.3876 88.2699 75.6062 88.4844 75.8282L89.9226 74.4383C89.6958 74.2036 89.4667 73.9728 89.2356 73.7457L87.8339 75.1723ZM91.9674 80.1033C92.1378 80.3563 92.3046 80.6125 92.4674 80.8721L94.1616 79.8091C93.987 79.5308 93.8084 79.2564 93.626 78.9857L91.9674 80.1033ZM94.8816 85.7846C94.9337 85.9277 94.9846 86.0717 95.0343 86.2164L96.9259 85.5671C96.8722 85.4106 96.8172 85.255 96.7609 85.1004L94.8816 85.7846ZM95.0343 86.2164C95.0948 86.3928 95.1539 86.5663 95.2114 86.7371L97.1066 86.0981C97.0478 85.9238 96.9876 85.7468 96.9259 85.5671L95.0343 86.2164ZM96.9967 92.9076C97.0798 93.2714 97.1537 93.616 97.2203 93.9442L99.1804 93.5467C99.1107 93.2028 99.0333 92.8423 98.9464 92.4621L96.9967 92.9076ZM98.3791 100.413C98.4673 100.764 98.5674 101.126 98.6829 101.507L100.597 100.927C100.491 100.577 100.399 100.244 100.319 99.9249L98.3791 100.413ZM101.208 107.685C101.287 107.851 101.369 108.019 101.453 108.19L103.249 107.31C103.167 107.142 103.087 106.978 103.009 106.817L101.208 107.685ZM101.453 108.19C101.53 108.348 101.609 108.506 101.688 108.665L103.478 107.772C103.401 107.618 103.324 107.464 103.249 107.31L101.453 108.19ZM104.728 114.253C104.906 114.557 105.086 114.861 105.267 115.164L106.983 114.137C106.805 113.84 106.629 113.541 106.454 113.242L104.728 114.253ZM108.658 120.525C108.854 120.821 109.051 121.113 109.247 121.402L110.903 120.281C110.71 119.995 110.516 119.707 110.322 119.416L108.658 120.525ZM112.931 126.569C113.149 126.857 113.362 127.138 113.572 127.411L115.158 126.192C114.952 125.924 114.742 125.649 114.529 125.366L112.931 126.569ZM117.787 132.314C117.95 132.464 118.109 132.598 118.26 132.711L119.455 131.107C119.374 131.047 119.269 130.959 119.137 130.838L117.787 132.314Z" fill="#AAAAAA"/>
</svg>
