<svg width="87" height="119" viewBox="0 0 87 119" fill="none" xmlns="http://www.w3.org/2000/svg">
<path d="M33.2122 63.4525C32.7525 65.5224 30.5308 66.4231 29.4774 66.6148C26.8918 66.6148 21.5481 67.0173 20.8586 68.6272C20.1691 70.237 19.8052 86.93 19.7095 95.0753L12.8145 107.149C8.98403 107.054 1.15067 107.149 0.461177 108.299C-0.400691 109.737 0.461177 113.474 0.461177 115.199C0.461177 116.579 1.41881 117.499 1.89762 117.786L86.9353 118.649C86.9353 112.324 80.0403 90.4756 78.3166 85.8759C76.5928 81.2763 71.1343 69.4896 67.1123 64.8899C63.0902 60.2903 55.0461 44.1914 52.4605 37.5794C50.3921 32.2897 49.1088 10.4605 48.7258 0.207031H41.2563C38.7664 20.4264 33.6718 61.3827 33.2122 63.4525Z" fill="#D7D7D7"/>
</svg>
