<svg width="115" height="136" viewBox="0 0 115 136" fill="none" xmlns="http://www.w3.org/2000/svg">
<path d="M0.5 27.5C0.5 32.8333 4.5 48.0001 5.5 51.5C6.5 54.9999 8.7 62.7 11.5 77.5C15 96 20.6399 105.92 22 110C23.5 114.5 28 123.5 30.5 129.5C32.8787 135.209 34.2331 135.5 41 135.5C49.5 135.5 55.5 134.5 63.5 134C69.4883 133.626 75.8313 133.334 82.5 132C89.1687 130.666 94 129 97 122.5C100.556 114.796 100 107.5 100 99C100 90.5 95.5 74 94 69.5C92.5 65 91 62 91.5 60C92 58 96.5 47 100 41.5C102.733 37.2048 110.833 21.6667 114 14L92.5 1C86.5 7.5 66 17 56 19C46 21 31 17.5001 16 15.0001C4 13.0001 0.5 22.1667 0.5 27.5Z" stroke="#D7D7D7"/>
</svg>
