<svg width="92" height="92" viewBox="0 0 92 92" fill="none" xmlns="http://www.w3.org/2000/svg">
<path fill-rule="evenodd" clip-rule="evenodd" d="M45.9993 0.00142309C71.404 0.00142531 91.9986 20.596 91.9986 46.0007C91.9986 71.4054 71.404 92 45.9993 92C20.5946 92 1.80044e-06 71.4054 4.02139e-06 46.0007C6.24234e-06 20.596 20.5946 0.00142087 45.9993 0.00142309ZM43.1931 65.0434C42.2028 66.0337 40.5973 66.0337 39.607 65.0434C38.6167 64.0531 38.6167 62.4475 39.607 61.4572L55.0636 46.0006L39.607 30.5439C38.6167 29.5536 38.6167 27.948 39.607 26.9578C40.5973 25.9675 42.2028 25.9675 43.1931 26.9578L60.4429 44.2075C61.4331 45.1978 61.4331 46.8034 60.4429 47.7936L43.1931 65.0434Z" fill="white" fill-opacity="0.6"/>
</svg>
