<svg width="22" height="22" viewBox="0 0 22 22" fill="none" xmlns="http://www.w3.org/2000/svg">
<path d="M11.1059 1.94581C13.9894 1.94581 14.331 1.95682 15.4698 2.00878C16.5227 2.05679 17.0945 2.23272 17.475 2.38061C17.9791 2.57652 18.3389 2.81053 18.7167 3.18841C19.0947 3.56633 19.3287 3.92608 19.5246 4.43016C19.6725 4.8107 19.8484 5.38251 19.8964 6.43542C19.9484 7.57416 19.9594 7.91573 19.9594 10.7992C19.9594 13.6828 19.9484 14.0243 19.8964 15.1631C19.8484 16.216 19.6725 16.7878 19.5246 17.1683C19.3287 17.6724 19.0947 18.0322 18.7168 18.41C18.3389 18.788 17.9791 19.022 17.475 19.2179C17.0945 19.3658 16.5227 19.5417 15.4698 19.5897C14.3312 19.6417 13.9897 19.6527 11.1059 19.6527C8.22218 19.6527 7.8807 19.6417 6.74209 19.5897C5.68917 19.5417 5.11735 19.3658 4.73682 19.2179C4.23273 19.022 3.87299 18.788 3.49511 18.41C3.11723 18.0322 2.88317 17.6724 2.68726 17.1683C2.53937 16.7878 2.36344 16.216 2.31543 15.1631C2.26347 14.0243 2.25245 13.6828 2.25245 10.7992C2.25245 7.91573 2.26347 7.57416 2.31543 6.43542C2.36344 5.38251 2.53937 4.8107 2.68726 4.43016C2.88317 3.92608 3.11718 3.56633 3.49511 3.18846C3.87299 2.81053 4.23273 2.57652 4.73682 2.38061C5.11735 2.23272 5.68917 2.05679 6.74209 2.00878C7.88083 1.95682 8.2224 1.94581 11.1059 1.94581ZM11.1059 0C8.17301 0 7.80525 0.0124316 6.65339 0.0649874C5.50393 0.117415 4.7189 0.299988 4.03198 0.566925C3.32183 0.842907 2.71958 1.21217 2.11918 1.81253C1.51881 2.41294 1.14955 3.01518 0.87361 3.72533C0.60663 4.41224 0.424056 5.19728 0.371628 6.34673C0.319072 7.49859 0.306641 7.86635 0.306641 10.7992C0.306641 13.7321 0.319072 14.0999 0.371628 15.2518C0.424056 16.4012 0.60663 17.1863 0.87361 17.8732C1.14955 18.5833 1.51881 19.1856 2.11918 19.786C2.71958 20.3863 3.32183 20.7556 4.03198 21.0315C4.7189 21.2985 5.50393 21.4811 6.65339 21.5335C7.80525 21.5861 8.17301 21.5985 11.1059 21.5985C14.0388 21.5985 14.4066 21.5861 15.5585 21.5335C16.7079 21.4811 17.4929 21.2985 18.1799 21.0315C18.89 20.7556 19.4923 20.3863 20.0927 19.786C20.693 19.1856 21.0623 18.5833 21.3383 17.8732C21.6052 17.1863 21.7878 16.4012 21.8402 15.2518C21.8928 14.0999 21.9052 13.7321 21.9052 10.7992C21.9052 7.86635 21.8928 7.49859 21.8402 6.34673C21.7878 5.19728 21.6052 4.41224 21.3383 3.72533C21.0623 3.01518 20.693 2.41294 20.0927 1.81253C19.4923 1.21217 18.89 0.842907 18.1799 0.566925C17.4929 0.299988 16.7079 0.117415 15.5585 0.0649874C14.4066 0.0124316 14.0388 0 11.1059 0Z" fill="white"/>
<path d="M11.11 5.25879C8.04727 5.25879 5.56445 7.7416 5.56445 10.8043C5.56445 13.8671 8.04727 16.3499 11.11 16.3499C14.1728 16.3499 16.6556 13.8671 16.6556 10.8043C16.6556 7.7416 14.1728 5.25879 11.11 5.25879ZM11.11 14.4041C9.12193 14.4041 7.51027 12.7924 7.51027 10.8043C7.51027 8.81625 9.12193 7.2046 11.11 7.2046C13.0981 7.2046 14.7098 8.81625 14.7098 10.8043C14.7098 12.7924 13.0981 14.4041 11.11 14.4041Z" fill="white"/>
<path d="M18.17 5.03617C18.17 5.75185 17.5897 6.33206 16.874 6.33206C16.1583 6.33206 15.5781 5.75185 15.5781 5.03617C15.5781 4.32045 16.1583 3.74023 16.874 3.74023C17.5897 3.74023 18.17 4.32045 18.17 5.03617Z" fill="white"/>
</svg>
