<svg width="32" height="27" viewBox="0 0 32 27" fill="none" xmlns="http://www.w3.org/2000/svg">
<path d="M10.9404 1.94336H27.0262C28.1321 1.94336 29.0369 2.84819 29.0369 3.95408V16.0184C29.0369 17.1243 28.1321 18.0292 27.0262 18.0292H10.9404C9.83451 18.0292 8.92969 17.1243 8.92969 16.0184V3.95408C8.92969 2.84819 9.83451 1.94336 10.9404 1.94336Z" fill="white" stroke="white" stroke-width="3.88742" stroke-linecap="round" stroke-linejoin="round"/>
<path d="M30.157 2.94922L19.098 9.98675L8.03906 2.94922" stroke="#2B363D" stroke-width="1.94371" stroke-linecap="round" stroke-linejoin="round"/>
<path d="M20.9948 20.9649V23.981C20.9959 24.261 20.9385 24.5382 20.8264 24.7947C20.7142 25.0513 20.5497 25.2816 20.3434 25.4708C20.137 25.6601 19.8935 25.8042 19.6282 25.8939C19.363 25.9836 19.0819 26.017 18.8031 25.9918C15.7094 25.6556 12.7377 24.5985 10.1268 22.9053C7.69767 21.3617 5.63819 19.3023 4.09462 16.8731C2.39554 14.2503 1.33816 11.2642 1.00816 8.15663C0.983037 7.87862 1.01608 7.59841 1.10518 7.33387C1.19428 7.06932 1.33749 6.82622 1.52569 6.62006C1.71389 6.41389 1.94295 6.24917 2.1983 6.13638C2.45365 6.02359 2.72968 5.9652 3.00883 5.96494H6.02492C6.51283 5.96014 6.98584 6.13292 7.35578 6.45107C7.72572 6.76922 7.96736 7.21103 8.03564 7.69416C8.16294 8.65938 8.39903 9.60709 8.7394 10.5192C8.87466 10.8791 8.90394 11.2702 8.82375 11.6461C8.74357 12.0221 8.55729 12.3672 8.28698 12.6405L7.01017 13.9174C8.44136 16.4343 10.5254 18.5183 13.0423 19.9495L14.3192 18.6727C14.5925 18.4024 14.9376 18.2161 15.3136 18.136C15.6896 18.0558 16.0806 18.085 16.4405 18.2203C17.3526 18.5607 18.3003 18.7968 19.2655 18.9241C19.7539 18.993 20.1999 19.2389 20.5188 19.6152C20.8376 19.9915 21.007 20.4719 20.9948 20.9649Z" fill="white" stroke="#2B363D" stroke-width="1.94371" stroke-linecap="round" stroke-linejoin="round"/>
</svg>
