<svg width="20" height="20" viewBox="0 0 20 20" fill="none" xmlns="http://www.w3.org/2000/svg">
<path fill-rule="evenodd" clip-rule="evenodd" d="M4.3634 2.99872C4.3634 4.11923 3.51022 5.02603 2.17601 5.02603C0.893771 5.02603 0.0405984 4.11923 0.0670022 2.99872C0.0405984 1.82376 0.893751 0.943359 2.20156 0.943359C3.5102 0.943359 4.33782 1.82376 4.3634 2.99872ZM0.174272 19.6793V6.62758H4.23054V19.6784H0.174272V19.6793Z" fill="white"/>
<path fill-rule="evenodd" clip-rule="evenodd" d="M7.48422 10.7934C7.48422 9.16541 7.43059 7.77756 7.37695 6.62983H10.9002L11.0875 8.41786H11.1675C11.7014 7.59027 13.0356 6.33691 15.1974 6.33691C17.8659 6.33691 19.8676 8.09854 19.8676 11.9403V19.6815H15.8113V12.4485C15.8113 10.7661 15.2247 9.61922 13.7568 9.61922C12.6354 9.61922 11.9687 10.3932 11.7022 11.1399C11.595 11.4073 11.5422 11.7802 11.5422 12.1548V19.6815H7.48586V10.7934H7.48422Z" fill="white"/>
</svg>
