<svg id="Capa_1" data-name="Capa 1" xmlns="http://www.w3.org/2000/svg" viewBox="0 0 216.82 35.94"><defs><style>.cls-1{fill:#fff;}</style></defs><title>ATTOMO_WHITE_RGB</title><path class="cls-1" d="M13.15,2.85,1.59,37.13H7.71L9,32.77H22.2l1.33,4.36h6.12L18.09,2.85ZM10.5,27.73l5.09-17,5.1,17Z" transform="translate(-1.59 -2.02)"/><polygon class="cls-1" points="63.9 6.12 73.84 6.12 73.84 35.11 79.48 35.11 79.48 6.12 89.47 6.12 89.47 0.83 63.9 0.83 63.9 6.12"/><polygon class="cls-1" points="30.51 6.12 40.45 6.12 40.45 35.11 46.08 35.11 46.08 6.12 56.07 6.12 56.07 0.83 30.51 0.83 30.51 6.12"/><path class="cls-1" d="M200.69,2C189.57,2,183,10.2,183,20s6.61,18,17.73,18,17.72-8.18,17.72-18S211.8,2,200.69,2Zm0,30.9c-7.6,0-11.86-5.83-11.81-12.93s4.21-12.93,11.81-12.93,11.85,5.83,11.8,12.93S208.28,32.92,200.69,32.92Z" transform="translate(-1.59 -2.02)"/><path class="cls-1" d="M114.41,2C103.3,2,96.69,10.2,96.69,20s6.61,18,17.72,18,17.73-8.18,17.73-18S125.53,2,114.41,2Z" transform="translate(-1.59 -2.02)"/><polygon class="cls-1" points="156.01 27.08 145.04 0.83 139.65 0.83 139.65 35.11 145.04 35.11 145.04 12.19 153.85 35.11 158.12 35.11 166.93 12.44 166.93 35.11 172.32 35.11 172.32 0.83 166.93 0.83 156.01 27.08"/></svg>