<svg width="26" height="15" viewBox="0 0 26 15" fill="none" xmlns="http://www.w3.org/2000/svg">
<path d="M0.160156 10.2202C1.30969 10.2202 1.88445 11.5374 4.18352 11.5374C7.05735 11.5374 5.90782 10.2202 8.78165 10.2202C11.6555 10.2202 11.0807 11.5374 13.3798 11.5374C15.6788 11.5374 14.5293 10.2202 17.4031 10.2202C20.277 10.2202 19.7022 11.5374 22.0013 11.5374C24.3003 11.5374 23.7256 10.2202 25.4499 10.2202" stroke="black"/>
<path d="M0.160156 12.8545C1.30969 12.8545 1.88445 14.1717 4.18352 14.1717C7.05735 14.1717 5.90782 12.8545 8.78165 12.8545C11.6555 12.8545 11.0807 14.1717 13.3798 14.1717C15.6788 14.1717 14.5293 12.8545 17.4031 12.8545C20.277 12.8545 19.7022 14.1717 22.0013 14.1717C24.3003 14.1717 23.7256 12.8545 25.4499 12.8545" stroke="black"/>
<path d="M7.77539 9.98072V3C7.77539 1.89543 8.67082 1 9.77539 1H11.5231C12.6276 1 13.5231 1.89543 13.5231 3V3.99357" stroke="black"/>
<path d="M18.5547 9.98072V3C18.5547 1.89543 19.4501 1 20.5547 1H22.3023C23.4069 1 24.3023 1.89543 24.3023 3V3.99357" stroke="black"/>
<path d="M7.77539 6.38721H18.5523" stroke="black"/>
</svg>
