<svg width="14" height="8" viewBox="0 0 14 8" fill="none" xmlns="http://www.w3.org/2000/svg">
<path d="M0.189453 5.29688C0.801868 5.29688 1.10808 5.9986 2.3329 5.9986C3.86394 5.9986 3.25153 5.29688 4.78256 5.29688C6.3136 5.29688 6.00739 5.9986 7.23222 5.9986C8.45705 5.9986 7.84464 5.29688 9.37567 5.29688C10.9067 5.29688 10.6005 5.9986 11.8253 5.9986C13.0502 5.9986 12.744 5.29688 13.6626 5.29688" stroke="black" stroke-width="0.532751"/>
<path d="M0.189453 6.70117C0.801868 6.70117 1.10808 7.4029 2.3329 7.4029C3.86394 7.4029 3.25153 6.70117 4.78256 6.70117C6.3136 6.70117 6.00739 7.4029 7.23222 7.4029C8.45705 7.4029 7.84464 6.70117 9.37567 6.70117C10.9067 6.70117 10.6005 7.4029 11.8253 7.4029C13.0502 7.4029 12.744 6.70117 13.6626 6.70117" stroke="black" stroke-width="0.532751"/>
<path d="M4.24609 5.16925V1.45027C4.24609 0.861808 4.72314 0.384766 5.3116 0.384766H6.24266C6.83113 0.384766 7.30817 0.861807 7.30817 1.45027V1.9796" stroke="black" stroke-width="0.532751"/>
<path d="M9.98828 5.16925V1.45027C9.98828 0.861808 10.4653 0.384766 11.0538 0.384766H11.9849C12.5733 0.384766 13.0504 0.861807 13.0504 1.45027V1.9796" stroke="black" stroke-width="0.532751"/>
<path d="M4.24609 3.25391H9.98748" stroke="black" stroke-width="0.532751"/>
</svg>
