<svg width="22" height="19" viewBox="0 0 22 19" fill="none" xmlns="http://www.w3.org/2000/svg">
<path d="M7.88423 1.3457H19.0205C19.7862 1.3457 20.4126 1.97212 20.4126 2.73774V11.09C20.4126 11.8556 19.7862 12.482 19.0205 12.482H7.88423C7.11861 12.482 6.49219 11.8556 6.49219 11.09V2.73774C6.49219 1.97212 7.11861 1.3457 7.88423 1.3457Z" fill="white" stroke="white" stroke-width="2.69129" stroke-linecap="round" stroke-linejoin="round"/>
<path d="M21.1835 2.04297L13.5273 6.91511L5.87109 2.04297" stroke="#2B363D" stroke-width="1.34565" stroke-linecap="round" stroke-linejoin="round"/>
<path d="M14.8425 14.5136V16.6017C14.8433 16.7955 14.8036 16.9874 14.726 17.165C14.6483 17.3426 14.5344 17.502 14.3916 17.6331C14.2487 17.7641 14.0801 17.8639 13.8965 17.926C13.7128 17.9881 13.5183 18.0111 13.3252 17.9937C11.1834 17.761 9.12611 17.0291 7.31855 15.8569C5.63685 14.7883 4.21106 13.3625 3.14243 11.6808C1.96614 9.86502 1.23411 7.79769 1.00565 5.6463C0.988256 5.45382 1.01113 5.25984 1.07282 5.07669C1.1345 4.89354 1.23365 4.72525 1.36394 4.58252C1.49423 4.43978 1.65281 4.32575 1.82959 4.24766C2.00637 4.16958 2.19747 4.12916 2.39073 4.12897H4.47879C4.81657 4.12565 5.14404 4.24526 5.40015 4.46552C5.65627 4.68578 5.82355 4.99165 5.87083 5.32613C5.95896 5.99435 6.12241 6.65046 6.35804 7.28194C6.45169 7.53107 6.47196 7.80181 6.41644 8.0621C6.36093 8.32239 6.23197 8.56131 6.04483 8.75055L5.16089 9.63449C6.15171 11.377 7.59449 12.8198 9.33701 13.8106L10.221 12.9267C10.4102 12.7395 10.6491 12.6106 10.9094 12.5551C11.1697 12.4995 11.4404 12.5198 11.6896 12.6135C12.321 12.8491 12.9771 13.0125 13.6454 13.1007C13.9835 13.1484 14.2923 13.3187 14.513 13.5792C14.7337 13.8397 14.851 14.1722 14.8425 14.5136Z" fill="white" stroke="#2B363D" stroke-width="1.34565" stroke-linecap="round" stroke-linejoin="round"/>
</svg>
