<svg width="16" height="15" viewBox="0 0 16 15" fill="none" xmlns="http://www.w3.org/2000/svg">
<path d="M7.84363 1.3471C9.8399 1.3471 10.0764 1.35472 10.8647 1.39069C11.5937 1.42393 11.9895 1.54573 12.253 1.64812C12.602 1.78374 12.851 1.94575 13.1126 2.20736C13.3743 2.469 13.5363 2.71806 13.6719 3.06703C13.7743 3.33048 13.8961 3.72635 13.9293 4.45529C13.9653 5.24365 13.9729 5.48012 13.9729 7.47639C13.9729 9.47268 13.9653 9.70915 13.9293 10.4975C13.8961 11.2265 13.7743 11.6223 13.6719 11.8858C13.5363 12.2347 13.3743 12.4838 13.1127 12.7454C12.851 13.007 12.602 13.1691 12.253 13.3047C11.9895 13.4071 11.5937 13.5289 10.8647 13.5621C10.0765 13.5981 9.84005 13.6057 7.84363 13.6057C5.84718 13.6057 5.61077 13.5981 4.8225 13.5621C4.09355 13.5289 3.69768 13.4071 3.43423 13.3047C3.08525 13.1691 2.8362 13.007 2.57459 12.7454C2.31298 12.4838 2.15094 12.2347 2.01531 11.8858C1.91292 11.6223 1.79112 11.2265 1.75789 10.4975C1.72192 9.70915 1.71429 9.47268 1.71429 7.47639C1.71429 5.48012 1.72192 5.24365 1.75789 4.45529C1.79112 3.72635 1.91292 3.33048 2.01531 3.06703C2.15094 2.71806 2.31295 2.469 2.57459 2.20739C2.8362 1.94575 3.08525 1.78374 3.43423 1.64812C3.69768 1.54573 4.09355 1.42393 4.8225 1.39069C5.61086 1.35472 5.84733 1.3471 7.84363 1.3471ZM7.84363 0C5.81314 0 5.55853 0.00860651 4.76109 0.0449913C3.96531 0.081287 3.42183 0.207684 2.94627 0.392487C2.45463 0.583551 2.03769 0.839194 1.62202 1.25483C1.20638 1.67049 0.950741 2.08744 0.759705 2.57907C0.574872 3.05463 0.448475 3.59812 0.412179 4.39389C0.375794 5.19133 0.367188 5.44593 0.367188 7.47639C0.367188 9.50687 0.375794 9.76148 0.412179 10.5589C0.448475 11.3547 0.574872 11.8982 0.759705 12.3737C0.950741 12.8654 1.20638 13.2823 1.62202 13.698C2.03769 14.1136 2.45463 14.3693 2.94627 14.5603C3.42183 14.7451 3.96531 14.8715 4.76109 14.9078C5.55853 14.9442 5.81314 14.9528 7.84363 14.9528C9.87409 14.9528 10.1287 14.9442 10.9261 14.9078C11.7219 14.8715 12.2654 14.7451 12.741 14.5603C13.2326 14.3693 13.6495 14.1136 14.0652 13.698C14.4808 13.2823 14.7365 12.8654 14.9276 12.3737C15.1124 11.8982 15.2388 11.3547 15.275 10.5589C15.3114 9.76148 15.32 9.50687 15.32 7.47639C15.32 5.44593 15.3114 5.19133 15.275 4.39389C15.2388 3.59812 15.1124 3.05463 14.9276 2.57907C14.7365 2.08744 14.4808 1.67049 14.0652 1.25483C13.6495 0.839194 13.2326 0.583551 12.741 0.392487C12.2654 0.207684 11.7219 0.081287 10.9261 0.0449913C10.1287 0.00860651 9.87409 0 7.84363 0Z" fill="white"/>
<path d="M7.84707 3.64062C5.72669 3.64062 4.00781 5.35949 4.00781 7.47984C4.00781 9.60022 5.72669 11.3191 7.84707 11.3191C9.96743 11.3191 11.6863 9.60022 11.6863 7.47984C11.6863 5.35949 9.96743 3.64062 7.84707 3.64062ZM7.84707 9.97199C6.47068 9.97199 5.35491 8.85623 5.35491 7.47984C5.35491 6.10348 6.47068 4.98772 7.84707 4.98772C9.22343 4.98772 10.3392 6.10348 10.3392 7.47984C10.3392 8.85623 9.22343 9.97199 7.84707 9.97199Z" fill="white"/>
<path d="M12.7358 3.48703C12.7358 3.9825 12.3341 4.38419 11.8386 4.38419C11.3431 4.38419 10.9414 3.9825 10.9414 3.48703C10.9414 2.99153 11.3431 2.58984 11.8386 2.58984C12.3341 2.58984 12.7358 2.99153 12.7358 3.48703Z" fill="white"/>
</svg>
