<svg width="15" height="14" viewBox="0 0 15 14" fill="none" xmlns="http://www.w3.org/2000/svg">
<path fill-rule="evenodd" clip-rule="evenodd" d="M3.48265 1.76865C3.48265 2.54438 2.89199 3.17217 1.9683 3.17217C1.0806 3.17217 0.489946 2.54438 0.508225 1.76865C0.489946 0.955208 1.08059 0.345703 1.986 0.345703C2.89198 0.345703 3.46494 0.955208 3.48265 1.76865ZM0.582489 13.3167V4.28093H3.39068V13.3161H0.582489V13.3167Z" fill="white"/>
<path fill-rule="evenodd" clip-rule="evenodd" d="M5.64067 7.16531C5.64067 6.03827 5.60354 5.07745 5.56641 4.28286H8.00558L8.13524 5.52073H8.19066C8.56025 4.94778 9.48394 4.08008 10.9806 4.08008C12.828 4.08008 14.2138 5.29966 14.2138 7.95933V13.3186H11.4056V8.31121C11.4056 7.14646 10.9994 6.35245 9.9832 6.35245C9.20689 6.35245 8.74534 6.88826 8.56083 7.40523C8.48657 7.59031 8.45001 7.84851 8.45001 8.10785V13.3186H5.6418V7.16531H5.64067Z" fill="white"/>
</svg>
