<svg width="15" height="15" viewBox="0 0 15 15" fill="none" xmlns="http://www.w3.org/2000/svg">
<path d="M7.47644 1.3471C9.47271 1.3471 9.70918 1.35472 10.4975 1.39069C11.2265 1.42393 11.6224 1.54573 11.8858 1.64812C12.2348 1.78374 12.4838 1.94575 12.7455 2.20736C13.0071 2.469 13.1691 2.71806 13.3047 3.06703C13.4071 3.33048 13.5289 3.72635 13.5622 4.45529C13.5981 5.24365 13.6058 5.48012 13.6058 7.47639C13.6058 9.47268 13.5981 9.70915 13.5622 10.4975C13.5289 11.2265 13.4071 11.6223 13.3047 11.8858C13.1691 12.2347 13.0071 12.4838 12.7455 12.7454C12.4838 13.007 12.2348 13.1691 11.8858 13.3047C11.6224 13.4071 11.2265 13.5289 10.4975 13.5621C9.7093 13.5981 9.47286 13.6057 7.47644 13.6057C5.47999 13.6057 5.24358 13.5981 4.45531 13.5621C3.72636 13.5289 3.33049 13.4071 3.06704 13.3047C2.71806 13.1691 2.46901 13.007 2.2074 12.7454C1.94579 12.4838 1.78375 12.2347 1.64812 11.8858C1.54573 11.6223 1.42394 11.2265 1.3907 10.4975C1.35473 9.70915 1.3471 9.47268 1.3471 7.47639C1.3471 5.48012 1.35473 5.24365 1.3907 4.45529C1.42394 3.72635 1.54573 3.33048 1.64812 3.06703C1.78375 2.71806 1.94576 2.469 2.2074 2.20739C2.46901 1.94575 2.71806 1.78374 3.06704 1.64812C3.33049 1.54573 3.72636 1.42393 4.45531 1.39069C5.24367 1.35472 5.48014 1.3471 7.47644 1.3471ZM7.47644 0C5.44595 0 5.19135 0.00860651 4.39391 0.0449913C3.59813 0.081287 3.05464 0.207684 2.57908 0.392487C2.08744 0.583551 1.6705 0.839194 1.25483 1.25483C0.839197 1.67049 0.583553 2.08744 0.392518 2.57907C0.207685 3.05463 0.0812873 3.59812 0.0449914 4.39389C0.00860654 5.19133 0 5.44593 0 7.47639C0 9.50687 0.00860654 9.76148 0.0449914 10.5589C0.0812873 11.3547 0.207685 11.8982 0.392518 12.3737C0.583553 12.8654 0.839197 13.2823 1.25483 13.698C1.6705 14.1136 2.08744 14.3693 2.57908 14.5603C3.05464 14.7451 3.59813 14.8715 4.39391 14.9078C5.19135 14.9442 5.44595 14.9528 7.47644 14.9528C9.5069 14.9528 9.76151 14.9442 10.5589 14.9078C11.3547 14.8715 11.8982 14.7451 12.3738 14.5603C12.8654 14.3693 13.2824 14.1136 13.698 13.698C14.1137 13.2823 14.3693 12.8654 14.5604 12.3737C14.7452 11.8982 14.8716 11.3547 14.9079 10.5589C14.9442 9.76148 14.9529 9.50687 14.9529 7.47639C14.9529 5.44593 14.9442 5.19133 14.9079 4.39389C14.8716 3.59812 14.7452 3.05463 14.5604 2.57907C14.3693 2.08744 14.1137 1.67049 13.698 1.25483C13.2824 0.839194 12.8654 0.583551 12.3738 0.392487C11.8982 0.207684 11.3547 0.081287 10.5589 0.0449913C9.76151 0.00860651 9.5069 0 7.47644 0Z" fill="#2B363D"/>
<path d="M7.47988 3.64062C5.3595 3.64062 3.64062 5.35949 3.64062 7.47984C3.64062 9.60022 5.3595 11.3191 7.47988 11.3191C9.60024 11.3191 11.3191 9.60022 11.3191 7.47984C11.3191 5.35949 9.60024 3.64062 7.47988 3.64062ZM7.47988 9.97199C6.10349 9.97199 4.98773 8.85623 4.98773 7.47984C4.98773 6.10348 6.10349 4.98772 7.47988 4.98772C8.85625 4.98772 9.97201 6.10348 9.97201 7.47984C9.97201 8.85623 8.85625 9.97199 7.47988 9.97199Z" fill="#2B363D"/>
<path d="M12.3686 3.48703C12.3686 3.9825 11.9669 4.38419 11.4714 4.38419C10.9759 4.38419 10.5742 3.9825 10.5742 3.48703C10.5742 2.99153 10.9759 2.58984 11.4714 2.58984C11.9669 2.58984 12.3686 2.99153 12.3686 3.48703Z" fill="#2B363D"/>
</svg>
