<svg width="33" height="33" viewBox="0 0 33 33" fill="none" xmlns="http://www.w3.org/2000/svg">
<path fill-rule="evenodd" clip-rule="evenodd" d="M16.2083 0.00140904C25.1599 0.00140982 32.4166 7.25811 32.4166 16.2097C32.4166 25.1613 25.1599 32.418 16.2083 32.418C7.25669 32.418 6.34404e-07 25.1613 1.41698e-06 16.2097C2.19955e-06 7.2581 7.2567 0.00140826 16.2083 0.00140904ZM15.2937 22.9949C14.9032 23.3854 14.27 23.3854 13.8795 22.9949C13.489 22.6044 13.489 21.9712 13.8795 21.5807L19.2505 16.2097L13.8795 10.8387C13.489 10.4482 13.489 9.81502 13.8795 9.4245C14.27 9.03397 14.9032 9.03397 15.2937 9.4245L21.3718 15.5026C21.7623 15.8931 21.7623 16.5263 21.3718 16.9168L15.2937 22.9949Z" fill="white" fill-opacity="0.6"/>
</svg>
