<svg width="14" height="13" viewBox="0 0 14 13" fill="none" xmlns="http://www.w3.org/2000/svg">
<path fill-rule="evenodd" clip-rule="evenodd" d="M3.11156 1.42294C3.11156 2.19868 2.5209 2.82646 1.59721 2.82646C0.70951 2.82646 0.118852 2.19868 0.137131 1.42294C0.118852 0.609505 0.709496 0 1.6149 0C2.52088 0 3.09385 0.609505 3.11156 1.42294ZM0.211395 12.971V3.93523H3.01958V12.9704H0.211395V12.971Z" fill="#2B363D"/>
<path fill-rule="evenodd" clip-rule="evenodd" d="M5.26958 6.81961C5.26958 5.69257 5.23244 4.73175 5.19531 3.93716H7.63448L7.76415 5.17503H7.81957C8.18916 4.60208 9.11285 3.73438 10.6095 3.73438C12.4569 3.73438 13.8427 4.95396 13.8427 7.61363V12.9729H11.0345V7.9655C11.0345 6.80076 10.6283 6.00674 9.6121 6.00674C8.8358 6.00674 8.37424 6.54256 8.18973 7.05953C8.11547 7.24461 8.07891 7.5028 8.07891 7.76214V12.9729H5.27071V6.81961H5.26958Z" fill="#2B363D"/>
</svg>
