<svg width="90" height="90" viewBox="0 0 90 90" fill="none" xmlns="http://www.w3.org/2000/svg">
<path d="M52.5 7.5H22.5C20.5109 7.5 18.6032 8.29018 17.1967 9.6967C15.7902 11.1032 15 13.0109 15 15V75C15 76.9891 15.7902 78.8968 17.1967 80.3033C18.6032 81.7098 20.5109 82.5 22.5 82.5H67.5C69.4891 82.5 71.3968 81.7098 72.8033 80.3033C74.2098 78.8968 75 76.9891 75 75V30L52.5 7.5Z" stroke="#E4E4E4" stroke-width="4" stroke-linecap="round" stroke-linejoin="round"/>
<path d="M52.5 7.5V30H75" stroke="#E4E4E4" stroke-width="4" stroke-linecap="round" stroke-linejoin="round"/>
<path d="M60 48.75H30" stroke="#E4E4E4" stroke-width="4" stroke-linecap="round" stroke-linejoin="round"/>
<path d="M60 63.75H30" stroke="#E4E4E4" stroke-width="4" stroke-linecap="round" stroke-linejoin="round"/>
<path d="M37.5 33.75H33.75H30" stroke="#E4E4E4" stroke-width="4" stroke-linecap="round" stroke-linejoin="round"/>
</svg>
