<svg width="90" height="90" viewBox="0 0 90 90" fill="none" xmlns="http://www.w3.org/2000/svg">
<path d="M45 56.25C51.2132 56.25 56.25 51.2132 56.25 45C56.25 38.7868 51.2132 33.75 45 33.75C38.7868 33.75 33.75 38.7868 33.75 45C33.75 51.2132 38.7868 56.25 45 56.25Z" stroke="#E4E4E4" stroke-width="4" stroke-linecap="round" stroke-linejoin="round"/>
<path d="M72.75 56.25C72.2508 57.381 72.1019 58.6357 72.3225 59.8522C72.5431 61.0687 73.123 62.1912 73.9875 63.075L74.2125 63.3C74.9098 63.9965 75.463 64.8237 75.8404 65.7342C76.2179 66.6447 76.4122 67.6206 76.4122 68.6062C76.4122 69.5919 76.2179 70.5678 75.8404 71.4783C75.463 72.3888 74.9098 73.2159 74.2125 73.9125C73.516 74.6098 72.6888 75.163 71.7783 75.5404C70.8678 75.9179 69.8919 76.1121 68.9062 76.1121C67.9206 76.1121 66.9447 75.9179 66.0342 75.5404C65.1237 75.163 64.2965 74.6098 63.6 73.9125L63.375 73.6875C62.4912 72.823 61.3687 72.243 60.1522 72.0225C58.9357 71.8019 57.6811 71.9508 56.55 72.45C55.4409 72.9253 54.4949 73.7147 53.8287 74.7207C53.1624 75.7268 52.8048 76.9058 52.8 78.1125V78.75C52.8 80.7391 52.0098 82.6468 50.6033 84.0533C49.1968 85.4598 47.2891 86.25 45.3 86.25C43.3109 86.25 41.4032 85.4598 39.9967 84.0533C38.5902 82.6468 37.8 80.7391 37.8 78.75V78.4125C37.771 77.1713 37.3692 75.9675 36.6469 74.9576C35.9246 73.9478 34.9153 73.1786 33.75 72.75C32.6189 72.2508 31.3643 72.1019 30.1478 72.3225C28.9313 72.543 27.8088 73.123 26.925 73.9875L26.7 74.2125C26.0035 74.9098 25.1763 75.463 24.2658 75.8404C23.3553 76.2179 22.3794 76.4121 21.3937 76.4121C20.4081 76.4121 19.4322 76.2179 18.5217 75.8404C17.6112 75.463 16.784 74.9098 16.0875 74.2125C15.3902 73.5159 14.837 72.6888 14.4596 71.7783C14.0821 70.8678 13.8878 69.8919 13.8878 68.9062C13.8878 67.9206 14.0821 66.9447 14.4596 66.0342C14.837 65.1237 15.3902 64.2965 16.0875 63.6L16.3125 63.375C17.177 62.4912 17.7569 61.3687 17.9775 60.1522C18.1981 58.9357 18.0492 57.681 17.55 56.55C17.0746 55.4409 16.2853 54.4949 15.2792 53.8286C14.2732 53.1624 13.0942 52.8048 11.8875 52.8H11.25C9.26088 52.8 7.35322 52.0098 5.9467 50.6033C4.54018 49.1968 3.75 47.2891 3.75 45.3C3.75 43.3109 4.54018 41.4032 5.9467 39.9967C7.35322 38.5902 9.26088 37.8 11.25 37.8H11.5875C12.8287 37.771 14.0325 37.3692 15.0424 36.6469C16.0522 35.9246 16.8214 34.9153 17.25 33.75C17.7492 32.6189 17.8981 31.3643 17.6775 30.1478C17.4569 28.9313 16.877 27.8088 16.0125 26.925L15.7875 26.7C15.0902 26.0034 14.537 25.1763 14.1596 24.2658C13.7821 23.3553 13.5879 22.3794 13.5879 21.3937C13.5879 20.4081 13.7821 19.4322 14.1596 18.5217C14.537 17.6112 15.0902 16.784 15.7875 16.0875C16.484 15.3902 17.3112 14.837 18.2217 14.4595C19.1322 14.0821 20.1081 13.8878 21.0938 13.8878C22.0794 13.8878 23.0553 14.0821 23.9658 14.4595C24.8763 14.837 25.7035 15.3902 26.4 16.0875L26.625 16.3125C27.5088 17.177 28.6313 17.7569 29.8478 17.9775C31.0643 18.1981 32.3189 18.0492 33.45 17.55H33.75C34.8591 17.0746 35.8051 16.2853 36.4713 15.2792C37.1376 14.2732 37.4952 13.0942 37.5 11.8875V11.25C37.5 9.26088 38.2902 7.35322 39.6967 5.9467C41.1032 4.54018 43.0109 3.75 45 3.75C46.9891 3.75 48.8968 4.54018 50.3033 5.9467C51.7098 7.35322 52.5 9.26088 52.5 11.25V11.5875C52.5048 12.7942 52.8624 13.9732 53.5287 14.9792C54.1949 15.9853 55.1409 16.7746 56.25 17.25C57.3811 17.7492 58.6357 17.8981 59.8522 17.6775C61.0687 17.4569 62.1912 16.877 63.075 16.0125L63.3 15.7875C63.9965 15.0902 64.8237 14.537 65.7342 14.1596C66.6447 13.7821 67.6206 13.5878 68.6063 13.5878C69.5919 13.5878 70.5678 13.7821 71.4783 14.1596C72.3888 14.537 73.2159 15.0902 73.9125 15.7875C74.6098 16.484 75.163 17.3112 75.5404 18.2217C75.9179 19.1322 76.1122 20.1081 76.1122 21.0937C76.1122 22.0794 75.9179 23.0553 75.5404 23.9658C75.163 24.8763 74.6098 25.7034 73.9125 26.4L73.6875 26.625C72.823 27.5088 72.2431 28.6313 72.0225 29.8478C71.8019 31.0643 71.9508 32.3189 72.45 33.45V33.75C72.9254 34.8591 73.7147 35.8051 74.7208 36.4713C75.7268 37.1376 76.9058 37.4952 78.1125 37.5H78.75C80.7391 37.5 82.6468 38.2902 84.0533 39.6967C85.4598 41.1032 86.25 43.0109 86.25 45C86.25 46.9891 85.4598 48.8968 84.0533 50.3033C82.6468 51.7098 80.7391 52.5 78.75 52.5H78.4125C77.2058 52.5048 76.0268 52.8624 75.0208 53.5286C74.0147 54.1949 73.2254 55.1409 72.75 56.25V56.25Z" stroke="#E4E4E4" stroke-width="4" stroke-linecap="round" stroke-linejoin="round"/>
</svg>
