<svg width="90" height="90" viewBox="0 0 90 90" fill="none" xmlns="http://www.w3.org/2000/svg">
<path d="M63.75 78.75V71.25C63.75 67.2718 62.1696 63.4564 59.3566 60.6434C56.5436 57.8304 52.7282 56.25 48.75 56.25H18.75C14.7718 56.25 10.9564 57.8304 8.1434 60.6434C5.33035 63.4564 3.75 67.2718 3.75 71.25V78.75" stroke="#E4E4E4" stroke-width="4" stroke-linecap="round" stroke-linejoin="round"/>
<path d="M33.75 41.25C42.0343 41.25 48.75 34.5343 48.75 26.25C48.75 17.9657 42.0343 11.25 33.75 11.25C25.4657 11.25 18.75 17.9657 18.75 26.25C18.75 34.5343 25.4657 41.25 33.75 41.25Z" stroke="#E4E4E4" stroke-width="4" stroke-linecap="round" stroke-linejoin="round"/>
<path d="M86.25 78.7493V71.2493C86.2475 67.9258 85.1413 64.6972 83.1051 62.0705C81.0689 59.4438 78.218 57.5677 75 56.7368" stroke="#E4E4E4" stroke-width="4" stroke-linecap="round" stroke-linejoin="round"/>
<path d="M60 11.7368C63.2266 12.5629 66.0864 14.4394 68.1286 17.0705C70.1709 19.7015 71.2794 22.9374 71.2794 26.2681C71.2794 29.5987 70.1709 32.8346 68.1286 35.4657C66.0864 38.0967 63.2266 39.9732 60 40.7993" stroke="#E4E4E4" stroke-width="4" stroke-linecap="round" stroke-linejoin="round"/>
</svg>
