<svg width="381" height="103" viewBox="0 0 381 103" fill="none" xmlns="http://www.w3.org/2000/svg">
<path d="M37.5852 20.6668L36.8996 21.3948L37.5852 20.6668ZM76.457 66.8411L76.9323 65.9613L76.457 66.8411ZM115.329 78.2422L115.383 79.2407L115.329 78.2422ZM139.338 90.7833L138.357 90.98L139.338 90.7833ZM154.201 100.759L154.619 101.668L154.201 100.759ZM176.781 85.9379L176.43 85.0012L176.781 85.9379ZM203.934 78.2422L203.374 77.4135L203.934 78.2422ZM240.519 53.1598L241.079 53.988L240.519 53.1598ZM262.813 44.8941L262.849 45.8934L262.813 44.8941ZM287.68 39.7636L286.892 39.1469L287.68 39.7636ZM308.83 18.1016L308.344 17.2278L308.83 18.1016ZM335.412 3.85026L335.556 4.83978L335.412 3.85026ZM1.1161 2.67468C1.63536 2.86278 2.2088 2.59433 2.3969 2.07506C2.58501 1.5558 2.31655 0.982363 1.79729 0.794257L1.1161 2.67468ZM7.3683 2.93246C6.85597 2.72621 6.27345 2.97434 6.0672 3.48666C5.86095 3.99899 6.10908 4.58151 6.62141 4.78776L7.3683 2.93246ZM7.53088 5.15646C8.0422 5.36519 8.62592 5.11989 8.83464 4.60857C9.04337 4.09725 8.79807 3.51353 8.28675 3.3048L7.53088 5.15646ZM13.7663 5.63319C13.2612 5.40995 12.6707 5.63849 12.4475 6.14365C12.2242 6.6488 12.4528 7.23928 12.9579 7.46252L13.7663 5.63319ZM13.8578 7.86287C14.3619 8.0886 14.9535 7.86297 15.1792 7.35892C15.4049 6.85487 15.1793 6.26327 14.6753 6.03754L13.8578 7.86287ZM20.0734 8.55738C19.5769 8.31546 18.9783 8.52182 18.7364 9.0183C18.4945 9.51478 18.7008 10.1134 19.1973 10.3553L20.0734 8.55738ZM20.0783 10.7879C20.5733 11.0328 21.1731 10.8301 21.418 10.3351C21.663 9.84008 21.4603 9.24024 20.9653 8.9953L20.0783 10.7879ZM26.2598 11.7519C25.7759 11.4858 25.1678 11.6623 24.9017 12.1463C24.6355 12.6302 24.8121 13.2382 25.296 13.5044L26.2598 11.7519ZM26.1527 13.9803C26.6343 14.2507 27.2439 14.0795 27.5142 13.5979C27.7846 13.1163 27.6134 12.5068 27.1318 12.2364L26.1527 13.9803ZM32.2622 15.3334C31.8003 15.0308 31.1804 15.1599 30.8777 15.6219C30.5751 16.0838 30.7042 16.7037 31.1662 17.0063L32.2622 15.3334ZM31.977 17.5464C32.4343 17.8561 33.056 17.7365 33.3657 17.2792C33.6755 16.8219 33.5558 16.2002 33.0986 15.8905L31.977 17.5464ZM37.8994 19.5954C37.4906 19.2242 36.8581 19.2546 36.4868 19.6635C36.1156 20.0723 36.146 20.7048 36.5549 21.076L37.8994 19.5954ZM37.2278 21.7091C37.6236 22.0943 38.2567 22.0857 38.6419 21.6899C39.0271 21.2941 39.0185 20.661 38.6227 20.2758L37.2278 21.7091ZM42.5621 24.6694C42.214 24.2407 41.5843 24.1753 41.1555 24.5234C40.7267 24.8715 40.6613 25.5013 41.0095 25.93L42.5621 24.6694ZM41.6035 26.67C41.9469 27.1025 42.576 27.1747 43.0085 26.8312C43.441 26.4878 43.5131 25.8588 43.1697 25.4263L41.6035 26.67ZM46.6846 30.072C46.3593 29.6257 45.7338 29.5276 45.2874 29.8529C44.8411 30.1782 44.743 30.8037 45.0683 31.25L46.6846 30.072ZM45.6308 32.0252C45.9543 32.4728 46.5794 32.5735 47.027 32.25C47.4747 31.9265 47.5753 31.3014 47.2519 30.8538L45.6308 32.0252ZM50.6084 35.5811C50.2912 35.129 49.6675 35.0197 49.2155 35.3369C48.7634 35.6541 48.654 36.2778 48.9713 36.7299L50.6084 35.5811ZM49.5231 37.517C49.8399 37.9693 50.4635 38.0792 50.9158 37.7623C51.3682 37.4455 51.478 36.8219 51.1612 36.3696L49.5231 37.517ZM54.478 41.1042C54.1602 40.6525 53.5364 40.5439 53.0847 40.8617C52.633 41.1795 52.5244 41.8033 52.8422 42.255L54.478 41.1042ZM53.3982 43.0441C53.7166 43.4953 54.3406 43.603 54.7918 43.2845C55.2431 42.9661 55.3507 42.3421 55.0323 41.8909L53.3982 43.0441ZM58.3892 46.5802C58.0639 46.1339 57.4383 46.0359 56.9921 46.3613C56.5458 46.6867 56.4478 47.3122 56.7732 47.7585L58.3892 46.5802ZM57.344 48.5383C57.671 48.9834 58.2969 49.079 58.742 48.752C59.187 48.4249 59.2827 47.799 58.9556 47.354L57.344 48.5383ZM62.4272 51.941C62.0866 51.5062 61.458 51.4299 61.0233 51.7704C60.5885 52.111 60.5121 52.7396 60.8527 53.1743L62.4272 51.941ZM61.4522 53.9343C61.7957 54.3668 62.4247 54.4389 62.8572 54.0954C63.2896 53.7519 63.3618 53.1229 63.0183 52.6904L61.4522 53.9343ZM66.6897 57.0856C66.3235 56.6721 65.6915 56.6338 65.2781 57C64.8646 57.3661 64.8263 57.9981 65.1924 58.4116L66.6897 57.0856ZM65.8463 59.1413C66.2173 59.5504 66.8497 59.5813 67.2588 59.2103C67.6679 58.8393 67.6988 58.2069 67.3278 57.7977L65.8463 59.1413ZM71.3266 61.8373C70.918 61.4657 70.2856 61.4958 69.914 61.9044C69.5425 62.313 69.5725 62.9455 69.9812 63.317L71.3266 61.8373ZM70.7131 63.9683C71.1297 64.3308 71.7614 64.2869 72.1239 63.8702C72.4864 63.4536 72.4425 62.8219 72.0258 62.4594L70.7131 63.9683ZM76.538 65.7422C76.0583 65.4685 75.4475 65.6354 75.1738 66.1151C74.9 66.5947 75.067 67.2055 75.5466 67.4792L76.538 65.7422ZM76.4176 67.9573C76.9026 68.2214 77.5099 68.0423 77.774 67.5572C78.0381 67.0722 77.859 66.4649 77.3739 66.2008L76.4176 67.9573ZM82.5462 69.1219C82.0681 68.8454 81.4564 69.0088 81.1799 69.4869C80.9035 69.965 81.0669 70.5767 81.545 70.8532L82.5462 69.1219ZM82.399 71.3474C82.877 71.6241 83.4887 71.4608 83.7654 70.9828C84.042 70.5048 83.8788 69.8931 83.4008 69.6164L82.399 71.3474ZM88.5232 72.4915C88.0345 72.2342 87.4298 72.4218 87.1725 72.9105C86.9152 73.3992 87.1027 74.0039 87.5914 74.2612L88.5232 72.4915ZM88.4807 74.7211C88.9732 74.971 89.5751 74.7742 89.8249 74.2817C90.0748 73.7892 89.8781 73.1873 89.3855 72.9375L88.4807 74.7211ZM94.6887 75.2216C94.1667 75.0411 93.5973 75.318 93.4168 75.8399C93.2363 76.3619 93.5131 76.9313 94.0351 77.1118L94.6887 75.2216ZM94.9981 77.4302C95.5248 77.5964 96.0864 77.3042 96.2526 76.7775C96.4188 76.2508 96.1266 75.6891 95.5999 75.5229L94.9981 77.4302ZM101.211 76.8134C100.665 76.73 100.155 77.1049 100.071 77.6509C99.9879 78.1968 100.363 78.707 100.909 78.7904L101.211 76.8134ZM101.902 78.931C102.45 79.0025 102.952 78.6166 103.023 78.0689C103.095 77.5213 102.709 77.0194 102.161 76.9479L101.902 78.931ZM107.955 77.3768C107.403 77.3627 106.944 77.7989 106.93 78.351C106.916 78.9031 107.352 79.3621 107.904 79.3762L107.955 77.3768ZM108.899 79.3949C109.452 79.4016 109.905 78.9594 109.912 78.4071C109.918 77.8549 109.476 77.4017 108.924 77.395L108.899 79.3949ZM114.777 77.2698C114.225 77.2976 113.801 77.7673 113.828 78.3189C113.856 78.8705 114.326 79.2951 114.878 79.2673L114.777 77.2698ZM115.916 79.214C116.468 79.189 116.895 78.7214 116.87 78.1697C116.845 77.618 116.377 77.191 115.825 77.2161L115.916 79.214ZM122.327 77.3326C121.777 77.2827 121.291 77.6881 121.241 78.2381C121.191 78.7882 121.597 79.2745 122.147 79.3244L122.327 77.3326ZM123.183 79.4335C123.731 79.4994 124.229 79.1084 124.295 78.56C124.361 78.0117 123.97 77.5137 123.422 77.4478L123.183 79.4335ZM129.849 78.9324C129.331 78.7416 128.756 79.0071 128.565 79.5254C128.374 80.0437 128.64 80.6185 129.158 80.8092L129.849 78.9324ZM130.098 81.1825C130.606 81.3996 131.194 81.1639 131.411 80.6561C131.628 80.1483 131.392 79.5606 130.885 79.3435L130.098 81.1825ZM136.473 83.0937C136.089 82.6971 135.456 82.687 135.059 83.0713C134.663 83.4556 134.653 84.0887 135.037 84.4854L136.473 83.0937ZM135.693 85.2178C136.045 85.6434 136.676 85.7029 137.101 85.3509C137.527 84.9988 137.586 84.3685 137.234 83.9429L135.693 85.2178ZM140.203 90.0458C140.081 89.5073 139.545 89.1702 139.006 89.2928C138.468 89.4155 138.13 89.9514 138.253 90.4899L140.203 90.0458ZM138.468 91.4962C138.589 92.0348 139.125 92.3728 139.664 92.251C140.202 92.1292 140.54 91.5938 140.418 91.0551L138.468 91.4962ZM142.461 96.4844C142.187 96.0051 141.576 95.839 141.096 96.1133C140.617 96.3877 140.451 96.9987 140.725 97.478L142.461 96.4844ZM141.299 98.4042C141.606 98.8631 142.227 98.986 142.686 98.6787C143.145 98.3715 143.268 97.7503 142.96 97.2914L141.299 98.4042ZM147.093 100.679C146.567 100.508 146.003 100.796 145.833 101.322C145.663 101.847 145.951 102.411 146.476 102.581L147.093 100.679ZM147.596 102.861C148.139 102.958 148.659 102.597 148.756 102.053C148.853 101.509 148.492 100.99 147.948 100.892L147.596 102.861ZM153.335 100.049C152.826 100.265 152.589 100.852 152.805 101.36C153.021 101.869 153.608 102.106 154.116 101.89L153.335 100.049ZM155.07 101.457C155.569 101.222 155.783 100.626 155.547 100.126C155.311 99.6267 154.715 99.4131 154.216 99.6489L155.07 101.457ZM159.205 96.9215C158.736 97.2141 158.594 97.8311 158.887 98.2994C159.179 98.7678 159.796 98.9103 160.265 98.6176L159.205 96.9215ZM161.096 98.087C161.559 97.7858 161.69 97.1664 161.389 96.7035C161.088 96.2406 160.469 96.1095 160.006 96.4107L161.096 98.087ZM164.645 93.0647C164.21 93.4052 164.133 94.0337 164.474 94.4685C164.814 94.9034 165.443 94.98 165.877 94.6395L164.645 93.0647ZM166.644 94.034C167.076 93.6899 167.147 93.0608 166.803 92.6288C166.459 92.1968 165.83 92.1254 165.398 92.4695L166.644 94.034ZM169.95 88.8304C169.511 89.166 169.428 89.7937 169.763 90.2323C170.099 90.6709 170.727 90.7544 171.165 90.4188L169.95 88.8304ZM171.923 89.8496C172.368 89.5224 172.464 88.8965 172.137 88.4516C171.809 88.0066 171.183 87.9112 170.738 88.2384L171.923 89.8496ZM175.951 85.1886C175.44 85.3975 175.195 85.9813 175.404 86.4926C175.613 87.0038 176.197 87.2489 176.708 87.04L175.951 85.1886ZM177.58 86.7138C178.103 86.5352 178.382 85.9668 178.203 85.4442C178.025 84.9216 177.456 84.6427 176.934 84.8213L177.58 86.7138ZM183.025 83.4209C182.48 83.5116 182.112 84.0268 182.203 84.5716C182.294 85.1163 182.809 85.4844 183.354 85.3937L183.025 83.4209ZM184.35 85.2318C184.895 85.145 185.267 84.6325 185.18 84.087C185.093 83.5416 184.58 83.1699 184.035 83.2567L184.35 85.2318ZM190.024 82.281C189.481 82.3811 189.122 82.9025 189.222 83.4457C189.322 83.9888 189.844 84.348 190.387 84.2478L190.024 82.281ZM191.398 84.0548C191.939 83.9474 192.292 83.4212 192.184 82.8795C192.077 82.3377 191.551 81.9856 191.009 82.0929L191.398 84.0548ZM196.779 80.601C196.256 80.7771 195.974 81.3442 196.15 81.8677C196.326 82.3912 196.894 82.6727 197.417 82.4966L196.779 80.601ZM198.402 82.1491C198.92 81.9576 199.185 81.3825 198.994 80.8644C198.802 80.3464 198.227 80.0816 197.709 80.2731L198.402 82.1491ZM202.967 77.6824C202.503 77.9819 202.369 78.6009 202.669 79.0649C202.968 79.5289 203.587 79.6623 204.051 79.3628L202.967 77.6824ZM204.924 78.7798C205.381 78.4703 205.501 77.8486 205.191 77.3912C204.882 76.9338 204.26 76.8139 203.803 77.1235L204.924 78.7798ZM209.039 73.556C208.583 73.8679 208.467 74.4903 208.779 74.946C209.091 75.4018 209.713 75.5185 210.169 75.2066L209.039 73.556ZM211.04 74.6101C211.496 74.298 211.612 73.6756 211.3 73.2199C210.988 72.7643 210.365 72.6479 209.91 72.96L211.04 74.6101ZM215.136 69.3732C214.681 69.686 214.565 70.3086 214.878 70.7637C215.191 71.2188 215.814 71.3342 216.269 71.0213L215.136 69.3732ZM217.139 70.4231C217.594 70.1101 217.709 69.4876 217.396 69.0325C217.084 68.5774 216.461 68.4621 216.006 68.7751L217.139 70.4231ZM221.228 65.1819C220.773 65.495 220.658 66.1177 220.971 66.5726C221.284 67.0275 221.907 67.1424 222.362 66.8293L221.228 65.1819ZM223.232 66.2303C223.687 65.9171 223.802 65.2945 223.489 64.8396C223.175 64.3847 222.553 64.2698 222.098 64.5829L223.232 66.2303ZM227.318 60.9893C226.863 61.3023 226.748 61.925 227.062 62.3799C227.375 62.8349 227.997 62.9499 228.452 62.6369L227.318 60.9893ZM229.323 62.0376C229.778 61.7246 229.893 61.102 229.58 60.647C229.267 60.192 228.645 60.0769 228.19 60.3899L229.323 62.0376ZM233.414 56.7998C232.958 57.1123 232.843 57.7347 233.155 58.1901C233.467 58.6455 234.09 58.7614 234.545 58.449L233.414 56.7998ZM235.415 57.8526C235.871 57.5403 235.987 56.9179 235.674 56.4624C235.362 56.0069 234.74 55.8907 234.284 56.203L235.415 57.8526ZM239.529 52.6227C239.072 52.9326 238.952 53.5545 239.262 54.0116C239.572 54.4687 240.194 54.588 240.651 54.278L239.529 52.6227ZM241.553 53.6696C242.012 53.3628 242.136 52.7418 241.829 52.2826C241.522 51.8234 240.901 51.6998 240.442 52.0066L241.553 53.6696ZM246.429 48.3938C245.94 48.652 245.754 49.2571 246.012 49.7453C246.27 50.2335 246.876 50.4199 247.364 50.1617L246.429 48.3938ZM248.365 49.6467C248.86 49.4001 249.06 48.7996 248.814 48.3054C248.567 47.8113 247.967 47.6106 247.472 47.8572L248.365 49.6467ZM254.041 45.2557C253.511 45.4093 253.205 45.9638 253.358 46.4943C253.512 47.0248 254.066 47.3304 254.597 47.1769L254.041 45.2557ZM255.673 46.8856C256.208 46.7505 256.533 46.2069 256.398 45.6714C256.263 45.1359 255.719 44.8113 255.184 44.9464L255.673 46.8856ZM262.188 43.9199C261.637 43.9474 261.212 44.4168 261.239 44.9684C261.267 45.52 261.736 45.9449 262.288 45.9174L262.188 43.9199ZM263.303 45.8823C263.856 45.8746 264.297 45.4208 264.289 44.8685C264.282 44.3163 263.828 43.8748 263.276 43.8825L263.303 45.8823ZM269.11 44.2537C268.561 44.1979 268.07 44.5981 268.014 45.1476C267.958 45.697 268.358 46.1877 268.908 46.2435L269.11 44.2537ZM269.861 46.3396C270.411 46.3942 270.9 45.9928 270.955 45.4433C271.009 44.8937 270.608 44.4039 270.058 44.3494L269.861 46.3396ZM275.652 44.6396C275.1 44.6558 274.666 45.1164 274.682 45.6684C274.698 46.2205 275.159 46.6549 275.711 46.6388L275.652 44.6396ZM276.707 46.5894C277.258 46.5504 277.673 46.0722 277.634 45.5213C277.595 44.9704 277.116 44.5554 276.565 44.5944L276.707 46.5894ZM281.758 43.3432C281.257 43.5743 281.037 44.1682 281.268 44.6699C281.5 45.1715 282.094 45.3908 282.595 45.1597L281.758 43.3432ZM283.511 44.6976C283.995 44.4314 284.172 43.8234 283.905 43.3394C283.639 42.8555 283.031 42.679 282.547 42.9451L283.511 44.6976ZM286.605 39.5044C286.253 39.9304 286.314 40.5607 286.74 40.9122C287.166 41.2636 287.796 41.2032 288.148 40.7772L286.605 39.5044ZM288.809 39.9407C289.147 39.504 289.067 38.8759 288.63 38.5378C288.194 38.1998 287.565 38.2798 287.227 38.7165L288.809 39.9407ZM291.073 33.4554C290.755 33.9067 290.863 34.5307 291.314 34.849C291.765 35.1674 292.389 35.0597 292.707 34.6084L291.073 33.4554ZM293.338 33.7151C293.657 33.2641 293.549 32.64 293.098 32.3213C292.647 32.0025 292.023 32.1097 291.705 32.5607L293.338 33.7151ZM295.709 27.2567C295.353 27.6786 295.406 28.3095 295.828 28.6659C296.25 29.0223 296.881 28.9691 297.237 28.5472L295.709 27.2567ZM297.936 27.7413C298.304 27.3291 298.267 26.697 297.855 26.3295C297.443 25.9619 296.811 25.9982 296.443 26.4105L297.936 27.7413ZM301.35 21.8035C300.916 22.1447 300.841 22.7734 301.182 23.2076C301.523 23.6419 302.152 23.7174 302.586 23.3762L301.35 21.8035ZM303.435 22.7275C303.878 22.3979 303.97 21.7715 303.641 21.3283C303.311 20.8851 302.685 20.793 302.241 21.1226L303.435 22.7275ZM307.854 17.5029C307.374 17.7753 307.205 18.3856 307.478 18.8661C307.75 19.3465 308.36 19.5151 308.841 19.2427L307.854 17.5029ZM309.803 18.7025C310.284 18.4306 310.453 17.8204 310.181 17.3397C309.909 16.859 309.299 16.6898 308.818 16.9618L309.803 18.7025ZM314.29 13.5597C313.833 13.8697 313.714 14.4915 314.024 14.9486C314.334 15.4057 314.955 15.5249 315.413 15.2149L314.29 13.5597ZM316.32 14.5917C316.773 14.2766 316.886 13.6534 316.57 13.1999C316.255 12.7464 315.632 12.6342 315.179 12.9493L316.32 14.5917ZM320.468 9.13956C320.019 9.46066 319.915 10.0852 320.236 10.5346C320.557 10.9839 321.182 11.0879 321.631 10.7668L320.468 9.13956ZM322.51 10.1462C322.964 9.83084 323.076 9.20766 322.761 8.75423C322.445 8.3008 321.822 8.18883 321.369 8.50414L322.51 10.1462ZM327.163 5.12894C326.659 5.35444 326.433 5.94595 326.659 6.45009C326.884 6.95424 327.476 7.18013 327.98 6.95462L327.163 5.12894ZM328.944 6.54759C329.457 6.34349 329.708 5.76202 329.503 5.24883C329.299 4.73564 328.718 4.48507 328.205 4.68916L328.944 6.54759ZM334.709 2.94616C334.164 3.03363 333.793 3.5466 333.88 4.09192C333.968 4.63723 334.481 5.00839 335.026 4.92092L334.709 2.94616ZM336.068 4.76667C336.615 4.6903 336.997 4.18497 336.921 3.63799C336.844 3.09101 336.339 2.70951 335.792 2.78589L336.068 4.76667ZM342.183 2.05925C341.633 2.11132 341.229 2.59925 341.282 3.14908C341.334 3.6989 341.822 4.10241 342.371 4.05034L342.183 2.05925ZM343.429 3.95256C343.979 3.90295 344.385 3.41682 344.335 2.86677C344.286 2.31672 343.8 1.91104 343.25 1.96065L343.429 3.95256ZM349.634 1.45253C349.083 1.49146 348.668 1.96963 348.707 2.52054C348.746 3.07145 349.224 3.48649 349.775 3.44756L349.634 1.45253ZM350.837 3.37387C351.388 3.33628 351.804 2.85912 351.766 2.30812C351.729 1.75711 351.251 1.34091 350.7 1.37851L350.837 3.37387ZM357.085 0.982656C356.534 1.01379 356.112 1.48603 356.143 2.03744C356.174 2.58884 356.646 3.01061 357.198 2.97948L357.085 0.982656ZM358.26 2.92039C358.811 2.89015 359.234 2.41858 359.203 1.86713C359.173 1.31567 358.701 0.893148 358.15 0.923396L358.26 2.92039ZM364.537 0.600595C363.986 0.626287 363.559 1.09435 363.585 1.64603C363.611 2.19772 364.079 2.62412 364.63 2.59843L364.537 0.600595ZM365.693 2.54959C366.245 2.52456 366.672 2.05701 366.647 1.50529C366.622 0.953575 366.154 0.526612 365.602 0.551643L365.693 2.54959ZM371.989 0.2831C371.437 0.304576 371.007 0.769362 371.029 1.32123C371.05 1.8731 371.515 2.30306 372.067 2.28159L371.989 0.2831ZM373.132 2.24067C373.684 2.21973 374.114 1.75537 374.093 1.20348C374.072 0.651592 373.608 0.22117 373.056 0.242105L373.132 2.24067ZM379.446 0.0174049C378.894 0.0353705 378.461 0.497413 378.479 1.04941C378.497 1.6014 378.959 2.03431 379.511 2.01635L379.446 0.0174049ZM0.663201 2.51163C0.811038 2.56451 0.962039 2.61887 1.1161 2.67468L1.79729 0.794257C1.64076 0.737555 1.48723 0.682285 1.3368 0.628476L0.663201 2.51163ZM6.62141 4.78776C6.92057 4.9082 7.22384 5.03113 7.53088 5.15646L8.28675 3.3048C7.97672 3.17824 7.67045 3.0541 7.3683 2.93246L6.62141 4.78776ZM12.9579 7.46252C13.2565 7.5945 13.5566 7.72796 13.8578 7.86287L14.6753 6.03754C14.371 5.90128 14.0679 5.76647 13.7663 5.63319L12.9579 7.46252ZM19.1973 10.3553C19.4912 10.4985 19.7849 10.6427 20.0783 10.7879L20.9653 8.9953C20.6682 8.84832 20.3709 8.70233 20.0734 8.55738L19.1973 10.3553ZM25.296 13.5044C25.5834 13.6624 25.869 13.8211 26.1527 13.9803L27.1318 12.2364C26.8429 12.0742 26.5522 11.9127 26.2598 11.7519L25.296 13.5044ZM31.1662 17.0063C31.4406 17.1862 31.711 17.3662 31.977 17.5464L33.0986 15.8905C32.8238 15.7043 32.5449 15.5186 32.2622 15.3334L31.1662 17.0063ZM36.5549 21.076C36.6721 21.1826 36.7871 21.2888 36.8996 21.3948L38.2708 19.9389C38.1492 19.8243 38.0254 19.7098 37.8994 19.5954L36.5549 21.076ZM36.8996 21.3948C37.0083 21.4971 37.1177 21.6019 37.2278 21.7091L38.6227 20.2758C38.5051 20.1613 38.3878 20.049 38.2708 19.9389L36.8996 21.3948ZM41.0095 25.93C41.2061 26.1723 41.4042 26.419 41.6035 26.67L43.1697 25.4263C42.9662 25.17 42.7636 24.9176 42.5621 24.6694L41.0095 25.93ZM45.0683 31.25C45.255 31.5062 45.4425 31.7646 45.6308 32.0252L47.2519 30.8538C47.0621 30.5912 46.873 30.3305 46.6846 30.072L45.0683 31.25ZM48.9713 36.7299C49.1546 36.9912 49.3386 37.2536 49.5231 37.517L51.1612 36.3696C50.9765 36.1058 50.7922 35.8429 50.6084 35.5811L48.9713 36.7299ZM52.8422 42.255C53.0271 42.5178 53.2125 42.7809 53.3982 43.0441L55.0323 41.8909C54.8471 41.6286 54.6624 41.3663 54.478 41.1042L52.8422 42.255ZM56.7732 47.7585C56.9631 48.019 57.1534 48.279 57.344 48.5383L58.9556 47.354C58.7666 47.0968 58.5778 46.8388 58.3892 46.5802L56.7732 47.7585ZM60.8527 53.1743C61.0523 53.4291 61.2521 53.6825 61.4522 53.9343L63.0183 52.6904C62.8211 52.4422 62.6241 52.1923 62.4272 51.941L60.8527 53.1743ZM65.1924 58.4116C65.4102 58.6575 65.6282 58.9007 65.8463 59.1413L67.3278 57.7977C67.1151 57.5632 66.9024 57.3258 66.6897 57.0856L65.1924 58.4116ZM69.9812 63.317C70.225 63.5387 70.469 63.7559 70.7131 63.9683L72.0258 62.4594C71.7932 62.257 71.5601 62.0495 71.3266 61.8373L69.9812 63.317ZM75.5466 67.4792C75.6916 67.562 75.8366 67.6426 75.9818 67.721L76.9323 65.9613C76.8012 65.8904 76.6697 65.8174 76.538 65.7422L75.5466 67.4792ZM75.9818 67.721C76.1281 67.8 76.2733 67.8788 76.4176 67.9573L77.3739 66.2008C77.2278 66.1212 77.0806 66.0414 76.9323 65.9613L75.9818 67.721ZM81.545 70.8532C81.8329 71.0197 82.1172 71.1843 82.399 71.3474L83.4008 69.6164C83.1195 69.4536 82.8345 69.2886 82.5462 69.1219L81.545 70.8532ZM87.5914 74.2612C87.8878 74.4173 88.1841 74.5706 88.4807 74.7211L89.3855 72.9375C89.0986 72.7919 88.8114 72.6433 88.5232 72.4915L87.5914 74.2612ZM94.0351 77.1118C94.3523 77.2215 94.6731 77.3276 94.9981 77.4302L95.5999 75.5229C95.2925 75.4259 94.9889 75.3254 94.6887 75.2216L94.0351 77.1118ZM100.909 78.7904C101.235 78.8402 101.566 78.8871 101.902 78.931L102.161 76.9479C101.839 76.9058 101.522 76.861 101.211 76.8134L100.909 78.7904ZM107.904 79.3762C108.231 79.3845 108.563 79.3908 108.899 79.3949L108.924 77.395C108.596 77.391 108.273 77.3849 107.955 77.3768L107.904 79.3762ZM114.878 79.2673C115.045 79.2588 115.214 79.2499 115.383 79.2407L115.274 77.2437C115.107 77.2528 114.941 77.2615 114.777 77.2698L114.878 79.2673ZM115.383 79.2407C115.562 79.2309 115.74 79.222 115.916 79.214L115.825 77.2161C115.643 77.2243 115.459 77.2335 115.274 77.2437L115.383 79.2407ZM122.147 79.3244C122.5 79.3564 122.845 79.3929 123.183 79.4335L123.422 77.4478C123.064 77.4048 122.7 77.3663 122.327 77.3326L122.147 79.3244ZM129.158 80.8092C129.484 80.929 129.797 81.0536 130.098 81.1825L130.885 79.3435C130.551 79.2009 130.206 79.0637 129.849 78.9324L129.158 80.8092ZM135.037 84.4854C135.272 84.7283 135.491 84.973 135.693 85.2178L137.234 83.9429C136.999 83.6585 136.746 83.3748 136.473 83.0937L135.037 84.4854ZM138.253 90.4899C138.294 90.6705 138.328 90.8342 138.357 90.98L140.318 90.5867C140.287 90.4314 140.25 90.2494 140.203 90.0458L138.253 90.4899ZM138.357 90.98C138.387 91.1294 138.424 91.3026 138.468 91.4962L140.418 91.0551C140.378 90.8783 140.345 90.7211 140.318 90.5867L138.357 90.98ZM140.725 97.478C140.904 97.7895 141.094 98.0994 141.299 98.4042L142.96 97.2914C142.784 97.0284 142.618 96.7585 142.461 96.4844L140.725 97.478ZM146.476 102.581C146.835 102.698 147.209 102.792 147.596 102.861L147.948 100.892C147.651 100.839 147.366 100.767 147.093 100.679L146.476 102.581ZM154.116 101.89C154.282 101.819 154.45 101.745 154.619 101.668L153.783 99.8508C153.631 99.9204 153.482 99.9865 153.335 100.049L154.116 101.89ZM154.619 101.668C154.77 101.598 154.921 101.528 155.07 101.457L154.216 99.6489C154.072 99.7166 153.928 99.7839 153.783 99.8508L154.619 101.668ZM160.265 98.6176C160.547 98.4414 160.824 98.2645 161.096 98.087L160.006 96.4107C159.743 96.5816 159.476 96.752 159.205 96.9215L160.265 98.6176ZM165.877 94.6395C166.137 94.4364 166.392 94.2345 166.644 94.034L165.398 92.4695C165.15 92.6671 164.899 92.8655 164.645 93.0647L165.877 94.6395ZM171.165 90.4188C171.419 90.2243 171.672 90.0345 171.923 89.8496L170.738 88.2384C170.475 88.4318 170.213 88.6293 169.95 88.8304L171.165 90.4188ZM176.708 87.04C176.848 86.9828 176.989 86.9276 177.131 86.8745L176.43 85.0012C176.269 85.0614 176.11 85.1239 175.951 85.1886L176.708 87.04ZM177.131 86.8745C177.278 86.8195 177.428 86.766 177.58 86.7138L176.934 84.8213C176.764 84.8793 176.596 84.9392 176.43 85.0012L177.131 86.8745ZM183.354 85.3937C183.681 85.3391 184.013 85.2853 184.35 85.2318L184.035 83.2567C183.696 83.3108 183.359 83.3653 183.025 83.4209L183.354 85.3937ZM190.387 84.2478C190.723 84.186 191.06 84.1218 191.398 84.0548L191.009 82.0929C190.68 82.158 190.352 82.2206 190.024 82.281L190.387 84.2478ZM197.417 82.4966C197.746 82.3859 198.075 82.2702 198.402 82.1491L197.709 80.2731C197.401 80.3871 197.091 80.4963 196.779 80.601L197.417 82.4966ZM204.051 79.3628C204.199 79.2673 204.347 79.1699 204.493 79.0708L203.374 77.4135C203.239 77.5048 203.103 77.5944 202.967 77.6824L204.051 79.3628ZM204.493 79.0708C204.634 78.9757 204.778 78.8787 204.924 78.7798L203.803 77.1235C203.657 77.2221 203.514 77.3188 203.374 77.4135L204.493 79.0708ZM210.169 75.2066C210.455 75.0104 210.746 74.8115 211.04 74.6101L209.91 72.96C209.616 73.1613 209.326 73.36 209.039 73.556L210.169 75.2066ZM216.269 71.0213C216.557 70.8229 216.848 70.6234 217.139 70.4231L216.006 68.7751C215.715 68.9754 215.424 69.1748 215.136 69.3732L216.269 71.0213ZM222.362 66.8293C222.652 66.6296 222.942 66.4299 223.232 66.2303L222.098 64.5829C221.808 64.7825 221.518 64.9822 221.228 65.1819L222.362 66.8293ZM228.452 62.6369C228.744 62.436 229.035 62.2362 229.323 62.0376L228.19 60.3899C227.901 60.5885 227.61 60.7883 227.318 60.9893L228.452 62.6369ZM234.545 58.449C234.839 58.2472 235.129 58.0483 235.415 57.8526L234.284 56.203C233.998 56.3989 233.708 56.5979 233.414 56.7998L234.545 58.449ZM240.651 54.278C240.797 54.1789 240.94 54.0822 241.079 53.988L239.958 52.3316C239.819 52.4262 239.675 52.5232 239.529 52.6227L240.651 54.278ZM241.079 53.988C241.238 53.8807 241.396 53.7746 241.553 53.6696L240.442 52.0066C240.281 52.1138 240.12 52.2222 239.958 52.3316L241.079 53.988ZM247.364 50.1617C247.699 49.9841 248.033 49.8125 248.365 49.6467L247.472 47.8572C247.126 48.0302 246.778 48.2091 246.429 48.3938L247.364 50.1617ZM254.597 47.1769C254.954 47.0735 255.313 46.9764 255.673 46.8856L255.184 44.9464C254.801 45.0428 254.421 45.1459 254.041 45.2557L254.597 47.1769ZM262.288 45.9174C262.474 45.9081 262.661 45.9001 262.849 45.8934L262.777 43.8947C262.58 43.9017 262.384 43.9101 262.188 43.9199L262.288 45.9174ZM262.849 45.8934C262.999 45.8881 263.151 45.8844 263.303 45.8823L263.276 43.8825C263.109 43.8848 262.943 43.8888 262.777 43.8947L262.849 45.8934ZM268.908 46.2435C269.224 46.2756 269.542 46.308 269.861 46.3396L270.058 44.3494C269.742 44.318 269.426 44.2859 269.11 44.2537L268.908 46.2435ZM275.711 46.6388C276.043 46.6291 276.375 46.613 276.707 46.5894L276.565 44.5944C276.263 44.6159 275.958 44.6307 275.652 44.6396L275.711 46.6388ZM282.595 45.1597C282.903 45.0181 283.208 44.8643 283.511 44.6976L282.547 42.9451C282.286 43.0887 282.023 43.2212 281.758 43.3432L282.595 45.1597ZM288.148 40.7772C288.255 40.6475 288.361 40.5152 288.467 40.3803L286.892 39.1469C286.797 39.2687 286.701 39.3879 286.605 39.5044L288.148 40.7772ZM288.467 40.3803C288.582 40.2329 288.696 40.0864 288.809 39.9407L287.227 38.7165C287.117 38.8592 287.005 39.0026 286.892 39.1469L288.467 40.3803ZM292.707 34.6084C292.92 34.3065 293.13 34.0092 293.338 33.7151L291.705 32.5607C291.496 32.8558 291.286 33.1544 291.073 33.4554L292.707 34.6084ZM297.237 28.5472C297.466 28.2766 297.698 28.0081 297.936 27.7413L296.443 26.4105C296.193 26.6912 295.949 26.9732 295.709 27.2567L297.237 28.5472ZM302.586 23.3762C302.861 23.1603 303.144 22.9441 303.435 22.7275L302.241 21.1226C301.936 21.3497 301.639 21.5766 301.35 21.8035L302.586 23.3762ZM308.841 19.2427C308.997 19.1538 309.156 19.0647 309.317 18.9754L308.344 17.2278C308.179 17.3197 308.016 17.4114 307.854 17.5029L308.841 19.2427ZM309.317 18.9754C309.48 18.8842 309.642 18.7933 309.803 18.7025L308.818 16.9618C308.662 17.0502 308.504 17.1389 308.344 17.2278L309.317 18.9754ZM315.413 15.2149C315.722 15.0052 316.024 14.7974 316.32 14.5917L315.179 12.9493C314.888 13.1511 314.592 13.3545 314.29 13.5597L315.413 15.2149ZM321.631 10.7668C321.927 10.5554 322.219 10.3485 322.51 10.1462L321.369 8.50414C321.069 8.71236 320.769 8.9243 320.468 9.13956L321.631 10.7668ZM327.98 6.95462C328.295 6.81387 328.615 6.67815 328.944 6.54759L328.205 4.68916C327.85 4.83027 327.503 4.97693 327.163 5.12894L327.98 6.95462ZM335.026 4.92092C335.201 4.89295 335.377 4.8659 335.556 4.83978L335.267 2.86075C335.079 2.8882 334.893 2.91668 334.709 2.94616L335.026 4.92092ZM335.556 4.83978C335.724 4.81525 335.895 4.79088 336.068 4.76667L335.792 2.78589C335.615 2.81064 335.44 2.8356 335.267 2.86075L335.556 4.83978ZM342.371 4.05034C342.72 4.01732 343.073 3.98473 343.429 3.95256L343.25 1.96065C342.89 1.99308 342.534 2.02594 342.183 2.05925L342.371 4.05034ZM349.775 3.44756C350.128 3.42266 350.481 3.3981 350.837 3.37387L350.7 1.37851C350.344 1.40285 349.988 1.42752 349.634 1.45253L349.775 3.44756ZM357.198 2.97948C357.552 2.95948 357.906 2.93978 358.26 2.92039L358.15 0.923396C357.795 0.942843 357.44 0.962596 357.085 0.982656L357.198 2.97948ZM364.63 2.59843C364.987 2.58183 365.341 2.56555 365.693 2.54959L365.602 0.551643C365.25 0.567642 364.895 0.583958 364.537 0.600595L364.63 2.59843ZM372.067 2.28159C372.428 2.26754 372.783 2.25391 373.132 2.24067L373.056 0.242105C372.706 0.255368 372.35 0.269031 371.989 0.2831L372.067 2.28159ZM379.511 2.01635C379.69 2.01052 379.864 2.0049 380.032 1.99948L379.968 0.000517011C379.799 0.00593936 379.625 0.011568 379.446 0.0174049L379.511 2.01635Z" fill="#AAAAAA"/>
</svg>
