<svg width="12" height="39" viewBox="0 0 12 39" fill="none" xmlns="http://www.w3.org/2000/svg">
<path d="M2.57529 38.2776C2.69643 37.7388 2.35782 37.2038 1.81898 37.0826C1.28015 36.9615 0.745133 37.3001 0.623996 37.8389L2.57529 38.2776ZM1.82479 32.3898C1.70703 32.9294 2.04898 33.4623 2.58856 33.58C3.12815 33.6978 3.66103 33.3558 3.77879 32.8162L1.82479 32.3898ZM3.9777 31.9044C4.09536 31.3648 3.75331 30.8319 3.2137 30.7143C2.6741 30.5966 2.14128 30.9387 2.02362 31.4783L3.9777 31.9044ZM3.21431 26.021C3.09627 26.5605 3.43796 27.0936 3.97748 27.2116C4.517 27.3297 5.05006 26.988 5.1681 26.4485L3.21431 26.021ZM5.3668 25.541C5.48503 25.0015 5.14353 24.4683 4.60405 24.3501C4.06457 24.2319 3.53139 24.5734 3.41316 25.1129L5.3668 25.541ZM4.6174 19.6565C4.49738 20.1955 4.83709 20.7299 5.37618 20.8499C5.91526 20.9699 6.44958 20.6302 6.5696 20.0911L4.6174 19.6565ZM6.77186 19.1843C6.89231 18.6453 6.55302 18.1108 6.01403 17.9903C5.47504 17.8699 4.94045 18.2092 4.82 18.7481L6.77186 19.1843ZM6.05626 13.2943C5.93216 13.8324 6.26783 14.3693 6.80599 14.4934C7.34415 14.6175 7.88102 14.2818 8.00511 13.7437L6.05626 13.2943ZM8.2145 12.8389C8.33946 12.3009 8.00465 11.7635 7.46669 11.6386C6.92872 11.5136 6.39132 11.8484 6.26636 12.3864L8.2145 12.8389ZM7.5706 6.93831C7.43717 7.47423 7.76345 8.01685 8.29937 8.15029C8.83529 8.28372 9.37791 7.95744 9.51135 7.42152L7.5706 6.93831ZM9.73654 6.52546C9.87241 5.99015 9.54861 5.44605 9.0133 5.31018C8.47799 5.17431 7.93388 5.49811 7.79801 6.03342L9.73654 6.52546ZM9.38606 0.556207C9.18492 1.07056 9.43882 1.65059 9.95318 1.85173C10.4675 2.05288 11.0476 1.79897 11.2487 1.28462L9.38606 0.556207ZM2.47531 38.7208C2.50777 38.5775 2.54111 38.4297 2.57529 38.2776L0.623996 37.8389C0.590013 37.9901 0.556901 38.1369 0.524687 38.2792L2.47531 38.7208ZM3.77879 32.8162C3.84408 32.5171 3.91041 32.213 3.9777 31.9044L2.02362 31.4783C1.95634 31.7868 1.89004 32.0908 1.82479 32.3898L3.77879 32.8162ZM5.1681 26.4485C5.23394 26.1475 5.30019 25.845 5.3668 25.541L3.41316 25.1129C3.3465 25.4171 3.2802 25.7199 3.21431 26.021L5.1681 26.4485ZM6.5696 20.0911C6.63698 19.7885 6.70442 19.4861 6.77186 19.1843L4.82 18.7481C4.75244 19.0505 4.68489 19.3533 4.6174 19.6565L6.5696 20.0911ZM8.00511 13.7437C8.07525 13.4395 8.14506 13.1378 8.2145 12.8389L6.26636 12.3864C6.19667 12.6864 6.12662 12.9891 6.05626 13.2943L8.00511 13.7437ZM9.51135 7.42152C9.58762 7.1152 9.66271 6.81633 9.73654 6.52546L7.79801 6.03342C7.72338 6.32746 7.64754 6.62929 7.5706 6.93831L9.51135 7.42152ZM11.2487 1.28462C11.3076 1.13391 11.3564 1.02333 11.3944 0.947214L9.60557 0.0527864C9.53108 0.201777 9.45786 0.372622 9.38606 0.556207L11.2487 1.28462Z" fill="#AAAAAA"/>
</svg>
