<svg width="779" height="570" viewBox="0 0 779 570" fill="none" xmlns="http://www.w3.org/2000/svg">
<path d="M497.639 567.647L496.932 568.354L497.002 568.424L497.084 568.479L497.639 567.647ZM515.376 561.06L514.574 560.463L515.376 561.06ZM544.271 519.53L543.996 518.569L544.271 519.53ZM561.722 525.831L562.226 524.968L561.722 525.831ZM590.616 539.293L591.064 538.398L590.616 539.293ZM616.077 557.05L617.006 556.679L616.077 557.05ZM634.959 533.851L634.051 533.432L634.959 533.851ZM643.541 497.763L644.494 498.067L643.541 497.763ZM649.549 462.248L648.55 462.299L649.549 462.248ZM650.979 447.354L651.935 447.648L650.979 447.354ZM646.116 420.718L647.115 420.765L646.116 420.718ZM650.979 382.625L651.95 382.867L650.979 382.625ZM652.41 343.1L651.443 343.355L652.41 343.1ZM645.258 308.731L646.248 308.59L645.258 308.731ZM626.948 270.924L627.68 270.242L626.948 270.924ZM609.784 234.836L608.785 234.886L609.784 234.836ZM602.918 198.462L603.876 198.177L602.918 198.462ZM612.93 173.544L613.667 174.221L613.701 174.184L613.731 174.144L612.93 173.544ZM636.961 140.893L636.135 140.33L636.961 140.893ZM651.265 114.83L650.28 114.659L651.265 114.83ZM658.131 80.1739L657.213 79.7773L658.131 80.1739ZM676.441 38.3577L675.546 37.9109L675.535 37.9327L675.525 37.955L676.441 38.3577ZM695.894 8.57081L696.449 9.40256L695.894 8.57081ZM724.216 1.12409L724.158 2.12236L724.216 1.12409ZM761.407 5.42037L761.494 6.4166L761.407 5.42037ZM478.186 559.055L478.449 558.09L478.186 559.055ZM455.299 549.604L456.163 549.1L455.299 549.604ZM449.005 470.554L449.986 470.358L449.005 470.554ZM436.99 459.097L437.356 458.167L436.99 459.097ZM409.526 437.33L410.45 436.949L409.526 437.33ZM400.085 400.096L401.081 400.005L400.085 400.096ZM391.503 364.868L390.67 365.422L391.503 364.868ZM378.915 336.226L377.927 336.378L378.915 336.226ZM370.905 311.022L371.578 310.283L370.905 311.022ZM348.304 303.289L348.18 304.281L348.304 303.289ZM314.546 298.706L314.514 297.707L314.546 298.706ZM270.776 288.968L270.639 289.959L270.776 288.968ZM215.848 281.235L215.757 282.231L215.848 281.235ZM177.799 278.085L178.011 277.107L177.799 278.085ZM130.595 252.594L130.21 253.517L130.595 252.594ZM85.9665 238.56L86.2046 237.589L85.9665 238.56ZM42.7681 217.938L42.3668 218.854L42.7681 217.938ZM16.7345 203.904L16.1049 204.681L16.7345 203.904ZM0.281098 179.295C0.495039 179.804 1.08123 180.044 1.5904 179.83C2.09956 179.616 2.33888 179.029 2.12494 178.52L0.281098 179.295ZM4.84198 184.302C4.5936 183.809 3.99237 183.611 3.49909 183.859C3.00581 184.107 2.80728 184.709 3.05566 185.202L4.84198 184.302ZM3.54695 186.169C3.79897 186.66 4.40165 186.854 4.89308 186.602C5.38451 186.35 5.57859 185.747 5.32657 185.256L3.54695 186.169ZM8.38239 190.897C8.10768 190.417 7.49658 190.252 7.01747 190.526C6.53835 190.801 6.37265 191.412 6.64737 191.891L8.38239 190.897ZM7.19187 192.831C7.47093 193.308 8.08351 193.468 8.56011 193.189C9.0367 192.91 9.19684 192.297 8.91777 191.821L7.19187 192.831ZM12.3272 197.22C12.0134 196.765 11.3906 196.651 10.9361 196.965C10.4816 197.279 10.3675 197.901 10.6813 198.356L12.3272 197.22ZM11.3114 199.252C11.6333 199.7 12.2581 199.803 12.7068 199.481C13.1556 199.159 13.2584 198.534 12.9364 198.086L11.3114 199.252ZM16.9888 202.809C16.5745 202.444 15.9426 202.484 15.5774 202.898C15.2122 203.313 15.252 203.945 15.6663 204.31L16.9888 202.809ZM16.5296 205.019C16.9641 205.36 17.5927 205.284 17.9336 204.85C18.2744 204.415 18.1985 203.787 17.7639 203.446L16.5296 205.019ZM22.9177 206.945C22.4454 206.659 21.8305 206.81 21.5442 207.282C21.258 207.755 21.4089 208.37 21.8812 208.656L22.9177 206.945ZM22.8014 209.205C23.2773 209.485 23.8902 209.327 24.1705 208.851C24.4507 208.375 24.2921 207.762 23.8162 207.482L22.8014 209.205ZM29.3367 210.514C28.8461 210.26 28.2427 210.452 27.9891 210.943C27.7354 211.433 27.9275 212.037 28.4181 212.29L29.3367 210.514ZM29.3665 212.777C29.8588 213.027 30.4608 212.831 30.7111 212.338C30.9614 211.846 30.7652 211.244 30.2729 210.994L29.3665 212.777ZM35.9562 213.762C35.4561 213.528 34.8607 213.743 34.6263 214.243C34.3919 214.743 34.6072 215.339 35.1073 215.573L35.9562 213.762ZM36.0708 216.022C36.5718 216.255 37.1663 216.037 37.3987 215.536C37.631 215.035 37.4131 214.44 36.9121 214.208L36.0708 216.022ZM42.6869 216.811C42.1813 216.588 41.5913 216.818 41.369 217.324C41.1468 217.829 41.3765 218.419 41.8821 218.642L42.6869 216.811ZM42.7943 219.045C43.2975 219.272 43.8899 219.049 44.1175 218.545C44.3451 218.042 44.1216 217.45 43.6184 217.222L42.7943 219.045ZM48.928 219.888C48.4407 219.628 47.8349 219.813 47.575 220.3C47.3151 220.787 47.4994 221.393 47.9868 221.653L48.928 219.888ZM48.847 222.114C49.3332 222.376 49.9397 222.194 50.2017 221.708C50.4636 221.222 50.2819 220.616 49.7957 220.354L48.847 222.114ZM54.9582 223.181C54.4747 222.914 53.8664 223.09 53.5995 223.573C53.3325 224.057 53.5081 224.665 53.9916 224.932L54.9582 223.181ZM54.8519 225.407C55.3354 225.674 55.9437 225.498 56.2106 225.015C56.4775 224.531 56.3019 223.923 55.8183 223.656L54.8519 225.407ZM60.9611 226.476C60.4756 226.213 59.8686 226.393 59.6053 226.878C59.3421 227.364 59.5222 227.971 60.0077 228.234L60.9611 226.476ZM60.8719 228.701C61.358 228.963 61.9646 228.782 62.2267 228.296C62.4888 227.81 62.3073 227.203 61.8212 226.941L60.8719 228.701ZM66.9998 229.673C66.5086 229.421 65.9057 229.615 65.6533 230.106C65.4009 230.597 65.5945 231.2 66.0858 231.452L66.9998 229.673ZM66.9618 231.9C67.4541 232.15 68.0561 231.954 68.3064 231.462C68.5566 230.969 68.3603 230.367 67.868 230.117L66.9618 231.9ZM73.1165 232.68C72.6158 232.447 72.021 232.664 71.7878 233.165C71.5546 233.665 71.7714 234.26 72.2721 234.493L73.1165 232.68ZM73.1682 234.907C73.6706 235.136 74.2638 234.915 74.4934 234.413C74.7229 233.91 74.5017 233.317 73.9994 233.088L73.1682 234.907ZM79.35 235.363C78.8353 235.163 78.2557 235.418 78.0554 235.932C77.855 236.447 78.1099 237.027 78.6245 237.227L79.35 235.363ZM79.5544 237.582C80.0716 237.776 80.6479 237.514 80.8418 236.997C81.0356 236.48 80.7734 235.903 80.2563 235.709L79.5544 237.582ZM85.7468 237.473C85.2121 237.335 84.6667 237.657 84.5287 238.192C84.3907 238.727 84.7123 239.272 85.2471 239.41L85.7468 237.473ZM86.183 239.643C86.719 239.776 87.2614 239.449 87.3943 238.913C87.5273 238.377 87.2006 237.835 86.6645 237.702L86.183 239.643ZM92.2351 239.162C91.7024 239.016 91.1524 239.33 91.0067 239.862C90.8609 240.395 91.1746 240.945 91.7073 241.091L92.2351 239.162ZM92.6262 241.344C93.1585 241.491 93.7094 241.179 93.8567 240.647C94.0041 240.114 93.692 239.563 93.1598 239.416L92.6262 241.344ZM98.6862 240.991C98.1562 240.836 97.6008 241.14 97.4458 241.67C97.2908 242.2 97.5949 242.756 98.125 242.911L98.6862 240.991ZM99.0407 243.179C99.5705 243.336 100.126 243.033 100.283 242.503C100.439 241.973 100.136 241.417 99.6059 241.261L99.0407 243.179ZM105.106 242.914C104.578 242.753 104.019 243.05 103.857 243.578C103.695 244.106 103.992 244.665 104.52 244.827L105.106 242.914ZM105.432 245.107C105.96 245.27 106.519 244.974 106.682 244.446C106.845 243.918 106.549 243.358 106.021 243.196L105.432 245.107ZM111.5 244.913C110.974 244.746 110.412 245.036 110.244 245.562C110.076 246.089 110.367 246.651 110.893 246.819L111.5 244.913ZM111.802 247.11C112.328 247.278 112.891 246.989 113.06 246.463C113.228 245.937 112.939 245.374 112.413 245.205L111.802 247.11ZM117.873 246.986C117.349 246.812 116.783 247.096 116.609 247.62C116.435 248.144 116.719 248.71 117.243 248.884L117.873 246.986ZM118.145 249.185C118.669 249.36 119.236 249.077 119.411 248.554C119.586 248.03 119.303 247.463 118.779 247.288L118.145 249.185ZM124.216 249.147C123.695 248.964 123.124 249.238 122.942 249.759C122.759 250.281 123.033 250.851 123.554 251.034L124.216 249.147ZM124.457 251.353C124.978 251.537 125.549 251.265 125.734 250.744C125.918 250.224 125.646 249.652 125.126 249.468L124.457 251.353ZM130.54 251.49C130.028 251.283 129.445 251.529 129.238 252.041C129.03 252.553 129.277 253.136 129.788 253.343L130.54 251.49ZM130.603 253.689C131.106 253.918 131.699 253.696 131.928 253.194C132.157 252.691 131.935 252.098 131.433 251.869L130.603 253.689ZM136.591 254.654C136.113 254.377 135.501 254.539 135.224 255.017C134.947 255.494 135.109 256.106 135.586 256.384L136.591 254.654ZM136.415 256.868C136.891 257.147 137.504 256.988 137.783 256.511C138.063 256.035 137.903 255.422 137.427 255.143L136.415 256.868ZM142.384 258.103C141.911 257.818 141.297 257.97 141.011 258.442C140.726 258.915 140.877 259.53 141.35 259.815L142.384 258.103ZM142.175 260.314C142.648 260.6 143.262 260.448 143.548 259.976C143.834 259.503 143.683 258.888 143.21 258.602L142.175 260.314ZM148.14 261.587C147.667 261.301 147.052 261.453 146.766 261.925C146.481 262.398 146.632 263.013 147.105 263.299L148.14 261.587ZM147.925 263.794C148.398 264.079 149.012 263.927 149.298 263.454C149.583 262.982 149.431 262.367 148.958 262.082L147.925 263.794ZM153.896 265.041C153.421 264.759 152.808 264.915 152.526 265.39C152.244 265.865 152.4 266.479 152.875 266.761L153.896 265.041ZM153.702 267.251C154.178 267.532 154.791 267.375 155.072 266.9C155.353 266.424 155.196 265.811 154.721 265.53L153.702 267.251ZM159.688 268.425C159.208 268.151 158.597 268.317 158.323 268.796C158.048 269.275 158.214 269.886 158.694 270.161L159.688 268.425ZM159.527 270.637C160.008 270.91 160.618 270.742 160.891 270.262C161.164 269.782 160.996 269.171 160.516 268.898L159.527 270.637ZM165.536 271.676C165.049 271.415 164.443 271.599 164.182 272.086C163.922 272.572 164.105 273.178 164.592 273.439L165.536 271.676ZM165.449 273.895C165.937 274.153 166.542 273.966 166.8 273.478C167.058 272.989 166.871 272.384 166.383 272.126L165.449 273.895ZM171.492 274.678C170.991 274.445 170.397 274.663 170.164 275.164C169.932 275.665 170.15 276.26 170.651 276.492L171.492 274.678ZM171.535 276.895C172.039 277.121 172.631 276.895 172.857 276.391C173.082 275.887 172.856 275.295 172.352 275.07L171.535 276.895ZM177.59 277.009C177.055 276.875 176.512 277.2 176.377 277.736C176.243 278.272 176.568 278.815 177.104 278.949L177.59 277.009ZM178.127 279.175C178.668 279.286 179.196 278.936 179.306 278.395C179.417 277.854 179.067 277.326 178.526 277.216L178.127 279.175ZM184.922 278.196C184.374 278.132 183.877 278.524 183.812 279.073C183.747 279.621 184.14 280.118 184.688 280.183L184.922 278.196ZM185.781 280.307C186.33 280.367 186.824 279.971 186.884 279.422C186.944 278.873 186.548 278.379 185.999 278.319L185.781 280.307ZM192.489 278.909C191.938 278.867 191.458 279.28 191.416 279.831C191.375 280.381 191.787 280.862 192.338 280.903L192.489 278.909ZM193.431 280.984C193.982 281.024 194.46 280.609 194.5 280.058C194.54 279.508 194.125 279.029 193.574 278.989L193.431 280.984ZM200.097 279.397C199.545 279.366 199.074 279.789 199.043 280.341C199.013 280.892 199.436 281.363 199.987 281.394L200.097 279.397ZM201.078 281.452C201.63 281.481 202.101 281.058 202.13 280.506C202.159 279.955 201.735 279.484 201.184 279.455L201.078 281.452ZM207.722 279.775C207.17 279.749 206.702 280.175 206.676 280.727C206.65 281.279 207.077 281.747 207.628 281.773L207.722 279.775ZM208.717 281.824C209.269 281.85 209.737 281.424 209.763 280.872C209.79 280.32 209.363 279.852 208.812 279.826L208.717 281.824ZM215.388 280.193C214.837 280.149 214.356 280.56 214.312 281.111C214.269 281.662 214.68 282.143 215.23 282.187L215.388 280.193ZM216.218 282.276C216.767 282.334 217.259 281.935 217.316 281.386C217.373 280.836 216.974 280.345 216.425 280.287L216.218 282.276ZM222.36 281.03C221.813 280.957 221.31 281.341 221.236 281.888C221.163 282.436 221.547 282.939 222.094 283.012L222.36 281.03ZM223.071 283.144C223.618 283.218 224.122 282.834 224.196 282.287C224.27 281.74 223.886 281.236 223.339 281.162L223.071 283.144ZM229.237 281.976C228.69 281.9 228.184 282.281 228.108 282.828C228.031 283.375 228.412 283.88 228.959 283.957L229.237 281.976ZM229.943 284.095C230.49 284.172 230.996 283.791 231.073 283.244C231.15 282.697 230.769 282.192 230.222 282.115L229.943 284.095ZM236.114 282.951C235.567 282.873 235.06 283.252 234.982 283.799C234.904 284.346 235.284 284.852 235.831 284.931L236.114 282.951ZM236.807 285.07C237.354 285.148 237.86 284.769 237.938 284.222C238.017 283.675 237.637 283.169 237.09 283.09L236.807 285.07ZM242.979 283.937C242.432 283.858 241.925 284.237 241.846 284.784C241.767 285.331 242.146 285.838 242.693 285.917L242.979 283.937ZM243.673 286.058C244.22 286.137 244.727 285.758 244.806 285.211C244.885 284.665 244.506 284.158 243.959 284.079L243.673 286.058ZM249.845 284.931C249.298 284.852 248.791 285.231 248.711 285.777C248.632 286.324 249.011 286.831 249.557 286.911L249.845 284.931ZM250.539 287.053C251.085 287.133 251.593 286.754 251.672 286.207C251.752 285.661 251.373 285.153 250.826 285.074L250.539 287.053ZM256.713 285.93C256.166 285.85 255.659 286.229 255.579 286.776C255.5 287.322 255.878 287.83 256.425 287.909L256.713 285.93ZM257.398 288.051C257.944 288.13 258.452 287.752 258.531 287.205C258.611 286.659 258.232 286.151 257.686 286.072L257.398 288.051ZM263.573 286.927C263.027 286.848 262.519 287.227 262.44 287.773C262.361 288.32 262.74 288.827 263.286 288.906L263.573 286.927ZM264.27 289.049C264.816 289.128 265.324 288.749 265.403 288.203C265.482 287.656 265.103 287.149 264.556 287.07L264.27 289.049ZM270.446 287.913C269.899 287.837 269.394 288.218 269.317 288.765C269.241 289.312 269.622 289.817 270.169 289.894L270.446 287.913ZM271.134 290.033C271.679 290.121 272.192 289.75 272.28 289.204C272.367 288.659 271.996 288.146 271.451 288.058L271.134 290.033ZM277.806 289.454C277.27 289.319 276.727 289.645 276.592 290.18C276.458 290.716 276.784 291.259 277.319 291.394L277.806 289.454ZM278.356 291.656C278.891 291.793 279.436 291.47 279.573 290.935C279.709 290.4 279.387 289.855 278.852 289.719L278.356 291.656ZM285.067 291.36C284.533 291.216 283.985 291.533 283.841 292.066C283.698 292.599 284.014 293.148 284.547 293.291L285.067 291.36ZM285.582 293.57C286.115 293.713 286.664 293.398 286.808 292.864C286.951 292.331 286.635 291.782 286.102 291.639L285.582 293.57ZM292.296 293.3C291.763 293.159 291.215 293.477 291.073 294.01C290.932 294.544 291.25 295.092 291.784 295.233L292.296 293.3ZM292.82 295.507C293.354 295.648 293.901 295.329 294.042 294.795C294.182 294.261 293.863 293.714 293.329 293.573L292.82 295.507ZM299.531 295.157C298.995 295.026 298.454 295.354 298.322 295.891C298.191 296.427 298.519 296.968 299.056 297.1L299.531 295.157ZM300.099 297.353C300.636 297.482 301.176 297.151 301.305 296.614C301.434 296.077 301.103 295.537 300.566 295.408L300.099 297.353ZM306.788 296.782C306.246 296.676 305.721 297.03 305.615 297.572C305.509 298.114 305.863 298.639 306.405 298.745L306.788 296.782ZM307.472 298.947C308.015 299.046 308.536 298.686 308.635 298.143C308.735 297.6 308.375 297.079 307.832 296.979L307.472 298.947ZM314.029 297.713C313.477 297.71 313.027 298.155 313.024 298.707C313.021 299.26 313.466 299.71 314.018 299.713L314.029 297.713ZM315.042 299.695C315.594 299.687 316.035 299.233 316.027 298.68C316.019 298.128 315.565 297.687 315.012 297.695L315.042 299.695ZM320.963 298.001C320.414 297.948 319.925 298.35 319.871 298.9C319.817 299.449 320.22 299.938 320.769 299.992L320.963 298.001ZM321.729 300.091C322.279 300.15 322.772 299.752 322.831 299.203C322.89 298.654 322.493 298.161 321.943 298.102L321.729 300.091ZM327.783 298.862C327.237 298.781 326.728 299.159 326.647 299.705C326.566 300.251 326.943 300.76 327.49 300.841L327.783 298.862ZM328.45 300.985C328.996 301.069 329.506 300.694 329.589 300.148C329.673 299.602 329.298 299.092 328.752 299.008L328.45 300.985ZM334.541 299.953C333.997 299.86 333.48 300.226 333.387 300.77C333.293 301.314 333.659 301.831 334.203 301.925L334.541 299.953ZM335.163 302.09C335.707 302.184 336.225 301.82 336.319 301.276C336.413 300.731 336.049 300.214 335.504 300.119L335.163 302.09ZM341.267 301.135C340.724 301.039 340.205 301.402 340.109 301.946C340.013 302.49 340.376 303.009 340.92 303.105L341.267 301.135ZM341.882 303.274C342.426 303.369 342.944 303.005 343.039 302.461C343.135 301.917 342.771 301.399 342.227 301.304L341.882 303.274ZM347.962 302.236C347.415 302.162 346.911 302.545 346.837 303.093C346.763 303.64 347.146 304.144 347.693 304.218L347.962 302.236ZM348.728 304.355C349.275 304.433 349.782 304.054 349.86 303.507C349.938 302.96 349.559 302.454 349.012 302.375L348.728 304.355ZM355.851 303.824C355.317 303.683 354.77 304.002 354.629 304.535C354.488 305.069 354.807 305.617 355.34 305.758L355.851 303.824ZM356.435 306.055C356.967 306.203 357.518 305.891 357.666 305.359C357.815 304.827 357.503 304.276 356.971 304.128L356.435 306.055ZM363.597 306.255C363.079 306.064 362.504 306.329 362.313 306.848C362.122 307.366 362.388 307.941 362.906 308.132L363.597 306.255ZM363.962 308.531C364.477 308.731 365.057 308.475 365.256 307.96C365.456 307.446 365.201 306.866 364.686 306.666L363.962 308.531ZM371.069 309.863C370.629 309.53 370.002 309.617 369.669 310.058C369.336 310.498 369.423 311.125 369.863 311.458L371.069 309.863ZM370.478 312.017C370.84 312.435 371.471 312.48 371.889 312.118C372.306 311.757 372.351 311.125 371.99 310.708L370.478 312.017ZM374.777 316.061C374.58 315.545 374.002 315.287 373.486 315.484C372.97 315.682 372.712 316.26 372.909 316.776L374.777 316.061ZM373.235 317.652C373.423 318.171 373.996 318.44 374.516 318.253C375.035 318.065 375.304 317.491 375.116 316.972L373.235 317.652ZM376.868 322.485C376.718 321.954 376.165 321.645 375.633 321.796C375.102 321.946 374.793 322.499 374.944 323.031L376.868 322.485ZM375.198 323.94C375.344 324.472 375.894 324.786 376.426 324.64C376.959 324.493 377.272 323.943 377.126 323.411L375.198 323.94ZM378.524 328.998C378.401 328.459 377.866 328.122 377.327 328.244C376.789 328.367 376.451 328.903 376.574 329.441L378.524 328.998ZM376.78 330.364C376.898 330.903 377.432 331.245 377.971 331.126C378.51 331.008 378.852 330.474 378.733 329.935L376.78 330.364ZM379.829 335.602C379.741 335.057 379.228 334.686 378.683 334.774C378.137 334.862 377.767 335.375 377.854 335.92L379.829 335.602ZM378.027 336.96C378.129 337.502 378.652 337.859 379.195 337.757C379.738 337.654 380.094 337.131 379.992 336.588L378.027 336.96ZM381.89 342.865C381.697 342.347 381.12 342.085 380.603 342.278C380.086 342.472 379.823 343.048 380.017 343.565L381.89 342.865ZM380.422 344.626C380.622 345.141 381.201 345.396 381.716 345.195C382.231 344.995 382.486 344.415 382.285 343.901L380.422 344.626ZM384.892 350.045C384.664 349.542 384.071 349.32 383.568 349.548C383.065 349.777 382.843 350.369 383.071 350.872L384.892 350.045ZM383.542 351.899C383.774 352.4 384.368 352.618 384.869 352.386C385.37 352.154 385.589 351.56 385.357 351.059L383.542 351.899ZM388.288 357.076C388.036 356.585 387.434 356.39 386.942 356.642C386.451 356.893 386.256 357.496 386.507 357.987L388.288 357.076ZM387.025 358.99C387.28 359.48 387.884 359.671 388.374 359.416C388.864 359.161 389.054 358.557 388.799 358.067L387.025 358.99ZM392.045 363.865C391.75 363.398 391.132 363.258 390.665 363.553C390.198 363.848 390.059 364.466 390.354 364.933L392.045 363.865ZM390.928 365.827C391.216 366.299 391.831 366.448 392.303 366.161C392.774 365.874 392.924 365.258 392.636 364.787L390.928 365.827ZM395.288 370.664C395.102 370.144 394.529 369.873 394.009 370.06C393.49 370.246 393.219 370.819 393.406 371.339L395.288 370.664ZM393.744 372.309C393.921 372.832 394.489 373.112 395.012 372.935C395.535 372.757 395.815 372.19 395.638 371.667L393.744 372.309ZM397.42 377.742C397.284 377.207 396.739 376.884 396.204 377.02C395.669 377.157 395.346 377.701 395.482 378.236L397.42 377.742ZM395.732 379.237C395.862 379.774 396.404 380.103 396.94 379.972C397.477 379.841 397.805 379.3 397.674 378.763L395.732 379.237ZM399.003 384.931C398.9 384.388 398.377 384.031 397.834 384.134C397.292 384.237 396.935 384.76 397.038 385.303L399.003 384.931ZM397.227 386.323C397.325 386.866 397.845 387.227 398.389 387.128C398.932 387.03 399.293 386.509 399.195 385.966L397.227 386.323ZM400.184 392.185C400.109 391.638 399.604 391.256 399.057 391.332C398.51 391.407 398.128 391.912 398.203 392.459L400.184 392.185ZM398.342 393.49C398.414 394.037 398.917 394.423 399.464 394.35C400.012 394.278 400.397 393.776 400.325 393.228L398.342 393.49ZM401.032 399.479C400.979 398.929 400.491 398.526 399.941 398.578C399.392 398.63 398.988 399.118 399.041 399.668L401.032 399.479ZM399.133 400.655C399.184 401.205 399.672 401.609 400.222 401.557C400.772 401.506 401.176 401.018 401.124 400.468L399.133 400.655ZM401.699 405.931C401.634 405.383 401.137 404.991 400.589 405.056C400.04 405.121 399.648 405.619 399.713 406.167L401.699 405.931ZM399.825 407.085C399.893 407.633 400.392 408.022 400.941 407.954C401.489 407.886 401.878 407.387 401.81 406.839L399.825 407.085ZM402.59 412.258C402.499 411.713 401.983 411.345 401.439 411.437C400.894 411.528 400.526 412.043 400.617 412.588L402.59 412.258ZM400.774 413.5C400.87 414.044 401.388 414.407 401.932 414.312C402.476 414.216 402.839 413.697 402.744 413.153L400.774 413.5ZM403.856 418.488C403.725 417.952 403.184 417.623 402.647 417.755C402.111 417.886 401.782 418.427 401.913 418.963L403.856 418.488ZM402.14 419.868C402.278 420.403 402.823 420.725 403.358 420.587C403.893 420.45 404.215 419.904 404.077 419.369L402.14 419.868ZM405.63 424.587C405.454 424.063 404.887 423.782 404.363 423.958C403.84 424.134 403.558 424.701 403.735 425.225L405.63 424.587ZM404.036 426.105C404.217 426.626 404.787 426.902 405.309 426.72C405.831 426.539 406.106 425.969 405.925 425.447L404.036 426.105ZM407.848 430.571C407.645 430.058 407.064 429.807 406.55 430.01C406.037 430.214 405.786 430.795 405.99 431.309L407.848 430.571ZM406.332 432.168C406.538 432.68 407.12 432.929 407.633 432.723C408.146 432.517 408.394 431.935 408.188 431.423L406.332 432.168ZM410.273 436.518C410.062 436.008 409.478 435.765 408.967 435.975C408.456 436.186 408.213 436.771 408.424 437.281L410.273 436.518ZM408.811 438.206C409.031 438.712 409.62 438.944 410.126 438.724C410.633 438.504 410.865 437.915 410.645 437.409L408.811 438.206ZM413.604 442.578C413.279 442.131 412.654 442.032 412.207 442.356C411.76 442.681 411.661 443.306 411.985 443.753L413.604 442.578ZM412.625 444.604C412.965 445.039 413.593 445.117 414.029 444.778C414.464 444.438 414.542 443.81 414.203 443.374L412.625 444.604ZM418.327 447.72C417.912 447.356 417.28 447.397 416.915 447.811C416.551 448.226 416.591 448.858 417.006 449.223L418.327 447.72ZM417.811 449.91C418.236 450.264 418.866 450.205 419.219 449.781C419.572 449.356 419.514 448.726 419.089 448.372L417.811 449.91ZM424.009 451.879C423.539 451.589 422.923 451.736 422.633 452.206C422.344 452.677 422.491 453.293 422.961 453.582L424.009 451.879ZM423.862 454.124C424.338 454.404 424.951 454.245 425.23 453.769C425.51 453.293 425.352 452.68 424.875 452.4L423.862 454.124ZM430.277 455.208C429.776 454.976 429.181 455.194 428.95 455.695C428.718 456.197 428.936 456.791 429.437 457.023L430.277 455.208ZM430.387 457.455C430.892 457.681 431.483 457.455 431.709 456.951C431.934 456.447 431.708 455.855 431.204 455.63L430.387 457.455ZM436.88 457.98C436.366 457.777 435.786 458.03 435.583 458.544C435.381 459.058 435.634 459.638 436.148 459.841L436.88 457.98ZM437.187 460.254C437.698 460.464 438.282 460.22 438.492 459.709C438.702 459.198 438.457 458.614 437.947 458.404L437.187 460.254ZM444.657 462.151C444.221 461.811 443.593 461.888 443.253 462.323C442.913 462.759 442.99 463.387 443.425 463.727L444.657 462.151ZM444.321 464.478C444.731 464.848 445.363 464.815 445.733 464.405C446.103 463.995 446.07 463.363 445.66 462.993L444.321 464.478ZM449.838 469.704C449.703 469.169 449.159 468.845 448.624 468.98C448.088 469.115 447.764 469.659 447.899 470.195L449.838 469.704ZM448.119 471.288C448.203 471.834 448.713 472.209 449.259 472.125C449.805 472.041 450.18 471.531 450.096 470.985L448.119 471.288ZM450.352 478.286C450.367 477.733 449.932 477.274 449.38 477.259C448.828 477.243 448.368 477.679 448.353 478.231L450.352 478.286ZM448.315 479.41C448.294 479.962 448.725 480.426 449.277 480.446C449.829 480.466 450.293 480.035 450.313 479.483L448.315 479.41ZM450.011 486.593C450.022 486.041 449.582 485.585 449.03 485.575C448.478 485.564 448.022 486.004 448.012 486.556L450.011 486.593ZM448.023 487.713C448.055 488.265 448.528 488.686 449.079 488.654C449.63 488.621 450.051 488.149 450.019 487.597L448.023 487.713ZM450.849 493.369C450.756 492.825 450.239 492.46 449.695 492.553C449.151 492.646 448.785 493.163 448.878 493.708L450.849 493.369ZM449.047 494.686C449.141 495.23 449.658 495.595 450.202 495.501C450.747 495.407 451.112 494.889 451.018 494.345L449.047 494.686ZM452.008 500.222C451.921 499.677 451.408 499.305 450.863 499.392C450.317 499.479 449.946 499.992 450.032 500.537L452.008 500.222ZM450.185 501.511C450.27 502.057 450.78 502.431 451.326 502.347C451.872 502.262 452.246 501.752 452.162 501.206L450.185 501.511ZM452.963 507.14C452.902 506.591 452.407 506.195 451.859 506.256C451.31 506.317 450.914 506.812 450.975 507.36L452.963 507.14ZM451.079 508.336C451.134 508.885 451.625 509.286 452.174 509.23C452.724 509.175 453.124 508.684 453.069 508.135L451.079 508.336ZM453.435 514.158C453.429 513.605 452.977 513.163 452.425 513.169C451.872 513.175 451.43 513.627 451.435 514.179L453.435 514.158ZM451.437 515.157C451.435 515.709 451.881 516.159 452.434 516.161C452.986 516.162 453.435 515.716 453.437 515.164L451.437 515.157ZM453.355 521.239C453.365 520.687 452.924 520.232 452.372 520.223C451.82 520.213 451.365 520.654 451.356 521.206L453.355 521.239ZM451.339 522.218C451.33 522.77 451.771 523.225 452.323 523.233C452.876 523.242 453.33 522.802 453.339 522.249L451.339 522.218ZM453.287 528.29C453.286 527.738 452.838 527.291 452.285 527.292C451.733 527.293 451.286 527.742 451.287 528.294L453.287 528.29ZM451.292 529.309C451.295 529.861 451.746 530.306 452.298 530.302C452.851 530.298 453.295 529.847 453.292 529.295L451.292 529.309ZM453.449 535.31C453.422 534.758 452.952 534.333 452.4 534.361C451.849 534.389 451.424 534.858 451.452 535.41L453.449 535.31ZM451.508 536.429C451.541 536.98 452.015 537.4 452.566 537.367C453.118 537.334 453.538 536.86 453.504 536.308L451.508 536.429ZM454.109 542.241C454.024 541.695 453.513 541.322 452.967 541.407C452.422 541.492 452.048 542.003 452.133 542.549L454.109 542.241ZM452.305 543.569C452.403 544.113 452.923 544.474 453.467 544.375C454.01 544.277 454.371 543.757 454.273 543.213L452.305 543.569ZM455.946 548.705C455.692 548.215 455.088 548.023 454.598 548.277C454.108 548.531 453.916 549.135 454.17 549.625L455.946 548.705ZM454.699 550.536C455.001 550.999 455.62 551.13 456.083 550.828C456.546 550.527 456.677 549.908 456.375 549.445L454.699 550.536ZM460.029 552.784C459.555 552.5 458.941 552.655 458.658 553.129C458.374 553.603 458.529 554.217 459.003 554.5L460.029 552.784ZM459.837 554.971C460.324 555.231 460.93 555.046 461.19 554.558C461.449 554.071 461.265 553.465 460.777 553.206L459.837 554.971ZM465.65 555.15C465.121 554.989 464.563 555.287 464.402 555.815C464.241 556.344 464.539 556.902 465.068 557.063L465.65 555.15ZM465.958 557.324C466.49 557.474 467.043 557.165 467.193 556.634C467.343 556.102 467.033 555.55 466.502 555.399L465.958 557.324ZM471.733 556.639C471.193 556.528 470.664 556.876 470.552 557.417C470.44 557.957 470.788 558.486 471.329 558.598L471.733 556.639ZM472.222 558.781C472.764 558.89 473.291 558.54 473.401 557.999C473.51 557.457 473.16 556.93 472.619 556.82L472.222 558.781ZM477.998 557.971C477.463 557.834 476.918 558.157 476.781 558.692C476.644 559.227 476.967 559.772 477.502 559.909L477.998 557.971ZM478.392 560.152C478.922 560.307 479.477 560.002 479.632 559.472C479.786 558.942 479.481 558.387 478.951 558.232L478.392 560.152ZM484.784 560.308C484.271 560.102 483.689 560.351 483.483 560.864C483.278 561.377 483.527 561.959 484.039 562.164L484.784 560.308ZM484.972 562.543C485.483 562.753 486.067 562.51 486.277 561.999C486.487 561.488 486.244 560.904 485.733 560.694L484.972 562.543ZM491.356 563.161C490.855 562.928 490.26 563.145 490.027 563.646C489.794 564.146 490.011 564.741 490.511 564.975L491.356 563.161ZM491.423 565.403C491.921 565.64 492.518 565.428 492.755 564.929C492.992 564.431 492.78 563.834 492.281 563.597L491.423 565.403ZM497.801 566.512C497.343 566.203 496.722 566.324 496.413 566.782C496.104 567.239 496.225 567.861 496.683 568.17L497.801 566.512ZM497.571 568.777C498.053 569.047 498.662 568.875 498.932 568.393C499.202 567.911 499.03 567.302 498.549 567.032L497.571 568.777ZM503.709 567.934C503.16 567.997 502.767 568.493 502.83 569.042C502.893 569.591 503.39 569.984 503.938 569.921L503.709 567.934ZM505.003 569.751C505.544 569.64 505.893 569.112 505.783 568.571C505.673 568.03 505.144 567.68 504.603 567.791L505.003 569.751ZM509.593 565.52C509.144 565.842 509.04 566.466 509.362 566.915C509.683 567.365 510.308 567.468 510.757 567.146L509.593 565.52ZM511.589 566.516C512.02 566.171 512.09 565.542 511.745 565.111C511.401 564.679 510.771 564.609 510.34 564.954L511.589 566.516ZM514.281 560.851C513.944 561.289 514.027 561.917 514.465 562.253C514.903 562.59 515.531 562.507 515.867 562.069L514.281 560.851ZM516.482 561.247C516.81 560.803 516.715 560.177 516.27 559.849C515.826 559.521 515.2 559.616 514.872 560.06L516.482 561.247ZM518.458 555.026C518.143 555.48 518.256 556.103 518.709 556.418C519.163 556.733 519.786 556.62 520.101 556.167L518.458 555.026ZM520.689 555.318C521.003 554.863 520.889 554.241 520.434 553.927C519.98 553.613 519.357 553.727 519.043 554.182L520.689 555.318ZM522.532 549.061C522.223 549.519 522.344 550.141 522.802 550.449C523.26 550.758 523.881 550.637 524.19 550.179L522.532 549.061ZM524.767 549.322C525.075 548.864 524.953 548.242 524.495 547.934C524.036 547.626 523.415 547.748 523.107 548.206L524.767 549.322ZM526.552 543.051C526.246 543.511 526.371 544.132 526.831 544.438C527.29 544.744 527.911 544.619 528.217 544.159L526.552 543.051ZM528.79 543.298C529.095 542.838 528.97 542.217 528.51 541.911C528.05 541.606 527.43 541.731 527.124 542.191L528.79 543.298ZM530.553 537.024C530.248 537.484 530.373 538.105 530.833 538.41C531.293 538.716 531.914 538.59 532.219 538.13L530.553 537.024ZM532.793 537.265C533.099 536.805 532.974 536.185 532.513 535.879C532.053 535.574 531.433 535.699 531.127 536.159L532.793 537.265ZM534.57 530.994C534.263 531.452 534.385 532.074 534.844 532.381C535.303 532.689 535.924 532.566 536.231 532.107L534.57 530.994ZM536.807 531.249C537.116 530.791 536.994 530.169 536.535 529.861C536.077 529.553 535.456 529.675 535.148 530.133L536.807 531.249ZM538.649 524.998C538.333 525.452 538.445 526.075 538.898 526.39C539.352 526.706 539.975 526.594 540.29 526.141L538.649 524.998ZM540.881 525.296C541.199 524.844 541.091 524.22 540.639 523.902C540.187 523.585 539.564 523.693 539.246 524.145L540.881 525.296ZM543.186 519.078C542.78 519.453 542.755 520.085 543.13 520.491C543.505 520.897 544.137 520.922 544.543 520.547L543.186 519.078ZM544.701 520.484C545.253 520.487 545.704 520.043 545.708 519.491C545.712 518.938 545.267 518.488 544.715 518.484L544.701 520.484ZM550.194 519.832C549.671 519.654 549.103 519.933 548.925 520.456C548.746 520.979 549.025 521.547 549.548 521.725L550.194 519.832ZM550.376 522.013C550.896 522.198 551.468 521.926 551.653 521.406C551.838 520.885 551.565 520.314 551.045 520.129L550.376 522.013ZM556.073 522.077C555.563 521.864 554.978 522.105 554.765 522.615C554.553 523.124 554.794 523.71 555.303 523.922L556.073 522.077ZM556.114 524.265C556.622 524.481 557.21 524.245 557.427 523.737C557.643 523.229 557.407 522.642 556.9 522.425L556.114 524.265ZM561.817 524.737C561.332 524.471 560.725 524.649 560.459 525.133C560.194 525.618 560.372 526.225 560.856 526.491L561.817 524.737ZM561.64 526.932C562.126 527.195 562.733 527.014 562.996 526.529C563.259 526.043 563.079 525.436 562.593 525.173L561.64 526.932ZM567.452 527.544C566.952 527.31 566.356 527.526 566.122 528.026C565.889 528.526 566.104 529.121 566.605 529.355L567.452 527.544ZM567.433 529.741C567.934 529.974 568.528 529.757 568.761 529.256C568.994 528.755 568.777 528.161 568.276 527.928L567.433 529.741ZM573.234 530.206C572.731 529.977 572.138 530.199 571.909 530.701C571.68 531.204 571.902 531.797 572.404 532.026L573.234 530.206ZM573.234 532.404C573.737 532.633 574.33 532.411 574.559 531.908C574.788 531.406 574.566 530.813 574.063 530.584L573.234 532.404ZM579.041 532.844C578.538 532.616 577.945 532.838 577.717 533.341C577.489 533.844 577.712 534.437 578.215 534.665L579.041 532.844ZM579.045 535.042C579.548 535.27 580.141 535.047 580.369 534.544C580.597 534.041 580.374 533.448 579.871 533.22L579.045 535.042ZM584.847 535.483C584.345 535.254 583.752 535.475 583.522 535.977C583.292 536.479 583.513 537.073 584.016 537.302L584.847 535.483ZM584.845 537.682C585.347 537.912 585.94 537.692 586.171 537.19C586.401 536.688 586.181 536.094 585.679 535.864L584.845 537.682ZM590.655 538.196C590.159 537.953 589.56 538.158 589.317 538.654C589.074 539.15 589.279 539.749 589.775 539.992L590.655 538.196ZM590.633 540.429C591.119 540.69 591.725 540.508 591.987 540.021C592.248 539.535 592.066 538.928 591.58 538.667L590.633 540.429ZM597.337 542.183C596.874 541.883 596.254 542.015 595.954 542.478C595.653 542.941 595.785 543.561 596.248 543.861L597.337 542.183ZM597.176 544.466C597.638 544.769 598.258 544.64 598.56 544.178C598.863 543.716 598.734 543.096 598.272 542.794L597.176 544.466ZM603.822 546.526C603.367 546.213 602.744 546.328 602.431 546.783C602.118 547.238 602.234 547.861 602.689 548.174L603.822 546.526ZM603.601 548.803C604.055 549.117 604.678 549.004 604.992 548.55C605.307 548.096 605.193 547.473 604.739 547.158L603.601 548.803ZM610.202 551.025C609.755 550.701 609.129 550.8 608.805 551.247C608.48 551.694 608.58 552.319 609.027 552.643L610.202 551.025ZM609.92 553.296C610.366 553.623 610.992 553.527 611.318 553.081C611.645 552.636 611.549 552.01 611.104 551.684L609.92 553.296ZM616.442 555.917C616.052 555.525 615.419 555.524 615.027 555.913C614.636 556.303 614.634 556.936 615.024 557.328L616.442 555.917ZM617.101 557.791C617.56 557.483 617.682 556.862 617.374 556.403C617.066 555.945 616.445 555.823 615.986 556.131L617.101 557.791ZM620.258 551.648C619.899 552.067 619.947 552.699 620.366 553.059C620.785 553.418 621.416 553.37 621.776 552.951L620.258 551.648ZM622.478 552.127C622.835 551.706 622.782 551.075 622.361 550.718C621.939 550.361 621.308 550.414 620.951 550.835L622.478 552.127ZM625.029 545.859C624.685 546.291 624.756 546.92 625.188 547.264C625.619 547.608 626.249 547.537 626.593 547.105L625.029 545.859ZM627.265 546.259C627.607 545.825 627.534 545.196 627.101 544.854C626.667 544.511 626.038 544.585 625.696 545.018L627.265 546.259ZM629.624 539.918C629.293 540.36 629.384 540.987 629.826 541.317C630.268 541.648 630.895 541.558 631.226 541.115L629.624 539.918ZM631.872 540.245C632.2 539.801 632.106 539.175 631.662 538.847C631.218 538.519 630.592 538.613 630.263 539.057L631.872 540.245ZM633.842 533.833C633.573 534.315 633.744 534.924 634.226 535.194C634.708 535.464 635.317 535.292 635.587 534.81L633.842 533.833ZM636.094 533.711C636.284 533.193 636.018 532.618 635.5 532.428C634.981 532.237 634.407 532.503 634.216 533.022L636.094 533.711ZM635.828 526.997C635.702 527.535 636.036 528.072 636.574 528.198C637.112 528.323 637.65 527.989 637.775 527.451L635.828 526.997ZM638.016 526.412C638.139 525.874 637.802 525.337 637.264 525.214C636.726 525.091 636.189 525.427 636.066 525.966L638.016 526.412ZM637.439 519.76C637.322 520.3 637.665 520.833 638.205 520.949C638.744 521.066 639.277 520.723 639.393 520.183L637.439 519.76ZM639.617 519.148C639.733 518.608 639.39 518.076 638.85 517.96C638.31 517.843 637.778 518.187 637.662 518.727L639.617 519.148ZM638.999 512.504C638.883 513.044 639.226 513.576 639.766 513.692C640.306 513.809 640.838 513.465 640.954 512.926L638.999 512.504ZM641.178 511.889C641.295 511.349 640.952 510.817 640.412 510.7C639.873 510.583 639.34 510.926 639.223 511.466L641.178 511.889ZM640.601 505.238C640.478 505.777 640.815 506.313 641.353 506.436C641.892 506.559 642.428 506.222 642.551 505.683L640.601 505.238ZM642.787 504.655C642.912 504.117 642.577 503.58 642.039 503.455C641.501 503.33 640.964 503.665 640.839 504.203L642.787 504.655ZM642.43 497.971C642.271 498.5 642.571 499.058 643.099 499.217C643.628 499.376 644.186 499.076 644.345 498.547L642.43 497.971ZM644.65 497.574C644.814 497.047 644.521 496.486 643.993 496.321C643.466 496.157 642.905 496.45 642.741 496.978L644.65 497.574ZM644.417 491.058C644.278 491.593 644.599 492.139 645.134 492.278C645.668 492.416 646.214 492.096 646.353 491.561L644.417 491.058ZM646.611 490.554C646.747 490.018 646.423 489.474 645.887 489.339C645.352 489.203 644.808 489.528 644.672 490.063L646.611 490.554ZM646.075 484.059C645.959 484.599 646.303 485.131 646.843 485.247C647.383 485.362 647.915 485.018 648.03 484.478L646.075 484.059ZM648.245 483.461C648.357 482.92 648.009 482.391 647.469 482.279C646.928 482.166 646.399 482.514 646.286 483.055L648.245 483.461ZM647.411 477C647.323 477.545 647.693 478.059 648.238 478.148C648.783 478.236 649.297 477.866 649.385 477.321L647.411 477ZM649.548 476.292C649.632 475.746 649.258 475.236 648.712 475.151C648.166 475.067 647.656 475.442 647.572 475.988L649.548 476.292ZM648.329 469.897C648.279 470.447 648.684 470.933 649.234 470.983C649.784 471.033 650.271 470.627 650.321 470.077L648.329 469.897ZM650.408 469.035C650.451 468.484 650.039 468.003 649.488 467.961C648.937 467.918 648.456 468.33 648.414 468.881L650.408 469.035ZM648.572 462.797C648.593 463.349 649.057 463.78 649.609 463.759C650.161 463.738 650.592 463.274 650.571 462.722L648.572 462.797ZM650.521 461.652C650.494 461.101 650.025 460.675 649.473 460.702C648.922 460.729 648.496 461.198 648.523 461.749L650.521 461.652ZM648.378 455.212C648.367 455.764 648.805 456.221 649.357 456.233C649.909 456.245 650.366 455.806 650.378 455.254L648.378 455.212ZM650.415 454.205C650.442 453.654 650.018 453.184 649.466 453.156C648.914 453.128 648.445 453.553 648.417 454.105L650.415 454.205ZM649.865 447.559C649.693 448.084 649.979 448.649 650.504 448.821C651.029 448.993 651.594 448.707 651.766 448.182L649.865 447.559ZM652.069 447.013C652.14 446.466 651.754 445.964 651.206 445.892C650.659 445.821 650.157 446.207 650.086 446.755L652.069 447.013ZM649.407 441.331C649.524 441.871 650.057 442.214 650.597 442.097C651.136 441.979 651.479 441.447 651.362 440.907L649.407 441.331ZM651.148 439.947C651.024 439.409 650.488 439.073 649.95 439.196C649.411 439.319 649.075 439.856 649.198 440.394L651.148 439.947ZM647.802 434.76C647.94 435.295 648.485 435.617 649.02 435.48C649.555 435.343 649.877 434.798 649.74 434.263L647.802 434.76ZM649.498 433.322C649.361 432.787 648.817 432.464 648.282 432.601C647.747 432.738 647.424 433.283 647.561 433.818L649.498 433.322ZM646.165 428.131C646.286 428.67 646.822 429.008 647.361 428.886C647.899 428.764 648.237 428.229 648.115 427.69L646.165 428.131ZM647.909 426.752C647.793 426.212 647.261 425.868 646.721 425.984C646.181 426.1 645.837 426.632 645.953 427.172L647.909 426.752ZM645.107 421.205C645.11 421.757 645.561 422.202 646.113 422.199C646.665 422.195 647.11 421.745 647.107 421.193L645.107 421.205ZM647.143 420.229C647.173 419.678 646.751 419.206 646.2 419.175C645.648 419.145 645.176 419.567 645.146 420.118L647.143 420.229ZM645.645 413.513C645.597 414.063 646.003 414.548 646.553 414.597C647.104 414.645 647.589 414.239 647.638 413.689L645.645 413.513ZM647.736 412.596C647.786 412.046 647.381 411.56 646.831 411.51C646.281 411.459 645.794 411.865 645.744 412.415L647.736 412.596ZM646.399 405.842C646.339 406.391 646.737 406.884 647.286 406.943C647.835 407.003 648.328 406.605 648.387 406.056L646.399 405.842ZM648.506 404.968C648.567 404.419 648.171 403.925 647.622 403.864C647.073 403.803 646.579 404.199 646.518 404.748L648.506 404.968ZM647.303 398.185C647.232 398.733 647.618 399.234 648.166 399.305C648.714 399.376 649.215 398.989 649.286 398.442L647.303 398.185ZM649.429 397.356C649.501 396.808 649.117 396.306 648.569 396.233C648.022 396.16 647.519 396.545 647.446 397.092L649.429 397.356ZM648.404 390.545C648.316 391.09 648.686 391.603 649.231 391.692C649.777 391.78 650.29 391.41 650.379 390.865L648.404 390.545ZM650.557 389.786C650.649 389.242 650.282 388.726 649.737 388.634C649.193 388.542 648.677 388.909 648.585 389.453L650.557 389.786ZM649.878 382.919C649.75 383.456 650.081 383.995 650.618 384.124C651.155 384.252 651.695 383.921 651.823 383.384L649.878 382.919ZM652.064 382.406C652.197 381.87 651.87 381.328 651.334 381.195C650.798 381.062 650.256 381.389 650.123 381.925L652.064 382.406ZM651.401 376.39C651.288 376.931 651.633 377.461 652.174 377.575C652.714 377.689 653.245 377.343 653.358 376.802L651.401 376.39ZM653.552 375.863C653.662 375.321 653.312 374.794 652.771 374.684C652.229 374.575 651.702 374.925 651.592 375.466L653.552 375.863ZM652.566 369.892C652.487 370.439 652.866 370.946 653.413 371.025C653.959 371.104 654.466 370.726 654.546 370.179L652.566 369.892ZM654.679 369.225C654.752 368.678 654.368 368.175 653.821 368.101C653.273 368.028 652.77 368.412 652.697 368.959L654.679 369.225ZM653.256 363.342C653.221 363.893 653.64 364.369 654.191 364.403C654.742 364.438 655.217 364.02 655.252 363.469L653.256 363.342ZM655.307 362.506C655.335 361.954 654.91 361.485 654.359 361.457C653.807 361.429 653.337 361.854 653.309 362.405L655.307 362.506ZM653.367 356.774C653.384 357.326 653.846 357.759 654.398 357.742C654.95 357.724 655.383 357.263 655.366 356.711L653.367 356.774ZM655.328 355.745C655.302 355.193 654.835 354.766 654.283 354.792C653.731 354.817 653.305 355.285 653.33 355.837L655.328 355.745ZM652.818 350.238C652.894 350.785 653.398 351.167 653.946 351.092C654.493 351.016 654.875 350.511 654.799 349.964L652.818 350.238ZM654.659 349.008C654.575 348.462 654.065 348.087 653.519 348.172C652.973 348.256 652.599 348.767 652.683 349.312L654.659 349.008ZM651.561 343.81C651.697 344.345 652.242 344.668 652.777 344.532C653.312 344.395 653.635 343.851 653.499 343.316L651.561 343.81ZM653.249 342.358C653.108 341.824 652.562 341.505 652.027 341.645C651.493 341.785 651.174 342.332 651.314 342.866L653.249 342.358ZM649.826 337.015C649.958 337.551 650.5 337.879 651.036 337.747C651.573 337.616 651.9 337.074 651.769 336.538L649.826 337.015ZM651.531 335.566C651.401 335.029 650.86 334.699 650.323 334.83C649.787 334.96 649.457 335.501 649.588 336.038L651.531 335.566ZM648.214 330.159C648.334 330.698 648.869 331.037 649.408 330.916C649.947 330.795 650.286 330.26 650.165 329.721L648.214 330.159ZM649.948 328.744C649.828 328.205 649.294 327.865 648.755 327.984C648.216 328.103 647.875 328.637 647.995 329.176L649.948 328.744ZM646.748 323.265C646.856 323.806 647.383 324.157 647.925 324.049C648.466 323.94 648.817 323.413 648.709 322.872L646.748 323.265ZM648.514 321.891C648.408 321.349 647.882 320.997 647.34 321.103C646.798 321.21 646.445 321.736 646.552 322.277L648.514 321.891ZM645.45 316.335C645.544 316.879 646.062 317.244 646.606 317.149C647.15 317.054 647.515 316.537 647.42 315.993L645.45 316.335ZM647.251 315.007C647.158 314.462 646.642 314.096 646.098 314.188C645.553 314.281 645.187 314.797 645.279 315.341L647.251 315.007ZM644.339 309.369C644.418 309.915 644.926 310.294 645.472 310.215C646.019 310.136 646.398 309.629 646.318 309.082L644.339 309.369ZM646.167 308.073C646.074 307.529 645.557 307.163 645.013 307.256C644.468 307.349 644.102 307.866 644.195 308.41L646.167 308.073ZM642.683 302.703C642.855 303.228 643.42 303.514 643.945 303.342C644.469 303.171 644.756 302.606 644.584 302.081L642.683 302.703ZM644.259 301.111C644.081 300.588 643.513 300.309 642.99 300.488C642.467 300.666 642.188 301.235 642.367 301.757L644.259 301.111ZM640.253 296.145C640.462 296.656 641.046 296.902 641.557 296.693C642.068 296.484 642.314 295.9 642.105 295.389L640.253 296.145ZM641.717 294.45C641.504 293.94 640.919 293.7 640.409 293.913C639.899 294.125 639.659 294.711 639.872 295.221L641.717 294.45ZM637.427 289.731C637.663 290.231 638.26 290.444 638.759 290.208C639.258 289.972 639.471 289.375 639.235 288.876L637.427 289.731ZM638.797 287.958C638.557 287.461 637.959 287.252 637.462 287.492C636.964 287.732 636.755 288.33 636.995 288.827L638.797 287.958ZM634.256 283.485C634.521 283.969 635.128 284.148 635.613 283.884C636.098 283.619 636.276 283.012 636.012 282.527L634.256 283.485ZM635.52 281.635C635.251 281.153 634.642 280.98 634.159 281.249C633.677 281.518 633.504 282.127 633.773 282.609L635.52 281.635ZM630.691 277.484C630.993 277.946 631.612 278.076 632.075 277.774C632.537 277.472 632.667 276.852 632.365 276.39L630.691 277.484ZM631.796 275.534C631.487 275.076 630.865 274.956 630.408 275.265C629.95 275.574 629.83 276.195 630.139 276.653L631.796 275.534ZM626.541 271.96C626.91 272.371 627.542 272.404 627.953 272.035C628.364 271.665 628.397 271.033 628.028 270.622L626.541 271.96ZM627.35 269.888C626.974 269.483 626.341 269.46 625.936 269.835C625.532 270.211 625.508 270.844 625.884 271.249L627.35 269.888ZM621.957 266.851C622.314 267.273 622.945 267.325 623.367 266.968C623.788 266.611 623.84 265.98 623.483 265.558L621.957 266.851ZM622.864 264.82C622.512 264.394 621.881 264.335 621.456 264.688C621.031 265.04 620.972 265.67 621.324 266.096L622.864 264.82ZM617.725 261.378C618.04 261.831 618.663 261.944 619.117 261.629C619.571 261.315 619.683 260.692 619.369 260.238L617.725 261.378ZM618.829 259.446C618.522 258.987 617.901 258.864 617.442 259.171C616.983 259.478 616.86 260.099 617.167 260.558L618.829 259.446ZM614.133 255.426C614.385 255.917 614.988 256.11 615.479 255.857C615.97 255.605 616.163 255.002 615.911 254.511L614.133 255.426ZM615.482 253.657C615.239 253.161 614.64 252.956 614.144 253.199C613.648 253.441 613.443 254.04 613.686 254.536L615.482 253.657ZM611.404 249.019C611.582 249.541 612.15 249.821 612.673 249.642C613.196 249.464 613.475 248.896 613.297 248.373L611.404 249.019ZM612.998 247.466C612.831 246.939 612.268 246.648 611.742 246.815C611.216 246.983 610.924 247.545 611.092 248.071L612.998 247.466ZM609.641 242.283C609.742 242.826 610.265 243.183 610.808 243.082C611.35 242.98 611.708 242.458 611.607 241.915L609.641 242.283ZM611.439 240.971C611.348 240.427 610.833 240.059 610.288 240.15C609.744 240.241 609.376 240.756 609.467 241.301L611.439 240.971ZM608.811 235.385C608.843 235.936 609.316 236.358 609.867 236.326C610.419 236.294 610.84 235.821 610.808 235.27L608.811 235.385ZM610.755 234.249C610.726 233.697 610.256 233.273 609.704 233.302C609.153 233.331 608.729 233.801 608.758 234.353L610.755 234.249ZM608.309 228.042C608.36 228.592 608.846 228.997 609.396 228.946C609.946 228.896 610.351 228.409 610.301 227.859L608.309 228.042ZM610.199 226.796C610.144 226.247 609.654 225.846 609.105 225.9C608.555 225.955 608.154 226.445 608.209 226.995L610.199 226.796ZM607.424 220.732C607.507 221.277 608.018 221.652 608.564 221.569C609.109 221.485 609.484 220.975 609.401 220.429L607.424 220.732ZM609.234 219.373C609.145 218.828 608.631 218.458 608.086 218.547C607.541 218.635 607.171 219.149 607.26 219.694L609.234 219.373ZM606.059 213.503C606.18 214.042 606.715 214.38 607.254 214.259C607.793 214.137 608.131 213.602 608.009 213.063L606.059 213.503ZM607.769 212.02C607.642 211.482 607.103 211.149 606.566 211.276C606.028 211.403 605.695 211.941 605.822 212.479L607.769 212.02ZM604.217 206.367C604.368 206.898 604.922 207.206 605.453 207.055C605.984 206.903 606.291 206.35 606.14 205.819L604.217 206.367ZM605.845 204.794C605.691 204.264 605.136 203.959 604.606 204.113C604.075 204.267 603.77 204.822 603.924 205.352L605.845 204.794ZM602.111 199.258C602.269 199.787 602.826 200.088 603.355 199.93C603.884 199.773 604.185 199.216 604.028 198.687L602.111 199.258ZM603.758 197.743C603.626 197.206 603.083 196.879 602.547 197.012C602.011 197.144 601.684 197.686 601.816 198.222L603.758 197.743ZM601.743 191.882C601.644 192.426 602.005 192.946 602.548 193.045C603.091 193.144 603.612 192.783 603.711 192.24L601.743 191.882ZM603.902 191.313C604.027 190.775 603.692 190.238 603.154 190.113C602.616 189.988 602.079 190.323 601.954 190.861L603.902 191.313ZM604.015 185.051C603.782 185.551 603.999 186.146 604.499 186.38C605 186.613 605.595 186.396 605.828 185.895L604.015 185.051ZM606.248 185.023C606.495 184.528 606.293 183.928 605.799 183.682C605.304 183.436 604.704 183.637 604.458 184.132L606.248 185.023ZM607.528 178.871C607.221 179.33 607.345 179.951 607.804 180.258C608.263 180.564 608.884 180.441 609.191 179.981L607.528 178.871ZM609.741 179.175C610.056 178.721 609.944 178.098 609.491 177.783C609.037 177.467 608.414 177.58 608.099 178.033L609.741 179.175ZM611.853 173.244C611.485 173.656 611.521 174.288 611.933 174.656C612.345 175.024 612.977 174.988 613.345 174.576L611.853 173.244ZM614.015 173.764C614.346 173.322 614.256 172.696 613.814 172.364C613.372 172.033 612.745 172.123 612.414 172.566L614.015 173.764ZM615.884 167.924C615.553 168.367 615.644 168.993 616.087 169.324C616.529 169.654 617.156 169.563 617.486 169.12L615.884 167.924ZM618.066 168.344C618.396 167.901 618.305 167.275 617.862 166.944C617.419 166.614 616.793 166.705 616.463 167.148L618.066 168.344ZM619.922 162.504C619.592 162.947 619.684 163.573 620.127 163.903C620.57 164.232 621.197 164.14 621.526 163.697L619.922 162.504ZM622.102 162.923C622.431 162.48 622.339 161.854 621.895 161.524C621.452 161.195 620.826 161.287 620.496 161.73L622.102 162.923ZM623.948 157.078C623.619 157.522 623.712 158.148 624.156 158.477C624.6 158.806 625.226 158.712 625.555 158.269L623.948 157.078ZM626.129 157.493C626.458 157.049 626.364 156.422 625.92 156.094C625.476 155.765 624.85 155.859 624.522 156.303L626.129 157.493ZM627.959 151.645C627.632 152.09 627.727 152.716 628.172 153.043C628.617 153.371 629.243 153.275 629.57 152.831L627.959 151.645ZM630.144 152.05C630.471 151.605 630.376 150.979 629.931 150.652C629.486 150.325 628.86 150.42 628.533 150.865L630.144 152.05ZM631.949 146.196C631.624 146.642 631.723 147.268 632.17 147.593C632.616 147.918 633.242 147.819 633.567 147.372L631.949 146.196ZM634.134 146.591C634.459 146.144 634.359 145.518 633.912 145.194C633.465 144.87 632.84 144.969 632.515 145.416L634.134 146.591ZM635.87 140.716C635.556 141.17 635.67 141.793 636.125 142.107C636.579 142.421 637.202 142.307 637.516 141.853L635.87 140.716ZM638.086 141.018C638.396 140.562 638.278 139.94 637.821 139.629C637.365 139.319 636.743 139.437 636.432 139.894L638.086 141.018ZM639.981 134.584C639.679 135.046 639.809 135.666 640.271 135.968C640.734 136.27 641.354 136.14 641.656 135.678L639.981 134.584ZM642.24 134.779C642.54 134.316 642.408 133.697 641.944 133.396C641.48 133.096 640.861 133.229 640.561 133.693L642.24 134.779ZM643.936 128.294C643.652 128.767 643.806 129.381 644.28 129.666C644.753 129.95 645.367 129.796 645.652 129.322L643.936 128.294ZM646.201 128.399C646.481 127.923 646.323 127.31 645.847 127.03C645.372 126.749 644.759 126.907 644.478 127.383L646.201 128.399ZM647.534 121.833C647.286 122.326 647.485 122.927 647.978 123.176C648.472 123.424 649.073 123.225 649.321 122.732L647.534 121.833ZM649.8 121.759C650.04 121.261 649.831 120.663 649.334 120.424C648.836 120.184 648.238 120.393 647.999 120.89L649.8 121.759ZM650.186 115.133C650.066 115.673 650.407 116.207 650.946 116.326C651.485 116.446 652.019 116.105 652.139 115.566L650.186 115.133ZM652.335 114.495C652.423 113.95 652.053 113.437 651.507 113.349C650.962 113.261 650.449 113.631 650.361 114.176L652.335 114.495ZM651.162 108.19C651.094 108.738 651.483 109.237 652.031 109.306C652.579 109.374 653.078 108.985 653.146 108.437L651.162 108.19ZM653.272 107.433C653.34 106.885 652.951 106.385 652.403 106.316C651.855 106.248 651.355 106.637 651.287 107.185L653.272 107.433ZM652.084 101.144C652.006 101.691 652.387 102.197 652.933 102.275C653.48 102.352 653.986 101.972 654.064 101.426L652.084 101.144ZM654.209 100.428C654.289 99.8812 653.911 99.3732 653.365 99.2928C652.818 99.2125 652.31 99.5904 652.23 100.137L654.209 100.428ZM653.223 94.1064C653.122 94.6494 653.481 95.1713 654.024 95.2721C654.567 95.3729 655.089 95.0144 655.19 94.4714L653.223 94.1064ZM655.377 93.4845C655.482 92.9423 655.128 92.4175 654.586 92.3123C654.044 92.2071 653.519 92.5614 653.414 93.1035L655.377 93.4845ZM654.762 87.1139C654.622 87.6481 654.942 88.1947 655.476 88.3348C656.01 88.4748 656.557 88.1552 656.697 87.621L654.762 87.1139ZM656.957 86.6574C657.104 86.1252 656.793 85.5741 656.26 85.4264C655.728 85.2787 655.177 85.5905 655.029 86.1227L656.957 86.6574ZM657.012 80.2534C656.8 80.7635 657.042 81.3487 657.552 81.5604C658.062 81.7721 658.647 81.5302 658.859 81.0201L657.012 80.2534ZM659.23 80.1536C659.449 79.6467 659.216 79.058 658.709 78.8388C658.202 78.6195 657.613 78.8527 657.394 79.3596L659.23 80.1536ZM659.624 74.2274C659.404 74.7337 659.635 75.323 660.141 75.5436C660.648 75.7643 661.237 75.5327 661.458 75.0265L659.624 74.2274ZM661.831 74.1703C662.052 73.6641 661.82 73.0747 661.314 72.8539C660.808 72.6331 660.218 72.8645 659.998 73.3708L661.831 74.1703ZM662.237 68.2445C662.015 68.7505 662.246 69.3401 662.752 69.5614C663.258 69.7826 663.848 69.5518 664.069 69.0458L662.237 68.2445ZM664.442 68.1938C664.663 67.6878 664.432 67.0982 663.926 66.8768C663.42 66.6555 662.831 66.8863 662.609 67.3923L664.442 68.1938ZM664.852 62.2692C664.63 62.7751 664.861 63.3648 665.367 63.5864C665.872 63.808 666.462 63.5775 666.684 63.0716L664.852 62.2692ZM667.058 62.2183C667.279 61.7124 667.049 61.1226 666.543 60.901C666.037 60.6794 665.447 60.9098 665.226 61.4156L667.058 62.2183ZM667.471 56.2944C667.249 56.8002 667.479 57.3901 667.985 57.6119C668.491 57.8337 669.081 57.6035 669.302 57.0977L667.471 56.2944ZM669.677 56.2444C669.898 55.7386 669.668 55.1487 669.163 54.9269C668.657 54.705 668.067 54.9352 667.845 55.441L669.677 56.2444ZM670.092 50.3211C669.87 50.8268 670.1 51.4167 670.605 51.6387C671.111 51.8607 671.701 51.6307 671.923 51.125L670.092 50.3211ZM672.298 50.2713C672.52 49.7656 672.29 49.1757 671.784 48.9537C671.279 48.7316 670.689 48.9616 670.467 49.4673L672.298 50.2713ZM672.716 44.346C672.494 44.8517 672.724 45.4416 673.229 45.6638C673.735 45.886 674.325 45.6562 674.547 45.1505L672.716 44.346ZM674.92 44.3008C675.143 43.7951 674.913 43.2051 674.407 42.983C673.902 42.7608 673.312 42.9905 673.089 43.4962L674.92 44.3008ZM675.342 38.3728C675.119 38.8783 675.349 39.4684 675.854 39.6908C676.36 39.9131 676.95 39.6835 677.172 39.178L675.342 38.3728ZM677.56 38.357C677.808 37.8636 677.609 37.2624 677.116 37.0142C676.623 36.766 676.021 36.9647 675.773 37.458L677.56 38.357ZM678.624 31.9925C678.362 32.4788 678.544 33.0852 679.03 33.3469C679.517 33.6087 680.123 33.4266 680.385 32.9403L678.624 31.9925ZM680.87 32.0434C681.134 31.5581 680.954 30.951 680.469 30.6873C679.984 30.4235 679.376 30.6031 679.113 31.0884L680.87 32.0434ZM682.122 25.7128C681.846 26.1911 682.01 26.8026 682.489 27.0788C682.967 27.355 683.578 27.1911 683.855 26.7128L682.122 25.7128ZM684.365 25.8334C684.644 25.3564 684.483 24.7441 684.006 24.4656C683.529 24.1871 682.916 24.3481 682.638 24.825L684.365 25.8334ZM685.837 19.5483C685.542 20.0151 685.681 20.6328 686.148 20.928C686.615 21.2231 687.232 21.084 687.527 20.6172L685.837 19.5483ZM688.073 19.7618C688.372 19.2972 688.237 18.6785 687.773 18.3798C687.308 18.0811 686.689 18.2156 686.391 18.6801L688.073 19.7618ZM689.896 13.5647C689.568 14.0084 689.661 14.6347 690.104 14.9636C690.548 15.2925 691.174 15.1995 691.503 14.7558L689.896 13.5647ZM692.108 13.9537C692.445 13.5158 692.363 12.888 691.925 12.5514C691.487 12.2149 690.859 12.2971 690.522 12.735L692.108 13.9537ZM694.877 8.06963C694.438 8.40436 694.353 9.03183 694.688 9.47112C695.023 9.91041 695.65 9.99517 696.089 9.66044L694.877 8.06963ZM696.891 9.10886C697.352 8.80418 697.479 8.18377 697.174 7.72313C696.869 7.26249 696.249 7.13605 695.788 7.44073L696.891 9.10886ZM701.395 4.10503C700.903 4.35565 700.707 4.95778 700.958 5.44993C701.209 5.94208 701.811 6.13788 702.303 5.88726L701.395 4.10503ZM703.236 5.42817C703.735 5.19148 703.948 4.59508 703.711 4.09609C703.475 3.5971 702.878 3.38446 702.379 3.62115L703.236 5.42817ZM708.57 1.35697C708.036 1.49737 707.717 2.04418 707.857 2.57833C707.998 3.11247 708.544 3.43167 709.078 3.29128L708.57 1.35697ZM710.086 3.04255C710.625 2.91824 710.96 2.38124 710.836 1.84313C710.711 1.30501 710.174 0.969557 709.636 1.09386L710.086 3.04255ZM716.127 0.14042C715.576 0.180344 715.162 0.659252 715.202 1.21009C715.242 1.76093 715.721 2.17511 716.271 2.13519L716.127 0.14042ZM717.317 2.07062C717.869 2.04237 718.293 1.57234 718.265 1.02078C718.237 0.469215 717.767 0.0449898 717.215 0.0732429L717.317 2.07062ZM723.729 0.0955689C723.177 0.0669897 722.707 0.490937 722.679 1.04248C722.65 1.59403 723.074 2.06431 723.625 2.09289L723.729 0.0955689ZM724.686 2.15481C725.237 2.19004 725.713 1.7718 725.748 1.22064C725.783 0.669482 725.365 0.194117 724.814 0.158885L724.686 2.15481ZM731.261 0.737731C730.712 0.676141 730.217 1.07113 730.155 1.61997C730.094 2.16881 730.489 2.66367 731.038 2.72526L731.261 0.737731ZM732.095 2.84726C732.644 2.91218 733.141 2.5202 733.206 1.97174C733.271 1.42329 732.879 0.926048 732.331 0.861125L732.095 2.84726ZM738.726 1.71393C738.18 1.63434 737.672 2.01286 737.593 2.55938C737.513 3.1059 737.892 3.61346 738.438 3.69305L738.726 1.71393ZM739.494 3.84849C740.041 3.92966 740.549 3.55262 740.63 3.00634C740.712 2.46005 740.335 1.95139 739.788 1.87021L739.494 3.84849ZM746.146 2.84862C745.6 2.76348 745.089 3.13682 745.003 3.6825C744.918 4.22818 745.292 4.73957 745.837 4.82471L746.146 2.84862ZM746.895 4.98932C747.44 5.07403 747.951 4.70028 748.036 4.15453C748.121 3.60878 747.747 3.09769 747.201 3.01298L746.895 4.98932ZM753.538 3.93921C752.991 3.86798 752.489 4.25422 752.418 4.8019C752.346 5.34957 752.733 5.85128 753.28 5.92251L753.538 3.93921ZM754.352 6.05699C754.901 6.12308 755.399 5.73215 755.465 5.18383C755.531 4.63552 755.14 4.13745 754.592 4.07136L754.352 6.05699ZM760.829 4.45697C760.277 4.48356 759.851 4.95232 759.878 5.50396C759.904 6.05561 760.373 6.48125 760.925 6.45465L760.829 4.45697ZM762.128 6.35302C762.677 6.29119 763.072 5.79616 763.01 5.24735C762.948 4.69853 762.453 4.30376 761.904 4.3656L762.128 6.35302ZM768.97 2.92701C768.436 3.06886 768.118 3.61655 768.26 4.15031C768.402 4.68406 768.95 5.00176 769.484 4.85991L768.97 2.92701ZM770.68 4.53309C771.212 4.38408 771.522 3.83217 771.373 3.30037C771.224 2.76856 770.672 2.45825 770.141 2.60727L770.68 4.53309ZM777.087 0.393436C776.568 0.580875 776.298 1.15397 776.486 1.67347C776.673 2.19298 777.246 2.46217 777.766 2.27473L777.087 0.393436ZM0.071376 178.784C0.133985 178.941 0.204056 179.112 0.281098 179.295L2.12494 178.52C2.05169 178.346 1.98618 178.186 1.92862 178.042L0.071376 178.784ZM3.05566 185.202C3.21515 185.519 3.37902 185.841 3.54695 186.169L5.32657 185.256C5.16092 184.933 4.99928 184.615 4.84198 184.302L3.05566 185.202ZM6.64737 191.891C6.82709 192.205 7.00866 192.518 7.19187 192.831L8.91777 191.821C8.73773 191.513 8.5592 191.205 8.38239 190.897L6.64737 191.891ZM10.6813 198.356C10.8909 198.659 11.101 198.958 11.3114 199.252L12.9364 198.086C12.7335 197.803 12.5303 197.514 12.3272 197.22L10.6813 198.356ZM15.6663 204.31C15.8126 204.439 15.9588 204.562 16.1049 204.681L17.3642 203.127C17.2409 203.027 17.1158 202.921 16.9888 202.809L15.6663 204.31ZM16.1049 204.681C16.2441 204.794 16.3857 204.907 16.5296 205.019L17.7639 203.446C17.6281 203.339 17.4949 203.233 17.3642 203.127L16.1049 204.681ZM21.8812 208.656C22.184 208.839 22.4908 209.022 22.8014 209.205L23.8162 207.482C23.5125 207.303 23.2129 207.124 22.9177 206.945L21.8812 208.656ZM28.4181 212.29C28.7327 212.453 29.0489 212.615 29.3665 212.777L30.2729 210.994C29.9592 210.834 29.6471 210.674 29.3367 210.514L28.4181 212.29ZM35.1073 215.573C35.4286 215.724 35.7499 215.873 36.0708 216.022L36.9121 214.208C36.5936 214.06 36.2749 213.912 35.9562 213.762L35.1073 215.573ZM41.8821 218.642C42.0442 218.713 42.2058 218.784 42.3668 218.854L43.1693 217.022C43.009 216.952 42.8482 216.881 42.6869 216.811L41.8821 218.642ZM42.3668 218.854C42.5064 218.915 42.6489 218.979 42.7943 219.045L43.6184 217.222C43.4663 217.153 43.3166 217.087 43.1693 217.022L42.3668 218.854ZM47.9868 221.653C48.2693 221.804 48.5561 221.958 48.847 222.114L49.7957 220.354C49.5026 220.196 49.2133 220.04 48.928 219.888L47.9868 221.653ZM53.9916 224.932C54.2762 225.089 54.5631 225.247 54.8519 225.407L55.8183 223.656C55.5296 223.497 55.243 223.338 54.9582 223.181L53.9916 224.932ZM60.0077 228.234C60.2947 228.39 60.5828 228.545 60.8719 228.701L61.8212 226.941C61.5335 226.786 61.2468 226.631 60.9611 226.476L60.0077 228.234ZM66.0858 231.452C66.3774 231.602 66.6695 231.751 66.9618 231.9L67.868 230.117C67.5784 229.97 67.289 229.822 66.9998 229.673L66.0858 231.452ZM72.2721 234.493C72.5711 234.633 72.8699 234.77 73.1682 234.907L73.9994 233.088C73.7056 232.953 73.4113 232.818 73.1165 232.68L72.2721 234.493ZM78.6245 237.227C78.9357 237.348 79.2457 237.467 79.5544 237.582L80.2563 235.709C79.9557 235.597 79.6536 235.481 79.35 235.363L78.6245 237.227ZM85.2471 239.41C85.4082 239.452 85.5686 239.492 85.7284 239.531L86.2046 237.589C86.0529 237.551 85.9002 237.513 85.7468 237.473L85.2471 239.41ZM85.7284 239.531C85.8788 239.568 86.0303 239.605 86.183 239.643L86.6645 237.702C86.5101 237.664 86.3568 237.626 86.2046 237.589L85.7284 239.531ZM91.7073 241.091C92.0114 241.174 92.3177 241.258 92.6262 241.344L93.1598 239.416C92.8495 239.33 92.5412 239.245 92.2351 239.162L91.7073 241.091ZM98.125 242.911C98.4294 243 98.7347 243.089 99.0407 243.179L99.6059 241.261C99.2985 241.17 98.992 241.08 98.6862 240.991L98.125 242.911ZM104.52 244.827C104.824 244.92 105.128 245.013 105.432 245.107L106.021 243.196C105.716 243.102 105.411 243.008 105.106 242.914L104.52 244.827ZM110.893 246.819C111.197 246.916 111.5 247.013 111.802 247.11L112.413 245.205C112.11 245.108 111.806 245.011 111.5 244.913L110.893 246.819ZM117.243 248.884C117.547 248.985 117.847 249.085 118.145 249.185L118.779 247.288C118.48 247.188 118.178 247.088 117.873 246.986L117.243 248.884ZM123.554 251.034C123.861 251.142 124.163 251.248 124.457 251.353L125.126 249.468C124.829 249.362 124.526 249.255 124.216 249.147L123.554 251.034ZM129.788 253.343C129.936 253.403 130.077 253.461 130.21 253.517L130.98 251.671C130.84 251.613 130.693 251.552 130.54 251.49L129.788 253.343ZM130.21 253.517C130.331 253.567 130.462 253.625 130.603 253.689L131.433 251.869C131.275 251.797 131.124 251.731 130.98 251.671L130.21 253.517ZM135.586 256.384C135.856 256.541 136.133 256.702 136.415 256.868L137.427 255.143C137.142 254.976 136.864 254.813 136.591 254.654L135.586 256.384ZM141.35 259.815C141.622 259.98 141.897 260.146 142.175 260.314L143.21 258.602C142.932 258.434 142.657 258.268 142.384 258.103L141.35 259.815ZM147.105 263.299C147.377 263.463 147.65 263.628 147.925 263.794L148.958 262.082C148.684 261.916 148.411 261.751 148.14 261.587L147.105 263.299ZM152.875 266.761C153.15 266.924 153.426 267.088 153.702 267.251L154.721 265.53C154.446 265.367 154.171 265.204 153.896 265.041L152.875 266.761ZM158.694 270.161C158.972 270.32 159.25 270.479 159.527 270.637L160.516 268.898C160.241 268.741 159.964 268.584 159.688 268.425L158.694 270.161ZM164.592 273.439C164.879 273.593 165.165 273.745 165.449 273.895L166.383 272.126C166.103 271.978 165.82 271.828 165.536 271.676L164.592 273.439ZM170.651 276.492C170.95 276.631 171.245 276.765 171.535 276.895L172.352 275.07C172.07 274.943 171.783 274.813 171.492 274.678L170.651 276.492ZM177.104 278.949C177.268 278.99 177.429 279.028 177.587 279.062L178.011 277.107C177.875 277.078 177.735 277.045 177.59 277.009L177.104 278.949ZM177.587 279.062C177.765 279.1 177.944 279.138 178.127 279.175L178.526 277.216C178.351 277.18 178.179 277.144 178.011 277.107L177.587 279.062ZM184.688 280.183C185.049 280.225 185.413 280.267 185.781 280.307L185.999 278.319C185.636 278.279 185.277 278.238 184.922 278.196L184.688 280.183ZM192.338 280.903C192.702 280.931 193.066 280.958 193.431 280.984L193.574 278.989C193.212 278.963 192.85 278.936 192.489 278.909L192.338 280.903ZM199.987 281.394C200.353 281.414 200.717 281.433 201.078 281.452L201.184 279.455C200.824 279.436 200.461 279.417 200.097 279.397L199.987 281.394ZM207.628 281.773C207.998 281.79 208.362 281.807 208.717 281.824L208.812 279.826C208.456 279.809 208.092 279.792 207.722 279.775L207.628 281.773ZM215.23 282.187C215.417 282.201 215.593 282.216 215.757 282.231L215.939 280.239C215.765 280.224 215.581 280.208 215.388 280.193L215.23 282.187ZM215.757 282.231C215.893 282.244 216.047 282.259 216.218 282.276L216.425 280.287C216.247 280.269 216.085 280.253 215.939 280.239L215.757 282.231ZM222.094 283.012C222.412 283.055 222.737 283.099 223.071 283.144L223.339 281.162C223.005 281.117 222.678 281.073 222.36 281.03L222.094 283.012ZM228.959 283.957C229.284 284.003 229.612 284.049 229.943 284.095L230.222 282.115C229.89 282.068 229.562 282.022 229.237 281.976L228.959 283.957ZM235.831 284.931C236.155 284.977 236.48 285.023 236.807 285.07L237.09 283.09C236.763 283.044 236.438 282.997 236.114 282.951L235.831 284.931ZM242.693 285.917C243.02 285.964 243.346 286.011 243.673 286.058L243.959 284.079C243.632 284.031 243.305 283.984 242.979 283.937L242.693 285.917ZM249.557 286.911C249.886 286.958 250.213 287.006 250.539 287.053L250.826 285.074C250.5 285.027 250.173 284.979 249.845 284.931L249.557 286.911ZM256.425 287.909C256.752 287.957 257.077 288.004 257.398 288.051L257.686 286.072C257.365 286.025 257.04 285.978 256.713 285.93L256.425 287.909ZM263.286 288.906C263.621 288.955 263.949 289.003 264.27 289.049L264.556 287.07C264.236 287.023 263.908 286.976 263.573 286.927L263.286 288.906ZM270.169 289.894C270.335 289.917 270.492 289.939 270.639 289.959L270.913 287.978C270.767 287.958 270.611 287.936 270.446 287.913L270.169 289.894ZM270.639 289.959C270.796 289.981 270.961 290.005 271.134 290.033L271.451 288.058C271.265 288.029 271.086 288.002 270.913 287.978L270.639 289.959ZM277.319 291.394C277.658 291.479 278.004 291.566 278.356 291.656L278.852 289.719C278.497 289.628 278.148 289.539 277.806 289.454L277.319 291.394ZM284.547 293.291C284.89 293.383 285.235 293.476 285.582 293.57L286.102 291.639C285.755 291.545 285.41 291.452 285.067 291.36L284.547 293.291ZM291.784 295.233C292.129 295.325 292.474 295.416 292.82 295.507L293.329 293.573C292.985 293.483 292.641 293.392 292.296 293.3L291.784 295.233ZM299.056 297.1C299.405 297.185 299.753 297.27 300.099 297.353L300.566 295.408C300.223 295.326 299.878 295.242 299.531 295.157L299.056 297.1ZM306.405 298.745C306.766 298.815 307.122 298.883 307.472 298.947L307.832 296.979C307.49 296.917 307.142 296.851 306.788 296.782L306.405 298.745ZM314.018 299.713C314.21 299.714 314.397 299.712 314.579 299.706L314.514 297.707C314.36 297.712 314.198 297.714 314.029 297.713L314.018 299.713ZM314.579 299.706C314.73 299.701 314.885 299.697 315.042 299.695L315.012 297.695C314.844 297.698 314.678 297.702 314.514 297.707L314.579 299.706ZM320.769 299.992C321.086 300.023 321.406 300.056 321.729 300.091L321.943 298.102C321.613 298.066 321.287 298.033 320.963 298.001L320.769 299.992ZM327.49 300.841C327.809 300.888 328.129 300.936 328.45 300.985L328.752 299.008C328.428 298.959 328.105 298.91 327.783 298.862L327.49 300.841ZM334.203 301.925C334.525 301.98 334.844 302.035 335.163 302.09L335.504 300.119C335.185 300.064 334.864 300.009 334.541 299.953L334.203 301.925ZM340.92 303.105C341.245 303.162 341.566 303.218 341.882 303.274L342.227 301.304C341.912 301.249 341.592 301.192 341.267 301.135L340.92 303.105ZM347.693 304.218C347.861 304.24 348.023 304.262 348.18 304.281L348.428 302.297C348.279 302.278 348.123 302.258 347.962 302.236L347.693 304.218ZM348.18 304.281C348.358 304.304 348.541 304.328 348.728 304.355L349.012 302.375C348.814 302.347 348.619 302.321 348.428 302.297L348.18 304.281ZM355.34 305.758C355.704 305.854 356.069 305.953 356.435 306.055L356.971 304.128C356.597 304.024 356.223 303.922 355.851 303.824L355.34 305.758ZM362.906 308.132C363.265 308.264 363.617 308.397 363.962 308.531L364.686 306.666C364.33 306.528 363.966 306.391 363.597 306.255L362.906 308.132ZM369.863 311.458C370.005 311.565 370.127 311.667 370.232 311.762L371.578 310.283C371.422 310.14 371.251 310.001 371.069 309.863L369.863 311.458ZM370.232 311.762C370.307 311.83 370.389 311.915 370.478 312.017L371.99 310.708C371.858 310.556 371.721 310.413 371.578 310.283L370.232 311.762ZM372.909 316.776C373.018 317.06 373.127 317.353 373.235 317.652L375.116 316.972C375.004 316.662 374.891 316.358 374.777 316.061L372.909 316.776ZM374.944 323.031C375.03 323.332 375.114 323.635 375.198 323.94L377.126 323.411C377.041 323.101 376.955 322.792 376.868 322.485L374.944 323.031ZM376.574 329.441C376.644 329.751 376.713 330.059 376.78 330.364L378.733 329.935C378.665 329.625 378.595 329.313 378.524 328.998L376.574 329.441ZM377.854 335.92C377.88 336.076 377.904 336.229 377.927 336.378L379.903 336.075C379.88 335.92 379.855 335.762 379.829 335.602L377.854 335.92ZM377.927 336.378C377.956 336.568 377.989 336.762 378.027 336.96L379.992 336.588C379.958 336.411 379.929 336.24 379.903 336.075L377.927 336.378ZM380.017 343.565C380.148 343.915 380.283 344.269 380.422 344.626L382.285 343.901C382.15 343.552 382.018 343.206 381.89 342.865L380.017 343.565ZM383.071 350.872C383.227 351.215 383.384 351.558 383.542 351.899L385.357 351.059C385.201 350.722 385.046 350.384 384.892 350.045L383.071 350.872ZM386.507 357.987C386.682 358.328 386.854 358.663 387.025 358.99L388.799 358.067C388.631 357.743 388.46 357.413 388.288 357.076L386.507 357.987ZM390.354 364.933C390.464 365.108 390.57 365.271 390.67 365.422L392.335 364.313C392.245 364.178 392.148 364.029 392.045 363.865L390.354 364.933ZM390.67 365.422C390.754 365.548 390.84 365.683 390.928 365.827L392.636 364.787C392.535 364.622 392.435 364.464 392.335 364.313L390.67 365.422ZM393.406 371.339C393.518 371.652 393.631 371.976 393.744 372.309L395.638 371.667C395.521 371.323 395.405 370.989 395.288 370.664L393.406 371.339ZM395.482 378.236C395.566 378.565 395.649 378.898 395.732 379.237L397.674 378.763C397.59 378.418 397.505 378.077 397.42 377.742L395.482 378.236ZM397.038 385.303C397.101 385.639 397.164 385.979 397.227 386.323L399.195 385.966C399.131 385.617 399.067 385.272 399.003 384.931L397.038 385.303ZM398.203 392.459C398.25 392.8 398.297 393.143 398.342 393.49L400.325 393.228C400.279 392.878 400.232 392.53 400.184 392.185L398.203 392.459ZM399.041 399.668C399.057 399.841 399.073 400.014 399.089 400.188L401.081 400.005C401.065 399.829 401.048 399.654 401.032 399.479L399.041 399.668ZM399.089 400.188C399.104 400.345 399.118 400.5 399.133 400.655L401.124 400.468C401.11 400.315 401.095 400.16 401.081 400.005L399.089 400.188ZM399.713 406.167C399.75 406.477 399.787 406.783 399.825 407.085L401.81 406.839C401.773 406.54 401.736 406.238 401.699 405.931L399.713 406.167ZM400.617 412.588C400.669 412.896 400.721 413.2 400.774 413.5L402.744 413.153C402.692 412.859 402.64 412.561 402.59 412.258L400.617 412.588ZM401.913 418.963C401.988 419.268 402.063 419.569 402.14 419.868L404.077 419.369C404.002 419.078 403.928 418.785 403.856 418.488L401.913 418.963ZM403.735 425.225C403.833 425.518 403.934 425.811 404.036 426.105L405.925 425.447C405.825 425.16 405.727 424.873 405.63 424.587L403.735 425.225ZM405.99 431.309C406.102 431.592 406.216 431.879 406.332 432.168L408.188 431.423C408.073 431.136 407.96 430.852 407.848 430.571L405.99 431.309ZM408.424 437.281C408.483 437.424 408.542 437.567 408.601 437.711L410.45 436.949C410.391 436.804 410.332 436.661 410.273 436.518L408.424 437.281ZM408.601 437.711C408.67 437.877 408.74 438.042 408.811 438.206L410.645 437.409C410.579 437.256 410.514 437.103 410.45 436.949L408.601 437.711ZM411.985 443.753C412.194 444.041 412.408 444.325 412.625 444.604L414.203 443.374C413.999 443.113 413.799 442.848 413.604 442.578L411.985 443.753ZM417.006 449.223C417.272 449.456 417.54 449.686 417.811 449.91L419.089 448.372C418.833 448.159 418.578 447.942 418.327 447.72L417.006 449.223ZM422.961 453.582C423.261 453.767 423.561 453.947 423.862 454.124L424.875 452.4C424.586 452.23 424.297 452.056 424.009 451.879L422.961 453.582ZM429.437 457.023C429.756 457.171 430.073 457.315 430.387 457.455L431.204 455.63C430.897 455.492 430.588 455.352 430.277 455.208L429.437 457.023ZM436.148 459.841C436.309 459.904 436.468 459.966 436.624 460.028L437.356 458.167C437.199 458.105 437.041 458.043 436.88 457.98L436.148 459.841ZM436.624 460.028C436.814 460.103 437.002 460.178 437.187 460.254L437.947 458.404C437.752 458.324 437.556 458.245 437.356 458.167L436.624 460.028ZM443.425 463.727C443.743 463.975 444.041 464.226 444.321 464.478L445.66 462.993C445.345 462.708 445.01 462.427 444.657 462.151L443.425 463.727ZM447.899 470.195C447.946 470.379 447.987 470.564 448.025 470.75L449.986 470.358C449.942 470.14 449.893 469.922 449.838 469.704L447.899 470.195ZM448.025 470.75C448.059 470.92 448.09 471.1 448.119 471.288L450.096 470.985C450.063 470.77 450.026 470.561 449.986 470.358L448.025 470.75ZM448.353 478.231C448.342 478.624 448.329 479.017 448.315 479.41L450.313 479.483C450.328 479.086 450.341 478.686 450.352 478.286L448.353 478.231ZM448.012 486.556C448.007 486.769 448.005 486.973 448.005 487.166H450.005C450.005 486.988 450.007 486.797 450.011 486.593L448.012 486.556ZM448.005 487.166C448.005 487.337 448.012 487.52 448.023 487.713L450.019 487.597C450.01 487.433 450.005 487.29 450.005 487.166H448.005ZM448.878 493.708C448.933 494.027 448.989 494.353 449.047 494.686L451.018 494.345C450.96 494.013 450.904 493.687 450.849 493.369L448.878 493.708ZM450.032 500.537C450.084 500.86 450.135 501.185 450.185 501.511L452.162 501.206C452.111 500.876 452.059 500.548 452.008 500.222L450.032 500.537ZM450.975 507.36C451.011 507.686 451.046 508.012 451.079 508.336L453.069 508.135C453.035 507.804 453 507.472 452.963 507.14L450.975 507.36ZM451.435 514.179C451.437 514.341 451.438 514.502 451.438 514.661H453.438C453.438 514.494 453.437 514.326 453.435 514.158L451.435 514.179ZM451.438 514.661C451.438 514.824 451.438 514.99 451.437 515.157L453.437 515.164C453.438 514.994 453.438 514.827 453.438 514.661H451.438ZM451.356 521.206C451.35 521.54 451.345 521.878 451.339 522.218L453.339 522.249C453.344 521.91 453.35 521.573 453.355 521.239L451.356 521.206ZM451.287 528.294C451.288 528.632 451.289 528.97 451.292 529.309L453.292 529.295C453.289 528.96 453.288 528.625 453.287 528.29L451.287 528.294ZM451.452 535.41C451.469 535.751 451.488 536.091 451.508 536.429L453.504 536.308C453.484 535.978 453.466 535.645 453.449 535.31L451.452 535.41ZM452.133 542.549C452.187 542.894 452.244 543.235 452.305 543.569L454.273 543.213C454.215 542.895 454.161 542.571 454.109 542.241L452.133 542.549ZM454.17 549.625C454.256 549.79 454.344 549.951 454.435 550.107L456.163 549.1C456.089 548.974 456.017 548.842 455.946 548.705L454.17 549.625ZM454.435 550.107C454.52 550.253 454.608 550.396 454.699 550.536L456.375 549.445C456.302 549.332 456.231 549.217 456.163 549.1L454.435 550.107ZM459.003 554.5C459.275 554.663 459.554 554.82 459.837 554.971L460.777 553.206C460.521 553.069 460.272 552.929 460.029 552.784L459.003 554.5ZM465.068 557.063C465.364 557.153 465.661 557.24 465.958 557.324L466.502 555.399C466.216 555.319 465.932 555.236 465.65 555.15L465.068 557.063ZM471.329 558.598C471.63 558.66 471.928 558.721 472.222 558.781L472.619 556.82C472.326 556.761 472.031 556.701 471.733 556.639L471.329 558.598ZM477.502 559.909C477.645 559.946 477.786 559.983 477.922 560.02L478.449 558.09C478.301 558.05 478.151 558.01 477.998 557.971L477.502 559.909ZM477.922 560.02C478.075 560.062 478.231 560.106 478.392 560.152L478.951 558.232C478.781 558.183 478.613 558.135 478.449 558.09L477.922 560.02ZM484.039 562.164C484.349 562.288 484.66 562.415 484.972 562.543L485.733 560.694C485.416 560.563 485.099 560.434 484.784 560.308L484.039 562.164ZM490.511 564.975C490.821 565.119 491.125 565.262 491.423 565.403L492.281 563.597C491.979 563.453 491.67 563.308 491.356 563.161L490.511 564.975ZM496.683 568.17C496.762 568.223 496.823 568.267 496.868 568.302C496.915 568.338 496.933 568.355 496.932 568.354L498.347 566.941C498.195 566.789 497.995 566.642 497.801 566.512L496.683 568.17ZM497.084 568.479C497.237 568.581 497.4 568.681 497.571 568.777L498.549 567.032C498.421 566.96 498.302 566.888 498.194 566.816L497.084 568.479ZM503.938 569.921C504.287 569.88 504.642 569.824 505.003 569.751L504.603 567.791C504.299 567.853 504 567.9 503.709 567.934L503.938 569.921ZM510.757 567.146C511.034 566.948 511.311 566.739 511.589 566.516L510.34 564.954C510.089 565.155 509.84 565.343 509.593 565.52L510.757 567.146ZM515.867 562.069C515.971 561.934 516.075 561.796 516.179 561.656L514.574 560.463C514.476 560.595 514.378 560.724 514.281 560.851L515.867 562.069ZM516.179 561.656C516.279 561.522 516.38 561.386 516.482 561.247L514.872 560.06C514.772 560.197 514.672 560.331 514.574 560.463L516.179 561.656ZM520.101 556.167C520.296 555.887 520.492 555.604 520.689 555.318L519.043 554.182C518.847 554.466 518.652 554.748 518.458 555.026L520.101 556.167ZM524.19 550.179C524.382 549.895 524.574 549.609 524.767 549.322L523.107 548.206C522.915 548.492 522.723 548.777 522.532 549.061L524.19 550.179ZM528.217 544.159C528.408 543.872 528.599 543.585 528.79 543.298L527.124 542.191C526.933 542.477 526.742 542.764 526.552 543.051L528.217 544.159ZM532.219 538.13C532.411 537.841 532.603 537.552 532.793 537.265L531.127 536.159C530.937 536.446 530.745 536.734 530.553 537.024L532.219 538.13ZM536.231 532.107C536.425 531.818 536.617 531.532 536.807 531.249L535.148 530.133C534.957 530.417 534.764 530.704 534.57 530.994L536.231 532.107ZM540.29 526.141C540.492 525.851 540.689 525.569 540.881 525.296L539.246 524.145C539.052 524.421 538.852 524.706 538.649 524.998L540.29 526.141ZM544.543 520.547C544.575 520.518 544.601 520.495 544.623 520.477C544.645 520.459 544.659 520.448 544.667 520.443C544.675 520.437 544.671 520.441 544.656 520.449C544.647 520.453 544.634 520.459 544.617 520.467C544.6 520.474 544.576 520.483 544.546 520.492L543.996 518.569C543.646 518.669 543.355 518.921 543.186 519.078L544.543 520.547ZM544.546 520.492C544.535 520.495 544.541 520.492 544.571 520.489C544.599 520.486 544.642 520.483 544.701 520.484L544.715 518.484C544.49 518.482 544.238 518.499 543.996 518.569L544.546 520.492ZM549.548 521.725C549.82 521.818 550.096 521.914 550.376 522.013L551.045 520.129C550.758 520.027 550.474 519.928 550.194 519.832L549.548 521.725ZM555.303 523.922C555.577 524.037 555.848 524.151 556.114 524.265L556.9 522.425C556.628 522.309 556.352 522.193 556.073 522.077L555.303 523.922ZM560.856 526.491C560.987 526.563 561.108 526.631 561.217 526.695L562.226 524.968C562.098 524.893 561.962 524.816 561.817 524.737L560.856 526.491ZM561.217 526.695C561.343 526.768 561.484 526.847 561.64 526.932L562.593 525.173C562.45 525.096 562.328 525.027 562.226 524.968L561.217 526.695ZM566.605 529.355C566.875 529.482 567.151 529.61 567.433 529.741L568.276 527.928C567.995 527.797 567.72 527.669 567.452 527.544L566.605 529.355ZM572.404 532.026C572.679 532.152 572.956 532.278 573.234 532.404L574.063 530.584C573.785 530.458 573.509 530.332 573.234 530.206L572.404 532.026ZM578.215 534.665C578.493 534.791 578.77 534.917 579.045 535.042L579.871 533.22C579.595 533.095 579.319 532.97 579.041 532.844L578.215 534.665ZM584.016 537.302C584.297 537.431 584.574 537.558 584.845 537.682L585.679 535.864C585.407 535.739 585.129 535.612 584.847 535.483L584.016 537.302ZM589.775 539.992C589.915 540.061 590.046 540.126 590.168 540.187L591.064 538.398C590.936 538.334 590.799 538.267 590.655 538.196L589.775 539.992ZM590.168 540.187C590.309 540.257 590.464 540.338 590.633 540.429L591.58 538.667C591.397 538.569 591.225 538.479 591.064 538.398L590.168 540.187ZM596.248 543.861C596.553 544.058 596.862 544.26 597.176 544.466L598.272 542.794C597.956 542.586 597.644 542.382 597.337 542.183L596.248 543.861ZM602.689 548.174C602.993 548.383 603.298 548.593 603.601 548.803L604.739 547.158C604.434 546.947 604.128 546.736 603.822 546.526L602.689 548.174ZM609.027 552.643C609.332 552.865 609.63 553.083 609.92 553.296L611.104 551.684C610.81 551.468 610.509 551.248 610.202 551.025L609.027 552.643ZM615.024 557.328C615.105 557.409 615.156 557.466 615.184 557.501C615.198 557.518 615.2 557.522 615.196 557.515C615.193 557.512 615.172 557.478 615.149 557.421L617.006 556.679C616.931 556.491 616.816 556.338 616.74 556.245C616.653 556.136 616.55 556.026 616.442 555.917L615.024 557.328ZM615.149 557.421C615.246 557.665 615.443 557.907 615.752 558.035C616.028 558.149 616.281 558.126 616.431 558.095C616.711 558.039 616.951 557.891 617.101 557.791L615.986 556.131C615.879 556.202 615.91 556.16 616.034 556.135C616.105 556.121 616.293 556.095 616.517 556.187C616.774 556.294 616.932 556.495 617.006 556.679L615.149 557.421ZM621.776 552.951C622.006 552.684 622.24 552.409 622.478 552.127L620.951 550.835C620.716 551.113 620.485 551.385 620.258 551.648L621.776 552.951ZM626.593 547.105C626.817 546.824 627.041 546.541 627.265 546.259L625.696 545.018C625.474 545.299 625.251 545.579 625.029 545.859L626.593 547.105ZM631.226 541.115C631.446 540.821 631.662 540.53 631.872 540.245L630.263 539.057C630.055 539.339 629.842 539.626 629.624 539.918L631.226 541.115ZM635.587 534.81C635.695 534.618 635.79 534.436 635.867 534.269L634.051 533.432C634.003 533.536 633.934 533.669 633.842 533.833L635.587 534.81ZM635.867 534.269C635.943 534.104 636.019 533.915 636.094 533.711L634.216 533.022C634.153 533.194 634.098 533.33 634.051 533.432L635.867 534.269ZM637.775 527.451C637.854 527.113 637.934 526.766 638.016 526.412L636.066 525.966C635.985 526.317 635.906 526.661 635.828 526.997L637.775 527.451ZM639.393 520.183C639.468 519.84 639.542 519.495 639.617 519.148L637.662 518.727C637.587 519.073 637.513 519.418 637.439 519.76L639.393 520.183ZM640.954 512.926C641.029 512.579 641.104 512.233 641.178 511.889L639.223 511.466C639.149 511.81 639.074 512.157 638.999 512.504L640.954 512.926ZM642.551 505.683C642.63 505.335 642.709 504.992 642.787 504.655L640.839 504.203C640.76 504.542 640.681 504.887 640.601 505.238L642.551 505.683ZM644.345 498.547C644.396 498.378 644.446 498.218 644.494 498.067L642.589 497.458C642.537 497.621 642.484 497.792 642.43 497.971L644.345 498.547ZM644.494 498.067C644.545 497.908 644.597 497.743 644.65 497.574L642.741 496.978C642.689 497.143 642.638 497.303 642.589 497.458L644.494 498.067ZM646.353 491.561C646.439 491.231 646.525 490.895 646.611 490.554L644.672 490.063C644.587 490.4 644.502 490.732 644.417 491.058L646.353 491.561ZM648.03 484.478C648.103 484.141 648.174 483.802 648.245 483.461L646.286 483.055C646.217 483.392 646.146 483.727 646.075 484.059L648.03 484.478ZM649.385 477.321C649.441 476.978 649.495 476.635 649.548 476.292L647.572 475.988C647.52 476.325 647.466 476.663 647.411 477L649.385 477.321ZM650.321 470.077C650.352 469.728 650.381 469.38 650.408 469.035L648.414 468.881C648.388 469.217 648.36 469.556 648.329 469.897L650.321 470.077ZM650.571 462.722C650.564 462.546 650.557 462.371 650.548 462.197L648.55 462.299C648.559 462.464 648.566 462.63 648.572 462.797L650.571 462.722ZM650.548 462.197C650.538 462.012 650.529 461.831 650.521 461.652L648.523 461.749C648.532 461.929 648.541 462.113 648.55 462.299L650.548 462.197ZM650.378 455.254C650.386 454.877 650.398 454.528 650.415 454.205L648.417 454.105C648.4 454.449 648.387 454.817 648.378 455.212L650.378 455.254ZM651.766 448.182C651.821 448.012 651.878 447.835 651.935 447.648L650.023 447.061C649.97 447.234 649.917 447.4 649.865 447.559L651.766 448.182ZM651.935 447.648C651.998 447.444 652.04 447.23 652.069 447.013L650.086 446.755C650.068 446.887 650.046 446.987 650.023 447.061L651.935 447.648ZM651.362 440.907C651.294 440.593 651.222 440.273 651.148 439.947L649.198 440.394C649.271 440.713 649.341 441.026 649.407 441.331L651.362 440.907ZM649.74 434.263C649.659 433.95 649.579 433.636 649.498 433.322L647.561 433.818C647.642 434.133 647.722 434.447 647.802 434.76L649.74 434.263ZM648.115 427.69C648.044 427.373 647.975 427.06 647.909 426.752L645.953 427.172C646.021 427.488 646.091 427.808 646.165 428.131L648.115 427.69ZM647.107 421.193C647.106 421.041 647.109 420.899 647.115 420.765L645.117 420.67C645.109 420.844 645.106 421.022 645.107 421.205L647.107 421.193ZM647.115 420.765C647.123 420.599 647.132 420.42 647.143 420.229L645.146 420.118C645.135 420.314 645.125 420.498 645.117 420.67L647.115 420.765ZM647.638 413.689C647.669 413.332 647.702 412.968 647.736 412.596L645.744 412.415C645.71 412.788 645.677 413.154 645.645 413.513L647.638 413.689ZM648.387 406.056C648.426 405.696 648.466 405.333 648.506 404.968L646.518 404.748C646.478 405.115 646.438 405.479 646.399 405.842L648.387 406.056ZM649.286 398.442C649.333 398.079 649.381 397.717 649.429 397.356L647.446 397.092C647.398 397.456 647.35 397.82 647.303 398.185L649.286 398.442ZM650.379 390.865C650.437 390.501 650.497 390.142 650.557 389.786L648.585 389.453C648.524 389.813 648.464 390.177 648.404 390.545L650.379 390.865ZM651.823 383.384C651.865 383.208 651.907 383.036 651.95 382.867L650.009 382.383C649.965 382.558 649.922 382.737 649.878 382.919L651.823 383.384ZM651.95 382.867C651.988 382.714 652.026 382.561 652.064 382.406L650.123 381.925C650.085 382.078 650.047 382.231 650.009 382.383L651.95 382.867ZM653.358 376.802C653.424 376.491 653.489 376.178 653.552 375.863L651.592 375.466C651.529 375.776 651.466 376.084 651.401 376.39L653.358 376.802ZM654.546 370.179C654.592 369.863 654.636 369.545 654.679 369.225L652.697 368.959C652.655 369.272 652.611 369.583 652.566 369.892L654.546 370.179ZM655.252 363.469C655.272 363.149 655.291 362.828 655.307 362.506L653.309 362.405C653.294 362.719 653.276 363.031 653.256 363.342L655.252 363.469ZM655.366 356.711C655.355 356.39 655.343 356.068 655.328 355.745L653.33 355.837C653.345 356.15 653.357 356.462 653.367 356.774L655.366 356.711ZM654.799 349.964C654.755 349.646 654.709 349.327 654.659 349.008L652.683 349.312C652.731 349.622 652.776 349.93 652.818 350.238L654.799 349.964ZM653.499 343.316C653.459 343.159 653.418 343.002 653.377 342.845L651.443 343.355C651.483 343.507 651.522 343.659 651.561 343.81L653.499 343.316ZM653.377 342.845C653.334 342.682 653.291 342.52 653.249 342.358L651.314 342.866C651.357 343.029 651.4 343.192 651.443 343.355L653.377 342.845ZM651.769 336.538C651.688 336.212 651.609 335.888 651.531 335.566L649.588 336.038C649.666 336.361 649.746 336.687 649.826 337.015L651.769 336.538ZM650.165 329.721C650.091 329.393 650.019 329.068 649.948 328.744L647.995 329.176C648.067 329.501 648.14 329.829 648.214 330.159L650.165 329.721ZM648.709 322.872C648.643 322.542 648.578 322.215 648.514 321.891L646.552 322.277C646.616 322.603 646.681 322.933 646.748 323.265L648.709 322.872ZM647.42 315.993C647.362 315.66 647.306 315.331 647.251 315.007L645.279 315.341C645.335 315.669 645.391 316 645.45 316.335L647.42 315.993ZM646.318 309.082C646.295 308.917 646.271 308.752 646.248 308.59L644.268 308.872C644.291 309.036 644.315 309.202 644.339 309.369L646.318 309.082ZM646.248 308.59C646.224 308.422 646.197 308.25 646.167 308.073L644.195 308.41C644.222 308.57 644.247 308.724 644.268 308.872L646.248 308.59ZM644.584 302.081C644.48 301.763 644.371 301.439 644.259 301.111L642.367 301.757C642.476 302.078 642.582 302.393 642.683 302.703L644.584 302.081ZM642.105 295.389C641.978 295.078 641.848 294.764 641.717 294.45L639.872 295.221C640.001 295.53 640.128 295.838 640.253 296.145L642.105 295.389ZM639.235 288.876C639.09 288.57 638.944 288.264 638.797 287.958L636.995 288.827C637.141 289.128 637.285 289.43 637.427 289.731L639.235 288.876ZM636.012 282.527C635.849 282.228 635.685 281.93 635.52 281.635L633.773 282.609C633.935 282.899 634.096 283.191 634.256 283.485L636.012 282.527ZM632.365 276.39C632.176 276.1 631.986 275.815 631.796 275.534L630.139 276.653C630.323 276.926 630.507 277.203 630.691 277.484L632.365 276.39ZM628.028 270.622C627.912 270.494 627.796 270.367 627.68 270.242L626.217 271.606C626.325 271.722 626.432 271.84 626.541 271.96L628.028 270.622ZM627.68 270.242C627.57 270.124 627.46 270.006 627.35 269.888L625.884 271.249C625.995 271.368 626.106 271.487 626.217 271.606L627.68 270.242ZM623.483 265.558C623.276 265.314 623.069 265.068 622.864 264.82L621.324 266.096C621.534 266.35 621.745 266.601 621.957 266.851L623.483 265.558ZM619.369 260.238C619.187 259.976 619.007 259.712 618.829 259.446L617.167 260.558C617.351 260.834 617.537 261.107 617.725 261.378L619.369 260.238ZM615.911 254.511C615.766 254.229 615.623 253.944 615.482 253.657L613.686 254.536C613.832 254.836 613.981 255.132 614.133 255.426L615.911 254.511ZM613.297 248.373C613.194 248.073 613.095 247.771 612.998 247.466L611.092 248.071C611.193 248.39 611.297 248.706 611.404 249.019L613.297 248.373ZM611.607 241.915C611.548 241.603 611.492 241.289 611.439 240.971L609.467 241.301C609.522 241.631 609.58 241.958 609.641 242.283L611.607 241.915ZM610.808 235.27C610.799 235.11 610.79 234.949 610.782 234.787L608.785 234.886C608.793 235.053 608.802 235.219 608.811 235.385L610.808 235.27ZM610.782 234.787C610.773 234.607 610.764 234.427 610.755 234.249L608.758 234.353C608.767 234.529 608.776 234.707 608.785 234.886L610.782 234.787ZM610.301 227.859C610.268 227.501 610.234 227.146 610.199 226.796L608.209 226.995C608.243 227.34 608.277 227.689 608.309 228.042L610.301 227.859ZM609.401 220.429C609.346 220.073 609.291 219.721 609.234 219.373L607.26 219.694C607.316 220.036 607.37 220.382 607.424 220.732L609.401 220.429ZM608.009 213.063C607.93 212.712 607.85 212.365 607.769 212.02L605.822 212.479C605.902 212.818 605.981 213.159 606.059 213.503L608.009 213.063ZM606.14 205.819C606.042 205.477 605.944 205.135 605.845 204.794L603.924 205.352C604.023 205.69 604.12 206.029 604.217 206.367L606.14 205.819ZM604.028 198.687C603.977 198.517 603.927 198.348 603.876 198.177L601.959 198.747C602.01 198.918 602.06 199.088 602.111 199.258L604.028 198.687ZM603.876 198.177C603.833 198.034 603.794 197.889 603.758 197.743L601.816 198.222C601.86 198.398 601.907 198.573 601.959 198.747L603.876 198.177ZM603.711 192.24C603.766 191.932 603.831 191.623 603.902 191.313L601.954 190.861C601.875 191.202 601.805 191.542 601.743 191.882L603.711 192.24ZM605.828 185.895C605.964 185.603 606.104 185.312 606.248 185.023L604.458 184.132C604.307 184.436 604.159 184.742 604.015 185.051L605.828 185.895ZM609.191 179.981C609.374 179.708 609.557 179.439 609.741 179.175L608.099 178.033C607.908 178.307 607.718 178.586 607.528 178.871L609.191 179.981ZM613.345 174.576C613.454 174.454 613.562 174.335 613.667 174.221L612.194 172.868C612.083 172.989 611.969 173.114 611.853 173.244L613.345 174.576ZM613.731 174.144C613.824 174.019 613.919 173.893 614.015 173.764L612.414 172.566C612.318 172.694 612.223 172.82 612.13 172.945L613.731 174.144ZM617.486 169.12C617.677 168.864 617.87 168.606 618.066 168.344L616.463 167.148C616.267 167.41 616.074 167.668 615.884 167.924L617.486 169.12ZM621.526 163.697C621.717 163.44 621.909 163.182 622.102 162.923L620.496 161.73C620.304 161.989 620.112 162.247 619.922 162.504L621.526 163.697ZM625.555 158.269C625.747 158.01 625.938 157.751 626.129 157.493L624.522 156.303C624.331 156.561 624.139 156.82 623.948 157.078L625.555 158.269ZM629.57 152.831C629.763 152.568 629.954 152.308 630.144 152.05L628.533 150.865C628.343 151.123 628.152 151.383 627.959 151.645L629.57 152.831ZM633.567 147.372C633.76 147.106 633.949 146.846 634.134 146.591L632.515 145.416C632.331 145.671 632.142 145.931 631.949 146.196L633.567 147.372ZM637.516 141.853C637.612 141.713 637.703 141.581 637.788 141.456L636.135 140.33C636.053 140.451 635.965 140.579 635.87 140.716L637.516 141.853ZM637.788 141.456C637.885 141.314 637.984 141.168 638.086 141.018L636.432 139.894C636.331 140.043 636.232 140.188 636.135 140.33L637.788 141.456ZM641.656 135.678C641.849 135.382 642.044 135.082 642.24 134.779L640.561 133.693C640.366 133.993 640.173 134.29 639.981 134.584L641.656 135.678ZM645.652 129.322C645.836 129.015 646.019 128.707 646.201 128.399L644.478 127.383C644.299 127.687 644.118 127.99 643.936 128.294L645.652 129.322ZM649.321 122.732C649.486 122.404 649.646 122.08 649.8 121.759L647.999 120.89C647.849 121.201 647.694 121.515 647.534 121.833L649.321 122.732ZM652.139 115.566C652.181 115.375 652.219 115.186 652.251 115.001L650.28 114.659C650.254 114.811 650.222 114.97 650.186 115.133L652.139 115.566ZM652.251 115.001C652.279 114.838 652.307 114.669 652.335 114.495L650.361 114.176C650.334 114.344 650.307 114.505 650.28 114.659L652.251 115.001ZM653.146 108.437C653.187 108.108 653.229 107.773 653.272 107.433L651.287 107.185C651.244 107.525 651.203 107.861 651.162 108.19L653.146 108.437ZM654.064 101.426C654.111 101.095 654.159 100.762 654.209 100.428L652.23 100.137C652.18 100.474 652.132 100.81 652.084 101.144L654.064 101.426ZM655.19 94.4714C655.251 94.1421 655.313 93.8131 655.377 93.4845L653.414 93.1035C653.349 93.4377 653.285 93.772 653.223 94.1064L655.19 94.4714ZM656.697 87.621C656.782 87.2973 656.868 86.976 656.957 86.6574L655.029 86.1227C654.938 86.4508 654.849 86.7813 654.762 87.1139L656.697 87.621ZM658.859 81.0201C658.922 80.8687 658.985 80.7188 659.049 80.5704L657.213 79.7773C657.145 79.9347 657.078 80.0934 657.012 80.2534L658.859 81.0201ZM659.049 80.5704C659.108 80.4351 659.168 80.2961 659.23 80.1536L657.394 79.3596C657.332 79.5025 657.272 79.6417 657.213 79.7773L659.049 80.5704ZM661.458 75.0265C661.58 74.7458 661.704 74.4603 661.831 74.1703L659.998 73.3708C659.871 73.6609 659.747 73.9465 659.624 74.2274L661.458 75.0265ZM664.069 69.0458C664.192 68.7638 664.317 68.4798 664.442 68.1938L662.609 67.3923C662.484 67.6783 662.36 67.9625 662.237 68.2445L664.069 69.0458ZM666.684 63.0716C666.808 62.7879 666.933 62.5034 667.058 62.2183L665.226 61.4156C665.101 61.7008 664.976 61.9854 664.852 62.2692L666.684 63.0716ZM669.302 57.0977C669.427 56.813 669.552 56.5285 669.677 56.2444L667.845 55.441C667.72 55.7251 667.596 56.0096 667.471 56.2944L669.302 57.0977ZM671.923 51.125C672.049 50.839 672.174 50.5543 672.298 50.2713L670.467 49.4673C670.342 49.7504 670.217 50.035 670.092 50.3211L671.923 51.125ZM674.547 45.1505C674.673 44.8639 674.797 44.5805 674.92 44.3008L673.089 43.4962C672.966 43.776 672.842 44.0593 672.716 44.346L674.547 45.1505ZM677.172 39.178C677.235 39.0366 677.296 38.8974 677.356 38.7603L675.525 37.955C675.465 38.0921 675.404 38.2314 675.342 38.3728L677.172 39.178ZM677.335 38.8045C677.408 38.6581 677.483 38.5089 677.56 38.357L675.773 37.458C675.696 37.6117 675.62 37.7627 675.546 37.9109L677.335 38.8045ZM680.385 32.9403C680.544 32.6445 680.706 32.3454 680.87 32.0434L679.113 31.0884C678.947 31.3928 678.784 31.6943 678.624 31.9925L680.385 32.9403ZM683.855 26.7128C684.024 26.4199 684.194 26.1266 684.365 25.8334L682.638 24.825C682.465 25.1211 682.293 25.4171 682.122 25.7128L683.855 26.7128ZM687.527 20.6172C687.709 20.3298 687.891 20.0445 688.073 19.7618L686.391 18.6801C686.206 18.9672 686.021 19.2567 685.837 19.5483L687.527 20.6172ZM691.503 14.7558C691.707 14.4814 691.908 14.2138 692.108 13.9537L690.522 12.735C690.315 13.0048 690.106 13.2816 689.896 13.5647L691.503 14.7558ZM696.089 9.66044C696.214 9.56552 696.334 9.47962 696.449 9.40256L695.339 7.73905C695.186 7.84152 695.032 7.952 694.877 8.06963L696.089 9.66044ZM696.449 9.40256C696.597 9.30417 696.744 9.20626 696.891 9.10886L695.788 7.44073C695.638 7.53982 695.489 7.63928 695.339 7.73905L696.449 9.40256ZM702.303 5.88726C702.61 5.7307 702.921 5.57759 703.236 5.42817L702.379 3.62115C702.047 3.7789 701.719 3.9403 701.395 4.10503L702.303 5.88726ZM709.078 3.29128C709.409 3.20452 709.744 3.12155 710.086 3.04255L709.636 1.09386C709.275 1.17736 708.92 1.26512 708.57 1.35697L709.078 3.29128ZM716.271 2.13519C716.614 2.11033 716.963 2.08877 717.317 2.07062L717.215 0.0732429C716.847 0.0921024 716.484 0.114525 716.127 0.14042L716.271 2.13519ZM723.625 2.09289C723.802 2.10202 723.979 2.11184 724.158 2.12236L724.275 0.125818C724.092 0.115025 723.91 0.104945 723.729 0.0955689L723.625 2.09289ZM724.158 2.12236C724.334 2.13272 724.51 2.14354 724.686 2.15481L724.814 0.158885C724.634 0.147403 724.455 0.136375 724.275 0.125818L724.158 2.12236ZM731.038 2.72526C731.39 2.76484 731.743 2.80554 732.095 2.84726L732.331 0.861125C731.974 0.818951 731.618 0.777784 731.261 0.737731L731.038 2.72526ZM738.438 3.69305C738.792 3.74451 739.144 3.79636 739.494 3.84849L739.788 1.87021C739.436 1.81782 739.082 1.76569 738.726 1.71393L738.438 3.69305ZM745.837 4.82471C746.193 4.88015 746.545 4.93507 746.895 4.98932L747.201 3.01298C746.853 2.95885 746.501 2.90401 746.146 2.84862L745.837 4.82471ZM753.28 5.92251C753.644 5.96979 754.001 6.01471 754.352 6.05699L754.592 4.07136C754.248 4.0299 753.896 3.98576 753.538 3.93921L753.28 5.92251ZM760.925 6.45465C761.12 6.44526 761.309 6.43266 761.494 6.4166L761.32 4.42414C761.164 4.43777 761 4.44871 760.829 4.45697L760.925 6.45465ZM761.494 6.4166C761.702 6.39847 761.914 6.3772 762.128 6.35302L761.904 4.3656C761.706 4.38801 761.511 4.40757 761.32 4.42414L761.494 6.4166ZM769.484 4.85991C769.885 4.75314 770.285 4.64389 770.68 4.53309L770.141 2.60727C769.753 2.71579 769.362 2.82266 768.97 2.92701L769.484 4.85991ZM777.766 2.27473C777.972 2.20019 778.167 2.1289 778.349 2.06138L777.651 0.186797C777.476 0.251889 777.288 0.320946 777.087 0.393436L777.766 2.27473Z" fill="#AAAAAA"/>
</svg>
