<svg width="124" height="17" viewBox="0 0 124 17" fill="none" xmlns="http://www.w3.org/2000/svg">
<path d="M26.5944 5.59184L26.7632 6.57749L26.5944 5.59184ZM107.075 4.67347L107.236 5.66043L107.075 4.67347ZM1.94531 16.5889C2.41542 16.299 2.56155 15.6829 2.2717 15.2128C1.98185 14.7427 1.36578 14.5966 0.895669 14.8864L1.94531 16.5889ZM6.1539 11.9448C5.66292 12.1977 5.46991 12.8008 5.7228 13.2917C5.97569 13.7827 6.57872 13.9757 7.06971 13.7229L6.1539 11.9448ZM7.94611 13.2771C8.43965 13.0292 8.63879 12.4282 8.39091 11.9346C8.14303 11.4411 7.542 11.242 7.04847 11.4898L7.94611 13.2771ZM12.5019 8.95639C11.994 9.17322 11.758 9.76076 11.9748 10.2687C12.1916 10.7766 12.7792 11.0126 13.2871 10.7958L12.5019 8.95639ZM14.1915 10.4157C14.7019 10.2045 14.9444 9.61965 14.7332 9.10932C14.5221 8.59899 13.9372 8.35646 13.4269 8.5676L14.1915 10.4157ZM19.0797 6.4701C18.5545 6.64109 18.2674 7.20542 18.4384 7.73057C18.6094 8.25572 19.1737 8.54282 19.6989 8.37183L19.0797 6.4701ZM20.63 8.07648C21.1577 7.91359 21.4535 7.35374 21.2906 6.82603C21.1277 6.29831 20.5678 6.00256 20.0401 6.16545L20.63 8.07648ZM25.9263 4.6949C25.3832 4.79486 25.0239 5.31622 25.1239 5.85938C25.2238 6.40254 25.7452 6.76183 26.2883 6.66186L25.9263 4.6949ZM27.187 6.50961C27.7332 6.42766 28.1095 5.91846 28.0275 5.37229C27.9456 4.82612 27.4364 4.4498 26.8902 4.53175L27.187 6.50961ZM32.7283 4.02471C32.1767 4.05264 31.7522 4.52242 31.7802 5.074C31.8081 5.62558 32.2779 6.05008 32.8295 6.02215L32.7283 4.02471ZM33.7819 5.97723C34.3337 5.95302 34.7614 5.48611 34.7372 4.93435C34.7129 4.3826 34.246 3.95494 33.6943 3.97915L33.7819 5.97723ZM39.4683 3.80863C38.9161 3.81877 38.4767 4.27462 38.4868 4.82681C38.4969 5.37901 38.9528 5.81843 39.505 5.80829L39.4683 3.80863ZM40.4776 5.79184C41.0298 5.78327 41.4705 5.32866 41.4619 4.77644C41.4534 4.22422 40.9987 3.78351 40.4465 3.79208L40.4776 5.79184ZM46.2078 3.74094C45.6555 3.74276 45.2093 4.19195 45.2111 4.74423C45.2129 5.29651 45.6621 5.74275 46.2144 5.74093L46.2078 3.74094ZM47.1631 5.73853C47.7153 5.73754 48.1622 5.28902 48.1613 4.73673C48.1603 4.18445 47.7117 3.73754 47.1595 3.73853L47.1631 5.73853ZM52.9239 3.74981C52.3716 3.74694 51.9216 4.19233 51.9187 4.74461C51.9159 5.29688 52.3613 5.74691 52.9135 5.74978L52.9239 3.74981ZM53.8708 5.75518C54.423 5.75853 54.8735 5.31354 54.8768 4.76127C54.8802 4.209 54.4352 3.75857 53.8829 3.75521L53.8708 5.75518ZM59.643 3.80298C59.0908 3.79736 58.6385 4.24049 58.6329 4.79274C58.6273 5.345 59.0704 5.79725 59.6227 5.80288L59.643 3.80298ZM60.5818 5.8129C61.134 5.8188 61.5865 5.3759 61.5924 4.82365C61.5983 4.27139 61.1554 3.81892 60.6032 3.81301L60.5818 5.8129ZM66.3606 3.8815C65.8084 3.8744 65.355 4.31633 65.3479 4.86857C65.3408 5.42081 65.7827 5.87424 66.3349 5.88134L66.3606 3.8815ZM67.2935 5.89376C67.8457 5.90098 68.2993 5.45916 68.3065 4.90692C68.3137 4.35468 67.8719 3.90115 67.3196 3.89393L67.2935 5.89376ZM73.0762 3.97133C72.524 3.96383 72.0702 4.40542 72.0627 4.95765C72.0552 5.50988 72.4968 5.96364 73.049 5.97114L73.0762 3.97133ZM74.0056 5.98412C74.5579 5.9916 75.0116 5.54998 75.0191 4.99775C75.0266 4.44551 74.5849 3.99178 74.0327 3.9843L74.0056 5.98412ZM79.7889 4.05951C79.2366 4.05271 78.7834 4.49487 78.7766 5.04711C78.7698 5.59936 79.212 6.05255 79.7642 6.05936L79.7889 4.05951ZM80.7161 6.07091C81.2683 6.07751 81.7214 5.63518 81.728 5.08293C81.7346 4.53069 81.2922 4.07765 80.74 4.07106L80.7161 6.07091ZM86.4926 4.13077C85.9403 4.12613 85.4889 4.57008 85.4842 5.12234C85.4796 5.67461 85.9235 6.12606 86.4758 6.1307L86.4926 4.13077ZM87.4415 6.13839C87.9938 6.14255 88.4448 5.69821 88.449 5.14594C88.4531 4.59367 88.0088 4.1426 87.4566 4.13845L87.4415 6.13839ZM93.208 4.16188C92.6557 4.16201 92.2081 4.60982 92.2082 5.16211C92.2083 5.71439 92.6561 6.16201 93.2084 6.16188L93.208 4.16188ZM94.1671 6.16078C94.7193 6.15961 95.1661 5.71096 95.1649 5.15867C95.1638 4.60639 94.7151 4.15962 94.1628 4.16078L94.1671 6.16078ZM99.8988 4.10277C99.3466 4.11429 98.9084 4.57125 98.9199 5.12342C98.9314 5.67558 99.3884 6.11386 99.9405 6.10234L99.8988 4.10277ZM100.907 6.07966C101.459 6.06518 101.895 5.60589 101.881 5.05379C101.866 4.5017 101.407 4.06587 100.855 4.08035L100.907 6.07966ZM106.505 3.74599C105.957 3.8174 105.571 4.31925 105.642 4.8669C105.714 5.41455 106.216 5.80061 106.763 5.7292L106.505 3.74599ZM107.817 5.56417C108.362 5.47269 108.729 4.957 108.638 4.41234C108.546 3.86769 108.03 3.50032 107.486 3.5918L107.817 5.56417ZM114.313 2.25442C113.774 2.37482 113.434 2.90937 113.555 3.44837C113.675 3.98737 114.21 4.32671 114.749 4.20632L114.313 2.25442ZM115.897 3.94466C116.434 3.81953 116.769 3.28203 116.644 2.7441C116.519 2.20618 115.981 1.87154 115.443 1.99666L115.897 3.94466ZM122.15 0.220902C121.622 0.384314 121.327 0.944453 121.491 1.47201C121.654 1.99956 122.214 2.29476 122.742 2.13135L122.15 0.220902ZM1.53414 16.8454C1.66467 16.7629 1.8018 16.6773 1.94531 16.5889L0.895669 14.8864C0.746246 14.9786 0.602893 15.068 0.465857 15.1546L1.53414 16.8454ZM7.06971 13.7229C7.3559 13.5754 7.64817 13.4267 7.94611 13.2771L7.04847 11.4898C6.7444 11.6426 6.44607 11.7944 6.1539 11.9448L7.06971 13.7229ZM13.2871 10.7958C13.5862 10.6681 13.8878 10.5413 14.1915 10.4157L13.4269 8.5676C13.1161 8.69618 12.8077 8.82586 12.5019 8.95639L13.2871 10.7958ZM19.6989 8.37183C20.0088 8.27091 20.3193 8.17239 20.63 8.07648L20.0401 6.16545C19.7193 6.26447 19.3991 6.3661 19.0797 6.4701L19.6989 8.37183ZM26.2883 6.66186C26.447 6.63266 26.6053 6.60453 26.7632 6.57749L26.4256 4.60619C26.2594 4.63465 26.093 4.66423 25.9263 4.6949L26.2883 6.66186ZM26.7632 6.57749C26.898 6.5544 27.0393 6.53177 27.187 6.50961L26.8902 4.53175C26.7301 4.55578 26.5752 4.58058 26.4256 4.60619L26.7632 6.57749ZM32.8295 6.02215C33.1399 6.00643 33.4575 5.99146 33.7819 5.97723L33.6943 3.97915C33.3656 3.99357 33.0435 4.00875 32.7283 4.02471L32.8295 6.02215ZM39.505 5.80829C39.8256 5.80241 40.1499 5.79693 40.4776 5.79184L40.4465 3.79208C40.117 3.7972 39.7909 3.80271 39.4683 3.80863L39.505 5.80829ZM46.2144 5.74093C46.5286 5.7399 46.8449 5.7391 47.1631 5.73853L47.1595 3.73853C46.8404 3.73911 46.5231 3.73991 46.2078 3.74094L46.2144 5.74093ZM52.9135 5.74978C53.2315 5.75143 53.5506 5.75323 53.8708 5.75518L53.8829 3.75521C53.5622 3.75326 53.2425 3.75146 52.9239 3.74981L52.9135 5.74978ZM59.6227 5.80288C59.9419 5.80613 60.2616 5.80947 60.5818 5.8129L60.6032 3.81301C60.2826 3.80958 59.9626 3.80624 59.643 3.80298L59.6227 5.80288ZM66.3349 5.88134C66.6545 5.88544 66.974 5.88959 67.2935 5.89376L67.3196 3.89393C67 3.88976 66.6803 3.88561 66.3606 3.8815L66.3349 5.88134ZM73.049 5.97114C73.3685 5.97548 73.6873 5.97981 74.0056 5.98412L74.0327 3.9843C73.7145 3.98 73.3956 3.97567 73.0762 3.97133L73.049 5.97114ZM79.7642 6.05936C80.0827 6.06328 80.4 6.06713 80.7161 6.07091L80.74 4.07106C80.4242 4.06728 80.1071 4.06343 79.7889 4.05951L79.7642 6.05936ZM86.4758 6.1307C86.7998 6.13342 87.1218 6.13599 87.4415 6.13839L87.4566 4.13845C87.1374 4.13605 86.8161 4.13349 86.4926 4.13077L86.4758 6.1307ZM93.2084 6.16188C93.5316 6.16181 93.8512 6.16145 94.1671 6.16078L94.1628 4.16078C93.8483 4.16145 93.53 4.16181 93.208 4.16188L93.2084 6.16188ZM99.9405 6.10234C100.271 6.09545 100.593 6.0879 100.907 6.07966L100.855 4.08035C100.544 4.08849 100.226 4.09596 99.8988 4.10277L99.9405 6.10234ZM106.763 5.7292C106.929 5.70755 107.087 5.68467 107.236 5.66043L106.914 3.68651C106.789 3.70682 106.653 3.72667 106.505 3.74599L106.763 5.7292ZM107.236 5.66043C107.43 5.62867 107.624 5.59658 107.817 5.56417L107.486 3.5918C107.296 3.62369 107.105 3.65527 106.914 3.68651L107.236 5.66043ZM114.749 4.20632C115.14 4.11883 115.523 4.03148 115.897 3.94466L115.443 1.99666C115.076 2.08218 114.699 2.16822 114.313 2.25442L114.749 4.20632ZM122.742 2.13135C122.953 2.06605 123.143 2.00548 123.311 1.9503L122.689 0.0496989C122.532 0.101019 122.352 0.158292 122.15 0.220902L122.742 2.13135Z" fill="#AAAAAA"/>
</svg>
