<svg width="136" height="84" viewBox="0 0 136 84" fill="none" xmlns="http://www.w3.org/2000/svg">
<path d="M93.8952 29.8437L94.3648 30.7266L93.8952 29.8437ZM54.2177 43.1118L54.4685 44.0798L54.2177 43.1118ZM14.2547 68.2058L14.9905 68.8829L14.2547 68.2058ZM1.9675 83.3431C2.30685 82.9074 2.22872 82.2791 1.79299 81.9397C1.35727 81.6003 0.728939 81.6785 0.389589 82.1142L1.9675 83.3431ZM4.19197 77.756C3.82295 78.1669 3.8569 78.7992 4.2678 79.1682C4.6787 79.5372 5.31096 79.5033 5.67998 79.0924L4.19197 77.756ZM6.31742 78.3839C6.68717 77.9736 6.65435 77.3413 6.2441 76.9716C5.83385 76.6018 5.20154 76.6347 4.83179 77.0449L6.31742 78.3839ZM8.68158 72.8043C8.30922 73.2122 8.33803 73.8447 8.74591 74.2171C9.1538 74.5894 9.78631 74.5606 10.1587 74.1528L8.68158 72.8043ZM10.8008 73.4498C11.1735 73.0422 11.1451 72.4096 10.7375 72.037C10.3298 71.6644 9.69731 71.6927 9.32467 72.1004L10.8008 73.4498ZM13.1898 67.8863C12.8159 68.2927 12.8424 68.9254 13.2488 69.2992C13.6553 69.6731 14.2879 69.6467 14.6618 69.2402L13.1898 67.8863ZM15.3225 68.5236C15.6982 68.1188 15.6745 67.486 15.2696 67.1104C14.8647 66.7348 14.232 66.7585 13.8564 67.1633L15.3225 68.5236ZM17.9878 62.9316C17.5916 63.3164 17.5825 63.9495 17.9673 64.3456C18.3521 64.7418 18.9852 64.7509 19.3814 64.3661L17.9878 62.9316ZM20.0804 63.6932C20.4801 63.3121 20.4952 62.6791 20.114 62.2794C19.7329 61.8797 19.0999 61.8647 18.7002 62.2458L20.0804 63.6932ZM23.1028 58.2869C22.6811 58.6435 22.6283 59.2745 22.985 59.6962C23.3416 60.1179 23.9726 60.1706 24.3943 59.814L23.1028 58.2869ZM25.1373 59.1923C25.5628 58.8402 25.6222 58.2098 25.2701 57.7844C24.918 57.3589 24.2876 57.2994 23.8621 57.6516L25.1373 59.1923ZM28.5527 54.0262C28.1044 54.3486 28.0023 54.9735 28.3247 55.4219C28.6472 55.8703 29.2721 55.9724 29.7204 55.6499L28.5527 54.0262ZM30.5095 55.0896C30.9617 54.7726 31.0713 54.149 30.7543 53.6967C30.4372 53.2445 29.8136 53.1349 29.3614 53.452L30.5095 55.0896ZM34.3473 50.2276C33.8724 50.5095 33.7159 51.123 33.9977 51.598C34.2796 52.0729 34.8931 52.2294 35.3681 51.9475L34.3473 50.2276ZM36.198 51.4623C36.6767 51.1867 36.8412 50.5753 36.5656 50.0967C36.29 49.6181 35.6786 49.4535 35.2 49.7291L36.198 51.4623ZM40.4685 46.9731C39.969 47.2088 39.7552 47.8047 39.9909 48.3042C40.2266 48.8037 40.8226 49.0175 41.3221 48.7818L40.4685 46.9731ZM42.1954 48.377C42.698 48.1482 42.92 47.5552 42.6913 47.0526C42.4625 46.5499 41.8695 46.3279 41.3668 46.5567L42.1954 48.377ZM46.8762 44.3186C46.3564 44.5054 46.0865 45.0782 46.2734 45.5979C46.4602 46.1177 47.0329 46.3875 47.5527 46.2007L46.8762 44.3186ZM48.462 45.8807C48.9842 45.7007 49.2616 45.1316 49.0817 44.6094C48.9018 44.0873 48.3326 43.8098 47.8105 43.9898L48.462 45.8807ZM53.4912 42.2683C52.9573 42.4097 52.6391 42.9571 52.7805 43.491C52.9219 44.0249 53.4693 44.3431 54.0032 44.2017L53.4912 42.2683ZM54.9455 43.9553C55.4797 43.815 55.7989 43.2682 55.6586 42.734C55.5182 42.1999 54.9715 41.8806 54.4373 42.021L54.9455 43.9553ZM60.1804 40.4216C59.65 40.5758 59.3451 41.1307 59.4992 41.661C59.6533 42.1913 60.2082 42.4963 60.7386 42.3422L60.1804 40.4216ZM61.6999 42.0612C62.2298 41.9056 62.5331 41.3498 62.3775 40.8199C62.2218 40.29 61.6661 39.9867 61.1362 40.1423L61.6999 42.0612ZM66.8507 38.4175C66.323 38.5806 66.0276 39.1406 66.1907 39.6682C66.3539 40.1959 66.9139 40.4913 67.4415 40.3282L66.8507 38.4175ZM68.3946 40.0324C68.9219 39.8681 69.2162 39.3075 69.052 38.7802C68.8877 38.2529 68.3271 37.9586 67.7998 38.1229L68.3946 40.0324ZM73.4916 36.3121C72.9663 36.4827 72.6788 37.0469 72.8494 37.5721C73.02 38.0974 73.5841 38.3849 74.1094 38.2143L73.4916 36.3121ZM75.0586 37.9049C75.5835 37.7332 75.8699 37.1685 75.6982 36.6436C75.5265 36.1187 74.9618 35.8323 74.4369 36.004L75.0586 37.9049ZM80.0976 34.1105C79.5751 34.2895 79.2967 34.8581 79.4757 35.3806C79.6547 35.9031 80.2234 36.1815 80.7459 36.0025L80.0976 34.1105ZM81.6944 35.676C82.2164 35.4956 82.4932 34.9261 82.3127 34.4042C82.1323 33.8822 81.5628 33.6053 81.0409 33.7858L81.6944 35.676ZM86.6489 31.7817C86.1313 31.9742 85.8677 32.5499 86.0601 33.0675C86.2526 33.5852 86.8283 33.8488 87.3459 33.6563L86.6489 31.7817ZM88.2883 33.3028C88.8048 33.1073 89.0651 32.5301 88.8696 32.0136C88.6741 31.4971 88.0969 31.2368 87.5803 31.4323L88.2883 33.3028ZM93.0155 29.1706C92.5204 29.4155 92.3176 30.0153 92.5624 30.5103C92.8072 31.0054 93.407 31.2082 93.9021 30.9634L93.0155 29.1706ZM94.8424 30.4594C95.3199 30.1819 95.4821 29.5699 95.2046 29.0924C94.9271 28.6148 94.3151 28.4527 93.8376 28.7302L94.8424 30.4594ZM98.9337 25.4201C98.4766 25.73 98.3573 26.3518 98.6672 26.809C98.9771 27.2661 99.599 27.3854 100.056 27.0755L98.9337 25.4201ZM100.907 26.4967C101.363 26.1854 101.481 25.5632 101.169 25.107C100.858 24.6508 100.236 24.5333 99.7796 24.8446L100.907 26.4967ZM104.829 21.3535C104.377 21.6697 104.266 22.2931 104.582 22.7459C104.898 23.1987 105.522 23.3095 105.974 22.9933L104.829 21.3535ZM106.814 22.4064C107.266 22.0897 107.376 21.4662 107.06 21.0137C106.743 20.5613 106.119 20.4512 105.667 20.7679L106.814 22.4064ZM110.694 17.2278C110.243 17.5468 110.137 18.1709 110.456 18.6217C110.775 19.0725 111.399 19.1793 111.85 18.8602L110.694 17.2278ZM112.687 18.2674C113.137 17.948 113.244 17.3238 112.924 16.8733C112.605 16.4227 111.981 16.3163 111.53 16.6357L112.687 18.2674ZM116.54 13.0709C116.091 13.3918 115.987 14.0163 116.308 14.4658C116.629 14.9153 117.253 15.0196 117.703 14.6987L116.54 13.0709ZM118.537 14.1024C118.987 13.7813 119.091 13.1568 118.769 12.7074C118.448 12.2581 117.824 12.1541 117.374 12.4752L118.537 14.1024ZM122.373 8.89306C121.925 9.21533 121.822 9.84017 122.144 10.2887C122.467 10.7372 123.092 10.8395 123.54 10.5173L122.373 8.89306ZM124.373 9.91853C124.821 9.59609 124.924 8.97121 124.601 8.52283C124.279 8.07444 123.654 7.97234 123.205 8.29479L124.373 9.91853ZM128.193 4.69957C127.745 5.02304 127.644 5.64815 127.968 6.09579C128.291 6.54344 128.916 6.64411 129.364 6.32065L128.193 4.69957ZM130.197 5.71828C130.645 5.39464 130.745 4.76949 130.422 4.32196C130.098 3.87444 129.473 3.77401 129.025 4.09765L130.197 5.71828ZM134.006 0.486582C133.559 0.81138 133.46 1.43679 133.785 1.88347C134.11 2.33015 134.735 2.42896 135.182 2.10416L134.006 0.486582ZM0.469296 82.1602C0.430297 82.194 0.451634 82.1714 0.505897 82.138C0.523411 82.1272 0.56184 82.1044 0.615255 82.081C0.652768 82.0646 0.781046 82.0096 0.958569 82.0011C1.15754 81.9916 1.56925 82.0464 1.83377 82.4442C2.04422 82.7607 1.9997 83.073 1.98791 83.1473C1.97055 83.2568 1.93843 83.3363 1.92623 83.3653C1.91072 83.4023 1.89658 83.4289 1.88982 83.4412C1.87646 83.4655 1.86846 83.4765 1.87447 83.4676C1.88519 83.4518 1.91302 83.4131 1.9675 83.3431L0.389589 82.1142C0.324409 82.1979 0.265161 82.2771 0.217688 82.3473C0.19461 82.3815 0.164725 82.4275 0.136247 82.4794C0.126257 82.4977 0.0432526 82.6408 0.0126 82.834C-0.000222325 82.9149 -0.0442052 83.2319 0.168301 83.5515C0.434868 83.9525 0.850148 84.0086 1.05414 83.9988C1.23669 83.9901 1.37145 83.9332 1.41684 83.9134C1.47814 83.8866 1.52584 83.8587 1.55398 83.8414C1.65072 83.7819 1.736 83.7089 1.77868 83.672L0.469296 82.1602ZM5.67998 79.0924C5.8828 78.8665 6.09516 78.6305 6.31742 78.3839L4.83179 77.0449C4.60878 77.2923 4.39562 77.5292 4.19197 77.756L5.67998 79.0924ZM10.1587 74.1528C10.3678 73.9236 10.5819 73.6893 10.8008 73.4498L9.32467 72.1004C9.10541 72.3402 8.89107 72.5749 8.68158 72.8043L10.1587 74.1528ZM14.6618 69.2402C14.7705 69.122 14.8801 69.003 14.9905 68.8829L13.5188 67.5287C13.4083 67.6488 13.2986 67.768 13.1898 67.8863L14.6618 69.2402ZM14.9905 68.8829C15.1013 68.7626 15.212 68.6428 15.3225 68.5236L13.8564 67.1633C13.7439 67.2845 13.6314 67.4063 13.5188 67.5287L14.9905 68.8829ZM19.3814 64.3661C19.6148 64.1393 19.8478 63.9151 20.0804 63.6932L18.7002 62.2458C18.4631 62.4719 18.2256 62.7005 17.9878 62.9316L19.3814 64.3661ZM24.3943 59.814C24.6425 59.6041 24.8902 59.3969 25.1373 59.1923L23.8621 57.6516C23.6095 57.8607 23.3564 58.0724 23.1028 58.2869L24.3943 59.814ZM29.7204 55.6499C29.9841 55.4603 30.2472 55.2735 30.5095 55.0896L29.3614 53.452C29.0925 53.6405 28.8229 53.8319 28.5527 54.0262L29.7204 55.6499ZM35.3681 51.9475C35.6456 51.7828 35.9223 51.6211 36.198 51.4623L35.2 49.7291C34.9166 49.8923 34.6324 50.0584 34.3473 50.2276L35.3681 51.9475ZM41.3221 48.7818C41.6143 48.6439 41.9054 48.509 42.1954 48.377L41.3668 46.5567C41.0686 46.6924 40.7691 46.8312 40.4685 46.9731L41.3221 48.7818ZM47.5527 46.2007C47.8573 46.0912 48.1604 45.9846 48.462 45.8807L47.8105 43.9898C47.5006 44.0965 47.1892 44.2061 46.8762 44.3186L47.5527 46.2007ZM54.0032 44.2017C54.1587 44.1605 54.3139 44.1199 54.4685 44.0798L53.9669 42.1438C53.8088 42.1847 53.6503 42.2262 53.4912 42.2683L54.0032 44.2017ZM54.4685 44.0798C54.6252 44.0392 54.7843 43.9977 54.9455 43.9553L54.4373 42.021C54.2782 42.0628 54.1213 42.1037 53.9669 42.1438L54.4685 44.0798ZM60.7386 42.3422C61.0556 42.25 61.3762 42.1563 61.6999 42.0612L61.1362 40.1423C60.8142 40.2369 60.4955 40.33 60.1804 40.4216L60.7386 42.3422ZM67.4415 40.3282C67.7582 40.2303 68.076 40.1316 68.3946 40.0324L67.7998 38.1229C67.4825 38.2217 67.166 38.3199 66.8507 38.4175L67.4415 40.3282ZM74.1094 38.2143C74.4264 38.1113 74.7429 38.0082 75.0586 37.9049L74.4369 36.004C74.1225 36.1069 73.8073 36.2096 73.4916 36.3121L74.1094 38.2143ZM80.7459 36.0025C81.0646 35.8933 81.3809 35.7844 81.6944 35.676L81.0409 33.7858C80.7292 33.8936 80.4147 34.0018 80.0976 34.1105L80.7459 36.0025ZM87.3459 33.6563C87.667 33.5369 87.9813 33.4191 88.2883 33.3028L87.5803 31.4323C87.2771 31.5471 86.9665 31.6636 86.6489 31.7817L87.3459 33.6563ZM93.9021 30.9634C94.0656 30.8825 94.2201 30.8035 94.3648 30.7266L93.4257 28.9608C93.3009 29.0271 93.1641 29.0971 93.0155 29.1706L93.9021 30.9634ZM94.3648 30.7266C94.5089 30.65 94.6688 30.5603 94.8424 30.4594L93.8376 28.7302C93.679 28.8223 93.5417 28.899 93.4257 28.9608L94.3648 30.7266ZM100.056 27.0755C100.333 26.8878 100.617 26.6948 100.907 26.4967L99.7796 24.8446C99.4908 25.0417 99.2087 25.2337 98.9337 25.4201L100.056 27.0755ZM105.974 22.9933C106.251 22.7998 106.531 22.6041 106.814 22.4064L105.667 20.7679C105.385 20.9652 105.106 21.1605 104.829 21.3535L105.974 22.9933ZM111.85 18.8602C112.128 18.6635 112.407 18.4659 112.687 18.2674L111.53 16.6357C111.25 16.8339 110.972 17.0313 110.694 17.2278L111.85 18.8602ZM117.703 14.6987C117.981 14.5 118.259 14.3012 118.537 14.1024L117.374 12.4752C117.096 12.6738 116.818 12.8724 116.54 13.0709L117.703 14.6987ZM123.54 10.5173C123.819 10.317 124.097 10.1173 124.373 9.91853L123.205 8.29479C122.929 8.49344 122.652 8.69291 122.373 8.89306L123.54 10.5173ZM129.364 6.32065C129.645 6.11792 129.923 5.91707 130.197 5.71828L129.025 4.09765C128.751 4.2963 128.473 4.49699 128.193 4.69957L129.364 6.32065ZM135.182 2.10416C135.319 2.00451 135.454 1.90599 135.588 1.80864L134.412 0.191364C134.278 0.288614 134.143 0.387032 134.006 0.486582L135.182 2.10416Z" fill="#AAAAAA"/>
</svg>
