<svg width="21" height="255" viewBox="0 0 21 255" fill="none" xmlns="http://www.w3.org/2000/svg">
<path d="M2.3282 221.174L3.30331 221.395L2.3282 221.174ZM12.7756 171.935L11.7853 171.796L12.7756 171.935ZM11.9285 139.108L10.9701 139.394L11.9285 139.108ZM6.8459 109.162L5.84608 109.143L6.8459 109.162ZM8.82247 65.1057L7.83161 64.9707L8.82247 65.1057ZM20.9796 1.70105C21.0906 1.16005 20.7421 0.631459 20.2011 0.52042C19.66 0.409381 19.1315 0.757939 19.0204 1.29895L20.9796 1.70105ZM7.10463 253.039C6.79106 252.585 6.1683 252.47 5.71367 252.784C5.25904 253.097 5.14469 253.72 5.45826 254.175L7.10463 253.039ZM2.74223 248.767C2.9372 249.284 3.51414 249.545 4.03087 249.35C4.54759 249.155 4.80843 248.578 4.61346 248.061L2.74223 248.767ZM4.29326 247.176C4.11249 246.654 3.5429 246.377 3.02104 246.558C2.49917 246.739 2.22266 247.309 2.40343 247.83L4.29326 247.176ZM0.870863 242.07C0.975824 242.612 1.50047 242.967 2.04269 242.862C2.58491 242.757 2.93937 242.232 2.83441 241.69L0.870863 242.07ZM2.66439 240.758C2.57111 240.214 2.05422 239.848 1.50987 239.941C0.965515 240.035 0.599844 240.551 0.693117 241.096L2.66439 240.758ZM0.0554826 235.19C0.0813851 235.742 0.549606 236.168 1.10128 236.142C1.65296 236.116 2.07918 235.648 2.05328 235.096L0.0554826 235.19ZM2.0181 234.148C2.00305 233.596 1.54329 233.16 0.991213 233.175C0.439133 233.19 0.00378835 233.65 0.0188425 234.202L2.0181 234.148ZM0.200406 228.269C0.152113 228.819 0.558964 229.304 1.10913 229.353C1.6593 229.401 2.14445 228.994 2.19274 228.444L0.200406 228.269ZM2.28448 227.499C2.34298 226.95 1.9452 226.458 1.39602 226.399C0.846843 226.341 0.354227 226.738 0.295734 227.288L2.28448 227.499ZM1.24499 221.437C1.12731 221.977 1.46935 222.51 2.00895 222.627C2.54855 222.745 3.08138 222.403 3.19906 221.864L1.24499 221.437ZM3.41809 220.891C3.54083 220.353 3.20382 219.817 2.66535 219.694C2.12687 219.571 1.59085 219.908 1.46811 220.447L3.41809 220.891ZM2.85668 214.434C2.73106 214.972 3.06521 215.509 3.60302 215.635C4.14083 215.761 4.67864 215.427 4.80426 214.889L2.85668 214.434ZM5.03789 213.89C5.16387 213.352 4.83008 212.814 4.29236 212.688C3.75463 212.562 3.21659 212.896 3.09062 213.434L5.03789 213.89ZM4.50586 207.431C4.37868 207.968 4.71126 208.507 5.2487 208.634C5.78614 208.762 6.32492 208.429 6.45211 207.892L4.50586 207.431ZM6.68902 206.89C6.81621 206.353 6.48363 205.814 5.94619 205.687C5.40875 205.56 4.86997 205.892 4.74278 206.43L6.68902 206.89ZM6.15628 200.432C6.03054 200.97 6.36457 201.508 6.90235 201.634C7.44014 201.759 7.97802 201.425 8.10376 200.888L6.15628 200.432ZM8.3371 199.887C8.46231 199.35 8.12776 198.812 7.58986 198.687C7.05195 198.562 6.51439 198.896 6.38918 199.434L8.3371 199.887ZM7.75971 193.432C7.63959 193.971 7.97921 194.506 8.51827 194.626C9.05734 194.746 9.59171 194.406 9.71183 193.867L7.75971 193.432ZM9.93491 192.861C10.0538 192.322 9.71304 191.788 9.17371 191.669C8.63438 191.55 8.10076 191.891 7.98183 192.43L9.93491 192.861ZM9.25778 186.416C9.14804 186.958 9.49788 187.485 10.0392 187.595C10.5804 187.705 11.1082 187.355 11.2179 186.814L9.25778 186.416ZM11.421 185.803C11.5289 185.261 11.1773 184.735 10.6356 184.627C10.094 184.519 9.56744 184.871 9.45956 185.412L11.421 185.803ZM10.5905 179.376C10.4954 179.92 10.8593 180.438 11.4033 180.533C11.9474 180.628 12.4655 180.264 12.5606 179.72L10.5905 179.376ZM12.736 178.704C12.8287 178.159 12.4626 177.643 11.9181 177.55C11.3737 177.457 10.8571 177.823 10.7644 178.368L12.736 178.704ZM11.7135 172.304C11.6356 172.851 12.0157 173.357 12.5625 173.435C13.1092 173.513 13.6156 173.133 13.6935 172.586L11.7135 172.304ZM13.8335 171.594C13.9112 171.047 13.5309 170.541 12.9841 170.463C12.4374 170.386 11.9311 170.766 11.8534 171.313L13.8335 171.594ZM12.7173 165.647C12.6298 166.192 13.0008 166.705 13.5461 166.793C14.0914 166.88 14.6045 166.509 14.692 165.964L12.7173 165.647ZM14.8434 165.024C14.9315 164.479 14.5609 163.966 14.0157 163.878C13.4705 163.79 12.9571 164.16 12.869 164.705L14.8434 165.024ZM13.7139 159.096C13.6466 159.644 14.0364 160.143 14.5845 160.21C15.1327 160.277 15.6317 159.888 15.699 159.339L13.7139 159.096ZM15.8087 158.375C15.8658 157.826 15.4668 157.334 14.9175 157.277C14.3681 157.22 13.8765 157.619 13.8194 158.168L15.8087 158.375ZM13.9245 152.648C13.9676 153.199 14.4488 153.61 14.9994 153.567C15.55 153.524 15.9615 153.043 15.9184 152.492L13.9245 152.648ZM15.8263 151.513C15.7661 150.964 15.2723 150.567 14.7233 150.627C14.1743 150.688 13.778 151.181 13.8382 151.73L15.8263 151.513ZM12.8389 146.238C12.9665 146.775 13.5055 147.107 14.0429 146.98C14.5802 146.852 14.9124 146.313 14.7849 145.776L12.8389 146.238ZM14.5569 144.84C14.423 144.305 13.8801 143.979 13.3443 144.113C12.8085 144.247 12.4827 144.789 12.6165 145.325L14.5569 144.84ZM11.1078 139.858C11.2642 140.388 11.8204 140.69 12.3501 140.534C12.8798 140.378 13.1823 139.821 13.0259 139.292L11.1078 139.858ZM12.7271 138.287C12.569 137.758 12.0118 137.457 11.4827 137.615C10.9535 137.773 10.6527 138.331 10.8108 138.86L12.7271 138.287ZM8.90593 132.592C9.06772 133.12 9.62695 133.417 10.155 133.255C10.6831 133.094 10.98 132.534 10.8182 132.006L8.90593 132.592ZM10.4989 130.962C10.3378 130.434 9.77893 130.136 9.25068 130.298C8.72242 130.459 8.42479 131.018 8.58591 131.546L10.4989 130.962ZM6.7956 125.171C6.92041 125.709 7.45773 126.044 7.99573 125.92C8.53372 125.795 8.86867 125.257 8.74385 124.719L6.7956 125.171ZM8.51705 123.678C8.4074 123.136 7.8797 122.786 7.33841 122.896C6.79712 123.006 6.44722 123.533 6.55687 124.075L8.51705 123.678ZM5.83192 117.401C5.85021 117.953 6.3125 118.386 6.86448 118.368C7.41646 118.349 7.84911 117.887 7.83083 117.335L5.83192 117.401ZM7.80329 116.256C7.79304 115.704 7.33709 115.265 6.7849 115.275C6.23271 115.285 5.79338 115.741 5.80364 116.293L7.80329 116.256ZM5.83562 109.701C5.82557 110.253 6.26507 110.709 6.81726 110.719C7.36946 110.729 7.82524 110.29 7.83529 109.737L5.83562 109.701ZM7.85572 108.659C7.86627 108.106 7.42719 107.65 6.87501 107.64C6.32283 107.629 5.86664 108.068 5.85609 108.62L7.85572 108.659ZM5.97636 102.317C5.96554 102.869 6.40439 103.325 6.95657 103.336C7.50875 103.347 7.96515 102.908 7.97598 102.356L5.97636 102.317ZM7.99675 101.306C8.00779 100.754 7.56912 100.298 7.01694 100.287C6.46477 100.276 6.00819 100.714 5.99715 101.266L7.99675 101.306ZM6.13427 94.9599C6.12104 95.512 6.5579 95.9703 7.11003 95.9836C7.66216 95.9968 8.12047 95.5599 8.1337 95.0078L6.13427 94.9599ZM8.15932 93.9584C8.17307 93.4062 7.73664 92.9475 7.18452 92.9338C6.63241 92.92 6.17369 93.3565 6.15994 93.9086L8.15932 93.9584ZM6.33896 87.5997C6.32106 88.1517 6.75403 88.6137 7.30602 88.6316C7.85802 88.6495 8.32001 88.2165 8.33791 87.6645L6.33896 87.5997ZM8.37275 86.6162C8.39154 86.0643 7.95932 85.6016 7.40735 85.5828C6.85539 85.564 6.3927 85.9962 6.3739 86.5482L8.37275 86.6162ZM6.62586 80.2365C6.60008 80.7882 7.0264 81.2563 7.57808 81.2821C8.12977 81.3079 8.5979 80.8815 8.62368 80.3299L6.62586 80.2365ZM8.67402 79.2832C8.70132 78.7316 8.27628 78.2623 7.72467 78.235C7.17306 78.2077 6.70376 78.6328 6.67647 79.1844L8.67402 79.2832ZM7.05381 72.8722C7.01406 73.423 7.42838 73.9018 7.97923 73.9415C8.53009 73.9813 9.00887 73.567 9.04862 73.0161L7.05381 72.8722ZM9.12661 71.973C9.16926 71.4224 8.75746 70.9414 8.20683 70.8988C7.65619 70.8561 7.17524 71.2679 7.13259 71.8186L9.12661 71.973ZM7.76244 65.4923C7.69168 66.04 8.07834 66.5414 8.62607 66.6121C9.1738 66.6829 9.67519 66.2962 9.74595 65.7485L7.76244 65.4923ZM9.88002 64.7589C9.9569 64.212 9.57586 63.7063 9.02895 63.6295C8.48204 63.5526 7.97637 63.9336 7.89949 64.4805L9.88002 64.7589ZM8.83613 58.3686C8.74855 58.9139 9.1196 59.427 9.6649 59.5145C10.2102 59.6021 10.7232 59.2311 10.8108 58.6858L8.83613 58.3686ZM10.973 57.6806C11.0613 57.1354 10.691 56.6218 10.1458 56.5335C9.60065 56.4451 9.08709 56.8155 8.99875 57.3607L10.973 57.6806ZM10.003 51.2828C9.91157 51.8275 10.279 52.3431 10.8237 52.4345C11.3683 52.526 11.884 52.1585 11.9754 51.6138L10.003 51.2828ZM12.1471 50.5928C12.2389 50.0482 11.8718 49.5323 11.3272 49.4406C10.7826 49.3488 10.2667 49.7159 10.1749 50.2605L12.1471 50.5928ZM11.2072 44.1991C11.1136 44.7434 11.479 45.2604 12.0233 45.354C12.5676 45.4476 13.0847 45.0822 13.1782 44.5379L11.2072 44.1991ZM13.3526 43.5252C13.4464 42.9809 13.0812 42.4637 12.5369 42.3699C11.9927 42.2761 11.4754 42.6412 11.3816 43.1855L13.3526 43.5252ZM12.4346 37.1225C12.3394 37.6665 12.7033 38.1846 13.2473 38.2798C13.7914 38.375 14.3095 38.0111 14.4047 37.4671L12.4346 37.1225ZM14.5818 36.4558C14.6771 35.9118 14.3134 35.3935 13.7695 35.2981C13.2255 35.2028 12.7072 35.5664 12.6118 36.1104L14.5818 36.4558ZM13.6814 30.0491C13.5848 30.5929 13.9473 31.112 14.4911 31.2086C15.0349 31.3051 15.554 30.9426 15.6506 30.3988L13.6814 30.0491ZM15.8297 29.391C15.9265 28.8473 15.5642 28.328 15.0204 28.2313C14.4767 28.1345 13.9575 28.4968 13.8607 29.0406L15.8297 29.391ZM14.9468 22.9786C14.8487 23.5221 15.2098 24.0422 15.7534 24.1402C16.2969 24.2382 16.817 23.8771 16.915 23.3336L14.9468 22.9786ZM17.0964 22.3289C17.1947 21.7854 16.8338 21.2652 16.2903 21.1669C15.7469 21.0687 15.2266 21.4296 15.1284 21.973L17.0964 22.3289ZM16.233 15.9114C16.1332 16.4546 16.4926 16.9759 17.0357 17.0757C17.5789 17.1756 18.1002 16.8162 18.2 16.273L16.233 15.9114ZM18.3842 15.2723C18.4844 14.7291 18.1253 14.2077 17.5821 14.1075C17.039 14.0074 16.5175 14.3665 16.4174 14.9096L18.3842 15.2723ZM17.5462 8.85707C17.4436 9.39974 17.8004 9.92283 18.3431 10.0254C18.8857 10.128 19.4088 9.77127 19.5114 9.2286L17.5462 8.85707ZM19.7041 8.21216C19.8073 7.66959 19.4511 7.14612 18.9086 7.04295C18.366 6.93977 17.8425 7.29596 17.7393 7.83853L19.7041 8.21216ZM18.9214 1.78392C18.8116 2.32517 19.1612 2.85301 19.7025 2.96289C20.2437 3.07278 20.7716 2.72309 20.8814 2.18185L18.9214 1.78392ZM7.36446 253.402C7.27935 253.288 7.19267 253.167 7.10463 253.039L5.45826 254.175C5.55963 254.322 5.66077 254.463 5.76148 254.598L7.36446 253.402ZM4.61346 248.061C4.50509 247.774 4.39823 247.479 4.29326 247.176L2.40343 247.83C2.51431 248.151 2.62737 248.463 2.74223 248.767L4.61346 248.061ZM2.83441 241.69C2.7751 241.384 2.71836 241.073 2.66439 240.758L0.693117 241.096C0.749519 241.425 0.808834 241.75 0.870863 242.07L2.83441 241.69ZM2.05328 235.096C2.03857 234.783 2.0268 234.467 2.0181 234.148L0.0188425 234.202C0.0278979 234.534 0.0401558 234.864 0.0554826 235.19L2.05328 235.096ZM2.19274 228.444C2.22021 228.131 2.25076 227.816 2.28448 227.499L0.295734 227.288C0.260691 227.617 0.228948 227.944 0.200406 228.269L2.19274 228.444ZM3.19906 221.864C3.23301 221.708 3.26776 221.552 3.30331 221.395L1.35309 220.952C1.31623 221.114 1.2802 221.276 1.24499 221.437L3.19906 221.864ZM3.30331 221.395C3.34163 221.227 3.37989 221.059 3.41809 220.891L1.46811 220.447C1.42983 220.615 1.39149 220.783 1.35309 220.952L3.30331 221.395ZM4.80426 214.889C4.88243 214.554 4.96031 214.221 5.03789 213.89L3.09062 213.434C3.01294 213.765 2.93496 214.099 2.85668 214.434L4.80426 214.889ZM6.45211 207.892C6.53146 207.556 6.61042 207.223 6.68902 206.89L4.74278 206.43C4.66419 206.762 4.58521 207.096 4.50586 207.431L6.45211 207.892ZM8.10376 200.888C8.18199 200.553 8.25977 200.22 8.3371 199.887L6.38918 199.434C6.31201 199.766 6.23437 200.098 6.15628 200.432L8.10376 200.888ZM9.71183 193.867C9.78672 193.531 9.86108 193.196 9.93491 192.861L7.98183 192.43C7.90834 192.764 7.8343 193.098 7.75971 193.432L9.71183 193.867ZM11.2179 186.814C11.2862 186.477 11.3539 186.14 11.421 185.803L9.45956 185.412C9.39291 185.747 9.32564 186.082 9.25778 186.416L11.2179 186.814ZM12.5606 179.72C12.6197 179.382 12.6782 179.043 12.736 178.704L10.7644 178.368C10.707 178.704 10.6491 179.04 10.5905 179.376L12.5606 179.72ZM13.6935 172.586C13.7178 172.415 13.742 172.245 13.7659 172.073L11.7853 171.796C11.7615 171.966 11.7376 172.135 11.7135 172.304L13.6935 172.586ZM13.7659 172.073C13.7885 171.912 13.8111 171.752 13.8335 171.594L11.8534 171.313C11.8308 171.472 11.8081 171.633 11.7853 171.796L13.7659 172.073ZM14.692 165.964C14.7435 165.643 14.794 165.331 14.8434 165.024L12.869 164.705C12.8195 165.012 12.7689 165.325 12.7173 165.647L14.692 165.964ZM15.699 159.339C15.739 159.013 15.7757 158.692 15.8087 158.375L13.8194 158.168C13.7878 158.472 13.7526 158.781 13.7139 159.096L15.699 159.339ZM15.9184 152.492C15.8932 152.17 15.8626 151.844 15.8263 151.513L13.8382 151.73C13.8723 152.042 13.901 152.347 13.9245 152.648L15.9184 152.492ZM14.7849 145.776C14.7125 145.471 14.6365 145.159 14.5569 144.84L12.6165 145.325C12.6944 145.637 12.7684 145.941 12.8389 146.238L14.7849 145.776ZM13.0259 139.292C12.9802 139.137 12.9339 138.981 12.8869 138.823L10.9701 139.394C11.0166 139.55 11.0625 139.705 11.1078 139.858L13.0259 139.292ZM12.8869 138.823C12.8331 138.642 12.7799 138.464 12.7271 138.287L10.8108 138.86C10.8634 139.036 10.9165 139.214 10.9701 139.394L12.8869 138.823ZM10.8182 132.006C10.708 131.647 10.6017 131.299 10.4989 130.962L8.58591 131.546C8.68903 131.884 8.79568 132.232 8.90593 132.592L10.8182 132.006ZM8.74385 124.719C8.66193 124.366 8.58649 124.02 8.51705 123.678L6.55687 124.075C6.63028 124.437 6.70975 124.801 6.7956 125.171L8.74385 124.719ZM7.83083 117.335C7.81934 116.988 7.81022 116.629 7.80329 116.256L5.80364 116.293C5.81072 116.675 5.82008 117.044 5.83192 117.401L7.83083 117.335ZM7.83529 109.737C7.83862 109.554 7.8421 109.369 7.84571 109.181L5.84608 109.143C5.84245 109.331 5.83897 109.517 5.83562 109.701L7.83529 109.737ZM7.84571 109.181C7.84905 109.007 7.85239 108.833 7.85572 108.659L5.85609 108.62C5.85275 108.795 5.84942 108.969 5.84608 109.143L7.84571 109.181ZM7.97598 102.356C7.98282 102.007 7.98974 101.657 7.99675 101.306L5.99715 101.266C5.99013 101.618 5.9832 101.968 5.97636 102.317L7.97598 102.356ZM8.1337 95.0078C8.14207 94.6581 8.15061 94.3083 8.15932 93.9584L6.15994 93.9086C6.15122 94.2591 6.14266 94.6096 6.13427 94.9599L8.1337 95.0078ZM8.33791 87.6645C8.34927 87.3143 8.36088 86.9648 8.37275 86.6162L6.3739 86.5482C6.362 86.8979 6.35036 87.2484 6.33896 87.5997L8.33791 87.6645ZM8.62368 80.3299C8.64008 79.9789 8.65686 79.63 8.67402 79.2832L6.67647 79.1844C6.65921 79.533 6.64235 79.8838 6.62586 80.2365L8.62368 80.3299ZM9.04862 73.0161C9.07402 72.6643 9.10001 72.3165 9.12661 71.973L7.13259 71.8186C7.1057 72.1657 7.07945 72.517 7.05381 72.8722L9.04862 73.0161ZM9.74595 65.7485C9.76813 65.5769 9.79058 65.4076 9.81332 65.2406L7.83161 64.9707C7.80824 65.1424 7.78518 65.3162 7.76244 65.4923L9.74595 65.7485ZM9.81332 65.2406C9.83425 65.087 9.85649 64.9263 9.88002 64.7589L7.89949 64.4805C7.8756 64.6505 7.85296 64.814 7.83161 64.9707L9.81332 65.2406ZM10.8108 58.6858C10.8635 58.3576 10.9176 58.0224 10.973 57.6806L8.99875 57.3607C8.94322 57.7034 8.88899 58.0395 8.83613 58.3686L10.8108 58.6858ZM11.9754 51.6138C12.032 51.2768 12.0892 50.9364 12.1471 50.5928L10.1749 50.2605C10.1169 50.6045 10.0596 50.9453 10.003 51.2828L11.9754 51.6138ZM13.1782 44.5379C13.236 44.2019 13.2941 43.8643 13.3526 43.5252L11.3816 43.1855C11.3231 43.5249 11.265 43.8628 11.2072 44.1991L13.1782 44.5379ZM14.4047 37.4671C14.4635 37.1305 14.5226 36.7934 14.5818 36.4558L12.6118 36.1104C12.5526 36.4483 12.4935 36.7857 12.4346 37.1225L14.4047 37.4671ZM15.6506 30.3988C15.7103 30.0625 15.77 29.7266 15.8297 29.391L13.8607 29.0406C13.8009 29.3763 13.7411 29.7126 13.6814 30.0491L15.6506 30.3988ZM16.915 23.3336C16.9756 22.9974 17.0361 22.6624 17.0964 22.3289L15.1284 21.973C15.068 22.3068 15.0075 22.6421 14.9468 22.9786L16.915 23.3336ZM18.2 16.273C18.2619 15.9366 18.3233 15.603 18.3842 15.2723L16.4174 14.9096C16.3563 15.2408 16.2949 15.5747 16.233 15.9114L18.2 16.273ZM19.5114 9.2286C19.5766 8.88375 19.6409 8.54483 19.7041 8.21216L17.7393 7.83853C17.6759 8.17193 17.6116 8.51155 17.5462 8.85707L19.5114 9.2286ZM20.8814 2.18185C20.9149 2.01707 20.9476 1.85677 20.9796 1.70105L19.0204 1.29895C18.9882 1.45614 18.9552 1.61784 18.9214 1.78392L20.8814 2.18185Z" fill="#AAAAAA"/>
</svg>
