<svg width="141" height="79" viewBox="0 0 141 79" fill="none" xmlns="http://www.w3.org/2000/svg">
<path d="M21.793 35.5584L21.5339 36.5243L21.793 35.5584ZM62.2397 68.665L62.8019 67.8379L62.2397 68.665ZM116.359 68.665L115.408 68.3542L116.359 68.665ZM128.891 25.975L127.984 25.5548L128.891 25.975ZM1.71925 38.7364C2.2564 38.608 2.58774 38.0684 2.45932 37.5313C2.33089 36.9941 1.79135 36.6628 1.2542 36.7912L1.71925 38.7364ZM7.18864 35.5404C6.64557 35.6409 6.28679 36.1626 6.38728 36.7057C6.48777 37.2488 7.00948 37.6075 7.55255 37.507L7.18864 35.5404ZM8.53041 37.3304C9.07432 37.2346 9.43755 36.716 9.34172 36.172C9.24589 35.6281 8.72728 35.2649 8.18337 35.3607L8.53041 37.3304ZM14.2062 34.4928C13.657 34.5505 13.2585 35.0426 13.3163 35.5919C13.3741 36.1411 13.8662 36.5396 14.4155 36.4818L14.2062 34.4928ZM15.3949 36.3872C15.9451 36.339 16.3521 35.854 16.304 35.3038C16.2558 34.7536 15.7708 34.3466 15.2206 34.3948L15.3949 36.3872ZM21.4955 34.4655C20.9532 34.361 20.4289 34.7159 20.3244 35.2582C20.2199 35.8005 20.5749 36.3249 21.1172 36.4293L21.4955 34.4655ZM21.9048 36.6554C22.4142 36.8688 23.0001 36.6288 23.2135 36.1194C23.4268 35.61 23.1869 35.0241 22.6775 34.8107L21.9048 36.6554ZM28.2262 38.5143C27.7925 38.1725 27.1637 38.2469 26.8218 38.6807C26.48 39.1145 26.5545 39.7432 26.9882 40.0851L28.2262 38.5143ZM27.8094 40.7396C28.2395 41.086 28.869 41.0181 29.2154 40.588C29.5619 40.1579 29.494 39.5284 29.0639 39.1819L27.8094 40.7396ZM34.0045 43.3274C33.5865 42.9664 32.9551 43.0127 32.5941 43.4307C32.2332 43.8487 32.2794 44.4802 32.6974 44.8411L34.0045 43.3274ZM33.5073 45.5427C33.9242 45.9049 34.5558 45.8606 34.918 45.4437C35.2803 45.0268 35.2359 44.3952 34.819 44.033L33.5073 45.5427ZM39.6404 48.2745C39.2273 47.908 38.5953 47.9457 38.2287 48.3588C37.8622 48.7719 37.9 49.404 38.3131 49.7705L39.6404 48.2745ZM39.1136 50.4814C39.5265 50.8482 40.1585 50.811 40.5254 50.3981C40.8922 49.9853 40.855 49.3532 40.4421 48.9864L39.1136 50.4814ZM45.2338 53.2491C44.8209 52.8823 44.1888 52.9197 43.822 53.3326C43.4552 53.7454 43.4926 54.3775 43.9055 54.7443L45.2338 53.2491ZM44.7058 55.4548C45.1189 55.8213 45.751 55.7835 46.1175 55.3703C46.484 54.9572 46.4461 54.3251 46.033 53.9586L44.7058 55.4548ZM50.8412 58.1904C50.4247 57.8277 49.793 57.8715 49.4304 58.288C49.0678 58.7046 49.1115 59.3362 49.5281 59.6989L50.8412 58.1904ZM50.3381 60.4023C50.7556 60.7638 51.3871 60.7185 51.7487 60.301C52.1103 59.8835 52.0649 59.252 51.6475 58.8904L50.3381 60.4023ZM56.5218 63.0218C56.0956 62.6706 55.4653 62.7314 55.1141 63.1576C54.7629 63.5838 54.8236 64.214 55.2499 64.5653L56.5218 63.0218ZM56.0838 65.2481C56.5123 65.5966 57.1421 65.5318 57.4906 65.1033C57.8391 64.6749 57.7743 64.045 57.3458 63.6965L56.0838 65.2481ZM62.3825 67.5492C61.9294 67.2335 61.3061 67.3448 60.9904 67.7979C60.6746 68.251 60.786 68.8743 61.2391 69.1901L62.3825 67.5492ZM62.1272 69.7895C62.5914 70.0887 63.2103 69.955 63.5095 69.4908C63.8087 69.0266 63.675 68.4077 63.2108 68.1085L62.1272 69.7895ZM68.7178 70.9377C68.2099 70.7208 67.6224 70.9568 67.4055 71.4647C67.1886 71.9726 67.4246 72.5602 67.9325 72.7771L68.7178 70.9377ZM68.9356 73.1947C69.4473 73.4025 70.0305 73.1561 70.2383 72.6444C70.4461 72.1327 70.1998 71.5495 69.6881 71.3417L68.9356 73.1947ZM75.6002 73.4372C75.0726 73.2742 74.5126 73.5698 74.3496 74.0975C74.1866 74.6252 74.4822 75.1851 75.0098 75.3481L75.6002 73.4372ZM76.04 75.6593C76.5696 75.8156 77.1258 75.513 77.2822 74.9833C77.4385 74.4536 77.1359 73.8975 76.6062 73.7411L76.04 75.6593ZM82.7002 75.2995C82.1605 75.1823 81.628 75.5248 81.5108 76.0645C81.3936 76.6042 81.7361 77.1367 82.2758 77.2539L82.7002 75.2995ZM83.3257 77.4752C83.8668 77.5857 84.3951 77.2366 84.5056 76.6955C84.6161 76.1544 84.267 75.6261 83.7259 75.5156L83.3257 77.4752ZM89.9272 76.5319C89.379 76.4651 88.8804 76.8554 88.8137 77.4036C88.7469 77.9519 89.1372 78.4504 89.6854 78.5172L89.9272 76.5319ZM90.7542 78.6393C91.3033 78.6979 91.796 78.3002 91.8546 77.751C91.9132 77.2019 91.5154 76.7092 90.9663 76.6506L90.7542 78.6393ZM97.2128 77C96.6605 77.0001 96.2129 77.448 96.213 78.0003C96.2132 78.5525 96.661 79.0001 97.2133 79L97.2128 77ZM98.2958 78.9881C98.848 78.976 99.2858 78.5186 99.2737 77.9664C99.2615 77.4143 98.8041 76.9765 98.252 76.9886L98.2958 78.9881ZM104.409 76.3686C103.867 76.4746 103.514 77 103.62 77.542C103.726 78.084 104.251 78.4374 104.793 78.3314L104.409 76.3686ZM105.862 78.1012C106.4 77.9746 106.733 77.4361 106.606 76.8985C106.48 76.361 105.941 76.0279 105.403 76.1545L105.862 78.1012ZM110.976 73.9253C110.51 74.2217 110.372 74.8398 110.669 75.3058C110.965 75.7718 111.583 75.9092 112.049 75.6128L110.976 73.9253ZM112.988 74.9634C113.429 74.6313 113.517 74.0043 113.185 73.5631C112.853 73.1218 112.226 73.0334 111.785 73.3655L112.988 74.9634ZM115.244 68.8182C115.049 69.3346 115.309 69.912 115.825 70.1077C116.342 70.3035 116.919 70.0435 117.115 69.5271L115.244 68.8182ZM117.474 68.4674C117.644 67.942 117.356 67.3782 116.831 67.2082C116.305 67.0382 115.741 67.3264 115.571 67.8519L117.474 68.4674ZM117.416 61.7977C117.264 62.3284 117.57 62.8825 118.101 63.0352C118.631 63.188 119.186 62.8816 119.338 62.3509L117.416 61.7977ZM119.63 61.3279C119.781 60.7964 119.472 60.2437 118.94 60.0934C118.409 59.943 117.856 60.2519 117.706 60.7833L119.63 61.3279ZM119.363 54.6626C119.224 55.1971 119.544 55.7432 120.079 55.8825C120.613 56.0218 121.159 55.7014 121.298 55.167L119.363 54.6626ZM121.565 54.1375C121.703 53.6027 121.382 53.0573 120.847 52.9193C120.312 52.7813 119.767 53.1029 119.629 53.6376L121.565 54.1375ZM121.19 47.4777C121.056 48.0133 121.381 48.5567 121.916 48.6914C122.452 48.8261 122.995 48.5011 123.13 47.9654L121.19 47.4777ZM123.389 46.9367C123.524 46.4012 123.199 45.8577 122.664 45.7227C122.128 45.5878 121.584 45.9126 121.45 46.4482L123.389 46.9367ZM123.039 40.273C122.897 40.8066 123.214 41.3546 123.748 41.4968C124.281 41.6391 124.829 41.3218 124.972 40.7881L123.039 40.273ZM125.245 39.7694C125.39 39.2364 125.075 38.6871 124.542 38.5424C124.009 38.3978 123.46 38.7126 123.315 39.2456L125.245 39.7694ZM125.114 33.0973C124.946 33.6232 125.235 34.1862 125.761 34.3546C126.287 34.523 126.85 34.2331 127.019 33.7072L125.114 33.0973ZM127.344 32.7107C127.518 32.1867 127.235 31.6205 126.711 31.4462C126.186 31.2719 125.62 31.5554 125.446 32.0795L127.344 32.7107ZM127.76 26.0453C127.534 26.5491 127.759 27.141 128.263 27.3672C128.767 27.5935 129.359 27.3684 129.585 26.8646L127.76 26.0453ZM130.006 25.945C130.235 25.4426 130.014 24.8493 129.512 24.6199C129.009 24.3904 128.416 24.6117 128.187 25.114L130.006 25.945ZM130.465 19.7497C130.261 20.2627 130.511 20.8444 131.024 21.0489C131.537 21.2534 132.118 21.0032 132.323 20.4902L130.465 19.7497ZM132.685 19.5736C132.887 19.0594 132.633 18.4792 132.119 18.2776C131.605 18.076 131.025 18.3294 130.823 18.8435L132.685 19.5736ZM132.906 13.3623C132.712 13.8795 132.975 14.4558 133.492 14.6495C134.009 14.8431 134.586 14.5808 134.779 14.0636L132.906 13.3623ZM135.123 13.1474C135.317 12.6304 135.055 12.0538 134.538 11.8596C134.021 11.6654 133.445 11.9271 133.25 12.4441L135.123 13.1474ZM135.417 6.93168C135.201 7.4398 135.437 8.02714 135.946 8.24355C136.454 8.45996 137.041 8.22349 137.257 7.71537L135.417 6.93168ZM137.641 6.83425C137.866 6.32989 137.64 5.7386 137.135 5.51357C136.631 5.28855 136.04 5.51499 135.815 6.01935L137.641 6.83425ZM138.913 0.704282C138.551 1.12128 138.596 1.75288 139.013 2.115C139.43 2.47712 140.061 2.43262 140.423 2.01562L138.913 0.704282ZM1.23837 38.8529C1.39293 38.8149 1.55335 38.7761 1.71925 38.7364L1.2542 36.7912C1.08454 36.8318 0.920219 36.8716 0.761626 36.9105L1.23837 38.8529ZM7.55255 37.507C7.8754 37.4473 8.20168 37.3883 8.53041 37.3304L8.18337 35.3607C7.84883 35.4197 7.51692 35.4797 7.18864 35.5404L7.55255 37.507ZM14.4155 36.4818C14.7462 36.447 15.073 36.4153 15.3949 36.3872L15.2206 34.3948C14.8862 34.424 14.5477 34.4568 14.2062 34.4928L14.4155 36.4818ZM21.1172 36.4293C21.2671 36.4582 21.406 36.49 21.5339 36.5243L22.0522 34.5926C21.8729 34.5445 21.6869 34.5023 21.4955 34.4655L21.1172 36.4293ZM21.5339 36.5243C21.6324 36.5507 21.7554 36.5929 21.9048 36.6554L22.6775 34.8107C22.4666 34.7224 22.2571 34.6476 22.0522 34.5926L21.5339 36.5243ZM26.9882 40.0851C27.2558 40.296 27.5297 40.5143 27.8094 40.7396L29.0639 39.1819C28.7791 38.9526 28.4998 38.7299 28.2262 38.5143L26.9882 40.0851ZM32.6974 44.8411C32.9649 45.0722 33.235 45.3061 33.5073 45.5427L34.819 44.033C34.5453 43.7951 34.2737 43.5599 34.0045 43.3274L32.6974 44.8411ZM38.3131 49.7705C38.579 50.0065 38.8459 50.2435 39.1136 50.4814L40.4421 48.9864C40.1741 48.7482 39.9068 48.5108 39.6404 48.2745L38.3131 49.7705ZM43.9055 54.7443C44.1723 54.9814 44.4391 55.2183 44.7058 55.4548L46.033 53.9586C45.7667 53.7225 45.5003 53.4859 45.2338 53.2491L43.9055 54.7443ZM49.5281 59.6989C49.7992 59.9349 50.0693 60.1694 50.3381 60.4023L51.6475 58.8904C51.38 58.6587 51.1112 58.4253 50.8412 58.1904L49.5281 59.6989ZM55.2499 64.5653C55.5307 64.7967 55.8087 65.0244 56.0838 65.2481L57.3458 63.6965C57.0742 63.4757 56.7995 63.2507 56.5218 63.0218L55.2499 64.5653ZM61.2391 69.1901C61.3871 69.2932 61.5333 69.3939 61.6776 69.492L62.8019 67.8379C62.6643 67.7444 62.5245 67.6482 62.3825 67.5492L61.2391 69.1901ZM61.6776 69.492C61.8236 69.5912 61.9735 69.6904 62.1272 69.7895L63.2108 68.1085C63.0702 68.0178 62.9339 67.9276 62.8019 67.8379L61.6776 69.492ZM67.9325 72.7771C68.2608 72.9173 68.5953 73.0565 68.9356 73.1947L69.6881 71.3417C69.3585 71.2078 69.035 71.0731 68.7178 70.9377L67.9325 72.7771ZM75.0098 75.3481C75.3504 75.4533 75.6939 75.5571 76.04 75.6593L76.6062 73.7411C76.2681 73.6413 75.9327 73.54 75.6002 73.4372L75.0098 75.3481ZM82.2758 77.2539C82.6247 77.3297 82.9747 77.4035 83.3257 77.4752L83.7259 75.5156C83.3831 75.4456 83.0411 75.3735 82.7002 75.2995L82.2758 77.2539ZM89.6854 78.5172C90.042 78.5606 90.3983 78.6014 90.7542 78.6393L90.9663 76.6506C90.6205 76.6137 90.2741 76.5741 89.9272 76.5319L89.6854 78.5172ZM97.2133 79C97.5761 78.9999 97.937 78.996 98.2958 78.9881L98.252 76.9886C97.908 76.9961 97.5615 76.9999 97.2128 77L97.2133 79ZM104.793 78.3314C105.154 78.2607 105.51 78.1841 105.862 78.1012L105.403 76.1545C105.077 76.2314 104.746 76.3027 104.409 76.3686L104.793 78.3314ZM112.049 75.6128C112.372 75.4073 112.685 75.191 112.988 74.9634L111.785 73.3655C111.526 73.5604 111.256 73.747 110.976 73.9253L112.049 75.6128ZM117.115 69.5271C117.183 69.346 117.248 69.1623 117.309 68.9757L115.408 68.3542C115.357 68.5116 115.302 68.6663 115.244 68.8182L117.115 69.5271ZM117.309 68.9757C117.365 68.8062 117.42 68.6368 117.474 68.4674L115.571 67.8519C115.517 68.0192 115.463 68.1867 115.408 68.3542L117.309 68.9757ZM119.338 62.3509C119.437 62.0092 119.534 61.6682 119.63 61.3279L117.706 60.7833C117.61 61.1208 117.514 61.4589 117.416 61.7977L119.338 62.3509ZM121.298 55.167C121.388 54.8227 121.477 54.4795 121.565 54.1375L119.629 53.6376C119.541 53.9783 119.452 54.32 119.363 54.6626L121.298 55.167ZM123.13 47.9654C123.217 47.621 123.303 47.278 123.389 46.9367L121.45 46.4482C121.363 46.7899 121.277 47.1331 121.19 47.4777L123.13 47.9654ZM124.972 40.7881C125.063 40.4463 125.154 40.1067 125.245 39.7694L123.315 39.2456C123.223 39.586 123.131 39.9285 123.039 40.273L124.972 40.7881ZM127.019 33.7072C127.126 33.3717 127.234 33.0395 127.344 32.7107L125.446 32.0795C125.334 32.4157 125.224 32.755 125.114 33.0973L127.019 33.7072ZM129.585 26.8646C129.656 26.7069 129.727 26.5505 129.799 26.3953L127.984 25.5548C127.909 25.7172 127.834 25.8807 127.76 26.0453L129.585 26.8646ZM129.799 26.3953C129.868 26.2452 129.937 26.0951 130.006 25.945L128.187 25.114C128.12 25.261 128.052 25.4079 127.984 25.5548L129.799 26.3953ZM132.323 20.4902C132.445 20.1835 132.566 19.8779 132.685 19.5736L130.823 18.8435C130.705 19.1447 130.586 19.4468 130.465 19.7497L132.323 20.4902ZM134.779 14.0636C134.895 13.7551 135.009 13.4497 135.123 13.1474L133.25 12.4441C133.136 12.7474 133.022 13.0536 132.906 13.3623L134.779 14.0636ZM137.257 7.71537C137.386 7.41423 137.514 7.12041 137.641 6.83425L135.815 6.01935C135.682 6.31693 135.55 6.62122 135.417 6.93168L137.257 7.71537ZM140.423 2.01562C140.521 1.90365 140.617 1.79855 140.714 1.70023L139.286 0.299775C139.159 0.428904 139.035 0.563905 138.913 0.704282L140.423 2.01562Z" fill="#AAAAAA"/>
</svg>
