<svg width="169" height="78" viewBox="0 0 169 78" fill="none" xmlns="http://www.w3.org/2000/svg">
<path d="M4.37409 64.3229L5.02098 64.0825L4.37409 64.3229ZM5.16469 31.6327L5.47243 32.2504L5.16469 31.6327ZM21.9649 31.6327L22.1672 30.9729L21.9649 31.6327ZM44.2992 33.9959L44.2046 33.3122L44.2992 33.9959ZM67.0289 24.1494L66.651 23.572L66.638 23.5805L66.6254 23.5895L67.0289 24.1494ZM95.4904 8.19816L95.2728 7.5432L95.4904 8.19816ZM117.429 4.25957L117.442 4.9496L117.429 4.25957ZM151.425 5.04729L151.519 5.731L151.425 5.04729ZM8.54191 76.8653C8.46327 76.4924 8.09717 76.2538 7.72422 76.3324C7.35127 76.4111 7.11269 76.7772 7.19134 77.1501L8.54191 76.8653ZM6.33283 73.4163C6.42385 73.7864 6.79769 74.0126 7.16782 73.9216C7.53794 73.8306 7.76419 73.4568 7.67316 73.0866L6.33283 73.4163ZM7.5176 72.4606C7.4248 72.0909 7.04988 71.8665 6.6802 71.9593C6.31052 72.0521 6.08606 72.427 6.17887 72.7967L7.5176 72.4606ZM5.18772 69.0962C5.29278 69.4626 5.67496 69.6745 6.04135 69.5694C6.40774 69.4644 6.61959 69.0822 6.51453 68.7158L5.18772 69.0962ZM6.33407 68.0945C6.22648 67.7288 5.84283 67.5196 5.47718 67.6272C5.11153 67.7348 4.90234 68.1185 5.00993 68.4841L6.33407 68.0945ZM3.83567 64.8588C3.96565 65.2171 4.36149 65.4022 4.71979 65.2722C5.0781 65.1423 5.26319 64.7464 5.13321 64.3881L3.83567 64.8588ZM4.89812 63.7443C4.77053 63.3851 4.37594 63.1973 4.01678 63.3249C3.65761 63.4525 3.46988 63.8471 3.59746 64.2063L4.89812 63.7443ZM2.33341 59.844C2.42314 60.2145 2.79619 60.442 3.16663 60.3523C3.53707 60.2626 3.76462 59.8895 3.67488 59.5191L2.33341 59.844ZM3.50516 58.8009C3.41951 58.4295 3.049 58.1979 2.67759 58.2835C2.30619 58.3692 2.07454 58.7397 2.16019 59.1111L3.50516 58.8009ZM1.27116 54.6927C1.33675 55.0682 1.69429 55.3194 2.06976 55.2538C2.44523 55.1882 2.69643 54.8307 2.63085 54.4552L1.27116 54.6927ZM2.50648 53.7261C2.44389 53.3501 2.08836 53.096 1.71238 53.1586C1.3364 53.2212 1.08235 53.5767 1.14494 53.9527L2.50648 53.7261ZM0.513332 49.4916C0.557061 49.8703 0.899456 50.1418 1.27809 50.0981C1.65673 50.0543 1.92822 49.7119 1.8845 49.3333L0.513332 49.4916ZM1.80329 48.5994C1.76324 48.2204 1.42349 47.9456 1.04444 47.9856C0.665402 48.0257 0.390602 48.3654 0.43066 48.7445L1.80329 48.5994ZM0.12895 44.2217C0.134213 44.6029 0.447436 44.9075 0.828553 44.9023C1.20967 44.897 1.51436 44.5838 1.5091 44.2027L0.12895 44.2217ZM1.5076 43.5233C1.51014 43.1422 1.20322 42.8311 0.822074 42.8286C0.44093 42.826 0.129892 43.133 0.127352 43.5141L1.5076 43.5233ZM0.352577 39.5613C0.307727 39.9398 0.578208 40.283 0.956713 40.3278C1.33522 40.3727 1.67842 40.1022 1.72327 39.7237L0.352577 39.5613ZM1.80535 39.0997C1.8601 38.7225 1.59871 38.3723 1.22151 38.3176C0.844309 38.2628 0.494141 38.5242 0.439389 38.9014L1.80535 39.0997ZM1.448 34.9855C1.3031 35.338 1.47142 35.7413 1.82396 35.8862C2.1765 36.0311 2.57975 35.8627 2.72465 35.5102L1.448 34.9855ZM2.97132 34.9594C3.13841 34.6169 2.99616 34.2037 2.65358 34.0366C2.31101 33.8695 1.89784 34.0118 1.73075 34.3543L2.97132 34.9594ZM4.53475 31.1878C4.20448 31.3781 4.09098 31.8 4.28124 32.1303C4.47151 32.4606 4.89348 32.5741 5.22375 32.3838L4.53475 31.1878ZM5.70592 32.1437C6.05725 31.9959 6.22224 31.5913 6.07445 31.2399C5.92665 30.8886 5.52202 30.7236 5.17069 30.8714L5.70592 32.1437ZM8.92964 30.0811C8.55007 30.1157 8.27045 30.4515 8.3051 30.8311C8.33975 31.2107 8.67555 31.4903 9.05512 31.4556L8.92964 30.0811ZM9.64466 31.4086C10.0249 31.3825 10.312 31.053 10.2858 30.6727C10.2596 30.2925 9.93017 30.0054 9.54992 30.0316L9.64466 31.4086ZM13.2531 29.9622C12.872 29.9536 12.5561 30.2555 12.5475 30.6365C12.5388 31.0176 12.8407 31.3335 13.2218 31.3422L13.2531 29.9622ZM13.8206 31.3592C14.2015 31.3722 14.5209 31.074 14.5339 30.693C14.5469 30.3121 14.2487 29.9927 13.8677 29.9797L13.8206 31.3592ZM17.5459 30.2231C17.1666 30.1859 16.8289 30.4632 16.7917 30.8426C16.7545 31.2219 17.0318 31.5596 17.4111 31.5968L17.5459 30.2231ZM18.0069 31.6586C18.3858 31.7001 18.7266 31.4267 18.7682 31.0478C18.8097 30.6689 18.5362 30.3281 18.1573 30.2866L18.0069 31.6586ZM21.8461 30.8831C21.4769 30.7882 21.1008 31.0106 21.0059 31.3798C20.911 31.7489 21.1334 32.1251 21.5026 32.22L21.8461 30.8831ZM22.0867 32.3868C22.4539 32.4888 22.8344 32.2739 22.9365 31.9067C23.0386 31.5395 22.8236 31.159 22.4564 31.0569L22.0867 32.3868ZM26.1773 31.8964C25.8032 31.823 25.4405 32.0667 25.3671 32.4407C25.2937 32.8147 25.5374 33.1774 25.9114 33.2508L26.1773 31.8964ZM26.5489 33.3737C26.9234 33.4445 27.2845 33.1984 27.3554 32.8239C27.4262 32.4494 27.1801 32.0883 26.8056 32.0175L26.5489 33.3737ZM30.5954 32.6604C30.2185 32.6037 29.867 32.8633 29.8103 33.2402C29.7536 33.6171 30.0132 33.9686 30.3901 34.0253L30.5954 32.6604ZM31.0318 34.1197C31.4091 34.174 31.7589 33.9121 31.8132 33.5349C31.8674 33.1576 31.6056 32.8078 31.2283 32.7535L31.0318 34.1197ZM35.0394 33.2208C34.6602 33.183 34.322 33.4598 34.2842 33.839C34.2464 34.2183 34.5232 34.5564 34.9025 34.5942L35.0394 33.2208ZM35.5502 34.656C35.9297 34.6906 36.2655 34.4109 36.3001 34.0314C36.3346 33.6518 36.055 33.316 35.6754 33.2815L35.5502 34.656ZM39.4928 33.5135C39.1117 33.5037 38.7949 33.8047 38.7851 34.1857C38.7754 34.5667 39.0763 34.8836 39.4573 34.8933L39.4928 33.5135ZM40.1121 34.9055C40.4932 34.9098 40.8057 34.6044 40.81 34.2232C40.8143 33.8421 40.5088 33.5296 40.1277 33.5253L40.1121 34.9055ZM43.9 33.3518C43.5216 33.3976 43.252 33.7416 43.2979 34.1199C43.3438 34.4983 43.6877 34.7679 44.0661 34.722L43.9 33.3518ZM44.7527 34.6287C45.13 34.5742 45.3916 34.2242 45.337 33.847C45.2825 33.4697 44.9325 33.2081 44.5553 33.2626L44.7527 34.6287ZM48.7125 32.4789C48.3418 32.5674 48.1129 32.9396 48.2014 33.3104C48.2898 33.6811 48.6621 33.91 49.0328 33.8215L48.7125 32.4789ZM49.7394 33.6465C50.1085 33.5515 50.3308 33.1753 50.2358 32.8062C50.1409 32.437 49.7647 32.2147 49.3955 32.3097L49.7394 33.6465ZM53.4161 31.0386C53.0595 31.1731 52.8795 31.5713 53.014 31.9279C53.1485 32.2845 53.5467 32.4646 53.9033 32.3301L53.4161 31.0386ZM54.5821 32.0671C54.9363 31.9263 55.1093 31.525 54.9685 31.1708C54.8276 30.8166 54.4264 30.6436 54.0722 30.7845L54.5821 32.0671ZM57.9176 29.0297C57.5786 29.2039 57.4449 29.6199 57.619 29.9589C57.7932 30.298 58.2092 30.4317 58.5482 30.2575L57.9176 29.0297ZM59.1906 29.9219C59.5272 29.743 59.655 29.3252 59.4762 28.9886C59.2973 28.652 58.8794 28.5242 58.5429 28.703L59.1906 29.9219ZM62.2127 26.5722C61.8898 26.7747 61.7922 27.2007 61.9947 27.5235C62.1973 27.8464 62.6232 27.944 62.9461 27.7415L62.2127 26.5722ZM63.5563 27.3545C63.8772 27.1487 63.9705 26.7218 63.7647 26.401C63.559 26.0801 63.1321 25.9868 62.8112 26.1926L63.5563 27.3545ZM66.334 23.7988C66.024 24.0205 65.9524 24.4516 66.1742 24.7616C66.3959 25.0716 66.827 25.1431 67.137 24.9214L66.334 23.7988ZM67.6795 24.5487C67.9987 24.3405 68.0887 23.9128 67.8804 23.5936C67.6721 23.2744 67.2445 23.1844 66.9253 23.3927L67.6795 24.5487ZM70.3051 21.2226C69.9831 21.4265 69.8873 21.8528 70.0912 22.1749C70.2951 22.4969 70.7214 22.5927 71.0434 22.3888L70.3051 21.2226ZM71.6035 22.035C71.926 21.8318 72.0226 21.4056 71.8193 21.0832C71.6161 20.7607 71.1899 20.6641 70.8675 20.8674L71.6035 22.035ZM74.2727 18.7474C73.948 18.947 73.8466 19.3721 74.0463 19.6968C74.2459 20.0215 74.6709 20.1228 74.9956 19.9232L74.2727 18.7474ZM75.5645 19.5742C75.8895 19.3752 75.9917 18.9504 75.7927 18.6253C75.5937 18.3002 75.1688 18.198 74.8438 18.397L75.5645 19.5742ZM78.2761 16.3237C77.9486 16.5188 77.8412 16.9424 78.0363 17.2698C78.2313 17.5973 78.6549 17.7047 78.9824 17.5096L78.2761 16.3237ZM79.5549 17.1695C79.8828 16.9752 79.9911 16.5518 79.7968 16.2239C79.6025 15.896 79.1792 15.7877 78.8513 15.982L79.5549 17.1695ZM82.3188 13.9615C81.9879 14.1508 81.8732 14.5724 82.0624 14.9032C82.2517 15.2341 82.6733 15.3489 83.0042 15.1596L82.3188 13.9615ZM83.5812 14.8306C83.9126 14.6423 84.0287 14.221 83.8404 13.8896C83.6521 13.5582 83.2308 13.4422 82.8994 13.6305L83.5812 14.8306ZM86.4144 11.6813C86.0789 11.8622 85.9536 12.2808 86.1346 12.6163C86.3155 12.9518 86.7341 13.0771 87.0696 12.8961L86.4144 11.6813ZM87.6523 12.5836C87.9886 12.4042 88.1158 11.9861 87.9364 11.6498C87.757 11.3135 87.3389 11.1863 87.0026 11.3657L87.6523 12.5836ZM90.59 9.53131C90.2471 9.69765 90.1039 10.1105 90.2702 10.4534C90.4366 10.7964 90.8494 10.9396 91.1924 10.7732L90.59 9.53131ZM91.791 10.4862C92.1355 10.3231 92.2825 9.9116 92.1193 9.56712C91.9562 9.22265 91.5447 9.07564 91.2002 9.23878L91.791 10.4862ZM94.9532 7.65244C94.5936 7.77868 94.4043 8.17256 94.5306 8.5322C94.6568 8.89184 95.0507 9.08105 95.4103 8.95482L94.9532 7.65244ZM96.0155 8.75097C96.3772 8.63086 96.5731 8.24024 96.453 7.87851C96.3328 7.51678 95.9422 7.32091 95.5805 7.44102L96.0155 8.75097ZM99.2413 6.24353C98.878 6.35868 98.6768 6.74657 98.7919 7.10991C98.9071 7.47326 99.295 7.67446 99.6583 7.55931L99.2413 6.24353ZM100.266 7.36866C100.63 7.25556 100.833 6.86881 100.72 6.50482C100.607 6.14083 100.22 5.93745 99.8561 6.05054L100.266 7.36866ZM103.595 4.99883C103.225 5.0891 102.998 5.46248 103.088 5.83278C103.178 6.20309 103.552 6.43011 103.922 6.33983L103.595 4.99883ZM104.536 6.19496C104.907 6.1101 105.14 5.74008 105.055 5.36849C104.97 4.9969 104.6 4.76446 104.228 4.84932L104.536 6.19496ZM108.07 4.15749C107.693 4.20801 107.427 4.55523 107.478 4.93302C107.528 5.31081 107.876 5.57611 108.253 5.52558L108.07 4.15749ZM108.879 5.4462C109.258 5.40079 109.528 5.05719 109.482 4.67875C109.437 4.30031 109.093 4.03034 108.715 4.07576L108.879 5.4462ZM112.584 3.74219C112.204 3.7643 111.913 4.09069 111.935 4.4712C111.957 4.85171 112.284 5.14225 112.664 5.12014L112.584 3.74219ZM113.299 5.08561C113.679 5.06625 113.972 4.74196 113.953 4.3613C113.934 3.98064 113.609 3.68775 113.229 3.70712L113.299 5.08561ZM117.09 3.57587C116.709 3.58359 116.407 3.89877 116.414 4.27985C116.422 4.66092 116.737 4.96359 117.118 4.95586L117.09 3.57587ZM117.782 4.94402C118.163 4.93854 118.468 4.62515 118.462 4.24403C118.457 3.86292 118.143 3.55841 117.762 3.56389L117.782 4.94402ZM121.954 3.58343C121.573 3.57587 121.258 3.87866 121.251 4.25974C121.243 4.64082 121.546 4.95587 121.927 4.96344L121.954 3.58343ZM122.618 4.97852C122.999 4.98754 123.316 4.68595 123.325 4.30491C123.334 3.92386 123.032 3.60765 122.651 3.59863L122.618 4.97852ZM126.827 3.73503C126.446 3.7198 126.125 4.0162 126.11 4.39705C126.095 4.77789 126.391 5.09898 126.772 5.11421L126.827 3.73503ZM127.465 5.14258C127.846 5.15851 128.168 4.86271 128.183 4.48189C128.199 4.10107 127.904 3.77944 127.523 3.76351L127.465 5.14258ZM131.69 3.95489C131.31 3.93626 130.986 4.22977 130.967 4.61047C130.949 4.99117 131.242 5.31489 131.623 5.33352L131.69 3.95489ZM132.316 5.36765C132.697 5.3865 133.021 5.09317 133.039 4.71248C133.058 4.3318 132.765 4.00791 132.384 3.98906L132.316 5.36765ZM136.546 4.19717C136.166 4.17835 135.842 4.47169 135.823 4.85238C135.804 5.23307 136.097 5.55694 136.478 5.57577L136.546 4.19717ZM137.172 5.60989C137.553 5.62847 137.877 5.33492 137.895 4.95422C137.914 4.57352 137.62 4.24983 137.24 4.23125L137.172 5.60989ZM141.398 4.41922C141.017 4.40398 140.696 4.70036 140.68 5.08121C140.665 5.46206 140.961 5.78315 141.342 5.7984L141.398 4.41922ZM142.035 5.82526C142.415 5.83955 142.736 5.54237 142.75 5.16148C142.764 4.7806 142.467 4.46024 142.086 4.44595L142.035 5.82526ZM146.234 4.5548C145.853 4.55067 145.541 4.85628 145.536 5.23741C145.532 5.61854 145.838 5.93086 146.219 5.935L146.234 4.5548ZM146.92 5.94002C147.302 5.94125 147.612 5.63326 147.613 5.25211C147.614 4.87096 147.306 4.56098 146.925 4.55975L146.92 5.94002ZM151.011 4.40332C150.633 4.44583 150.36 4.78735 150.402 5.16613C150.445 5.5449 150.787 5.8175 151.165 5.77498L151.011 4.40332ZM151.821 5.68897C152.199 5.63586 152.462 5.28683 152.409 4.9094C152.355 4.53196 152.006 4.26904 151.629 4.32215L151.821 5.68897ZM155.225 3.75282C154.849 3.81857 154.598 4.17621 154.664 4.55166C154.73 4.9271 155.087 5.17816 155.463 5.11241L155.225 3.75282ZM156.068 5.00483C156.443 4.93706 156.692 4.57806 156.624 4.20298C156.556 3.8279 156.197 3.57878 155.822 3.64655L156.068 5.00483ZM159.39 2.93716C159.018 3.01866 158.782 3.38657 158.864 3.75891C158.945 4.13125 159.313 4.36701 159.685 4.28551L159.39 2.93716ZM160.286 4.15161C160.658 4.06732 160.891 3.69765 160.807 3.32593C160.723 2.95422 160.353 2.72122 159.981 2.80551L160.286 4.15161ZM163.485 1.90392C163.119 2.01246 162.911 2.39663 163.02 2.76201C163.128 3.12738 163.512 3.33559 163.878 3.22706L163.485 1.90392ZM164.473 3.04482C164.836 2.92989 165.037 2.54212 164.923 2.1787C164.808 1.81529 164.42 1.61386 164.056 1.72878L164.473 3.04482ZM167.18 0.366886C166.878 0.599684 166.822 1.03306 167.055 1.33486C167.288 1.63666 167.721 1.6926 168.023 1.4598L167.18 0.366886ZM8.60774 77.1811C8.58715 77.0811 8.56519 76.9757 8.54191 76.8653L7.19134 77.1501C7.21419 77.2585 7.23569 77.3617 7.25582 77.4594L8.60774 77.1811ZM7.67316 73.0866C7.6226 72.8811 7.57072 72.6722 7.5176 72.4606L6.17887 72.7967C6.23143 73.0061 6.28278 73.2128 6.33283 73.4163L7.67316 73.0866ZM6.51453 68.7158C6.45507 68.5084 6.39489 68.3012 6.33407 68.0945L5.00993 68.4841C5.06982 68.6876 5.1291 68.8918 5.18772 69.0962L6.51453 68.7158ZM5.13321 64.3881C5.09591 64.2853 5.0585 64.1834 5.02098 64.0825L3.7272 64.5634C3.76341 64.6608 3.79957 64.7593 3.83567 64.8588L5.13321 64.3881ZM5.02098 64.0825C4.97992 63.972 4.93896 63.8592 4.89812 63.7443L3.59746 64.2063C3.64045 64.3273 3.6837 64.4464 3.7272 64.5634L5.02098 64.0825ZM3.67488 59.5191C3.61754 59.2824 3.56095 59.0429 3.50516 58.8009L2.16019 59.1111C2.21707 59.3578 2.27483 59.6022 2.33341 59.844L3.67488 59.5191ZM2.63085 54.4552C2.5884 54.2122 2.54693 53.9691 2.50648 53.7261L1.14494 53.9527C1.18599 54.1993 1.22808 54.4461 1.27116 54.6927L2.63085 54.4552ZM1.8845 49.3333C1.85593 49.086 1.82885 48.8412 1.80329 48.5994L0.43066 48.7445C0.456695 48.9908 0.48427 49.24 0.513332 49.4916L1.8845 49.3333ZM1.5091 44.2027C1.5074 44.0797 1.50655 43.9596 1.50655 43.8423H0.126267C0.126267 43.9663 0.127169 44.0928 0.12895 44.2217L1.5091 44.2027ZM1.50655 43.8423C1.50655 43.736 1.50689 43.6297 1.5076 43.5233L0.127352 43.5141C0.126623 43.6236 0.126267 43.733 0.126267 43.8423H1.50655ZM1.72327 39.7237C1.74815 39.5137 1.77546 39.3056 1.80535 39.0997L0.439389 38.9014C0.407682 39.1199 0.378806 39.3399 0.352577 39.5613L1.72327 39.7237ZM2.72465 35.5102C2.80254 35.3207 2.88471 35.137 2.97132 34.9594L1.73075 34.3543C1.63054 34.5598 1.53641 34.7704 1.448 34.9855L2.72465 35.5102ZM5.22375 32.3838C5.30484 32.3371 5.38771 32.2926 5.47243 32.2504L4.85695 31.015C4.74727 31.0696 4.63988 31.1272 4.53475 31.1878L5.22375 32.3838ZM5.47243 32.2504C5.54521 32.2142 5.62303 32.1785 5.70592 32.1437L5.17069 30.8714C5.06295 30.9167 4.95821 30.9645 4.85695 31.015L5.47243 32.2504ZM9.05512 31.4556C9.24816 31.438 9.44483 31.4224 9.64466 31.4086L9.54992 30.0316C9.34045 30.046 9.13351 30.0625 8.92964 30.0811L9.05512 31.4556ZM13.2218 31.3422C13.4214 31.3467 13.6212 31.3524 13.8206 31.3592L13.8677 29.9797C13.6632 29.9727 13.4581 29.9669 13.2531 29.9622L13.2218 31.3422ZM17.4111 31.5968C17.6135 31.6166 17.8122 31.6373 18.0069 31.6586L18.1573 30.2866C17.9574 30.2646 17.7534 30.2434 17.5459 30.2231L17.4111 31.5968ZM21.5026 32.22C21.6002 32.245 21.6869 32.2693 21.7626 32.2925L22.1672 30.9729C22.0676 30.9423 21.9602 30.9124 21.8461 30.8831L21.5026 32.22ZM21.7626 32.2925C21.8596 32.3223 21.968 32.3538 22.0867 32.3868L22.4564 31.0569C22.3467 31.0264 22.2502 30.9983 22.1672 30.9729L21.7626 32.2925ZM25.9114 33.2508C26.119 33.2915 26.3316 33.3325 26.5489 33.3737L26.8056 32.0175C26.5913 31.9769 26.3817 31.9365 26.1773 31.8964L25.9114 33.2508ZM30.3901 34.0253C30.6023 34.0572 30.8163 34.0887 31.0318 34.1197L31.2283 32.7535C31.0158 32.7229 30.8048 32.6919 30.5954 32.6604L30.3901 34.0253ZM34.9025 34.5942C35.1183 34.6157 35.3342 34.6364 35.5502 34.656L35.6754 33.2815C35.4635 33.2622 35.2514 33.2419 35.0394 33.2208L34.9025 34.5942ZM39.4573 34.8933C39.677 34.899 39.8954 34.9031 40.1121 34.9055L40.1277 33.5253C39.9178 33.523 39.7061 33.519 39.4928 33.5135L39.4573 34.8933ZM44.0661 34.722C44.1764 34.7086 44.2856 34.6945 44.3938 34.6795L44.2046 33.3122C44.1044 33.3261 44.0028 33.3393 43.9 33.3518L44.0661 34.722ZM44.3938 34.6795C44.5137 34.6629 44.6333 34.646 44.7527 34.6287L44.5553 33.2626C44.4386 33.2795 44.3218 33.296 44.2046 33.3122L44.3938 34.6795ZM49.0328 33.8215C49.2682 33.7654 49.5037 33.7071 49.7394 33.6465L49.3955 32.3097C49.1678 32.3683 48.9402 32.4246 48.7125 32.4789L49.0328 33.8215ZM53.9033 32.3301C54.1287 32.245 54.3549 32.1574 54.5821 32.0671L54.0722 30.7845C53.8526 30.8718 53.6339 30.9565 53.4161 31.0386L53.9033 32.3301ZM58.5482 30.2575C58.7611 30.1482 58.9752 30.0363 59.1906 29.9219L58.5429 28.703C58.3331 28.8145 58.1247 28.9234 57.9176 29.0297L58.5482 30.2575ZM62.9461 27.7415C63.1482 27.6148 63.3516 27.4858 63.5563 27.3545L62.8112 26.1926C62.6103 26.3214 62.4108 26.4479 62.2127 26.5722L62.9461 27.7415ZM67.137 24.9214C67.2352 24.8512 67.3336 24.7805 67.4324 24.7093L66.6254 23.5895C66.5279 23.6598 66.4308 23.7295 66.334 23.7988L67.137 24.9214ZM67.4068 24.7269C67.4962 24.6684 67.5871 24.609 67.6795 24.5487L66.9253 23.3927C66.8324 23.4533 66.7409 23.5131 66.651 23.572L67.4068 24.7269ZM71.0434 22.3888C71.2277 22.2722 71.4144 22.1542 71.6035 22.035L70.8675 20.8674C70.6776 20.987 70.4901 21.1055 70.3051 21.2226L71.0434 22.3888ZM74.9956 19.9232C75.1841 19.8073 75.3737 19.691 75.5645 19.5742L74.8438 18.397C74.6523 18.5143 74.4619 18.6311 74.2727 18.7474L74.9956 19.9232ZM78.9824 17.5096C79.1728 17.3962 79.3637 17.2828 79.5549 17.1695L78.8513 15.982C78.6592 16.0958 78.4674 16.2098 78.2761 16.3237L78.9824 17.5096ZM83.0042 15.1596C83.1968 15.0494 83.3892 14.9397 83.5812 14.8306L82.8994 13.6305C82.7062 13.7403 82.5126 13.8506 82.3188 13.9615L83.0042 15.1596ZM87.0696 12.8961C87.2649 12.7908 87.4592 12.6866 87.6523 12.5836L87.0026 11.3657C86.8076 11.4697 86.6115 11.575 86.4144 11.6813L87.0696 12.8961ZM91.1924 10.7732C91.3946 10.6751 91.5942 10.5794 91.791 10.4862L91.2002 9.23878C90.9994 9.33389 90.7959 9.43144 90.59 9.53131L91.1924 10.7732ZM95.4103 8.95482C95.5117 8.91926 95.6109 8.88535 95.7079 8.85312L95.2728 7.5432C95.168 7.57801 95.0614 7.61444 94.9532 7.65244L95.4103 8.95482ZM95.7079 8.85312C95.8113 8.81879 95.9138 8.78474 96.0155 8.75097L95.5805 7.44102C95.4787 7.47481 95.3762 7.50887 95.2728 7.5432L95.7079 8.85312ZM99.6583 7.55931C99.8635 7.49427 100.066 7.43073 100.266 7.36866L99.8561 6.05054C99.6536 6.11346 99.4488 6.17778 99.2413 6.24353L99.6583 7.55931ZM103.922 6.33983C104.127 6.28997 104.331 6.24169 104.536 6.19496L104.228 4.84932C104.017 4.89759 103.806 4.94742 103.595 4.99883L103.922 6.33983ZM108.253 5.52558C108.459 5.49807 108.668 5.47162 108.879 5.4462L108.715 4.07576C108.497 4.1019 108.282 4.12913 108.07 4.15749L108.253 5.52558ZM112.664 5.12014C112.872 5.10806 113.084 5.09655 113.299 5.08561L113.229 3.70712C113.01 3.71822 112.796 3.72991 112.584 3.74219L112.664 5.12014ZM117.118 4.95586C117.225 4.95369 117.333 4.9516 117.442 4.9496L117.417 3.56955C117.307 3.57157 117.198 3.57368 117.09 3.57587L117.118 4.95586ZM117.442 4.9496C117.555 4.94752 117.668 4.94566 117.782 4.94402L117.762 3.56389C117.646 3.56555 117.531 3.56744 117.417 3.56955L117.442 4.9496ZM121.927 4.96344C122.156 4.96799 122.386 4.97302 122.618 4.97852L122.651 3.59863C122.417 3.59309 122.185 3.58802 121.954 3.58343L121.927 4.96344ZM126.772 5.11421C127.002 5.12342 127.233 5.13289 127.465 5.14258L127.523 3.76351C127.29 3.75378 127.058 3.74428 126.827 3.73503L126.772 5.11421ZM131.623 5.33352C131.854 5.34483 132.085 5.35621 132.316 5.36765L132.384 3.98906C132.153 3.97761 131.922 3.96622 131.69 3.95489L131.623 5.33352ZM136.478 5.57577C136.71 5.58725 136.942 5.59864 137.172 5.60989L137.24 4.23125C137.009 4.22002 136.778 4.20865 136.546 4.19717L136.478 5.57577ZM141.342 5.7984C141.575 5.80771 141.806 5.81668 142.035 5.82526L142.086 4.44595C141.859 4.43742 141.629 4.42849 141.398 4.41922L141.342 5.7984ZM146.219 5.935C146.457 5.93758 146.691 5.93928 146.92 5.94002L146.925 4.55975C146.699 4.55902 146.469 4.55735 146.234 4.5548L146.219 5.935ZM151.165 5.77498C151.287 5.76134 151.405 5.7467 151.519 5.731L151.331 4.36358C151.229 4.37759 151.123 4.39083 151.011 4.40332L151.165 5.77498ZM151.519 5.731C151.619 5.71728 151.72 5.70327 151.821 5.68897L151.629 4.32215C151.529 4.33625 151.429 4.35006 151.331 4.36358L151.519 5.731ZM155.463 5.11241C155.663 5.07726 155.865 5.04139 156.068 5.00483L155.822 3.64655C155.622 3.68266 155.423 3.71809 155.225 3.75282L155.463 5.11241ZM159.685 4.28551C159.887 4.24141 160.087 4.19677 160.286 4.15161L159.981 2.80551C159.786 2.84988 159.588 2.89378 159.39 2.93716L159.685 4.28551ZM163.878 3.22706C164.08 3.16687 164.279 3.10611 164.473 3.04482L164.056 1.72878C163.871 1.78747 163.68 1.84587 163.485 1.90392L163.878 3.22706ZM168.023 1.4598C168.128 1.37901 168.227 1.29379 168.317 1.20374L167.343 0.225952C167.3 0.268264 167.247 0.315416 167.18 0.366886L168.023 1.4598Z" fill="#AAAAAA"/>
</svg>
