<svg width="678" height="512" viewBox="0 0 678 512" fill="none" xmlns="http://www.w3.org/2000/svg">
<path d="M11.8365 488.086L10.9529 487.617L11.8365 488.086ZM34.7237 460.588L33.8412 460.118L34.7237 460.588ZM34.7237 428.508L33.9188 429.101L34.7237 428.508ZM6.11455 397.001L5.23502 397.476L6.11455 397.001ZM19.8469 314.222L19.1681 313.488L19.8469 314.222ZM45.309 283.287L44.4067 282.856L45.309 283.287ZM71.0573 254.072L70.6533 253.157L71.0573 254.072ZM117.118 232.876L116.42 232.16L117.118 232.876ZM153.166 201.655L153.696 202.502L153.166 201.655ZM189.785 188.479L189.761 187.479L189.785 188.479ZM228.408 191.916L228.572 192.902L228.408 191.916ZM252.154 169.861L251.427 169.173L252.154 169.861ZM274.755 150.097L274.061 149.377L274.755 150.097ZM300.503 122.6L301.347 123.136L300.503 122.6ZM321.102 105.987L320.765 105.045L321.102 105.987ZM349.139 87.3687L348.41 86.6837L349.139 87.3687ZM396.916 43.5448L397.435 44.3997L396.916 43.5448ZM430.675 26.9318L430.047 26.1537L430.675 26.9318ZM465.864 3.73089L465.554 2.78026L465.864 3.73089ZM503.056 6.88162L502.593 7.76798L503.056 6.88162ZM535.671 33.2333L536.362 32.511L535.671 33.2333ZM562.277 43.8312L562.218 44.8295L562.277 43.8312ZM584.306 73.0471L583.307 73.0954L584.306 73.0471ZM594.033 121.168L594.971 120.821L594.033 121.168ZM601.186 157.831L602.098 157.422L601.186 157.831ZM622.07 179.886L622.77 179.172L622.07 179.886ZM646.102 211.966L647.035 211.606L646.102 211.966ZM12.2921 509.959C11.9663 509.513 11.3407 509.416 10.8947 509.742C10.4488 510.067 10.3513 510.693 10.6771 511.139L12.2921 509.959ZM7.92453 504.383C8.02753 504.926 8.55089 505.282 9.09348 505.179C9.63608 505.076 9.99244 504.553 9.88944 504.01L7.92453 504.383ZM9.71693 502.931C9.64537 502.384 9.14342 501.998 8.59579 502.069C8.04816 502.141 7.66223 502.643 7.73379 503.191L9.71693 502.931ZM7.95641 496.004C7.85601 496.547 8.21488 497.068 8.75796 497.169C9.30105 497.269 9.82269 496.91 9.92309 496.367L7.95641 496.004ZM10.1497 495.284C10.2752 494.746 9.94096 494.208 9.40313 494.083C8.8653 493.957 8.32754 494.292 8.20202 494.829L10.1497 495.284ZM10.6776 488.148C10.4275 488.64 10.6239 489.242 11.1163 489.492C11.6087 489.742 12.2106 489.546 12.4608 489.053L10.6776 488.148ZM12.9585 488.109C13.2219 487.624 13.042 487.017 12.5566 486.753C12.0712 486.49 11.4641 486.67 11.2007 487.155L12.9585 488.109ZM14.4873 481.824C14.1735 482.278 14.2877 482.901 14.7423 483.215C15.1968 483.529 15.8196 483.414 16.1333 482.96L14.4873 481.824ZM16.7138 482.133C17.0346 481.683 16.9303 481.059 16.4807 480.738C16.0312 480.417 15.4067 480.521 15.0859 480.971L16.7138 482.133ZM18.9246 476.052C18.568 476.473 18.6207 477.104 19.0424 477.461C19.4641 477.817 20.0951 477.765 20.4517 477.343L18.9246 476.052ZM21.1118 476.572C21.4733 476.154 21.428 475.523 21.0104 475.161C20.5929 474.8 19.9614 474.845 19.5999 475.263L21.1118 476.572ZM23.8082 470.69C23.4236 471.086 23.4332 471.72 23.8295 472.104C24.2259 472.489 24.859 472.479 25.2436 472.083L23.8082 470.69ZM25.9549 471.355C26.3422 470.961 26.337 470.328 25.9433 469.941C25.5496 469.553 24.9164 469.559 24.5291 469.952L25.9549 471.355ZM28.9203 465.603C28.5261 465.99 28.5202 466.623 28.907 467.017C29.2939 467.411 29.927 467.417 30.3212 467.03L28.9203 465.603ZM31.0552 466.308C31.4479 465.919 31.4516 465.286 31.0633 464.893C30.675 464.501 30.0419 464.497 29.6491 464.885L31.0552 466.308ZM33.6232 460.485C33.3233 460.949 33.456 461.568 33.9197 461.868C34.3835 462.168 35.0025 462.035 35.3025 461.572L33.6232 460.485ZM35.8374 460.614C36.0876 460.122 35.8913 459.52 35.399 459.269C34.9066 459.019 34.3047 459.215 34.0544 459.708L35.8374 460.614ZM36.2067 454.502C36.0309 455.026 36.313 455.593 36.8365 455.769C37.3601 455.944 37.927 455.662 38.1027 455.139L36.2067 454.502ZM38.4065 454.2C38.5706 453.672 38.2762 453.112 37.7489 452.948C37.2215 452.784 36.661 453.078 36.4968 453.605L38.4065 454.2ZM37.7972 448.115C37.7095 448.661 38.0805 449.174 38.6257 449.262C39.171 449.349 39.6841 448.978 39.7718 448.433L37.7972 448.115ZM39.9165 447.452C39.9898 446.904 39.6054 446.401 39.058 446.328C38.5106 446.255 38.0075 446.639 37.9342 447.186L39.9165 447.452ZM38.1928 441.593C38.2192 442.145 38.6878 442.57 39.2395 442.544C39.7911 442.518 40.2169 442.049 40.1905 441.497L38.1928 441.593ZM40.1257 440.501C40.0804 439.951 39.5974 439.541 39.047 439.586C38.4966 439.632 38.0872 440.115 38.1325 440.665L40.1257 440.501ZM37.062 435.227C37.2323 435.752 37.7963 436.04 38.3216 435.87C38.847 435.699 39.1348 435.135 38.9644 434.61L37.062 435.227ZM38.6339 433.659C38.4416 433.141 37.866 432.878 37.3483 433.07C36.8306 433.262 36.5668 433.838 36.759 434.356L38.6339 433.659ZM34.1907 429.478C34.5088 429.93 35.1327 430.038 35.5841 429.72C36.0356 429.401 36.1436 428.778 35.8254 428.326L34.1907 429.478ZM35.2176 427.497C34.8856 427.056 34.2586 426.967 33.8173 427.299C33.376 427.631 33.2875 428.258 33.6196 428.7L35.2176 427.497ZM29.7576 424.11C30.1337 424.515 30.7664 424.538 31.1709 424.162C31.5753 423.785 31.5983 423.153 31.2222 422.748L29.7576 424.11ZM30.5139 421.997C30.1321 421.598 29.4991 421.584 29.1001 421.966C28.701 422.348 28.687 422.981 29.0687 423.38L30.5139 421.997ZM24.7449 419.157C25.1501 419.532 25.7828 419.508 26.1581 419.103C26.5334 418.698 26.5092 418.065 26.104 417.69L24.7449 419.157ZM25.3515 416.997C24.9442 416.624 24.3117 416.651 23.9386 417.059C23.5656 417.466 23.5934 418.099 24.0006 418.472L25.3515 416.997ZM19.4749 414.379C19.8838 414.751 20.5163 414.72 20.8875 414.311C21.2587 413.902 21.2281 413.27 20.8192 412.899L19.4749 414.379ZM20.0702 412.216C19.6628 411.843 19.0303 411.871 18.6574 412.278C18.2844 412.686 18.3124 413.318 18.7197 413.691L20.0702 412.216ZM14.2735 409.43C14.6602 409.824 15.2933 409.83 15.6876 409.443C16.0819 409.057 16.088 408.423 15.7013 408.029L14.2735 409.43ZM15.0027 407.307C14.6213 406.908 13.9883 406.893 13.5888 407.275C13.1894 407.656 13.1747 408.289 13.5561 408.688L15.0027 407.307ZM9.49564 403.996C9.83366 404.433 10.4617 404.513 10.8985 404.175C11.3353 403.837 11.4153 403.209 11.0773 402.772L9.49564 403.996ZM10.4748 401.977C10.1457 401.534 9.51938 401.441 9.07586 401.77C8.63233 402.099 8.53957 402.725 8.86866 403.169L10.4748 401.977ZM5.48656 397.935C5.75484 398.418 6.36366 398.592 6.84641 398.323C7.32916 398.055 7.50302 397.446 7.23474 396.964L5.48656 397.935ZM6.76032 396.084C6.50556 395.594 5.9018 395.403 5.41179 395.658C4.92177 395.913 4.73105 396.516 4.98581 397.007L6.76032 396.084ZM2.56269 391.116C2.73073 391.642 3.29344 391.933 3.81954 391.765C4.34564 391.597 4.6359 391.034 4.46786 390.508L2.56269 391.116ZM4.17168 389.54C4.01628 389.011 3.46067 388.707 2.9307 388.862C2.40073 389.018 2.09709 389.573 2.25249 390.103L4.17168 389.54ZM0.864846 383.931C0.954067 384.476 1.46823 384.845 2.01326 384.756C2.55829 384.667 2.9278 384.153 2.83858 383.608L0.864846 383.931ZM2.6834 382.604C2.60381 382.058 2.09625 381.679 1.54973 381.759C1.00321 381.838 0.62469 382.346 0.704279 382.892L2.6834 382.604ZM0.0993173 376.623C0.127419 377.174 0.597335 377.599 1.1489 377.571C1.70047 377.543 2.12483 377.073 2.09673 376.521L0.0993173 376.623ZM2.05192 375.501C2.03152 374.949 1.56757 374.518 1.01567 374.539C0.463758 374.559 0.0328871 375.023 0.0532885 375.575L2.05192 375.501ZM0.0676802 369.293C0.0457022 369.845 0.475246 370.31 1.02709 370.332C1.57894 370.354 2.04412 369.924 2.0661 369.372L0.0676802 369.293ZM2.1129 368.351C2.14145 367.799 1.71747 367.329 1.16592 367.3C0.614377 367.272 0.14412 367.696 0.115573 368.247L2.1129 368.351ZM0.656005 361.996C0.589819 362.545 0.980653 363.043 1.52896 363.109C2.07726 363.175 2.57541 362.784 2.64159 362.236L0.656005 361.996ZM2.7699 361.221C2.84219 360.673 2.45693 360.171 1.9094 360.099C1.36186 360.026 0.859396 360.411 0.787106 360.959L2.7699 361.221ZM1.81721 354.77C1.70797 355.311 2.05829 355.838 2.59966 355.948C3.14104 356.057 3.66846 355.707 3.7777 355.165L1.81721 354.77ZM3.98599 354.163C4.10161 353.623 3.75754 353.092 3.21749 352.976C2.67744 352.861 2.14592 353.205 2.0303 353.745L3.98599 354.163ZM3.57753 347.654C3.41996 348.183 3.72132 348.74 4.25065 348.897C4.77998 349.055 5.33682 348.754 5.4944 348.224L3.57753 347.654ZM5.79502 347.234C5.95626 346.706 5.65877 346.147 5.13054 345.986C4.60232 345.825 4.0434 346.122 3.88216 346.65L5.79502 347.234ZM5.73297 340.594C5.56982 341.122 5.8653 341.682 6.39294 341.845C6.92057 342.008 7.48057 341.712 7.64372 341.185L5.73297 340.594ZM7.95583 340.18C8.12027 339.652 7.82616 339.092 7.29893 338.927C6.77169 338.763 6.21098 339.057 6.04654 339.584L7.95583 340.18ZM8.01317 333.538C7.83378 334.06 8.11178 334.629 8.63412 334.808C9.15646 334.988 9.72532 334.71 9.90472 334.187L8.01317 333.538ZM10.2488 333.197C10.4321 332.676 10.1583 332.105 9.63736 331.922C9.11638 331.739 8.54546 332.012 8.36217 332.533L10.2488 333.197ZM10.6631 326.567C10.4457 327.075 10.681 327.663 11.1887 327.88C11.6964 328.097 12.2842 327.862 12.5016 327.354L10.6631 326.567ZM12.9179 326.402C13.1432 325.898 12.9169 325.307 12.4126 325.081C11.9084 324.856 11.317 325.082 11.0918 325.587L12.9179 326.402ZM14.0654 319.858C13.7773 320.33 13.9258 320.945 14.397 321.233C14.8682 321.521 15.4837 321.373 15.7718 320.902L14.0654 319.858ZM16.3193 320.034C16.6208 319.571 16.49 318.952 16.0273 318.65C15.5645 318.349 14.945 318.479 14.6435 318.942L16.3193 320.034ZM18.7688 313.865C18.3718 314.249 18.3613 314.882 18.7452 315.279C19.1292 315.676 19.7623 315.687 20.1593 315.303L18.7688 313.865ZM20.8751 314.633C21.2806 314.258 21.3054 313.626 20.9304 313.22C20.5555 312.815 19.9228 312.79 19.5173 313.165L20.8751 314.633ZM23.7117 309.237C23.3124 309.618 23.2979 310.251 23.6793 310.651C24.0608 311.05 24.6938 311.064 25.0932 310.683L23.7117 309.237ZM25.7879 310.016C26.1856 309.633 26.1973 309 25.814 308.602C25.4308 308.205 24.7977 308.193 24.4 308.576L25.7879 310.016ZM28.4585 304.539C28.074 304.935 28.0836 305.568 28.48 305.953C28.8764 306.337 29.5095 306.328 29.8941 305.931L28.4585 304.539ZM30.5648 305.235C30.9467 304.836 30.9328 304.203 30.5339 303.821C30.1349 303.439 29.5019 303.453 29.12 303.852L30.5648 305.235ZM32.9779 299.638C32.6149 300.054 32.6579 300.686 33.0741 301.049C33.4903 301.412 34.122 301.369 34.4851 300.953L32.9779 299.638ZM35.1183 300.22C35.4777 299.801 35.4291 299.17 35.0097 298.81C34.5904 298.451 33.9591 298.5 33.5997 298.919L35.1183 300.22ZM37.1835 294.487C36.8495 294.927 36.9354 295.554 37.3753 295.888C37.8152 296.222 38.4426 296.136 38.7765 295.696L37.1835 294.487ZM39.3591 294.92C39.6882 294.476 39.5953 293.85 39.1517 293.521C38.7081 293.192 38.0818 293.285 37.7528 293.728L39.3591 294.92ZM40.971 289.044C40.6761 289.511 40.8157 290.128 41.2826 290.423C41.7496 290.718 42.3672 290.579 42.6621 290.112L40.971 289.044ZM43.1763 289.285C43.4646 288.813 43.3164 288.198 42.8453 287.91C42.3742 287.621 41.7586 287.77 41.4704 288.241L43.1763 289.285ZM44.2018 283.281C43.9594 283.777 44.1652 284.376 44.6614 284.618C45.1577 284.86 45.7565 284.655 45.9989 284.158L44.2018 283.281ZM46.4137 283.298C46.6544 282.801 46.4467 282.203 45.9497 281.962C45.4526 281.721 44.8545 281.929 44.6137 282.426L46.4137 283.298ZM47.2797 277.353C47.0069 277.833 47.175 278.444 47.6553 278.716C48.1355 278.989 48.7459 278.821 49.0187 278.341L47.2797 277.353ZM49.4841 277.532C49.7621 277.055 49.6007 276.443 49.1235 276.164C48.6463 275.886 48.0341 276.048 47.756 276.525L49.4841 277.532ZM50.8074 271.671C50.4976 272.128 50.6171 272.75 51.0743 273.06C51.5315 273.37 52.1533 273.25 52.4631 272.793L50.8074 271.671ZM52.9904 272.025C53.3056 271.571 53.1935 270.948 52.74 270.633C52.2864 270.318 51.6633 270.43 51.3481 270.883L52.9904 272.025ZM54.7979 266.293C54.4492 266.722 54.5137 267.352 54.942 267.7C55.3703 268.049 56.0001 267.985 56.3488 267.556L54.7979 266.293ZM56.9409 266.839C57.2954 266.416 57.2396 265.785 56.8161 265.431C56.3926 265.076 55.7619 265.132 55.4074 265.555L56.9409 266.839ZM59.2963 261.31C58.9043 261.699 58.9018 262.332 59.2908 262.724C59.6799 263.116 60.313 263.119 60.705 262.73L59.2963 261.31ZM61.3688 262.082C61.7675 261.7 61.781 261.067 61.3989 260.668C61.0167 260.27 60.3837 260.256 59.985 260.638L61.3688 262.082ZM64.3891 256.887C63.9465 257.217 63.8555 257.844 64.1858 258.286C64.5162 258.729 65.1428 258.82 65.5854 258.49L64.3891 256.887ZM66.3286 257.949C66.7791 257.629 66.8854 257.005 66.566 256.555C66.2465 256.104 65.6224 255.998 65.1718 256.317L66.3286 257.949ZM70.2083 253.358C69.7073 253.591 69.4897 254.185 69.7221 254.686C69.9546 255.187 70.5492 255.405 71.0502 255.173L70.2083 253.358ZM71.9177 254.788C72.4258 254.572 72.6623 253.985 72.4458 253.477C72.2294 252.968 71.6421 252.732 71.134 252.948L71.9177 254.788ZM77.052 250.726C76.5304 250.908 76.2545 251.478 76.4359 251.999C76.6172 252.521 77.1871 252.797 77.7088 252.615L77.052 250.726ZM78.6915 252.276C79.2138 252.096 79.4916 251.527 79.3121 251.005C79.1326 250.483 78.5636 250.205 78.0413 250.385L78.6915 252.276ZM83.9641 248.371C83.4414 248.549 83.1622 249.117 83.3405 249.64C83.5188 250.163 84.087 250.442 84.6097 250.264L83.9641 248.371ZM85.6011 249.925C86.1235 249.745 86.4017 249.177 86.2224 248.654C86.0432 248.132 85.4744 247.854 84.952 248.033L85.6011 249.925ZM90.8261 245.959C90.3075 246.149 90.0409 246.723 90.2306 247.242C90.4204 247.761 90.9947 248.027 91.5133 247.838L90.8261 245.959ZM92.4964 247.475C93.0141 247.283 93.2779 246.707 93.0857 246.19C92.8934 245.672 92.3178 245.408 91.8001 245.6L92.4964 247.475ZM97.5862 243.334C97.0761 243.546 96.8345 244.131 97.0464 244.641C97.2583 245.151 97.8435 245.393 98.3536 245.181L97.5862 243.334ZM99.3219 244.774C99.8302 244.558 100.067 243.971 99.8511 243.463C99.6352 242.954 99.048 242.717 98.5397 242.933L99.3219 244.774ZM104.167 240.352C103.672 240.598 103.471 241.198 103.718 241.693C103.964 242.187 104.565 242.388 105.059 242.142L104.167 240.352ZM106.001 241.665C106.492 241.412 106.685 240.809 106.433 240.318C106.18 239.827 105.577 239.634 105.086 239.886L106.001 241.665ZM110.425 236.831C109.961 237.13 109.826 237.748 110.125 238.213C110.424 238.678 111.042 238.812 111.507 238.513L110.425 236.831ZM112.397 237.928C112.855 237.62 112.977 236.999 112.669 236.541C112.36 236.082 111.739 235.961 111.281 236.269L112.397 237.928ZM116.059 232.506C115.657 232.885 115.638 233.518 116.017 233.919C116.396 234.321 117.029 234.34 117.431 233.961L116.059 232.506ZM118.163 233.254C118.558 232.868 118.566 232.235 118.181 231.84C117.795 231.444 117.162 231.436 116.767 231.822L118.163 233.254ZM120.979 227.75C120.58 228.132 120.567 228.765 120.949 229.164C121.331 229.563 121.964 229.576 122.363 229.194L120.979 227.75ZM123.065 228.522C123.464 228.141 123.479 227.508 123.097 227.108C122.716 226.709 122.083 226.695 121.683 227.076L123.065 228.522ZM125.939 223.05C125.536 223.427 125.515 224.06 125.892 224.463C126.27 224.866 126.903 224.887 127.306 224.509L125.939 223.05ZM128.017 223.845C128.42 223.468 128.442 222.835 128.065 222.432C127.688 222.028 127.056 222.006 126.652 222.383L128.017 223.845ZM130.959 218.409C130.551 218.781 130.521 219.413 130.893 219.822C131.265 220.23 131.898 220.259 132.306 219.887L130.959 218.409ZM133.025 219.234C133.434 218.862 133.465 218.23 133.094 217.821C132.722 217.412 132.09 217.381 131.681 217.752L133.025 219.234ZM136.054 213.844C135.639 214.209 135.598 214.84 135.963 215.255C136.328 215.67 136.96 215.711 137.374 215.346L136.054 213.844ZM138.104 214.706C138.52 214.342 138.563 213.71 138.199 213.295C137.836 212.879 137.204 212.836 136.788 213.2L138.104 214.706ZM141.246 209.384C140.823 209.739 140.766 210.369 141.12 210.793C141.475 211.217 142.105 211.273 142.529 210.919L141.246 209.384ZM143.277 210.296C143.703 209.944 143.762 209.314 143.41 208.888C143.057 208.463 142.427 208.404 142.002 208.756L143.277 210.296ZM146.594 205.079C146.156 205.416 146.074 206.044 146.411 206.482C146.748 206.919 147.375 207.001 147.813 206.665L146.594 205.079ZM148.583 206.077C149.024 205.744 149.111 205.117 148.778 204.677C148.445 204.236 147.818 204.149 147.377 204.482L148.583 206.077ZM152.221 201.069C151.756 201.367 151.62 201.986 151.918 202.451C152.216 202.916 152.834 203.052 153.299 202.754L152.221 201.069ZM154.107 202.243C154.572 201.945 154.708 201.327 154.411 200.862C154.114 200.396 153.495 200.26 153.03 200.557L154.107 202.243ZM157.653 197.348C157.205 197.671 157.104 198.296 157.428 198.744C157.751 199.192 158.376 199.293 158.824 198.97L157.653 197.348ZM159.59 198.418C160.039 198.096 160.142 197.471 159.82 197.022C159.498 196.574 158.874 196.471 158.425 196.792L159.59 198.418ZM163.239 193.602C162.763 193.881 162.603 194.494 162.882 194.97C163.162 195.447 163.774 195.607 164.251 195.327L163.239 193.602ZM165.053 194.87C165.536 194.602 165.711 193.993 165.443 193.51C165.175 193.027 164.567 192.853 164.084 193.12L165.053 194.87ZM169.39 190.697C168.872 190.886 168.605 191.461 168.795 191.979C168.985 192.498 169.559 192.765 170.077 192.575L169.39 190.697ZM170.95 192.268C171.473 192.091 171.754 191.523 171.577 191C171.4 190.477 170.833 190.196 170.31 190.373L170.95 192.268ZM175.919 188.88C175.378 188.99 175.029 189.518 175.138 190.059C175.248 190.601 175.776 190.95 176.317 190.84L175.919 188.88ZM177.239 190.662C177.782 190.561 178.141 190.04 178.04 189.496C177.94 188.953 177.418 188.595 176.875 188.695L177.239 190.662ZM182.581 187.903C182.031 187.957 181.629 188.446 181.683 188.996C181.737 189.545 182.227 189.947 182.776 189.893L182.581 187.903ZM183.717 189.806C184.267 189.759 184.675 189.274 184.627 188.724C184.579 188.174 184.095 187.766 183.545 187.814L183.717 189.806ZM189.273 187.492C188.721 187.508 188.287 187.969 188.303 188.521C188.319 189.073 188.779 189.507 189.331 189.491L189.273 187.492ZM190.277 189.468C190.829 189.456 191.267 188.999 191.255 188.446C191.243 187.894 190.786 187.456 190.234 187.468L190.277 189.468ZM195.825 187.457C195.273 187.447 194.817 187.886 194.807 188.438C194.796 188.99 195.236 189.446 195.788 189.456L195.825 187.457ZM196.714 189.477C197.266 189.491 197.725 189.055 197.739 188.503C197.753 187.95 197.317 187.491 196.765 187.477L196.714 189.477ZM202.359 187.746C201.808 187.707 201.33 188.122 201.29 188.672C201.251 189.223 201.665 189.702 202.216 189.741L202.359 187.746ZM203.126 189.81C203.677 189.854 204.159 189.443 204.203 188.892C204.246 188.342 203.835 187.86 203.285 187.816L203.126 189.81ZM208.862 188.399C208.314 188.328 207.812 188.714 207.741 189.262C207.67 189.81 208.057 190.311 208.604 190.382L208.862 188.399ZM209.516 190.505C210.063 190.58 210.568 190.198 210.643 189.651C210.719 189.104 210.337 188.599 209.79 188.523L209.516 190.505ZM215.311 189.414C214.767 189.315 214.247 189.676 214.148 190.219C214.05 190.763 214.41 191.283 214.954 191.382L215.311 189.414ZM215.862 191.549C216.405 191.65 216.927 191.292 217.028 190.749C217.13 190.206 216.772 189.684 216.229 189.583L215.862 191.549ZM221.675 190.6C221.13 190.507 220.614 190.874 220.521 191.418C220.429 191.963 220.795 192.479 221.339 192.572L221.675 190.6ZM222.269 192.723C222.814 192.807 223.325 192.432 223.409 191.887C223.493 191.341 223.119 190.83 222.573 190.746L222.269 192.723ZM227.826 190.991C227.278 191.06 226.889 191.56 226.958 192.108C227.027 192.656 227.527 193.044 228.075 192.975L227.826 190.991ZM229.103 192.792C229.639 192.659 229.965 192.117 229.832 191.58C229.699 191.044 229.157 190.718 228.621 190.851L229.103 192.792ZM233.164 188.359C232.724 188.693 232.638 189.32 232.971 189.76C233.305 190.2 233.932 190.287 234.372 189.953L233.164 188.359ZM235.133 189.359C235.564 189.013 235.633 188.384 235.287 187.953C234.941 187.522 234.311 187.454 233.881 187.8L235.133 189.359ZM237.969 184.099C237.576 184.488 237.573 185.121 237.962 185.513C238.35 185.905 238.983 185.909 239.376 185.52L237.969 184.099ZM240.046 184.849C240.434 184.456 240.43 183.823 240.038 183.435C239.645 183.046 239.012 183.05 238.623 183.443L240.046 184.849ZM242.44 179.381C242.07 179.791 242.103 180.423 242.513 180.794C242.923 181.164 243.555 181.131 243.925 180.721L242.44 179.381ZM244.554 180.02C244.922 179.608 244.887 178.976 244.475 178.608C244.063 178.24 243.431 178.276 243.063 178.688L244.554 180.02ZM246.754 174.47C246.393 174.888 246.439 175.52 246.857 175.881C247.275 176.242 247.906 176.196 248.267 175.778L246.754 174.47ZM248.879 175.069C249.24 174.651 249.194 174.02 248.776 173.659C248.358 173.298 247.727 173.344 247.366 173.762L248.879 175.069ZM251.105 169.517C250.73 169.922 250.754 170.555 251.159 170.93C251.564 171.306 252.197 171.282 252.572 170.877L251.105 169.517ZM253.24 170.173C253.625 169.777 253.616 169.144 253.221 168.759C252.825 168.374 252.192 168.382 251.807 168.778L253.24 170.173ZM256.594 164.349C256.176 164.71 256.129 165.342 256.49 165.76C256.851 166.178 257.482 166.224 257.901 165.863L256.594 164.349ZM258.711 165.168C259.131 164.81 259.181 164.179 258.823 163.759C258.465 163.338 257.834 163.288 257.414 163.646L258.711 165.168ZM262.369 159.514C261.943 159.866 261.883 160.496 262.234 160.922C262.586 161.348 263.216 161.408 263.642 161.057L262.369 159.514ZM264.47 160.373C264.895 160.022 264.956 159.391 264.604 158.966C264.252 158.54 263.622 158.48 263.196 158.831L264.47 160.373ZM268.122 154.713C267.702 155.071 267.652 155.702 268.011 156.123C268.369 156.543 269 156.593 269.42 156.234L268.122 154.713ZM270.238 155.532C270.657 155.172 270.703 154.54 270.343 154.122C269.982 153.704 269.351 153.657 268.932 154.018L270.238 155.532ZM273.679 149.743C273.279 150.123 273.263 150.756 273.644 151.156C274.024 151.556 274.657 151.572 275.058 151.191L273.679 149.743ZM275.832 150.448C276.23 150.065 276.241 149.432 275.858 149.034C275.475 148.636 274.842 148.625 274.444 149.008L275.832 150.448ZM279.077 144.504C278.682 144.891 278.677 145.524 279.063 145.918C279.45 146.312 280.083 146.318 280.477 145.931L279.077 144.504ZM281.248 145.173C281.642 144.786 281.647 144.153 281.259 143.759C280.872 143.366 280.239 143.361 279.845 143.748L281.248 145.173ZM284.419 139.193C284.03 139.585 284.033 140.218 284.425 140.607C284.817 140.996 285.45 140.993 285.839 140.601L284.419 139.193ZM286.599 139.833C286.986 139.44 286.982 138.807 286.589 138.419C286.196 138.031 285.563 138.035 285.175 138.428L286.599 139.833ZM289.666 133.798C289.285 134.198 289.301 134.831 289.701 135.212C290.101 135.593 290.734 135.577 291.115 135.176L289.666 133.798ZM291.859 134.391C292.238 133.989 292.22 133.356 291.818 132.977C291.417 132.598 290.784 132.617 290.405 133.018L291.859 134.391ZM294.748 128.272C294.383 128.686 294.423 129.318 294.838 129.683C295.253 130.048 295.884 130.008 296.249 129.593L294.748 128.272ZM296.964 128.774C297.325 128.356 297.28 127.725 296.862 127.364C296.444 127.002 295.813 127.048 295.451 127.466L296.964 128.774ZM299.382 122.487C299.074 122.945 299.195 123.567 299.654 123.875C300.112 124.183 300.734 124.061 301.042 123.603L299.382 122.487ZM301.605 122.732C301.903 122.267 301.768 121.649 301.303 121.351C300.838 121.052 300.219 121.188 299.921 121.652L301.605 122.732ZM303.33 116.832C302.984 117.263 303.053 117.892 303.483 118.238C303.914 118.584 304.543 118.516 304.889 118.085L303.33 116.832ZM305.487 117.36C305.845 116.939 305.793 116.308 305.372 115.951C304.95 115.594 304.319 115.646 303.962 116.067L305.487 117.36ZM308.208 111.87C307.782 112.221 307.72 112.851 308.071 113.278C308.422 113.704 309.052 113.766 309.479 113.415L308.208 111.87ZM310.212 112.831C310.648 112.493 310.729 111.865 310.391 111.428C310.053 110.991 309.425 110.91 308.988 111.248L310.212 112.831ZM313.993 108.019C313.506 108.281 313.324 108.887 313.586 109.374C313.848 109.86 314.455 110.042 314.941 109.78L313.993 108.019ZM315.776 109.343C316.269 109.093 316.465 108.491 316.215 107.998C315.965 107.506 315.363 107.31 314.87 107.56L315.776 109.343ZM320.298 105.214C319.78 105.404 319.514 105.979 319.704 106.497C319.895 107.016 320.469 107.282 320.988 107.092L320.298 105.214ZM321.902 106.76C322.42 106.569 322.686 105.994 322.495 105.476C322.303 104.957 321.729 104.692 321.21 104.883L321.902 106.76ZM326.454 102.624C325.958 102.867 325.753 103.466 325.996 103.962C326.239 104.458 326.838 104.663 327.334 104.42L326.454 102.624ZM328.214 103.981C328.707 103.73 328.903 103.128 328.652 102.636C328.402 102.144 327.8 101.947 327.308 102.198L328.214 103.981ZM332.311 99.3945C331.84 99.6824 331.691 100.298 331.979 100.769C332.267 101.24 332.882 101.389 333.354 101.101L332.311 99.3945ZM334.188 100.585C334.656 100.291 334.797 99.674 334.504 99.2062C334.21 98.7383 333.593 98.5969 333.125 98.8903L334.188 100.585ZM337.891 95.6757C337.443 95.9991 337.342 96.6242 337.666 97.0719C337.989 97.5196 338.614 97.6203 339.062 97.2969L337.891 95.6757ZM339.853 96.7191C340.297 96.391 340.392 95.7649 340.064 95.3206C339.735 94.8763 339.109 94.7821 338.665 95.1101L339.853 96.7191ZM343.179 91.5526C342.757 91.9082 342.702 92.5391 343.058 92.9616C343.414 93.3842 344.045 93.4384 344.467 93.0828L343.179 91.5526ZM345.214 92.447C345.632 92.0866 345.679 91.4552 345.319 91.0367C344.958 90.6183 344.327 90.5713 343.908 90.9317L345.214 92.447ZM348.088 87.0224C347.704 87.4201 347.716 88.0531 348.114 88.4364C348.511 88.8197 349.144 88.808 349.528 88.4104L348.088 87.0224ZM350.199 87.7048C350.581 87.306 350.567 86.673 350.168 86.2909C349.77 85.9088 349.137 85.9224 348.754 86.3212L350.199 87.7048ZM353.121 81.9069C352.729 82.2965 352.728 82.9297 353.117 83.3211C353.507 83.7126 354.14 83.7141 354.532 83.3245L353.121 81.9069ZM355.271 82.59C355.663 82.2011 355.665 81.5679 355.276 81.1758C354.887 80.7838 354.254 80.7813 353.862 81.1703L355.271 82.59ZM358.271 76.8287C357.877 77.2148 357.87 77.848 358.256 78.2428C358.642 78.6377 359.275 78.6447 359.67 78.2586L358.271 76.8287ZM360.402 77.5434C360.797 77.1576 360.805 76.5245 360.419 76.1293C360.033 75.734 359.4 75.7263 359.005 76.112L360.402 77.5434ZM363.451 71.7992C363.053 72.1826 363.042 72.8156 363.425 73.2132C363.809 73.6107 364.442 73.6222 364.839 73.2389L363.451 71.7992ZM365.579 72.5263C365.977 72.1433 365.989 71.5103 365.606 71.1123C365.223 70.7144 364.59 70.7023 364.192 71.0852L365.579 72.5263ZM368.668 66.8039C368.268 67.1844 368.252 67.8174 368.632 68.2177C369.013 68.618 369.646 68.6341 370.046 68.2537L368.668 66.8039ZM370.791 67.5467C371.191 67.1667 371.208 66.5337 370.828 66.1329C370.448 65.7322 369.815 65.7154 369.415 66.0954L370.791 67.5467ZM373.923 61.8514C373.519 62.2284 373.498 62.8612 373.875 63.2648C374.252 63.6684 374.885 63.69 375.288 63.313L373.923 61.8514ZM376.041 62.6109C376.445 62.2345 376.467 61.6017 376.091 61.1976C375.715 60.7935 375.082 60.771 374.678 61.1474L376.041 62.6109ZM379.231 56.9462C378.823 57.3185 378.795 57.951 379.167 58.3589C379.539 58.7668 380.172 58.7955 380.58 58.4232L379.231 56.9462ZM381.336 57.7343C381.744 57.3628 381.774 56.7303 381.403 56.3217C381.031 55.9131 380.399 55.8831 379.99 56.2546L381.336 57.7343ZM384.612 52.1113C384.197 52.4767 384.158 53.1086 384.523 53.5228C384.888 53.937 385.52 53.9766 385.934 53.6113L384.612 52.1113ZM386.698 52.9397C387.114 52.5757 387.155 51.9439 386.791 51.5285C386.427 51.1132 385.796 51.0715 385.38 51.4355L386.698 52.9397ZM390.107 47.4001C389.681 47.7519 389.621 48.3822 389.973 48.808C390.324 49.2338 390.955 49.2938 391.38 48.9421L390.107 47.4001ZM392.18 48.2866C392.608 47.9381 392.673 47.3082 392.325 46.8798C391.976 46.4513 391.346 46.3865 390.918 46.735L392.18 48.2866ZM395.96 42.9631C395.495 43.2615 395.36 43.8801 395.659 44.3449C395.957 44.8096 396.576 44.9445 397.041 44.6462L395.96 42.9631ZM397.883 44.1318C398.359 43.8518 398.518 43.2389 398.238 42.7629C397.958 42.2868 397.345 42.1279 396.869 42.408L397.883 44.1318ZM402.723 39.4236C402.22 39.6521 401.997 40.2449 402.226 40.7477C402.454 41.2505 403.047 41.4729 403.55 41.2444L402.723 39.4236ZM404.525 40.8072C405.03 40.5837 405.258 39.993 405.035 39.488C404.811 38.983 404.22 38.7548 403.715 38.9784L404.525 40.8072ZM409.703 36.4578C409.192 36.6668 408.946 37.2506 409.155 37.7618C409.364 38.2731 409.948 38.5182 410.459 38.3092L409.703 36.4578ZM411.457 37.9021C411.968 37.6935 412.214 37.1098 412.005 36.5984C411.796 36.0871 411.213 35.8416 410.701 36.0502L411.457 37.9021ZM416.657 33.5764C416.149 33.7949 415.915 34.3831 416.134 34.8904C416.352 35.3976 416.94 35.6318 417.448 35.4133L416.657 33.5764ZM418.443 34.9807C418.949 34.7586 419.179 34.1687 418.956 33.663C418.734 33.1573 418.145 32.9274 417.639 33.1494L418.443 34.9807ZM423.411 30.3972C422.922 30.6548 422.735 31.2596 422.992 31.7482C423.25 32.2367 423.855 32.424 424.343 32.1664L423.411 30.3972ZM425.308 31.6469C425.792 31.3807 425.969 30.7726 425.703 30.2887C425.436 29.8048 424.828 29.6283 424.344 29.8945L425.308 31.6469ZM429.64 26.4757C429.204 26.8148 429.126 27.443 429.465 27.879C429.804 28.315 430.432 28.3935 430.868 28.0545L429.64 26.4757ZM431.694 27.3939C432.123 27.0461 432.188 26.4163 431.84 25.9873C431.493 25.5583 430.863 25.4925 430.434 25.8404L431.694 27.3939ZM435.115 22.0045C434.687 22.3547 434.625 22.9848 434.975 23.4119C435.325 23.839 435.956 23.9013 436.383 23.5512L435.115 22.0045ZM437.162 22.9129C437.59 22.5634 437.653 21.9334 437.304 21.5057C436.954 21.0781 436.324 21.0147 435.897 21.3642L437.162 22.9129ZM440.635 17.5583C440.2 17.8994 440.125 18.528 440.466 18.9624C440.807 19.3968 441.435 19.4725 441.87 19.1314L440.635 17.5583ZM442.661 18.5133C443.097 18.1743 443.176 17.546 442.837 17.11C442.498 16.674 441.87 16.5953 441.434 16.9343L442.661 18.5133ZM446.308 13.2785C445.859 13.6011 445.758 14.226 446.08 14.6743C446.403 15.1226 447.028 15.2245 447.476 14.9019L446.308 13.2785ZM448.291 14.3198C448.742 14.0007 448.849 13.3766 448.53 12.9258C448.21 12.4751 447.586 12.3684 447.136 12.6875L448.291 14.3198ZM452.215 9.28973C451.747 9.58307 451.606 10.2002 451.899 10.6682C452.193 11.1361 452.81 11.2776 453.278 10.9843L452.215 9.28973ZM454.126 10.4591C454.597 10.171 454.746 9.55551 454.458 9.08429C454.17 8.61308 453.554 8.46459 453.083 8.75265L454.126 10.4591ZM458.44 5.75768C457.946 6.00607 457.748 6.6073 457.996 7.10058C458.245 7.59386 458.846 7.79239 459.339 7.544L458.44 5.75768ZM460.229 7.10517C460.726 6.86498 460.934 6.26711 460.694 5.76979C460.454 5.27247 459.856 5.06402 459.359 5.3042L460.229 7.10517ZM465.065 2.94317C464.542 3.12097 464.262 3.68899 464.44 4.21187C464.618 4.73475 465.186 5.0145 465.709 4.8367L465.065 2.94317ZM466.607 4.54182C467.133 4.37377 467.423 3.81104 467.255 3.28495C467.087 2.75886 466.525 2.46861 465.998 2.63667L466.607 4.54182ZM471.388 1.16416C470.849 1.28473 470.51 1.81939 470.631 2.35835C470.751 2.89732 471.286 3.23649 471.825 3.11591L471.388 1.16416ZM472.705 2.92699C473.246 2.81577 473.594 2.28706 473.483 1.74609C473.372 1.20512 472.843 0.856747 472.302 0.967971L472.705 2.92699ZM477.858 0.152888C477.307 0.199675 476.899 0.683709 476.946 1.23401C476.993 1.78431 477.477 2.19249 478.027 2.1457L477.858 0.152888ZM478.919 2.07956C479.47 2.04474 479.889 1.56969 479.854 1.0185C479.819 0.467313 479.344 0.0487178 478.793 0.0835399L478.919 2.07956ZM484.427 0.111814C483.877 0.0706704 483.397 0.483788 483.356 1.03454C483.314 1.58529 483.728 2.06511 484.278 2.10626L484.427 0.111814ZM485.168 2.18322C485.718 2.23725 486.207 1.83548 486.261 1.28584C486.315 0.736203 485.913 0.246839 485.364 0.192813L485.168 2.18322ZM490.917 1.12823C490.38 1.00022 489.841 1.33198 489.713 1.86922C489.585 2.40647 489.916 2.94576 490.454 3.07377L490.917 1.12823ZM491.323 3.29066C491.857 3.43006 492.403 3.10984 492.543 2.57544C492.682 2.04103 492.362 1.49481 491.828 1.35542L491.323 3.29066ZM497.165 3.09167C496.65 2.89189 496.071 3.14733 495.871 3.66221C495.671 4.1771 495.927 4.75645 496.442 4.95623L497.165 3.09167ZM497.277 5.28849C497.788 5.49693 498.372 5.25131 498.58 4.73987C498.789 4.22843 498.543 3.64485 498.032 3.4364L497.277 5.28849ZM503.104 5.77991C502.612 5.52734 502.01 5.72074 501.757 6.21189C501.504 6.70304 501.698 7.30594 502.189 7.55852L503.104 5.77991ZM503.027 7.99702C503.514 8.25688 504.12 8.07248 504.38 7.58515C504.64 7.09782 504.455 6.4921 503.968 6.23224L503.027 7.99702ZM509.212 9.34025C508.748 9.03961 508.129 9.17146 507.828 9.63475C507.528 10.098 507.66 10.7173 508.123 11.018L509.212 9.34025ZM508.95 11.562C509.41 11.8681 510.031 11.7436 510.337 11.2839C510.643 10.8242 510.519 10.2034 510.059 9.89729L508.95 11.562ZM515.004 13.4191C514.563 13.086 513.936 13.173 513.603 13.6135C513.27 14.054 513.357 14.6811 513.797 15.0143L515.004 13.4191ZM514.587 15.6168C515.025 15.9537 515.652 15.872 515.989 15.4343C516.326 14.9967 516.245 14.3688 515.807 14.0319L514.587 15.6168ZM520.519 17.834C520.097 17.4782 519.466 17.5323 519.11 17.9548C518.755 18.3773 518.809 19.0081 519.231 19.3638L520.519 17.834ZM519.99 20.0072C520.411 20.3656 521.042 20.3155 521.4 19.8952C521.759 19.475 521.708 18.8438 521.288 18.4855L519.99 20.0072ZM525.82 22.4841C525.412 22.1124 524.779 22.1422 524.408 22.5507C524.036 22.9592 524.066 23.5917 524.474 23.9634L525.82 22.4841ZM525.209 24.6353C525.616 25.0088 526.249 24.9818 526.622 24.5749C526.996 24.1681 526.969 23.5355 526.562 23.162L525.209 24.6353ZM530.961 27.294C530.562 26.912 529.929 26.9256 529.547 27.3245C529.165 27.7234 529.178 28.3564 529.577 28.7384L530.961 27.294ZM530.299 29.4313C530.697 29.8142 531.33 29.802 531.713 29.4041C532.096 29.0061 532.084 28.3731 531.686 27.9901L530.299 29.4313ZM536.007 32.1702C535.609 31.7873 534.976 31.7997 534.593 32.1977C534.21 32.5958 534.223 33.2289 534.621 33.6117L536.007 32.1702ZM535.365 34.3232C535.766 34.7029 536.399 34.6855 536.779 34.2844C537.158 33.8833 537.141 33.2504 536.74 32.8708L535.365 34.3232ZM541.453 36.8447C541.004 36.5231 540.379 36.6264 540.057 37.0754C539.736 37.5244 539.839 38.149 540.288 38.4706L541.453 36.8447ZM541.181 39.0875C541.641 39.3935 542.261 39.2689 542.567 38.8091C542.873 38.3493 542.749 37.7286 542.289 37.4226L541.181 39.0875ZM547.686 40.1931C547.17 39.9977 546.593 40.258 546.397 40.7745C546.202 41.2911 546.462 41.8683 546.979 42.0637L547.686 40.1931ZM548.002 42.4307C548.525 42.6083 549.093 42.3283 549.27 41.8053C549.448 41.2823 549.168 40.7144 548.645 40.5369L548.002 42.4307ZM554.605 42.001C554.06 41.9086 553.544 42.275 553.452 42.8195C553.359 43.364 553.726 43.8804 554.27 43.9728L554.605 42.001ZM555.327 44.1415C555.873 44.2234 556.382 43.8471 556.464 43.3009C556.546 42.7547 556.17 42.2456 555.624 42.1636L555.327 44.1415ZM561.81 42.8006C561.259 42.7652 560.784 43.1833 560.748 43.7345C560.713 44.2856 561.131 44.7611 561.682 44.7965L561.81 42.8006ZM562.693 44.8612C563.243 44.9024 563.723 44.4893 563.765 43.9386C563.806 43.3878 563.393 42.908 562.842 42.8667L562.693 44.8612ZM568.79 43.9682C568.263 43.8029 567.702 44.0961 567.537 44.6231C567.371 45.1501 567.665 45.7113 568.192 45.8766L568.79 43.9682ZM569.071 46.1745C569.59 46.3638 570.164 46.0966 570.353 45.5777C570.542 45.0589 570.275 44.4849 569.756 44.2956L569.071 46.1745ZM575.126 47.2256C574.688 46.889 574.061 46.9712 573.724 47.4091C573.388 47.8471 573.47 48.4749 573.908 48.8114L575.126 47.2256ZM574.622 49.391C575.042 49.7502 575.673 49.7012 576.032 49.2816C576.391 48.8621 576.342 48.2308 575.923 47.8717L574.622 49.391ZM579.916 52.4919C579.617 52.0275 578.998 51.8934 578.534 52.1924C578.069 52.4913 577.935 53.1101 578.234 53.5745L579.916 52.4919ZM578.721 54.3666C579 54.8431 579.613 55.0029 580.089 54.7236C580.565 54.4443 580.725 53.8316 580.446 53.3552L578.721 54.3666ZM582.912 58.8583C582.736 58.3348 582.169 58.0531 581.646 58.229C581.122 58.405 580.84 58.9721 581.016 59.4956L582.912 58.8583ZM581.305 60.3967C581.467 60.9249 582.026 61.2221 582.554 61.0607C583.082 60.8992 583.379 60.3402 583.218 59.812L581.305 60.3967ZM584.553 65.6261C584.463 65.0811 583.949 64.7117 583.404 64.8012C582.859 64.8906 582.49 65.4048 582.579 65.9499L584.553 65.6261ZM582.726 66.8974C582.805 67.4439 583.313 67.8225 583.859 67.743C584.406 67.6635 584.784 67.156 584.705 66.6094L582.726 66.8974ZM585.279 72.5026C585.249 71.9511 584.778 71.5285 584.226 71.5587C583.675 71.5889 583.252 72.0603 583.282 72.6118L585.279 72.5026ZM583.333 73.6012C583.361 74.1528 583.831 74.5768 584.383 74.5483C584.935 74.5198 585.359 74.0495 585.33 73.498L583.333 73.6012ZM585.757 79.4768C585.707 78.9268 585.221 78.5215 584.671 78.5715C584.121 78.6216 583.716 79.108 583.766 79.658L585.757 79.4768ZM583.86 80.6659C583.914 81.2156 584.403 81.6179 584.953 81.5643C585.502 81.5108 585.905 81.0219 585.851 80.4722L583.86 80.6659ZM586.543 86.4285C586.469 85.8811 585.966 85.4973 585.418 85.5711C584.871 85.6449 584.487 86.1484 584.561 86.6957L586.543 86.4285ZM584.699 87.6978C584.776 88.2447 585.282 88.6255 585.829 88.5484C586.376 88.4713 586.757 87.9655 586.68 87.4186L584.699 87.6978ZM587.623 93.3422C587.527 92.7985 587.007 92.4359 586.464 92.5325C585.92 92.629 585.557 93.1481 585.654 93.6919L587.623 93.3422ZM585.834 94.687C585.933 95.2302 586.455 95.5897 586.998 95.4899C587.541 95.3902 587.901 94.869 587.801 94.3258L585.834 94.687ZM588.988 100.205C588.869 99.6655 588.335 99.3246 587.796 99.4434C587.256 99.5621 586.916 100.096 587.034 100.635L588.988 100.205ZM587.255 101.623C587.377 102.162 587.912 102.5 588.451 102.378C588.99 102.256 589.328 101.72 589.206 101.182L587.255 101.623ZM590.634 107.007C590.493 106.473 589.945 106.155 589.411 106.296C588.877 106.437 588.559 106.984 588.7 107.518L590.634 107.007ZM588.961 108.495C589.106 109.029 589.655 109.344 590.188 109.199C590.721 109.055 591.036 108.506 590.892 107.973L588.961 108.495ZM592.566 113.731C592.401 113.204 591.841 112.909 591.314 113.073C590.786 113.238 590.492 113.798 590.656 114.325L592.566 113.731ZM590.96 115.29C591.128 115.816 591.69 116.107 592.216 115.939C592.742 115.772 593.033 115.209 592.866 114.683L590.96 115.29ZM594.8 120.355C594.611 119.836 594.037 119.569 593.518 119.758C592.999 119.948 592.732 120.522 592.922 121.041L594.8 120.355ZM593.274 122.006C593.459 122.527 594.031 122.798 594.551 122.613C595.071 122.428 595.343 121.856 595.158 121.336L593.274 122.006ZM596.96 127.621C596.837 127.082 596.302 126.745 595.763 126.867C595.224 126.99 594.887 127.526 595.01 128.064L596.96 127.621ZM595.235 129.095C595.349 129.635 595.88 129.981 596.42 129.867C596.961 129.752 597.306 129.222 597.192 128.682L595.235 129.095ZM598.289 135.081C598.213 134.534 597.708 134.152 597.161 134.228C596.614 134.304 596.232 134.809 596.308 135.356L598.289 135.081ZM596.45 136.409C596.522 136.957 597.024 137.342 597.571 137.271C598.119 137.199 598.505 136.697 598.433 136.149L596.45 136.409ZM599.179 142.55C599.119 142.001 598.625 141.605 598.076 141.666C597.527 141.726 597.131 142.22 597.191 142.769L599.179 142.55ZM597.309 143.834C597.37 144.382 597.864 144.778 598.413 144.717C598.962 144.656 599.358 144.161 599.297 143.613L597.309 143.834ZM600.112 149.937C600.025 149.392 599.512 149.021 598.966 149.108C598.421 149.196 598.05 149.709 598.138 150.254L600.112 149.937ZM598.319 151.327C598.416 151.871 598.936 152.233 599.479 152.136C600.023 152.039 600.385 151.519 600.288 150.976L598.319 151.327ZM601.901 156.961C601.69 156.45 601.106 156.207 600.595 156.417C600.085 156.627 599.841 157.211 600.051 157.722L601.901 156.961ZM600.508 158.754C600.74 159.255 601.335 159.472 601.836 159.239C602.337 159.006 602.554 158.412 602.321 157.911L600.508 158.754ZM605.639 163.227C605.282 162.806 604.65 162.754 604.229 163.111C603.808 163.469 603.757 164.1 604.114 164.521L605.639 163.227ZM604.868 165.37C605.244 165.775 605.876 165.799 606.281 165.424C606.686 165.048 606.71 164.415 606.335 164.01L604.868 165.37ZM611.051 168.416C610.636 168.052 610.004 168.094 609.64 168.509C609.276 168.925 609.318 169.557 609.734 169.92L611.051 168.416ZM610.556 170.639C610.972 171.003 611.603 170.96 611.967 170.544C612.33 170.129 612.288 169.497 611.872 169.133L610.556 170.639ZM616.786 173.505C616.378 173.133 615.745 173.162 615.373 173.57C615.001 173.978 615.029 174.61 615.437 174.983L616.786 173.505ZM616.237 175.716C616.643 176.091 617.276 176.065 617.65 175.659C618.025 175.253 617.999 174.62 617.593 174.246L616.237 175.716ZM622.371 178.781C621.975 178.395 621.342 178.403 620.957 178.798C620.571 179.193 620.579 179.826 620.974 180.212L622.371 178.781ZM621.719 180.941C622.113 181.328 622.746 181.322 623.133 180.928C623.519 180.534 623.513 179.901 623.119 179.514L621.719 180.941ZM627.236 183.587C626.846 183.197 626.213 183.196 625.822 183.587C625.431 183.977 625.431 184.61 625.821 185.001L627.236 183.587ZM626.5 185.682C626.889 186.074 627.522 186.076 627.914 185.686C628.306 185.297 628.308 184.664 627.918 184.272L626.5 185.682ZM631.964 188.438C631.585 188.036 630.952 188.018 630.55 188.397C630.148 188.776 630.13 189.409 630.509 189.81L631.964 188.438ZM631.161 190.506C631.537 190.91 632.17 190.933 632.574 190.556C632.978 190.18 633.001 189.547 632.624 189.143L631.161 190.506ZM636.496 193.513C636.142 193.089 635.512 193.032 635.087 193.386C634.663 193.739 634.606 194.37 634.96 194.794L636.496 193.513ZM635.565 195.529C635.913 195.957 636.543 196.022 636.971 195.674C637.4 195.325 637.465 194.695 637.116 194.267L635.565 195.529ZM640.618 198.978C640.31 198.519 639.689 198.397 639.23 198.705C638.771 199.012 638.649 199.634 638.957 200.092L640.618 198.978ZM639.477 200.882C639.777 201.346 640.396 201.479 640.86 201.18C641.324 200.88 641.457 200.261 641.157 199.797L639.477 200.882ZM644.083 204.901C643.834 204.408 643.232 204.211 642.739 204.461C642.247 204.71 642.05 205.312 642.299 205.805L644.083 204.901ZM642.72 206.653C642.962 207.149 643.56 207.356 644.057 207.114C644.553 206.873 644.76 206.274 644.518 205.778L642.72 206.653ZM646.857 211.148C646.655 210.634 646.075 210.381 645.561 210.582C645.047 210.784 644.793 211.364 644.995 211.878L646.857 211.148ZM645.357 212.816C645.553 213.332 646.13 213.592 646.647 213.396C647.163 213.2 647.423 212.622 647.226 212.106L645.357 212.816ZM649.401 218.1C649.213 217.58 648.64 217.311 648.121 217.499C647.601 217.687 647.332 218.26 647.52 218.779L649.401 218.1ZM647.885 219.781C648.075 220.299 648.649 220.565 649.168 220.375C649.686 220.184 649.952 219.61 649.762 219.091L647.885 219.781ZM652.105 224.928C651.879 224.424 651.287 224.199 650.783 224.426C650.28 224.652 650.055 225.244 650.281 225.748L652.105 224.928ZM650.73 226.726C650.965 227.225 651.561 227.44 652.061 227.205C652.561 226.97 652.775 226.374 652.54 225.875L650.73 226.726ZM655.522 231.347C655.227 230.88 654.61 230.74 654.143 231.035C653.676 231.329 653.536 231.947 653.831 232.414L655.522 231.347ZM654.42 233.325C654.725 233.786 655.346 233.912 655.806 233.606C656.266 233.301 656.392 232.681 656.087 232.22L654.42 233.325ZM659.867 237.163C659.503 236.748 658.871 236.706 658.456 237.07C658.04 237.433 657.999 238.065 658.362 238.481L659.867 237.163ZM659.079 239.282C659.452 239.69 660.084 239.718 660.492 239.346C660.9 238.973 660.928 238.341 660.556 237.933L659.079 239.282ZM665.037 242.282C664.62 241.92 663.988 241.966 663.626 242.383C663.265 242.8 663.31 243.432 663.727 243.794L665.037 242.282ZM664.543 244.488C664.967 244.843 665.598 244.787 665.952 244.363C666.306 243.94 666.25 243.309 665.827 242.955L664.543 244.488ZM670.818 246.742C670.364 246.428 669.741 246.541 669.427 246.996C669.113 247.45 669.227 248.073 669.681 248.387L670.818 246.742ZM670.572 248.994C671.03 249.302 671.651 249.18 671.959 248.721C672.267 248.263 672.145 247.642 671.687 247.334L670.572 248.994ZM677.03 250.646C676.551 250.371 675.939 250.536 675.665 251.015C675.39 251.494 675.555 252.105 676.034 252.38L677.03 250.646ZM12.6031 510.358C12.5027 510.238 12.3986 510.105 12.2921 509.959L10.6771 511.139C10.808 511.318 10.9393 511.486 11.0699 511.642L12.6031 510.358ZM9.88944 504.01C9.8232 503.661 9.76527 503.301 9.71693 502.931L7.73379 503.191C7.78715 503.599 7.85118 503.997 7.92453 504.383L9.88944 504.01ZM9.92309 496.367C9.98893 496.011 10.0643 495.65 10.1497 495.284L8.20202 494.829C8.10958 495.225 8.0279 495.617 7.95641 496.004L9.92309 496.367ZM12.4608 489.053C12.545 488.888 12.6315 488.721 12.7201 488.554L10.9529 487.617C10.8589 487.795 10.7672 487.971 10.6776 488.148L12.4608 489.053ZM12.7201 488.554C12.7989 488.405 12.8784 488.257 12.9585 488.109L11.2007 487.155C11.1174 487.309 11.0348 487.463 10.9529 487.617L12.7201 488.554ZM16.1333 482.96C16.3252 482.682 16.5187 482.406 16.7138 482.133L15.0859 480.971C14.8848 481.253 14.6852 481.537 14.4873 481.824L16.1333 482.96ZM20.4517 477.343C20.6714 477.083 20.8915 476.826 21.1118 476.572L19.5999 475.263C19.3746 475.523 19.1494 475.786 18.9246 476.052L20.4517 477.343ZM25.2436 472.083C25.4822 471.837 25.7194 471.594 25.9549 471.355L24.5291 469.952C24.2906 470.195 24.0502 470.441 23.8082 470.69L25.2436 472.083ZM30.3212 467.03C30.5716 466.784 30.8165 466.543 31.0552 466.308L29.6491 464.885C29.4128 465.119 29.1697 465.358 28.9203 465.603L30.3212 467.03ZM35.3025 461.572C35.4137 461.4 35.5157 461.228 35.6063 461.058L33.8412 460.118C33.7811 460.231 33.7087 460.353 33.6232 460.485L35.3025 461.572ZM35.6063 461.058C35.6797 460.921 35.7569 460.772 35.8374 460.614L34.0544 459.708C33.9795 459.855 33.9082 459.992 33.8412 460.118L35.6063 461.058ZM38.1027 455.139C38.2053 454.833 38.3068 454.52 38.4065 454.2L36.4968 453.605C36.4016 453.911 36.3047 454.21 36.2067 454.502L38.1027 455.139ZM39.7718 448.433C39.8239 448.109 39.8723 447.782 39.9165 447.452L37.9342 447.186C37.8924 447.499 37.8466 447.808 37.7972 448.115L39.7718 448.433ZM40.1905 441.497C40.1747 441.166 40.1532 440.834 40.1257 440.501L38.1325 440.665C38.158 440.975 38.178 441.284 38.1928 441.593L40.1905 441.497ZM38.9644 434.61C38.8614 434.292 38.7514 433.975 38.6339 433.659L36.759 434.356C36.8666 434.645 36.9675 434.936 37.062 435.227L38.9644 434.61ZM35.8254 428.326C35.7284 428.189 35.6295 428.051 35.5286 427.915L33.9188 429.101C34.0112 429.227 34.1018 429.352 34.1907 429.478L35.8254 428.326ZM35.5286 427.915C35.4254 427.774 35.3217 427.635 35.2176 427.497L33.6196 428.7C33.7198 428.833 33.8195 428.967 33.9188 429.101L35.5286 427.915ZM31.2222 422.748C30.9872 422.496 30.7511 422.245 30.5139 421.997L29.0687 423.38C29.2996 423.621 29.5293 423.865 29.7576 424.11L31.2222 422.748ZM26.104 417.69C25.8534 417.458 25.6025 417.227 25.3515 416.997L24.0006 418.472C24.2493 418.699 24.4974 418.928 24.7449 419.157L26.104 417.69ZM20.8192 412.899C20.5689 412.671 20.3192 412.444 20.0702 412.216L18.7197 413.691C18.9712 413.921 19.2229 414.151 19.4749 414.379L20.8192 412.899ZM15.7013 408.029C15.467 407.79 15.2341 407.55 15.0027 407.307L13.5561 408.688C13.794 408.938 14.0332 409.185 14.2735 409.43L15.7013 408.029ZM11.0773 402.772C10.8745 402.51 10.6736 402.245 10.4748 401.977L8.86866 403.169C9.07572 403.448 9.28475 403.724 9.49564 403.996L11.0773 402.772ZM7.23474 396.964C7.15396 396.818 7.07373 396.672 6.99407 396.525L5.23502 397.476C5.31827 397.63 5.40212 397.783 5.48656 397.935L7.23474 396.964ZM6.99407 396.525C6.91512 396.379 6.83721 396.232 6.76032 396.084L4.98581 397.007C5.06772 397.164 5.15078 397.321 5.23502 397.476L6.99407 396.525ZM4.46786 390.508C4.3657 390.188 4.26699 389.866 4.17168 389.54L2.25249 390.103C2.3522 390.443 2.45558 390.781 2.56269 391.116L4.46786 390.508ZM2.83858 383.608C2.78404 383.275 2.73233 382.94 2.6834 382.604L0.704279 382.892C0.754878 383.24 0.808381 383.586 0.864846 383.931L2.83858 383.608ZM2.09673 376.521C2.07943 376.182 2.06451 375.842 2.05192 375.501L0.0532885 375.575C0.0662158 375.925 0.0815417 376.274 0.0993173 376.623L2.09673 376.521ZM2.0661 369.372C2.07967 369.032 2.09529 368.691 2.1129 368.351L0.115573 368.247C0.0975554 368.595 0.0815746 368.944 0.0676802 369.293L2.0661 369.372ZM2.64159 362.236C2.68259 361.897 2.72537 361.558 2.7699 361.221L0.787106 360.959C0.741611 361.304 0.697893 361.649 0.656005 361.996L2.64159 362.236ZM3.7777 355.165C3.84555 354.829 3.915 354.495 3.98599 354.163L2.0303 353.745C1.95767 354.084 1.88661 354.426 1.81721 354.77L3.7777 355.165ZM5.4944 348.224C5.54272 348.062 5.59139 347.901 5.64038 347.74L3.72779 347.156C3.67734 347.321 3.62725 347.487 3.57753 347.654L5.4944 348.224ZM5.64038 347.74C5.69206 347.571 5.7436 347.403 5.79502 347.234L3.88216 346.65C3.83082 346.818 3.77936 346.987 3.72779 347.156L5.64038 347.74ZM7.64372 341.185C7.74781 340.848 7.85182 340.513 7.95583 340.18L6.04654 339.584C5.94199 339.919 5.83749 340.256 5.73297 340.594L7.64372 341.185ZM9.90472 334.187C10.0189 333.855 10.1335 333.525 10.2488 333.197L8.36217 332.533C8.24515 332.866 8.12884 333.201 8.01317 333.538L9.90472 334.187ZM12.5016 327.354C12.639 327.034 12.7777 326.716 12.9179 326.402L11.0918 325.587C10.9472 325.91 10.8044 326.237 10.6631 326.567L12.5016 327.354ZM15.7718 320.902C15.9516 320.607 16.1341 320.318 16.3193 320.034L14.6435 318.942C14.4475 319.243 14.2549 319.548 14.0654 319.858L15.7718 320.902ZM20.1593 315.303C20.2803 315.186 20.4024 315.07 20.5256 314.956L19.1681 313.488C19.0337 313.612 18.9006 313.738 18.7688 313.865L20.1593 315.303ZM20.5256 314.956C20.641 314.85 20.7575 314.742 20.8751 314.633L19.5173 313.165C19.3999 313.273 19.2836 313.381 19.1681 313.488L20.5256 314.956ZM25.0932 310.683C25.323 310.463 25.5547 310.241 25.7879 310.016L24.4 308.576C24.1691 308.799 23.9396 309.019 23.7117 309.237L25.0932 310.683ZM29.8941 305.931C30.1172 305.701 30.3409 305.469 30.5648 305.235L29.12 303.852C28.8992 304.083 28.6786 304.312 28.4585 304.539L29.8941 305.931ZM34.4851 300.953C34.6966 300.71 34.9077 300.466 35.1183 300.22L33.5997 298.919C33.393 299.16 33.1857 299.4 32.9779 299.638L34.4851 300.953ZM38.7765 295.696C38.9719 295.439 39.1661 295.18 39.3591 294.92L37.7528 293.728C37.5643 293.982 37.3744 294.235 37.1835 294.487L38.7765 295.696ZM42.6621 290.112C42.8353 289.837 43.0068 289.562 43.1763 289.285L41.4704 288.241C41.3058 288.509 41.1393 288.777 40.971 289.044L42.6621 290.112ZM45.9989 284.158C46.0704 284.012 46.1412 283.865 46.2114 283.719L44.4067 282.856C44.3391 282.998 44.2708 283.139 44.2018 283.281L45.9989 284.158ZM46.2114 283.719C46.2784 283.578 46.3458 283.438 46.4137 283.298L44.6137 282.426C44.5443 282.569 44.4753 282.713 44.4067 282.856L46.2114 283.719ZM49.0187 278.341C49.1725 278.07 49.3276 277.801 49.4841 277.532L47.756 276.525C47.5958 276.8 47.4371 277.076 47.2797 277.353L49.0187 278.341ZM52.4631 272.793C52.6377 272.535 52.8135 272.279 52.9904 272.025L51.3481 270.883C51.1667 271.144 50.9864 271.407 50.8074 271.671L52.4631 272.793ZM56.3488 267.556C56.5452 267.315 56.7426 267.076 56.9409 266.839L55.4074 265.555C55.2032 265.799 55 266.045 54.7979 266.293L56.3488 267.556ZM60.705 262.73C60.9256 262.511 61.1469 262.295 61.3688 262.082L59.985 260.638C59.7546 260.859 59.525 261.083 59.2963 261.31L60.705 262.73ZM65.5854 258.49C65.8328 258.305 66.0806 258.125 66.3286 257.949L65.1718 256.317C64.9103 256.503 64.6493 256.693 64.3891 256.887L65.5854 258.49ZM71.0502 255.173C71.1873 255.109 71.3244 255.047 71.4614 254.986L70.6533 253.157C70.5048 253.222 70.3565 253.29 70.2083 253.358L71.0502 255.173ZM71.4614 254.986C71.6095 254.921 71.7616 254.855 71.9177 254.788L71.134 252.948C70.9703 253.018 70.8101 253.088 70.6533 253.157L71.4614 254.986ZM77.7088 252.615C78.031 252.503 78.3587 252.39 78.6915 252.276L78.0413 250.385C77.7067 250.5 77.3768 250.614 77.052 250.726L77.7088 252.615ZM84.6097 250.264C84.9379 250.152 85.2684 250.039 85.6011 249.925L84.952 248.033C84.6206 248.147 84.2913 248.259 83.9641 248.371L84.6097 250.264ZM91.5133 247.838C91.8403 247.718 92.168 247.597 92.4964 247.475L91.8001 245.6C91.4749 245.721 91.1502 245.841 90.8261 245.959L91.5133 247.838ZM98.3536 245.181C98.6768 245.046 98.9997 244.911 99.3219 244.774L98.5397 242.933C98.2226 243.068 97.9047 243.202 97.5862 243.334L98.3536 245.181ZM105.059 242.142C105.375 241.984 105.689 241.825 106.001 241.665L105.086 239.886C104.782 240.043 104.475 240.198 104.167 240.352L105.059 242.142ZM111.507 238.513C111.807 238.321 112.104 238.126 112.397 237.928L111.281 236.269C110.999 236.458 110.714 236.645 110.425 236.831L111.507 238.513ZM117.431 233.961C117.561 233.839 117.69 233.715 117.817 233.591L116.42 232.16C116.301 232.276 116.181 232.391 116.059 232.506L117.431 233.961ZM117.817 233.591C117.932 233.479 118.047 233.366 118.163 233.254L116.767 231.822C116.651 231.935 116.535 232.048 116.42 232.16L117.817 233.591ZM122.363 229.194C122.596 228.971 122.83 228.747 123.065 228.522L121.683 227.076C121.448 227.301 121.213 227.526 120.979 227.75L122.363 229.194ZM127.306 224.509C127.542 224.288 127.779 224.066 128.017 223.845L126.652 222.383C126.414 222.605 126.176 222.828 125.939 223.05L127.306 224.509ZM132.306 219.887C132.546 219.669 132.785 219.451 133.025 219.234L131.681 217.752C131.44 217.971 131.2 218.19 130.959 218.409L132.306 219.887ZM137.374 215.346C137.618 215.131 137.862 214.918 138.104 214.706L136.788 213.2C136.544 213.413 136.299 213.628 136.054 213.844L137.374 215.346ZM142.529 210.919C142.78 210.709 143.029 210.502 143.277 210.296L142.002 208.756C141.751 208.963 141.499 209.173 141.246 209.384L142.529 210.919ZM147.813 206.665C148.072 206.465 148.329 206.27 148.583 206.077L147.377 204.482C147.118 204.678 146.857 204.877 146.594 205.079L147.813 206.665ZM153.299 202.754C153.433 202.668 153.565 202.584 153.696 202.502L152.635 200.807C152.498 200.893 152.36 200.98 152.221 201.069L153.299 202.754ZM153.696 202.502C153.834 202.416 153.971 202.33 154.107 202.243L153.03 200.557C152.899 200.641 152.768 200.724 152.635 200.807L153.696 202.502ZM158.824 198.97C159.08 198.785 159.335 198.601 159.59 198.418L158.425 196.792C158.167 196.977 157.91 197.163 157.653 197.348L158.824 198.97ZM164.251 195.327C164.514 195.173 164.781 195.02 165.053 194.87L164.084 193.12C163.797 193.279 163.516 193.44 163.239 193.602L164.251 195.327ZM170.077 192.575C170.363 192.471 170.653 192.368 170.95 192.268L170.31 190.373C169.997 190.479 169.691 190.587 169.39 190.697L170.077 192.575ZM176.317 190.84C176.619 190.779 176.926 190.719 177.239 190.662L176.875 188.695C176.551 188.755 176.233 188.817 175.919 188.88L176.317 190.84ZM182.776 189.893C183.085 189.863 183.399 189.834 183.717 189.806L183.545 187.814C183.219 187.842 182.898 187.871 182.581 187.903L182.776 189.893ZM189.331 189.491C189.49 189.487 189.65 189.483 189.81 189.479L189.761 187.479C189.597 187.483 189.435 187.488 189.273 187.492L189.331 189.491ZM189.81 189.479C189.967 189.475 190.122 189.471 190.277 189.468L190.234 187.468C190.077 187.472 189.919 187.475 189.761 187.479L189.81 189.479ZM195.788 189.456C196.1 189.462 196.408 189.469 196.714 189.477L196.765 187.477C196.454 187.469 196.141 187.463 195.825 187.457L195.788 189.456ZM202.216 189.741C202.523 189.763 202.827 189.786 203.126 189.81L203.285 187.816C202.98 187.792 202.671 187.769 202.359 187.746L202.216 189.741ZM208.604 190.382C208.913 190.422 209.216 190.463 209.516 190.505L209.79 188.523C209.485 188.481 209.176 188.44 208.862 188.399L208.604 190.382ZM214.954 191.382C215.262 191.438 215.565 191.493 215.862 191.549L216.229 189.583C215.928 189.527 215.622 189.47 215.311 189.414L214.954 191.382ZM221.339 192.572C221.655 192.625 221.964 192.676 222.269 192.723L222.573 190.746C222.281 190.701 221.981 190.652 221.675 190.6L221.339 192.572ZM228.075 192.975C228.242 192.954 228.407 192.93 228.572 192.902L228.243 190.93C228.105 190.953 227.966 190.973 227.826 190.991L228.075 192.975ZM228.572 192.902C228.749 192.873 228.926 192.836 229.103 192.792L228.621 190.851C228.491 190.883 228.365 190.909 228.243 190.93L228.572 192.902ZM234.372 189.953C234.625 189.762 234.879 189.564 235.133 189.359L233.881 187.8C233.64 187.993 233.401 188.18 233.164 188.359L234.372 189.953ZM239.376 185.52C239.599 185.299 239.823 185.075 240.046 184.849L238.623 183.443C238.405 183.664 238.187 183.883 237.969 184.099L239.376 185.52ZM243.925 180.721C244.136 180.487 244.346 180.254 244.554 180.02L243.063 178.688C242.857 178.919 242.649 179.15 242.44 179.381L243.925 180.721ZM248.267 175.778C248.474 175.538 248.679 175.302 248.879 175.069L247.366 173.762C247.165 173.995 246.961 174.231 246.754 174.47L248.267 175.778ZM252.572 170.877C252.677 170.763 252.78 170.654 252.88 170.548L251.427 169.173C251.322 169.284 251.215 169.399 251.105 169.517L252.572 170.877ZM252.88 170.548C252.997 170.424 253.117 170.299 253.24 170.173L251.807 168.778C251.678 168.911 251.551 169.042 251.427 169.173L252.88 170.548ZM257.901 165.863C258.167 165.633 258.437 165.402 258.711 165.168L257.414 163.646C257.137 163.882 256.863 164.116 256.594 164.349L257.901 165.863ZM263.642 161.057C263.917 160.83 264.193 160.602 264.47 160.373L263.196 158.831C262.919 159.06 262.644 159.287 262.369 159.514L263.642 161.057ZM269.42 156.234C269.694 156.001 269.967 155.767 270.238 155.532L268.932 154.018C268.663 154.25 268.393 154.481 268.122 154.713L269.42 156.234ZM275.058 151.191C275.189 151.067 275.319 150.942 275.448 150.817L274.061 149.377C273.935 149.499 273.807 149.621 273.679 149.743L275.058 151.191ZM275.448 150.817C275.574 150.696 275.702 150.573 275.832 150.448L274.444 149.008C274.314 149.133 274.187 149.256 274.061 149.377L275.448 150.817ZM280.477 145.931C280.732 145.681 280.989 145.429 281.248 145.173L279.845 143.748C279.587 144.003 279.33 144.255 279.077 144.504L280.477 145.931ZM285.839 140.601C286.092 140.345 286.345 140.089 286.599 139.833L285.175 138.428C284.923 138.684 284.671 138.939 284.419 139.193L285.839 140.601ZM291.115 135.176C291.365 134.914 291.613 134.652 291.859 134.391L290.405 133.018C290.16 133.277 289.914 133.537 289.666 133.798L291.115 135.176ZM296.249 129.593C296.493 129.317 296.731 129.044 296.964 128.774L295.451 127.466C295.222 127.731 294.988 127.999 294.748 128.272L296.249 129.593ZM301.042 123.603C301.148 123.444 301.25 123.288 301.347 123.136L299.659 122.063C299.572 122.2 299.48 122.341 299.382 122.487L301.042 123.603ZM301.347 123.136C301.433 123.001 301.519 122.867 301.605 122.732L299.921 121.652C299.834 121.789 299.746 121.926 299.659 122.063L301.347 123.136ZM304.889 118.085C305.084 117.842 305.284 117.601 305.487 117.36L303.962 116.067C303.747 116.321 303.536 116.576 303.33 116.832L304.889 118.085ZM309.479 113.415C309.717 113.219 309.961 113.024 310.212 112.831L308.988 111.248C308.722 111.454 308.462 111.661 308.208 111.87L309.479 113.415ZM314.941 109.78C315.214 109.633 315.492 109.488 315.776 109.343L314.87 107.56C314.572 107.712 314.28 107.865 313.993 108.019L314.941 109.78ZM320.988 107.092C321.137 107.037 321.287 106.982 321.438 106.928L320.765 105.045C320.608 105.101 320.453 105.157 320.298 105.214L320.988 107.092ZM321.438 106.928C321.593 106.873 321.748 106.817 321.902 106.76L321.21 104.883C321.062 104.938 320.913 104.992 320.765 105.045L321.438 106.928ZM327.334 104.42C327.629 104.276 327.922 104.129 328.214 103.981L327.308 102.198C327.024 102.342 326.74 102.484 326.454 102.624L327.334 104.42ZM333.354 101.101C333.634 100.93 333.912 100.758 334.188 100.585L333.125 98.8903C332.856 99.0595 332.584 99.2276 332.311 99.3945L333.354 101.101ZM339.062 97.2969C339.329 97.1043 339.592 96.9116 339.853 96.7191L338.665 95.1101C338.41 95.2986 338.152 95.4872 337.891 95.6757L339.062 97.2969ZM344.467 93.0828C344.721 92.8689 344.97 92.6569 345.214 92.447L343.908 90.9317C343.671 91.1366 343.428 91.3436 343.179 91.5526L344.467 93.0828ZM349.528 88.4104C349.644 88.2892 349.758 88.1702 349.867 88.0536L348.41 86.6837C348.306 86.7941 348.199 86.907 348.088 87.0224L349.528 88.4104ZM349.867 88.0536C349.964 87.951 350.074 87.8345 350.199 87.7048L348.754 86.3212C348.627 86.4544 348.512 86.5755 348.41 86.6837L349.867 88.0536ZM354.532 83.3245C354.771 83.0859 355.018 82.841 355.271 82.59L353.862 81.1703C353.609 81.4219 353.361 81.6676 353.121 81.9069L354.532 83.3245ZM359.67 78.2586C359.911 78.0227 360.155 77.7842 360.402 77.5434L359.005 76.112C358.758 76.3533 358.513 76.5923 358.271 76.8287L359.67 78.2586ZM364.839 73.2389C365.084 73.0025 365.331 72.7649 365.579 72.5263L364.192 71.0852C363.944 71.3243 363.696 71.5624 363.451 71.7992L364.839 73.2389ZM370.046 68.2537C370.294 68.0183 370.542 67.7826 370.791 67.5467L369.415 66.0954C369.165 66.3318 368.916 66.568 368.668 66.8039L370.046 68.2537ZM375.288 63.313C375.539 63.0785 375.79 62.8445 376.041 62.6109L374.678 61.1474C374.426 61.3816 374.175 61.6163 373.923 61.8514L375.288 63.313ZM380.58 58.4232C380.833 58.1923 381.085 57.9626 381.336 57.7343L379.99 56.2546C379.738 56.4839 379.485 56.7144 379.231 56.9462L380.58 58.4232ZM385.934 53.6113C386.191 53.3849 386.446 53.161 386.698 52.9397L385.38 51.4355C385.126 51.6582 384.87 51.8836 384.612 52.1113L385.934 53.6113ZM391.38 48.9421C391.652 48.7179 391.918 48.4993 392.18 48.2866L390.918 46.735C390.652 46.9511 390.382 47.1729 390.107 47.4001L391.38 48.9421ZM397.041 44.6462C397.177 44.5582 397.309 44.4761 397.435 44.3997L396.397 42.6898C396.256 42.7758 396.11 42.867 395.96 42.9631L397.041 44.6462ZM397.435 44.3997C397.583 44.31 397.732 44.2207 397.883 44.1318L396.869 42.408C396.71 42.5013 396.553 42.5953 396.397 42.6898L397.435 44.3997ZM403.55 41.2444C403.872 41.0981 404.197 40.9524 404.525 40.8072L403.715 38.9784C403.382 39.126 403.051 39.2743 402.723 39.4236L403.55 41.2444ZM410.459 38.3092C410.791 38.1737 411.124 38.0381 411.457 37.9021L410.701 36.0502C410.368 36.1862 410.035 36.3221 409.703 36.4578L410.459 38.3092ZM417.448 35.4133C417.78 35.2701 418.112 35.1259 418.443 34.9807L417.639 33.1494C417.313 33.2926 416.985 33.4349 416.657 33.5764L417.448 35.4133ZM424.343 32.1664C424.668 31.9953 424.99 31.8221 425.308 31.6469L424.344 29.8945C424.037 30.0638 423.725 30.2313 423.411 30.3972L424.343 32.1664ZM430.868 28.0545C431.015 27.9406 431.16 27.8257 431.303 27.7098L430.047 26.1537C429.913 26.2618 429.777 26.3691 429.64 26.4757L430.868 28.0545ZM431.303 27.7098C431.432 27.6054 431.563 27.5001 431.694 27.3939L430.434 25.8404C430.304 25.9458 430.175 26.0503 430.047 26.1537L431.303 27.7098ZM436.383 23.5512C436.64 23.3398 436.9 23.127 437.162 22.9129L435.897 21.3642C435.634 21.5792 435.373 21.7927 435.115 22.0045L436.383 23.5512ZM441.87 19.1314C442.132 18.9255 442.396 18.7194 442.661 18.5133L441.434 16.9343C441.166 17.1425 440.9 17.3505 440.635 17.5583L441.87 19.1314ZM447.476 14.9019C447.747 14.707 448.019 14.513 448.291 14.3198L447.136 12.6875C446.859 12.8837 446.583 13.0807 446.308 13.2785L447.476 14.9019ZM453.278 10.9843C453.56 10.8074 453.843 10.6323 454.126 10.4591L453.083 8.75265C452.793 8.92989 452.504 9.10897 452.215 9.28973L453.278 10.9843ZM459.339 7.544C459.635 7.39481 459.932 7.24849 460.229 7.10517L459.359 5.3042C459.052 5.45245 458.746 5.60366 458.44 5.75768L459.339 7.544ZM465.709 4.8367C465.864 4.7839 466.019 4.73216 466.175 4.68151L465.554 2.78026C465.391 2.83348 465.228 2.88779 465.065 2.94317L465.709 4.8367ZM466.175 4.68151C466.319 4.63434 466.463 4.58778 466.607 4.54182L465.998 2.63667C465.85 2.68393 465.702 2.7318 465.554 2.78026L466.175 4.68151ZM471.825 3.11591C472.119 3.05007 472.413 2.9871 472.705 2.92699L472.302 0.967971C471.998 1.03044 471.694 1.09584 471.388 1.16416L471.825 3.11591ZM478.027 2.1457C478.325 2.12037 478.622 2.09831 478.919 2.07956L478.793 0.0835399C478.482 0.103215 478.17 0.12634 477.858 0.152888L478.027 2.1457ZM484.278 2.10626C484.575 2.12841 484.871 2.15406 485.168 2.18322L485.364 0.192813C485.052 0.162125 484.739 0.135133 484.427 0.111814L484.278 2.10626ZM490.454 3.07377C490.743 3.14266 491.033 3.21495 491.323 3.29066L491.828 1.35542C491.524 1.27615 491.22 1.20043 490.917 1.12823L490.454 3.07377ZM496.442 4.95623C496.719 5.06391 496.998 5.17465 497.277 5.28849L498.032 3.4364C497.742 3.31838 497.453 3.20347 497.165 3.09167L496.442 4.95623ZM502.189 7.55852C502.323 7.62766 502.458 7.69748 502.593 7.76798L503.519 5.99527C503.38 5.9228 503.242 5.85102 503.104 5.77991L502.189 7.55852ZM502.593 7.76798C502.738 7.84354 502.882 7.91989 503.027 7.99702L503.968 6.23224C503.819 6.15248 503.669 6.07348 503.519 5.99527L502.593 7.76798ZM508.123 11.018C508.399 11.1973 508.675 11.3787 508.95 11.562L510.059 9.89729C509.777 9.70967 509.495 9.52395 509.212 9.34025L508.123 11.018ZM513.797 15.0143C514.061 15.214 514.325 15.4149 514.587 15.6168L515.807 14.0319C515.54 13.8267 515.272 13.6223 515.004 13.4191L513.797 15.0143ZM519.231 19.3638C519.486 19.5781 519.739 19.7926 519.99 20.0072L521.288 18.4855C521.033 18.2682 520.777 18.051 520.519 17.834L519.231 19.3638ZM524.474 23.9634C524.721 24.1882 524.967 24.4122 525.209 24.6353L526.562 23.162C526.317 22.937 526.07 22.711 525.82 22.4841L524.474 23.9634ZM529.577 28.7384C529.821 28.9722 530.062 29.2032 530.299 29.4313L531.686 27.9901C531.448 27.7611 531.206 27.5289 530.961 27.294L529.577 28.7384ZM534.621 33.6117C534.742 33.7283 534.861 33.843 534.979 33.9555L536.362 32.511C536.246 32.3996 536.128 32.286 536.007 32.1702L534.621 33.6117ZM534.979 33.9555C535.108 34.0791 535.237 34.2016 535.365 34.3232L536.74 32.8708C536.615 32.752 536.489 32.6321 536.362 32.511L534.979 33.9555ZM540.288 38.4706C540.582 38.6812 540.879 38.8868 541.181 39.0875L542.289 37.4226C542.007 37.235 541.729 37.0424 541.453 36.8447L540.288 38.4706ZM546.979 42.0637C547.313 42.1902 547.654 42.3125 548.002 42.4307L548.645 40.5369C548.318 40.426 547.999 40.3114 547.686 40.1931L546.979 42.0637ZM554.27 43.9728C554.616 44.0315 554.968 44.0877 555.327 44.1415L555.624 42.1636C555.277 42.1117 554.938 42.0575 554.605 42.001L554.27 43.9728ZM561.682 44.7965C561.86 44.8079 562.038 44.8189 562.218 44.8295L562.336 42.8329C562.159 42.8225 561.984 42.8118 561.81 42.8006L561.682 44.7965ZM562.218 44.8295C562.378 44.8388 562.536 44.8494 562.693 44.8612L562.842 42.8667C562.674 42.8542 562.506 42.8429 562.336 42.8329L562.218 44.8295ZM568.192 45.8766C568.49 45.9701 568.783 46.0695 569.071 46.1745L569.756 44.2956C569.439 44.1799 569.117 44.0708 568.79 43.9682L568.192 45.8766ZM573.908 48.8114C574.151 48.9983 574.389 49.1915 574.622 49.391L575.923 47.8717C575.663 47.6494 575.397 47.434 575.126 47.2256L573.908 48.8114ZM578.234 53.5745C578.4 53.8329 578.562 54.0969 578.721 54.3666L580.446 53.3552C580.274 53.0619 580.097 52.7742 579.916 52.4919L578.234 53.5745ZM581.016 59.4956C581.116 59.7916 581.212 60.092 581.305 60.3967L583.218 59.812C583.119 59.4901 583.018 59.1722 582.912 58.8583L581.016 59.4956ZM582.579 65.9499C582.63 66.2624 582.679 66.5783 582.726 66.8974L584.705 66.6094C584.657 66.2787 584.606 65.9509 584.553 65.6261L582.579 65.9499ZM583.282 72.6118C583.291 72.7724 583.3 72.9336 583.307 73.0954L585.305 72.9989C585.297 72.8328 585.289 72.6674 585.279 72.5026L583.282 72.6118ZM583.307 73.0954C583.316 73.2641 583.324 73.4327 583.333 73.6012L585.33 73.498C585.321 73.3316 585.313 73.1653 585.305 72.9989L583.307 73.0954ZM583.766 79.658C583.796 79.9944 583.828 80.3303 583.86 80.6659L585.851 80.4722C585.819 80.1408 585.788 79.809 585.757 79.4768L583.766 79.658ZM584.561 86.6957C584.606 87.0303 584.652 87.3643 584.699 87.6978L586.68 87.4186C586.633 87.0891 586.588 86.7591 586.543 86.4285L584.561 86.6957ZM585.654 93.6919C585.713 94.0243 585.773 94.3561 585.834 94.687L587.801 94.3258C587.741 93.9987 587.681 93.6708 587.623 93.3422L585.654 93.6919ZM587.034 100.635C587.107 100.965 587.181 101.295 587.255 101.623L589.206 101.182C589.132 100.857 589.059 100.531 588.988 100.205L587.034 100.635ZM588.7 107.518C588.786 107.845 588.873 108.171 588.961 108.495L590.892 107.973C590.805 107.652 590.719 107.33 590.634 107.007L588.7 107.518ZM590.656 114.325C590.757 114.649 590.858 114.97 590.96 115.29L592.866 114.683C592.765 114.367 592.665 114.05 592.566 113.731L590.656 114.325ZM592.922 121.041C592.979 121.199 593.037 121.357 593.095 121.514L594.971 120.821C594.914 120.666 594.857 120.511 594.8 120.355L592.922 121.041ZM593.095 121.514C593.156 121.678 593.215 121.842 593.274 122.006L595.158 121.336C595.097 121.164 595.035 120.992 594.971 120.821L593.095 121.514ZM595.01 128.064C595.088 128.407 595.163 128.751 595.235 129.095L597.192 128.682C597.118 128.328 597.04 127.974 596.96 127.621L595.01 128.064ZM596.308 135.356C596.357 135.707 596.404 136.059 596.45 136.409L598.433 136.149C598.386 135.794 598.338 135.438 598.289 135.081L596.308 135.356ZM597.191 142.769C597.231 143.126 597.27 143.481 597.309 143.834L599.297 143.613C599.258 143.261 599.219 142.907 599.179 142.55L597.191 142.769ZM598.138 150.254C598.196 150.616 598.256 150.974 598.319 151.327L600.288 150.976C600.227 150.635 600.169 150.288 600.112 149.937L598.138 150.254ZM600.051 157.722C600.123 157.897 600.197 158.069 600.273 158.239L602.098 157.422C602.031 157.271 601.965 157.118 601.901 156.961L600.051 157.722ZM600.273 158.239C600.351 158.414 600.429 158.585 600.508 158.754L602.321 157.911C602.247 157.751 602.173 157.588 602.098 157.422L600.273 158.239ZM604.114 164.521C604.358 164.808 604.609 165.09 604.868 165.37L606.335 164.01C606.094 163.75 605.862 163.49 605.639 163.227L604.114 164.521ZM609.734 169.92C610 170.153 610.274 170.393 610.556 170.639L611.872 169.133C611.59 168.887 611.317 168.648 611.051 168.416L609.734 169.92ZM615.437 174.983C615.699 175.221 615.965 175.466 616.237 175.716L617.593 174.246C617.318 173.993 617.049 173.746 616.786 173.505L615.437 174.983ZM620.974 180.212C621.105 180.34 621.237 180.469 621.37 180.6L622.77 179.172C622.636 179.04 622.503 178.91 622.371 178.781L620.974 180.212ZM621.37 180.6C621.487 180.714 621.603 180.828 621.719 180.941L623.119 179.514C623.004 179.4 622.887 179.286 622.77 179.172L621.37 180.6ZM625.821 185.001C626.05 185.23 626.276 185.457 626.5 185.682L627.918 184.272C627.694 184.046 627.466 183.818 627.236 183.587L625.821 185.001ZM630.509 189.81C630.729 190.044 630.947 190.276 631.161 190.506L632.624 189.143C632.407 188.91 632.187 188.675 631.964 188.438L630.509 189.81ZM634.96 194.794C635.165 195.04 635.366 195.285 635.565 195.529L637.116 194.267C636.913 194.016 636.706 193.765 636.496 193.513L634.96 194.794ZM638.957 200.092C639.133 200.355 639.306 200.618 639.477 200.882L641.157 199.797C640.98 199.523 640.8 199.25 640.618 198.978L638.957 200.092ZM642.299 205.805C642.441 206.084 642.581 206.367 642.72 206.653L644.518 205.778C644.375 205.482 644.23 205.19 644.083 204.901L642.299 205.805ZM644.995 211.878C645.053 212.027 645.111 212.176 645.169 212.326L647.035 211.606C646.976 211.453 646.916 211.3 646.857 211.148L644.995 211.878ZM645.169 212.326C645.232 212.489 645.295 212.653 645.357 212.816L647.226 212.106C647.163 211.939 647.099 211.772 647.035 211.606L645.169 212.326ZM647.52 218.779C647.64 219.112 647.762 219.446 647.885 219.781L649.762 219.091C649.641 218.76 649.52 218.43 649.401 218.1L647.52 218.779ZM650.281 225.748C650.427 226.073 650.577 226.399 650.73 226.726L652.54 225.875C652.392 225.559 652.247 225.243 652.105 224.928L650.281 225.748ZM653.831 232.414C654.022 232.718 654.219 233.021 654.42 233.325L656.087 232.22C655.894 231.929 655.706 231.638 655.522 231.347L653.831 232.414ZM658.362 238.481C658.596 238.748 658.835 239.015 659.079 239.282L660.556 237.933C660.321 237.676 660.092 237.42 659.867 237.163L658.362 238.481ZM663.727 243.794C663.995 244.025 664.267 244.257 664.543 244.488L665.827 242.955C665.559 242.73 665.296 242.506 665.037 242.282L663.727 243.794ZM669.681 248.387C669.974 248.589 670.271 248.792 670.572 248.994L671.687 247.334C671.393 247.136 671.104 246.939 670.818 246.742L669.681 248.387ZM676.034 252.38C676.191 252.47 676.348 252.56 676.507 252.65L677.493 250.91C677.338 250.822 677.183 250.734 677.03 250.646L676.034 252.38Z" fill="#AAAAAA"/>
</svg>
